<?xml version="1.0" encoding="utf-8" standalone="no"?>
<!DOCTYPE svg PUBLIC "-//W3C//DTD SVG 1.1//EN"
  "http://www.w3.org/Graphics/SVG/1.1/DTD/svg11.dtd">
<!-- Created with matplotlib (https://matplotlib.org/) -->
<svg height="291.017187pt" version="1.1" viewBox="0 0 636.570312 291.017187" width="636.570312pt" xmlns="http://www.w3.org/2000/svg" xmlns:xlink="http://www.w3.org/1999/xlink">
 <defs>
  <style type="text/css">
*{stroke-linecap:butt;stroke-linejoin:round;}
  </style>
 </defs>
 <g id="figure_1">
  <g id="patch_1">
   <path d="M 0 291.017187 
L 636.570312 291.017187 
L 636.570312 0 
L 0 0 
z
" style="fill:#ffffff;"/>
  </g>
  <g id="axes_1">
   <g id="patch_2">
    <path d="M 71.51625 224.64 
L 406.31625 224.64 
L 406.31625 7.2 
L 71.51625 7.2 
z
" style="fill:#ffffff;"/>
   </g>
   <g id="line2d_1">
    <path clip-path="url(#p5e9032c91c)" d="M 86.734432 214.756364 
L 86.835903 212.808935 
L 87.140318 194.727876 
L 87.850618 152.46597 
L 88.916068 105.293874 
L 90.08299 19.933848 
L 90.184461 19.319149 
L 90.235197 19.467845 
L 90.387404 21.621013 
L 90.590347 29.060931 
L 90.996233 55.249591 
L 92.518305 159.516585 
L 92.721248 161.558414 
L 92.822719 161.149523 
L 92.974926 159.161745 
L 93.279341 151.456367 
L 94.496998 112.806151 
L 95.714656 59.798459 
L 95.816127 59.332872 
L 95.866863 59.486167 
L 96.01907 61.591391 
L 96.272749 69.123851 
L 96.72937 89.951357 
L 97.997764 147.070434 
L 98.200707 149.096699 
L 98.251442 149.09649 
L 98.403649 148.262344 
L 98.606592 145.091939 
L 99.11395 129.770891 
L 99.773514 104.284533 
L 100.585286 75.794942 
L 100.838964 72.331577 
L 100.940436 71.918236 
L 100.991172 71.94775 
L 101.143379 72.832632 
L 101.397057 77.432358 
L 101.802943 91.792632 
L 103.071336 144.707737 
L 103.274279 146.499847 
L 103.375751 145.933415 
L 103.680165 140.925789 
L 103.98458 132.706701 
L 105.05003 93.320297 
L 105.506651 78.435778 
L 105.811066 74.324875 
L 105.912537 74.270937 
L 106.014009 74.918374 
L 106.216952 78.743021 
L 106.673573 94.148359 
L 107.739023 135.203853 
L 107.992702 138.476219 
L 108.144909 138.697826 
L 108.195645 138.636645 
L 108.347852 137.709036 
L 108.550795 135.499222 
L 108.804474 130.175746 
L 109.413303 110.317176 
L 110.27581 84.465975 
L 110.478753 81.95652 
L 110.529489 81.807391 
L 110.580224 81.847712 
L 110.732431 82.522798 
L 110.935374 83.913579 
L 111.189053 87.836882 
L 111.544203 98.41609 
L 112.609653 134.0794 
L 112.914068 138.184702 
L 112.964804 138.229921 
L 113.117011 137.269101 
L 113.370689 134.439145 
L 113.827311 123.249896 
L 115.298647 82.960979 
L 115.50159 82.470976 
L 115.603061 82.745656 
L 115.806004 85.070387 
L 116.059683 90.71517 
L 116.516305 106.728767 
L 117.226605 131.560379 
L 117.581755 137.930938 
L 117.733962 138.909451 
L 117.784698 138.823736 
L 117.936905 137.43103 
L 118.241319 131.021287 
L 118.799412 113.874296 
L 119.814127 83.045668 
L 120.067806 80.810635 
L 120.169277 81.14404 
L 120.422956 84.376735 
L 120.72737 91.689887 
L 121.995763 131.864914 
L 122.300178 135.732639 
L 122.401649 136.026034 
L 122.503121 135.351251 
L 122.756799 131.324222 
L 123.213421 120.226024 
L 124.431078 89.421842 
L 124.735493 86.633851 
L 124.786228 86.557366 
L 124.836964 86.62866 
L 124.989171 86.983684 
L 125.141378 88.18518 
L 125.445793 94.172164 
L 125.95315 109.081243 
L 126.612715 128.863817 
L 126.967865 133.708652 
L 127.170808 134.240989 
L 127.272279 133.860971 
L 127.475222 131.080412 
L 127.931844 120.143749 
L 129.250972 84.956692 
L 129.504651 83.695299 
L 129.555387 83.702815 
L 129.656858 84.145816 
L 129.809065 86.242456 
L 130.164216 96.914032 
L 131.077459 126.745022 
L 131.483345 134.520185 
L 131.686287 135.578894 
L 131.787759 135.262612 
L 131.939966 133.92337 
L 132.24438 128.122426 
L 134.070867 82.384719 
L 134.172338 82.766591 
L 134.375281 84.944118 
L 134.781167 92.438091 
L 135.187053 105.313434 
L 135.998824 130.348874 
L 136.303239 133.72504 
L 136.506182 134.375671 
L 136.658389 133.580112 
L 136.861332 130.785119 
L 137.317953 119.787713 
L 138.687818 86.001446 
L 138.840025 85.633241 
L 138.941497 85.930076 
L 139.14444 87.934897 
L 139.49959 93.833518 
L 140.006947 107.73753 
L 140.615776 126.178416 
L 140.970926 132.553223 
L 141.224604 134.525828 
L 141.326076 134.233695 
L 141.478283 133.157547 
L 141.731962 129.314779 
L 142.137848 120.11569 
L 142.848148 97.357511 
L 143.406241 83.268431 
L 143.659919 81.044618 
L 143.761391 81.288053 
L 143.913598 82.517529 
L 144.167277 88.181641 
L 144.623898 102.938444 
L 145.43567 130.414624 
L 145.740084 134.70527 
L 145.841556 134.903304 
L 145.993763 134.199633 
L 146.247442 131.458887 
L 146.602592 123.451443 
L 147.921721 89.497427 
L 148.276871 86.101375 
L 148.378342 86.048089 
L 148.479814 86.409965 
L 148.733492 89.701685 
L 149.088642 97.866028 
L 150.509243 133.835333 
L 150.712186 134.508905 
L 150.813657 133.826185 
L 151.067336 129.844308 
L 151.523957 117.94682 
L 152.792351 87.170866 
L 152.893822 86.826464 
L 152.944558 86.879862 
L 153.147501 87.802687 
L 153.350444 90.111987 
L 153.654858 96.565315 
L 154.923251 129.54212 
L 155.17693 131.516071 
L 155.227666 131.499264 
L 155.329137 130.814198 
L 155.88723 122.311307 
L 156.293116 112.663805 
L 157.054152 92.843818 
L 157.409302 88.094053 
L 157.510773 87.756674 
L 157.561509 87.855609 
L 157.764452 89.31462 
L 158.170338 95.372629 
L 158.424016 101.673793 
L 159.438731 130.917176 
L 159.69241 132.977682 
L 159.793881 132.8088 
L 159.946088 131.669511 
L 160.301238 125.6524 
L 161.924782 88.489232 
L 162.229196 87.148207 
L 162.279932 87.215227 
L 162.432139 88.59314 
L 162.736553 94.706331 
L 163.446854 116.20095 
L 163.903475 127.871955 
L 164.157154 130.301171 
L 164.410832 130.966971 
L 164.512304 130.754667 
L 164.715247 129.656002 
L 164.968925 125.368795 
L 165.374811 115.452471 
L 166.33879 90.129939 
L 166.592469 88.273522 
L 166.744676 87.787323 
L 166.896883 88.293408 
L 166.998355 89.062342 
L 167.454976 97.344498 
L 168.013069 112.917517 
L 168.520426 127.315266 
L 168.824841 131.972232 
L 169.027784 132.718219 
L 169.179991 132.07837 
L 169.382934 129.759694 
L 169.78882 121.28891 
L 170.346913 105.487518 
L 170.85427 92.465601 
L 171.158684 88.288333 
L 171.361627 87.605957 
L 171.513834 88.236763 
L 171.818249 91.695609 
L 172.173399 97.860343 
L 172.63002 110.403778 
L 173.441792 130.689248 
L 173.746207 133.286303 
L 173.847678 133.422636 
L 173.999885 132.594497 
L 174.253564 129.059816 
L 174.608714 119.918675 
L 175.319014 98.198354 
L 175.978579 86.73011 
L 176.08005 86.301814 
L 176.130786 86.407712 
L 176.384464 87.755864 
L 176.587407 90.325644 
L 176.993293 99.553081 
L 177.50065 116.620279 
L 178.058743 132.443555 
L 178.312422 134.317688 
L 178.413894 134.613156 
L 178.464629 134.543624 
L 178.616836 133.772118 
L 178.870515 130.306858 
L 179.377872 118.531588 
L 180.443323 89.429898 
L 180.798473 85.180278 
L 180.95068 84.806613 
L 181.052151 85.285745 
L 181.255094 88.212189 
L 181.610244 96.772218 
L 182.878638 131.644846 
L 183.081581 132.79559 
L 183.183052 132.709811 
L 183.335259 132.058509 
L 183.588938 128.86294 
L 183.944088 121.081539 
L 184.603652 101.19383 
L 185.11101 88.480846 
L 185.415424 84.85902 
L 185.516896 84.394744 
L 185.567631 84.460489 
L 185.719838 85.907804 
L 186.125724 94.699625 
L 186.734553 111.25706 
L 187.495589 132.373443 
L 187.749268 135.039658 
L 187.800003 135.049527 
L 187.901475 134.706938 
L 188.205889 131.333658 
L 188.358096 126.259078 
L 188.662511 104.508448 
L 189.372811 52.875677 
L 189.677225 44.882765 
L 189.727961 44.584675 
L 189.778697 44.626646 
L 189.930904 46.209718 
L 190.133847 52.31604 
L 190.438261 70.947829 
L 191.04709 126.554858 
L 191.554447 165.865162 
L 191.808126 174.437495 
L 191.909597 175.035189 
L 192.011069 174.082218 
L 192.163276 169.791361 
L 192.619898 146.616518 
L 193.482405 89.591179 
L 194.091234 44.322545 
L 194.395648 35.497859 
L 194.446384 35.401892 
L 194.547855 36.264244 
L 194.750798 41.789626 
L 195.055213 58.909389 
L 195.511834 99.234044 
L 196.323606 173.499227 
L 196.577284 182.435156 
L 196.678756 183.020962 
L 196.780227 181.706348 
L 196.98317 173.779447 
L 198.302299 98.701412 
L 199.164807 32.021373 
L 199.367749 28.058328 
L 199.418485 27.992735 
L 199.519957 29.045858 
L 199.7229 35.397949 
L 200.027314 55.240708 
L 200.636143 114.24955 
L 201.295707 173.133365 
L 201.600122 183.023665 
L 201.650857 183.225724 
L 201.701593 183.056317 
L 201.803064 181.481707 
L 202.006007 173.848031 
L 203.325136 99.007197 
L 204.238379 28.679126 
L 204.441322 25.56468 
L 204.542794 26.715573 
L 204.745737 32.704782 
L 205.050151 51.282335 
L 205.506773 96.206573 
L 206.267809 168.041783 
L 206.622959 183.947626 
L 206.72443 184.994354 
L 206.775166 184.766628 
L 206.876637 182.91046 
L 207.181052 168.988218 
L 208.550916 88.941697 
L 209.261217 29.301296 
L 209.514895 21.369596 
L 209.565631 21.279059 
L 209.667102 22.559581 
L 209.870045 29.882347 
L 210.17446 50.599674 
L 210.88476 123.912113 
L 211.442853 171.188331 
L 211.747267 182.022377 
L 211.848739 182.565748 
L 211.95021 181.402397 
L 212.203889 173.455448 
L 213.117132 130.307387 
L 213.523018 101.52735 
L 214.486997 28.590737 
L 214.68994 25.920665 
L 214.791411 26.73765 
L 214.943618 30.622656 
L 215.197297 44.262523 
L 215.704654 89.922707 
L 216.668633 176.049066 
L 216.922312 182.633159 
L 216.973047 182.724212 
L 217.074519 181.627507 
L 217.328197 172.516854 
L 218.647326 102.677905 
L 219.56057 32.061462 
L 219.814248 26.833977 
L 219.864984 26.784418 
L 219.966455 27.846647 
L 220.118663 31.86343 
L 220.372341 46.26287 
L 220.828963 88.703772 
L 221.69147 173.697701 
L 221.945149 182.782213 
L 222.04662 183.778279 
L 222.097356 183.528959 
L 222.249563 180.214946 
L 222.553978 165.75529 
L 223.923842 87.756668 
L 224.634142 32.63312 
L 224.887821 27.234742 
L 224.989292 28.018936 
L 225.192235 33.987203 
L 225.445914 48.121103 
L 225.902536 87.550561 
L 226.91725 178.062309 
L 227.170929 183.793037 
L 227.2724 182.882822 
L 227.475343 176.339863 
L 228.084172 144.765185 
L 228.743736 110.21167 
L 229.251094 65.887896 
L 229.707715 32.47888 
L 229.961394 26.397633 
L 230.01213 26.417766 
L 230.113601 27.654667 
L 230.316544 33.84137 
L 230.620958 52.909079 
L 231.179051 107.093975 
L 231.889352 171.897965 
L 232.193766 182.354892 
L 232.244502 182.630027 
L 232.295237 182.401164 
L 232.447445 179.453314 
L 232.751859 166.365438 
L 233.918781 100.908842 
L 234.88276 31.061013 
L 235.085702 28.121664 
L 235.187174 29.28715 
L 235.390117 35.794141 
L 235.694531 55.001633 
L 236.30336 115.363973 
L 236.912189 171.574511 
L 237.165867 181.545232 
L 237.267339 182.447286 
L 237.318075 182.355093 
L 237.419546 181.141587 
L 237.622489 174.515836 
L 238.941618 101.819193 
L 239.804125 34.37593 
L 240.007068 29.726257 
L 240.057804 29.576418 
L 240.10854 29.715706 
L 240.260747 32.316402 
L 240.514425 42.567952 
L 240.869576 69.42122 
L 242.188704 181.27855 
L 242.340912 183.773313 
L 242.442383 183.179765 
L 242.645326 178.022404 
L 242.94974 162.277767 
L 244.268869 82.07485 
L 244.877698 33.129623 
L 245.131377 23.340063 
L 245.182112 22.862552 
L 245.232848 22.997396 
L 245.385055 26.113851 
L 245.638734 38.978743 
L 246.095356 79.050659 
L 247.160806 176.435332 
L 247.363749 181.329911 
L 247.414485 181.645356 
L 247.46522 181.56189 
L 247.617427 179.089016 
L 247.921842 166.787534 
L 249.038028 103.955585 
L 250.052742 32.333884 
L 250.20495 30.10726 
L 250.306421 30.811825 
L 250.509364 35.622095 
L 250.763043 47.924244 
L 251.118193 77.524119 
L 252.132907 170.825236 
L 252.437322 181.271417 
L 252.538793 182.006058 
L 252.589529 181.759833 
L 252.741736 178.076584 
L 253.04615 163.348455 
L 253.705715 129.465363 
L 254.111601 103.248143 
L 255.126315 31.926182 
L 255.278522 30.52292 
L 255.379994 31.164176 
L 255.532201 35.106954 
L 255.836616 51.70555 
L 256.242501 84.850688 
L 257.20648 170.598597 
L 257.460159 180.020981 
L 257.612366 181.130666 
L 257.713837 180.339811 
L 257.91678 174.336691 
L 258.27193 155.252487 
L 258.830024 128.203945 
L 259.235909 102.135556 
L 260.250624 26.713752 
L 260.402831 25.338471 
L 260.504303 26.350345 
L 260.707245 33.141334 
L 261.01166 53.196605 
L 261.519017 103.0878 
L 262.280053 171.746163 
L 262.533732 181.975893 
L 262.584467 182.446767 
L 262.635203 182.411309 
L 262.78741 180.036101 
L 263.041089 169.965369 
L 264.309482 99.513685 
L 265.17199 29.503764 
L 265.374933 25.022612 
L 265.425668 24.905293 
L 265.52714 26.052748 
L 265.780818 33.815672 
L 266.034497 49.475481 
L 266.541854 98.636662 
L 267.30289 172.045799 
L 267.556569 181.620673 
L 267.708776 183.358452 
L 267.759512 183.199908 
L 267.911719 180.430417 
L 268.165398 169.22062 
L 268.774226 138.491712 
L 269.129376 121.95233 
L 269.535262 89.846496 
L 270.296298 28.212796 
L 270.549977 22.525658 
L 270.600713 22.593936 
L 270.75292 25.228095 
L 270.955863 35.044668 
L 271.412484 72.882253 
L 272.579406 178.28427 
L 272.833085 184.16222 
L 272.88382 184.015423 
L 273.036028 181.454477 
L 273.289706 170.789904 
L 274.507364 108.957379 
L 275.62355 22.18557 
L 275.725021 21.260763 
L 275.775757 21.425999 
L 275.877228 22.65543 
L 276.080171 30.009634 
L 276.384586 51.892859 
L 276.993414 113.716876 
L 277.652979 174.789876 
L 277.906657 184.141224 
L 277.957393 184.504431 
L 278.008129 184.496625 
L 278.1096 183.231789 
L 278.312543 176.001479 
L 279.733144 99.807528 
L 280.646387 30.645172 
L 280.84933 27.27759 
L 280.900065 27.273885 
L 281.001537 28.398084 
L 281.20448 35.945958 
L 281.55963 60.474806 
L 282.26993 130.91584 
L 282.777287 172.172134 
L 283.030966 180.094155 
L 283.081702 180.386836 
L 283.132438 180.335155 
L 283.284645 178.70161 
L 283.487588 172.381804 
L 284.603774 114.22164 
L 285.060395 75.202666 
L 285.517017 39.689798 
L 285.821431 29.223634 
L 285.922903 28.713779 
L 286.07511 30.870702 
L 286.328788 41.356881 
L 286.734674 71.254939 
L 288.053803 183.971282 
L 288.104539 184.435483 
L 288.155275 184.413493 
L 288.256746 182.950366 
L 288.510425 172.858841 
L 289.829554 95.499855 
L 290.59059 35.956222 
L 290.844268 29.678232 
L 290.94574 29.269494 
L 291.047211 30.323771 
L 291.250154 36.658045 
L 291.503833 52.0724 
L 292.01119 98.836294 
L 292.873697 176.600675 
L 293.127376 183.460425 
L 293.178112 183.490016 
L 293.279583 182.518048 
L 293.482526 176.58057 
L 294.700184 120.406095 
L 295.10607 88.34053 
L 295.765634 32.133872 
L 296.070048 23.357744 
L 296.120784 23.224407 
L 296.222256 24.21675 
L 296.425198 30.394174 
L 296.678877 46.232152 
L 297.23697 100.903321 
L 297.998006 171.910626 
L 298.251685 181.600042 
L 298.353156 182.556848 
L 298.403892 182.35872 
L 298.505363 180.749603 
L 298.759042 170.79332 
L 299.925964 108.77194 
L 301.04215 30.153622 
L 301.143621 29.18073 
L 301.194357 29.215251 
L 301.295828 30.504155 
L 301.498771 37.409947 
L 301.803186 58.43029 
L 302.46275 121.275619 
L 303.071579 173.089353 
L 303.325258 181.81117 
L 303.375993 182.003798 
L 303.477465 181.005362 
L 303.680408 174.941454 
L 304.137029 151.219193 
L 304.898065 110.188481 
L 305.506894 56.859526 
L 305.91278 31.85757 
L 306.115723 27.37099 
L 306.217194 27.140005 
L 306.318666 28.123614 
L 306.521608 35.17925 
L 306.826023 56.131759 
L 307.637794 139.08462 
L 308.094416 174.474741 
L 308.297359 179.65564 
L 308.39883 180.073099 
L 308.500302 178.884021 
L 308.703245 172.600144 
L 309.210602 145.725322 
L 309.870167 111.764252 
L 311.087824 28.807433 
L 311.13856 28.386939 
L 311.189296 28.409863 
L 311.341503 30.880918 
L 311.544446 39.102261 
L 311.950331 68.897046 
L 313.218725 180.10627 
L 313.421668 182.80023 
L 313.472403 182.751995 
L 313.573875 181.432209 
L 313.827553 171.585394 
L 314.639325 133.240619 
L 314.994475 112.524824 
L 316.212133 24.867378 
L 316.262868 24.469035 
L 316.313604 24.475599 
L 316.415076 25.61836 
L 316.618018 32.62484 
L 316.973169 55.577532 
L 317.531262 110.436268 
L 318.190826 173.967927 
L 318.444505 184.181132 
L 318.545976 185.262159 
L 318.596712 185.221047 
L 318.698183 183.876253 
L 318.901126 177.059688 
L 320.321727 106.825601 
L 321.437913 20.913242 
L 321.539384 20.503284 
L 321.640856 21.824321 
L 321.843799 28.729359 
L 322.148213 47.992686 
L 322.604834 93.899181 
L 323.416606 173.100274 
L 323.72102 185.427116 
L 323.822492 186.230806 
L 323.873228 186.064155 
L 324.025435 182.07789 
L 324.482056 158.546675 
L 325.547507 103.048437 
L 326.562221 23.359119 
L 326.765164 20.76848 
L 326.866636 22.382851 
L 327.069579 31.269719 
L 327.475464 62.144521 
L 328.896065 184.795289 
L 328.997536 185.989683 
L 329.048272 185.801107 
L 329.200479 182.102663 
L 329.606365 160.489851 
L 330.062987 139.801147 
L 330.468872 120.993713 
L 330.824023 91.849989 
L 331.534323 29.980348 
L 331.788001 22.528324 
L 331.838737 22.442212 
L 331.940209 23.422282 
L 332.092416 27.653166 
L 332.39683 44.528173 
L 332.802716 80.564611 
L 333.81743 176.12347 
L 334.071109 184.632798 
L 334.121845 184.930809 
L 334.172581 184.828313 
L 334.324788 182.198304 
L 334.629202 169.234126 
L 335.948331 91.572065 
L 336.658631 33.493472 
L 336.963046 23.908609 
L 337.013781 23.649982 
L 337.064517 23.92552 
L 337.216724 27.528837 
L 337.470403 40.921749 
L 338.028496 88.187029 
L 338.992475 176.411421 
L 339.246153 182.950603 
L 339.296889 183.176302 
L 339.347625 183.076586 
L 339.449096 181.707764 
L 339.652039 174.241789 
L 341.021904 97.489083 
L 341.884411 31.306867 
L 342.087354 26.940372 
L 342.13809 27.034299 
L 342.239561 28.275944 
L 342.442504 34.833515 
L 342.746919 53.634309 
L 343.305012 106.878341 
L 344.066048 176.160894 
L 344.319726 184.15169 
L 344.370462 184.379756 
L 344.421198 184.183073 
L 344.573405 181.096709 
L 344.877819 167.492614 
L 345.537384 134.926735 
L 345.892534 116.304979 
L 346.399891 73.737006 
L 346.957984 31.745728 
L 347.211663 24.983514 
L 347.262399 24.837869 
L 347.36387 25.889412 
L 347.566813 33.050459 
L 347.921963 57.292839 
L 348.530792 119.471926 
L 349.190356 178.699878 
L 349.444035 186.106427 
L 349.494771 186.143033 
L 349.596242 184.812562 
L 349.799185 178.136876 
L 351.118314 115.36088 
L 351.574936 73.729372 
L 352.082293 30.994206 
L 352.335971 23.019317 
L 352.437443 22.237708 
L 352.488179 22.287511 
L 352.58965 23.711559 
L 352.792593 31.048492 
L 353.097007 51.887095 
L 353.807308 124.015956 
L 354.365401 173.837948 
L 354.619079 183.21916 
L 354.720551 183.857982 
L 354.822022 182.68993 
L 355.024965 176.891409 
L 356.141151 126.62463 
L 356.496301 100.052966 
L 357.358809 26.171023 
L 357.561752 21.792757 
L 357.612487 21.761344 
L 357.713959 22.894352 
L 357.866166 27.012922 
L 358.17058 44.497153 
L 358.627202 86.260021 
L 359.540445 174.711762 
L 359.794124 183.712818 
L 359.895595 184.447742 
L 359.997066 183.163086 
L 360.200009 175.809006 
L 361.26546 122.743457 
L 361.671346 91.838188 
L 362.381646 31.472023 
L 362.635324 23.414162 
L 362.68606 23.173459 
L 362.736796 23.341822 
L 362.889003 26.017245 
L 363.091946 35.965914 
L 363.548568 74.22101 
L 364.614018 175.464057 
L 364.867696 182.339072 
L 364.918432 182.410502 
L 365.019904 181.614931 
L 365.172111 177.161976 
L 365.476525 160.546825 
L 366.085354 130.048416 
L 366.440504 108.951828 
L 367.505954 32.750033 
L 367.658162 31.365034 
L 367.708897 31.458321 
L 367.810369 32.537931 
L 368.013312 38.854505 
L 368.419197 65.674169 
L 369.028026 125.845192 
L 369.586119 174.100445 
L 369.839798 183.269012 
L 369.941269 183.867365 
L 370.042741 182.820823 
L 370.245684 176.728727 
L 371.412605 120.221254 
L 371.818491 86.609381 
L 372.478056 31.034599 
L 372.731734 22.686584 
L 372.78247 22.38641 
L 372.833206 22.467482 
L 372.934677 23.927254 
L 373.13762 31.425035 
L 373.49277 54.551035 
L 374.000128 104.56671 
L 374.761164 176.443985 
L 375.014842 184.25689 
L 375.065578 184.488674 
L 375.116314 184.398125 
L 375.217785 183.223948 
L 375.420728 176.331257 
L 376.638386 117.234226 
L 377.044271 83.036734 
L 377.6531 32.483389 
L 377.957514 23.24831 
L 378.00825 23.085761 
L 378.058986 23.294741 
L 378.160457 25.234332 
L 378.414136 36.966831 
L 378.769286 63.627435 
L 380.139151 183.710581 
L 380.291358 185.447044 
L 380.392829 184.360358 
L 380.595772 177.39447 
L 382.016373 100.10967 
L 382.87888 28.39944 
L 383.081823 23.078647 
L 383.132559 22.918682 
L 383.183295 22.996649 
L 383.284766 24.126717 
L 383.436973 28.834554 
L 383.741388 47.142059 
L 384.198009 91.752733 
L 385.060516 175.855713 
L 385.314195 186.374584 
L 385.415667 187.334761 
L 385.466402 187.187353 
L 385.618609 184.177124 
L 385.872288 172.040902 
L 386.430381 144.913782 
L 386.836267 128.412359 
L 387.191417 104.549857 
L 388.206132 24.983711 
L 388.409075 22.258956 
L 388.510546 23.432511 
L 388.713489 30.763743 
L 389.068639 55.207897 
L 389.525261 101.55197 
L 390.337032 179.297876 
L 390.590711 187.20492 
L 390.641447 187.194325 
L 390.742918 185.78487 
L 390.945861 179.313559 
L 391.098068 171.59954 
L 391.098068 171.59954 
" style="fill:none;stroke:#1f77b4;stroke-linecap:square;stroke-width:1.5;"/>
   </g>
   <g id="matplotlib.axis_1">
    <g id="xtick_1">
     <g id="line2d_2">
      <defs>
       <path d="M 0 0 
L 0 3.5 
" id="m357fb6e2f9" style="stroke:#000000;stroke-width:0.8;"/>
      </defs>
      <g>
       <use style="stroke:#000000;stroke-width:0.8;" x="86.734432" xlink:href="#m357fb6e2f9" y="224.64"/>
      </g>
     </g>
     <g id="text_1">
      <!-- 0 -->
      <defs>
       <path d="M 4.15625 35.296875 
Q 4.15625 48 6.765625 55.734375 
Q 9.375 63.484375 14.515625 67.671875 
Q 19.671875 71.875 27.484375 71.875 
Q 33.25 71.875 37.59375 69.546875 
Q 41.9375 67.234375 44.765625 62.859375 
Q 47.609375 58.5 49.21875 52.21875 
Q 50.828125 45.953125 50.828125 35.296875 
Q 50.828125 22.703125 48.234375 14.96875 
Q 45.65625 7.234375 40.5 3 
Q 35.359375 -1.21875 27.484375 -1.21875 
Q 17.140625 -1.21875 11.234375 6.203125 
Q 4.15625 15.140625 4.15625 35.296875 
z
M 13.1875 35.296875 
Q 13.1875 17.671875 17.3125 11.828125 
Q 21.4375 6 27.484375 6 
Q 33.546875 6 37.671875 11.859375 
Q 41.796875 17.71875 41.796875 35.296875 
Q 41.796875 52.984375 37.671875 58.78125 
Q 33.546875 64.59375 27.390625 64.59375 
Q 21.34375 64.59375 17.71875 59.46875 
Q 13.1875 52.9375 13.1875 35.296875 
z
" id="ArialMT-48"/>
      </defs>
      <g transform="translate(79.505213 250.250312)scale(0.26 -0.26)">
       <use xlink:href="#ArialMT-48"/>
      </g>
     </g>
    </g>
    <g id="xtick_2">
     <g id="line2d_3">
      <g>
       <use style="stroke:#000000;stroke-width:0.8;" x="188.205889" xlink:href="#m357fb6e2f9" y="224.64"/>
      </g>
     </g>
     <g id="text_2">
      <!-- 2 -->
      <defs>
       <path d="M 50.34375 8.453125 
L 50.34375 0 
L 3.03125 0 
Q 2.9375 3.171875 4.046875 6.109375 
Q 5.859375 10.9375 9.828125 15.625 
Q 13.8125 20.3125 21.34375 26.46875 
Q 33.015625 36.03125 37.109375 41.625 
Q 41.21875 47.21875 41.21875 52.203125 
Q 41.21875 57.421875 37.46875 61 
Q 33.734375 64.59375 27.734375 64.59375 
Q 21.390625 64.59375 17.578125 60.78125 
Q 13.765625 56.984375 13.71875 50.25 
L 4.6875 51.171875 
Q 5.609375 61.28125 11.65625 66.578125 
Q 17.71875 71.875 27.9375 71.875 
Q 38.234375 71.875 44.234375 66.15625 
Q 50.25 60.453125 50.25 52 
Q 50.25 47.703125 48.484375 43.546875 
Q 46.734375 39.40625 42.65625 34.8125 
Q 38.578125 30.21875 29.109375 22.21875 
Q 21.1875 15.578125 18.9375 13.203125 
Q 16.703125 10.84375 15.234375 8.453125 
z
" id="ArialMT-50"/>
      </defs>
      <g transform="translate(180.97667 250.250312)scale(0.26 -0.26)">
       <use xlink:href="#ArialMT-50"/>
      </g>
     </g>
    </g>
    <g id="xtick_3">
     <g id="line2d_4">
      <g>
       <use style="stroke:#000000;stroke-width:0.8;" x="289.677347" xlink:href="#m357fb6e2f9" y="224.64"/>
      </g>
     </g>
     <g id="text_3">
      <!-- 4 -->
      <defs>
       <path d="M 32.328125 0 
L 32.328125 17.140625 
L 1.265625 17.140625 
L 1.265625 25.203125 
L 33.9375 71.578125 
L 41.109375 71.578125 
L 41.109375 25.203125 
L 50.78125 25.203125 
L 50.78125 17.140625 
L 41.109375 17.140625 
L 41.109375 0 
z
M 32.328125 25.203125 
L 32.328125 57.46875 
L 9.90625 25.203125 
z
" id="ArialMT-52"/>
      </defs>
      <g transform="translate(282.448128 250.250312)scale(0.26 -0.26)">
       <use xlink:href="#ArialMT-52"/>
      </g>
     </g>
    </g>
    <g id="xtick_4">
     <g id="line2d_5">
      <g>
       <use style="stroke:#000000;stroke-width:0.8;" x="391.148804" xlink:href="#m357fb6e2f9" y="224.64"/>
      </g>
     </g>
     <g id="text_4">
      <!-- 6 -->
      <defs>
       <path d="M 49.75 54.046875 
L 41.015625 53.375 
Q 39.84375 58.546875 37.703125 60.890625 
Q 34.125 64.65625 28.90625 64.65625 
Q 24.703125 64.65625 21.53125 62.3125 
Q 17.390625 59.28125 14.984375 53.46875 
Q 12.59375 47.65625 12.5 36.921875 
Q 15.671875 41.75 20.265625 44.09375 
Q 24.859375 46.4375 29.890625 46.4375 
Q 38.671875 46.4375 44.84375 39.96875 
Q 51.03125 33.5 51.03125 23.25 
Q 51.03125 16.5 48.125 10.71875 
Q 45.21875 4.9375 40.140625 1.859375 
Q 35.0625 -1.21875 28.609375 -1.21875 
Q 17.625 -1.21875 10.6875 6.859375 
Q 3.765625 14.9375 3.765625 33.5 
Q 3.765625 54.25 11.421875 63.671875 
Q 18.109375 71.875 29.4375 71.875 
Q 37.890625 71.875 43.28125 67.140625 
Q 48.6875 62.40625 49.75 54.046875 
z
M 13.875 23.1875 
Q 13.875 18.65625 15.796875 14.5 
Q 17.71875 10.359375 21.1875 8.171875 
Q 24.65625 6 28.46875 6 
Q 34.03125 6 38.03125 10.484375 
Q 42.046875 14.984375 42.046875 22.703125 
Q 42.046875 30.125 38.078125 34.390625 
Q 34.125 38.671875 28.125 38.671875 
Q 22.171875 38.671875 18.015625 34.390625 
Q 13.875 30.125 13.875 23.1875 
z
" id="ArialMT-54"/>
      </defs>
      <g transform="translate(383.919585 250.250312)scale(0.26 -0.26)">
       <use xlink:href="#ArialMT-54"/>
      </g>
     </g>
    </g>
    <g id="text_5">
     <!-- time (s) -->
     <defs>
      <path d="M 25.78125 7.859375 
L 27.046875 0.09375 
Q 23.34375 -0.6875 20.40625 -0.6875 
Q 15.625 -0.6875 12.984375 0.828125 
Q 10.359375 2.34375 9.28125 4.8125 
Q 8.203125 7.28125 8.203125 15.1875 
L 8.203125 45.015625 
L 1.765625 45.015625 
L 1.765625 51.859375 
L 8.203125 51.859375 
L 8.203125 64.703125 
L 16.9375 69.96875 
L 16.9375 51.859375 
L 25.78125 51.859375 
L 25.78125 45.015625 
L 16.9375 45.015625 
L 16.9375 14.703125 
Q 16.9375 10.9375 17.40625 9.859375 
Q 17.875 8.796875 18.921875 8.15625 
Q 19.96875 7.515625 21.921875 7.515625 
Q 23.390625 7.515625 25.78125 7.859375 
z
" id="ArialMT-116"/>
      <path d="M 6.640625 61.46875 
L 6.640625 71.578125 
L 15.4375 71.578125 
L 15.4375 61.46875 
z
M 6.640625 0 
L 6.640625 51.859375 
L 15.4375 51.859375 
L 15.4375 0 
z
" id="ArialMT-105"/>
      <path d="M 6.59375 0 
L 6.59375 51.859375 
L 14.453125 51.859375 
L 14.453125 44.578125 
Q 16.890625 48.390625 20.9375 50.703125 
Q 25 53.03125 30.171875 53.03125 
Q 35.9375 53.03125 39.625 50.640625 
Q 43.3125 48.25 44.828125 43.953125 
Q 50.984375 53.03125 60.84375 53.03125 
Q 68.5625 53.03125 72.703125 48.75 
Q 76.859375 44.484375 76.859375 35.59375 
L 76.859375 0 
L 68.109375 0 
L 68.109375 32.671875 
Q 68.109375 37.9375 67.25 40.25 
Q 66.40625 42.578125 64.15625 43.984375 
Q 61.921875 45.40625 58.890625 45.40625 
Q 53.421875 45.40625 49.796875 41.765625 
Q 46.1875 38.140625 46.1875 30.125 
L 46.1875 0 
L 37.40625 0 
L 37.40625 33.6875 
Q 37.40625 39.546875 35.25 42.46875 
Q 33.109375 45.40625 28.21875 45.40625 
Q 24.515625 45.40625 21.359375 43.453125 
Q 18.21875 41.5 16.796875 37.734375 
Q 15.375 33.984375 15.375 26.90625 
L 15.375 0 
z
" id="ArialMT-109"/>
      <path d="M 42.09375 16.703125 
L 51.171875 15.578125 
Q 49.03125 7.625 43.21875 3.21875 
Q 37.40625 -1.171875 28.375 -1.171875 
Q 17 -1.171875 10.328125 5.828125 
Q 3.65625 12.84375 3.65625 25.484375 
Q 3.65625 38.578125 10.390625 45.796875 
Q 17.140625 53.03125 27.875 53.03125 
Q 38.28125 53.03125 44.875 45.953125 
Q 51.46875 38.875 51.46875 26.03125 
Q 51.46875 25.25 51.421875 23.6875 
L 12.75 23.6875 
Q 13.234375 15.140625 17.578125 10.59375 
Q 21.921875 6.0625 28.421875 6.0625 
Q 33.25 6.0625 36.671875 8.59375 
Q 40.09375 11.140625 42.09375 16.703125 
z
M 13.234375 30.90625 
L 42.1875 30.90625 
Q 41.609375 37.453125 38.875 40.71875 
Q 34.671875 45.796875 27.984375 45.796875 
Q 21.921875 45.796875 17.796875 41.75 
Q 13.671875 37.703125 13.234375 30.90625 
z
" id="ArialMT-101"/>
      <path id="ArialMT-32"/>
      <path d="M 23.390625 -21.046875 
Q 16.109375 -11.859375 11.078125 0.4375 
Q 6.0625 12.75 6.0625 25.921875 
Q 6.0625 37.546875 9.8125 48.1875 
Q 14.203125 60.546875 23.390625 72.796875 
L 29.6875 72.796875 
Q 23.78125 62.640625 21.875 58.296875 
Q 18.890625 51.5625 17.1875 44.234375 
Q 15.09375 35.109375 15.09375 25.875 
Q 15.09375 2.390625 29.6875 -21.046875 
z
" id="ArialMT-40"/>
      <path d="M 3.078125 15.484375 
L 11.765625 16.84375 
Q 12.5 11.625 15.84375 8.84375 
Q 19.1875 6.0625 25.203125 6.0625 
Q 31.25 6.0625 34.171875 8.515625 
Q 37.109375 10.984375 37.109375 14.3125 
Q 37.109375 17.28125 34.515625 19 
Q 32.71875 20.171875 25.53125 21.96875 
Q 15.875 24.421875 12.140625 26.203125 
Q 8.40625 27.984375 6.46875 31.125 
Q 4.546875 34.28125 4.546875 38.09375 
Q 4.546875 41.546875 6.125 44.5 
Q 7.71875 47.46875 10.453125 49.421875 
Q 12.5 50.921875 16.03125 51.96875 
Q 19.578125 53.03125 23.640625 53.03125 
Q 29.734375 53.03125 34.34375 51.265625 
Q 38.96875 49.515625 41.15625 46.5 
Q 43.359375 43.5 44.1875 38.484375 
L 35.59375 37.3125 
Q 35.015625 41.3125 32.203125 43.546875 
Q 29.390625 45.796875 24.265625 45.796875 
Q 18.21875 45.796875 15.625 43.796875 
Q 13.03125 41.796875 13.03125 39.109375 
Q 13.03125 37.40625 14.109375 36.03125 
Q 15.1875 34.625 17.484375 33.6875 
Q 18.796875 33.203125 25.25 31.453125 
Q 34.578125 28.953125 38.25 27.359375 
Q 41.9375 25.78125 44.03125 22.75 
Q 46.140625 19.734375 46.140625 15.234375 
Q 46.140625 10.84375 43.578125 6.953125 
Q 41.015625 3.078125 36.171875 0.953125 
Q 31.34375 -1.171875 25.25 -1.171875 
Q 15.140625 -1.171875 9.84375 3.03125 
Q 4.546875 7.234375 3.078125 15.484375 
z
" id="ArialMT-115"/>
      <path d="M 12.359375 -21.046875 
L 6.0625 -21.046875 
Q 20.65625 2.390625 20.65625 25.875 
Q 20.65625 35.0625 18.5625 44.09375 
Q 16.890625 51.421875 13.921875 58.15625 
Q 12.015625 62.546875 6.0625 72.796875 
L 12.359375 72.796875 
Q 21.53125 60.546875 25.921875 48.1875 
Q 29.6875 37.546875 29.6875 25.921875 
Q 29.6875 12.75 24.625 0.4375 
Q 19.578125 -11.859375 12.359375 -21.046875 
z
" id="ArialMT-41"/>
     </defs>
     <g transform="translate(195.589688 278.345)scale(0.26 -0.26)">
      <use xlink:href="#ArialMT-116"/>
      <use x="27.783203" xlink:href="#ArialMT-105"/>
      <use x="50" xlink:href="#ArialMT-109"/>
      <use x="133.300781" xlink:href="#ArialMT-101"/>
      <use x="188.916016" xlink:href="#ArialMT-32"/>
      <use x="216.699219" xlink:href="#ArialMT-40"/>
      <use x="250" xlink:href="#ArialMT-115"/>
      <use x="300" xlink:href="#ArialMT-41"/>
     </g>
    </g>
   </g>
   <g id="matplotlib.axis_2">
    <g id="ytick_1">
     <g id="line2d_6">
      <defs>
       <path d="M 0 0 
L -3.5 0 
" id="m882346311e" style="stroke:#000000;stroke-width:0.8;"/>
      </defs>
      <g>
       <use style="stroke:#000000;stroke-width:0.8;" x="71.51625" xlink:href="#m882346311e" y="214.756364"/>
      </g>
     </g>
     <g id="text_6">
      <!-- 0 -->
      <g transform="translate(50.057813 224.06152)scale(0.26 -0.26)">
       <use xlink:href="#ArialMT-48"/>
      </g>
     </g>
    </g>
    <g id="ytick_2">
     <g id="line2d_7">
      <g>
       <use style="stroke:#000000;stroke-width:0.8;" x="71.51625" xlink:href="#m882346311e" y="145.428958"/>
      </g>
     </g>
     <g id="text_7">
      <!-- 5 -->
      <defs>
       <path d="M 4.15625 18.75 
L 13.375 19.53125 
Q 14.40625 12.796875 18.140625 9.390625 
Q 21.875 6 27.15625 6 
Q 33.5 6 37.890625 10.78125 
Q 42.28125 15.578125 42.28125 23.484375 
Q 42.28125 31 38.0625 35.34375 
Q 33.84375 39.703125 27 39.703125 
Q 22.75 39.703125 19.328125 37.765625 
Q 15.921875 35.84375 13.96875 32.765625 
L 5.71875 33.84375 
L 12.640625 70.609375 
L 48.25 70.609375 
L 48.25 62.203125 
L 19.671875 62.203125 
L 15.828125 42.96875 
Q 22.265625 47.46875 29.34375 47.46875 
Q 38.71875 47.46875 45.15625 40.96875 
Q 51.609375 34.46875 51.609375 24.265625 
Q 51.609375 14.546875 45.953125 7.46875 
Q 39.0625 -1.21875 27.15625 -1.21875 
Q 17.390625 -1.21875 11.203125 4.25 
Q 5.03125 9.71875 4.15625 18.75 
z
" id="ArialMT-53"/>
      </defs>
      <g transform="translate(50.057813 154.734115)scale(0.26 -0.26)">
       <use xlink:href="#ArialMT-53"/>
      </g>
     </g>
    </g>
    <g id="ytick_3">
     <g id="line2d_8">
      <g>
       <use style="stroke:#000000;stroke-width:0.8;" x="71.51625" xlink:href="#m882346311e" y="76.101553"/>
      </g>
     </g>
     <g id="text_8">
      <!-- 10 -->
      <defs>
       <path d="M 37.25 0 
L 28.46875 0 
L 28.46875 56 
Q 25.296875 52.984375 20.140625 49.953125 
Q 14.984375 46.921875 10.890625 45.40625 
L 10.890625 53.90625 
Q 18.265625 57.375 23.78125 62.296875 
Q 29.296875 67.234375 31.59375 71.875 
L 37.25 71.875 
z
" id="ArialMT-49"/>
      </defs>
      <g transform="translate(35.599375 85.406709)scale(0.26 -0.26)">
       <use xlink:href="#ArialMT-49"/>
       <use x="55.615234" xlink:href="#ArialMT-48"/>
      </g>
     </g>
    </g>
    <g id="text_9">
     <!-- amplitude (a.u.) -->
     <defs>
      <path d="M 40.4375 6.390625 
Q 35.546875 2.25 31.03125 0.53125 
Q 26.515625 -1.171875 21.34375 -1.171875 
Q 12.796875 -1.171875 8.203125 3 
Q 3.609375 7.171875 3.609375 13.671875 
Q 3.609375 17.484375 5.34375 20.625 
Q 7.078125 23.78125 9.890625 25.6875 
Q 12.703125 27.59375 16.21875 28.5625 
Q 18.796875 29.25 24.03125 29.890625 
Q 34.671875 31.15625 39.703125 32.90625 
Q 39.75 34.71875 39.75 35.203125 
Q 39.75 40.578125 37.25 42.78125 
Q 33.890625 45.75 27.25 45.75 
Q 21.046875 45.75 18.09375 43.578125 
Q 15.140625 41.40625 13.71875 35.890625 
L 5.125 37.0625 
Q 6.296875 42.578125 8.984375 45.96875 
Q 11.671875 49.359375 16.75 51.1875 
Q 21.828125 53.03125 28.515625 53.03125 
Q 35.15625 53.03125 39.296875 51.46875 
Q 43.453125 49.90625 45.40625 47.53125 
Q 47.359375 45.171875 48.140625 41.546875 
Q 48.578125 39.3125 48.578125 33.453125 
L 48.578125 21.734375 
Q 48.578125 9.46875 49.140625 6.21875 
Q 49.703125 2.984375 51.375 0 
L 42.1875 0 
Q 40.828125 2.734375 40.4375 6.390625 
z
M 39.703125 26.03125 
Q 34.90625 24.078125 25.34375 22.703125 
Q 19.921875 21.921875 17.671875 20.9375 
Q 15.4375 19.96875 14.203125 18.09375 
Q 12.984375 16.21875 12.984375 13.921875 
Q 12.984375 10.40625 15.640625 8.0625 
Q 18.3125 5.71875 23.4375 5.71875 
Q 28.515625 5.71875 32.46875 7.9375 
Q 36.421875 10.15625 38.28125 14.015625 
Q 39.703125 17 39.703125 22.796875 
z
" id="ArialMT-97"/>
      <path d="M 6.59375 -19.875 
L 6.59375 51.859375 
L 14.59375 51.859375 
L 14.59375 45.125 
Q 17.4375 49.078125 21 51.046875 
Q 24.5625 53.03125 29.640625 53.03125 
Q 36.28125 53.03125 41.359375 49.609375 
Q 46.4375 46.1875 49.015625 39.953125 
Q 51.609375 33.734375 51.609375 26.3125 
Q 51.609375 18.359375 48.75 11.984375 
Q 45.90625 5.609375 40.453125 2.21875 
Q 35.015625 -1.171875 29 -1.171875 
Q 24.609375 -1.171875 21.109375 0.6875 
Q 17.625 2.546875 15.375 5.375 
L 15.375 -19.875 
z
M 14.546875 25.640625 
Q 14.546875 15.625 18.59375 10.84375 
Q 22.65625 6.0625 28.421875 6.0625 
Q 34.28125 6.0625 38.453125 11.015625 
Q 42.625 15.96875 42.625 26.375 
Q 42.625 36.28125 38.546875 41.203125 
Q 34.46875 46.140625 28.8125 46.140625 
Q 23.1875 46.140625 18.859375 40.890625 
Q 14.546875 35.640625 14.546875 25.640625 
z
" id="ArialMT-112"/>
      <path d="M 6.390625 0 
L 6.390625 71.578125 
L 15.1875 71.578125 
L 15.1875 0 
z
" id="ArialMT-108"/>
      <path d="M 40.578125 0 
L 40.578125 7.625 
Q 34.515625 -1.171875 24.125 -1.171875 
Q 19.53125 -1.171875 15.546875 0.578125 
Q 11.578125 2.34375 9.640625 5 
Q 7.71875 7.671875 6.9375 11.53125 
Q 6.390625 14.109375 6.390625 19.734375 
L 6.390625 51.859375 
L 15.1875 51.859375 
L 15.1875 23.09375 
Q 15.1875 16.21875 15.71875 13.8125 
Q 16.546875 10.359375 19.234375 8.375 
Q 21.921875 6.390625 25.875 6.390625 
Q 29.828125 6.390625 33.296875 8.421875 
Q 36.765625 10.453125 38.203125 13.9375 
Q 39.65625 17.4375 39.65625 24.078125 
L 39.65625 51.859375 
L 48.4375 51.859375 
L 48.4375 0 
z
" id="ArialMT-117"/>
      <path d="M 40.234375 0 
L 40.234375 6.546875 
Q 35.296875 -1.171875 25.734375 -1.171875 
Q 19.53125 -1.171875 14.328125 2.25 
Q 9.125 5.671875 6.265625 11.796875 
Q 3.421875 17.921875 3.421875 25.875 
Q 3.421875 33.640625 6 39.96875 
Q 8.59375 46.296875 13.765625 49.65625 
Q 18.953125 53.03125 25.34375 53.03125 
Q 30.03125 53.03125 33.6875 51.046875 
Q 37.359375 49.078125 39.65625 45.90625 
L 39.65625 71.578125 
L 48.390625 71.578125 
L 48.390625 0 
z
M 12.453125 25.875 
Q 12.453125 15.921875 16.640625 10.984375 
Q 20.84375 6.0625 26.5625 6.0625 
Q 32.328125 6.0625 36.34375 10.765625 
Q 40.375 15.484375 40.375 25.140625 
Q 40.375 35.796875 36.265625 40.765625 
Q 32.171875 45.75 26.171875 45.75 
Q 20.3125 45.75 16.375 40.96875 
Q 12.453125 36.1875 12.453125 25.875 
z
" id="ArialMT-100"/>
      <path d="M 9.078125 0 
L 9.078125 10.015625 
L 19.09375 10.015625 
L 19.09375 0 
z
" id="ArialMT-46"/>
     </defs>
     <g transform="translate(26.127188 206.233437)rotate(-90)scale(0.26 -0.26)">
      <use xlink:href="#ArialMT-97"/>
      <use x="55.615234" xlink:href="#ArialMT-109"/>
      <use x="138.916016" xlink:href="#ArialMT-112"/>
      <use x="194.53125" xlink:href="#ArialMT-108"/>
      <use x="216.748047" xlink:href="#ArialMT-105"/>
      <use x="238.964844" xlink:href="#ArialMT-116"/>
      <use x="266.748047" xlink:href="#ArialMT-117"/>
      <use x="322.363281" xlink:href="#ArialMT-100"/>
      <use x="377.978516" xlink:href="#ArialMT-101"/>
      <use x="433.59375" xlink:href="#ArialMT-32"/>
      <use x="461.376953" xlink:href="#ArialMT-40"/>
      <use x="494.677734" xlink:href="#ArialMT-97"/>
      <use x="550.292969" xlink:href="#ArialMT-46"/>
      <use x="578.076172" xlink:href="#ArialMT-117"/>
      <use x="633.691406" xlink:href="#ArialMT-46"/>
      <use x="661.474609" xlink:href="#ArialMT-41"/>
     </g>
    </g>
   </g>
   <g id="line2d_9">
    <path clip-path="url(#p5e9032c91c)" d="M 86.734432 214.756364 
L 86.785168 214.756364 
L 86.886639 211.994774 
L 87.191053 192.877351 
L 87.850618 152.666075 
L 88.459447 131.314418 
L 88.66239 123.549687 
L 89.119011 93.748559 
L 90.08299 18.632081 
L 90.235197 17.083636 
L 90.387404 19.127157 
L 90.590347 26.396372 
L 90.996233 52.48971 
L 92.213891 146.206561 
L 92.518305 159.075404 
L 92.771984 162.469018 
L 92.822719 162.356278 
L 93.025662 160.134886 
L 94.040377 134.014675 
L 94.649205 108.978381 
L 95.765392 59.630464 
L 95.917599 59.062608 
L 96.01907 60.161472 
L 96.222013 65.311007 
L 96.678635 85.621861 
L 97.794821 141.508661 
L 98.099235 148.431133 
L 98.251442 149.652525 
L 98.302178 149.583717 
L 98.505121 148.13886 
L 98.7588 143.06167 
L 99.722778 110.46047 
L 100.53455 77.516611 
L 100.8897 71.50012 
L 100.940436 71.764183 
L 100.991172 71.303538 
L 101.041907 71.502084 
L 101.092643 71.61788 
L 101.397057 76.470062 
L 101.701472 86.0374 
L 102.361036 117.166209 
L 102.868394 139.346785 
L 103.172808 146.188071 
L 103.325015 147.49624 
L 103.375751 147.425124 
L 103.832372 139.573317 
L 104.136787 130.488922 
L 104.745616 108.471245 
L 105.658859 75.757365 
L 105.861802 73.325933 
L 105.912537 73.085738 
L 106.166216 75.675942 
L 106.724309 94.653437 
L 107.434609 124.687635 
L 107.891231 137.877395 
L 108.043438 139.459272 
L 108.094174 139.4323 
L 108.195645 139.308899 
L 108.246381 139.603823 
L 108.297117 139.29544 
L 108.550795 136.560991 
L 109.007417 125.770125 
L 110.478753 81.136972 
L 110.63096 80.69518 
L 111.036846 84.564121 
L 111.290525 89.708516 
L 112.000825 113.299383 
L 112.609653 133.701369 
L 113.015539 138.800036 
L 113.167746 137.765213 
L 113.421425 135.063177 
L 113.725839 128.30904 
L 114.689818 97.023781 
L 115.14644 84.80043 
L 115.450854 81.836078 
L 115.552326 81.785426 
L 115.653797 82.2546 
L 115.755269 83.142028 
L 116.313362 97.798393 
L 117.328076 133.766529 
L 117.632491 138.911577 
L 117.835434 139.750348 
L 118.038376 137.423612 
L 118.342791 130.751591 
L 118.900884 113.065684 
L 119.915598 81.411704 
L 120.118541 79.552905 
L 120.270748 80.540449 
L 120.524427 84.795582 
L 120.930313 97.942175 
L 121.742085 126.277628 
L 121.995763 132.046632 
L 122.249442 135.468483 
L 122.300178 135.57297 
L 122.452385 136.589233 
L 122.655328 134.383828 
L 122.909006 129.749831 
L 123.264156 120.435749 
L 124.53255 87.769322 
L 124.735493 86.115001 
L 124.786228 86.361092 
L 124.8877 86.213928 
L 125.395057 92.585875 
L 125.800943 102.897717 
L 126.815657 132.347805 
L 127.0186 134.618103 
L 127.069336 134.525903 
L 127.170808 134.90921 
L 127.221543 134.732509 
L 127.272279 134.67824 
L 127.424486 133.19376 
L 127.830372 124.95441 
L 128.388465 107.789576 
L 129.149501 86.386234 
L 129.40318 83.453604 
L 129.606123 82.918911 
L 129.75833 84.0618 
L 130.012008 89.883445 
L 130.367158 102.585865 
L 131.17893 129.310519 
L 131.483345 134.839613 
L 131.686287 136.288191 
L 131.737023 136.425371 
L 132.041438 133.750923 
L 132.548795 121.95785 
L 133.867924 84.630119 
L 134.121602 81.927735 
L 134.375281 83.614229 
L 134.882638 94.015484 
L 135.440731 112.692049 
L 135.897353 127.522709 
L 136.252503 133.252201 
L 136.506182 134.90435 
L 136.658389 134.285681 
L 137.013539 128.881899 
L 137.571632 114.142054 
L 138.383404 90.609998 
L 138.840025 84.925915 
L 139.042968 85.782115 
L 139.448854 91.824721 
L 139.956211 104.972897 
L 140.92019 131.619677 
L 141.224604 134.626934 
L 141.27534 134.965967 
L 141.326076 134.873479 
L 141.681226 131.431937 
L 142.290055 117.615732 
L 143.152562 90.26056 
L 143.558448 81.601909 
L 143.710655 80.381338 
L 143.761391 80.591798 
L 144.01507 82.484369 
L 144.319484 90.331885 
L 145.08052 119.044007 
L 145.537141 132.58207 
L 145.841556 135.913941 
L 145.892291 135.905264 
L 145.943027 135.856649 
L 146.298177 132.036013 
L 146.602592 125.253937 
L 147.972456 88.506756 
L 148.226135 85.955248 
L 148.378342 85.611486 
L 148.632021 87.603118 
L 149.037907 95.3857 
L 150.509243 133.605639 
L 150.66145 134.636595 
L 150.712186 134.702989 
L 150.864393 134.300612 
L 151.422486 122.943323 
L 152.741615 87.236716 
L 152.944558 85.779244 
L 152.995293 85.864605 
L 153.299708 88.171135 
L 153.654858 95.635925 
L 154.365158 116.679234 
L 154.973987 130.243508 
L 155.17693 132.011178 
L 155.227666 131.997533 
L 155.278401 131.957457 
L 155.329137 132.080788 
L 155.988701 121.233472 
L 156.343852 112.479707 
L 157.30783 89.173529 
L 157.561509 87.074027 
L 157.662981 87.292005 
L 158.170338 94.554495 
L 158.525488 103.728601 
L 159.540202 132.654002 
L 159.743145 134.062943 
L 159.793881 134.016333 
L 160.04756 132.005184 
L 160.40271 125.187812 
L 161.874046 88.659373 
L 162.076989 87.409277 
L 162.229196 87.032736 
L 162.279932 87.044328 
L 162.330668 86.774068 
L 162.53361 89.446972 
L 162.736553 93.365009 
L 163.193175 106.95188 
L 164.004947 129.57565 
L 164.157154 131.214882 
L 164.20789 131.160609 
L 164.360097 131.779977 
L 164.410832 131.704921 
L 164.461568 131.880654 
L 164.91819 127.346269 
L 165.577754 111.164967 
L 166.389526 89.40917 
L 166.643204 87.620244 
L 166.744676 86.902602 
L 166.795412 86.971493 
L 166.846147 86.898074 
L 167.150562 90.523531 
L 167.911598 108.736917 
L 168.672634 129.931847 
L 168.875577 132.530637 
L 169.129255 133.465406 
L 169.585877 127.516593 
L 170.245441 110.320056 
L 170.803534 94.410413 
L 171.158684 87.80609 
L 171.260156 87.193888 
L 171.361627 86.663237 
L 171.412363 86.809485 
L 171.513834 87.146608 
L 171.868985 91.817424 
L 172.477813 104.962542 
L 172.985171 119.42198 
L 173.593999 131.888351 
L 173.847678 133.616489 
L 173.999885 133.147575 
L 174.355035 128.40555 
L 174.811657 115.656888 
L 175.420486 96.674916 
L 176.029314 85.776957 
L 176.08005 85.737613 
L 176.130786 85.552792 
L 176.181521 85.575619 
L 176.688879 91.546869 
L 177.246972 106.244835 
L 178.210951 134.429981 
L 178.464629 135.641069 
L 178.515365 135.514355 
L 178.667572 134.585798 
L 178.921251 131.059898 
L 180.341851 91.594334 
L 180.798473 84.920096 
L 181.001416 84.482722 
L 181.102887 85.080349 
L 181.255094 87.139786 
L 181.610244 95.395543 
L 182.827902 131.296376 
L 183.132316 133.526667 
L 183.436731 131.9868 
L 183.893352 123.967216 
L 185.313953 85.492371 
L 185.516896 83.894209 
L 185.567631 83.834967 
L 185.618367 83.460412 
L 185.669103 83.877175 
L 185.872046 87.112856 
L 186.328667 98.429769 
L 187.546325 132.685342 
L 187.850739 135.426509 
L 188.104418 133.567137 
L 188.459568 127.881825 
L 188.713246 117.118427 
L 189.322075 73.558098 
L 189.778697 47.286027 
L 189.98164 44.317171 
L 190.032375 44.458958 
L 190.184583 48.083627 
L 190.387526 58.649622 
L 190.844147 99.24662 
L 191.655919 170.188172 
L 191.909597 176.970836 
L 191.960333 177.157507 
L 192.011069 177.06211 
L 192.163276 174.262294 
L 192.46769 161.263041 
L 192.975048 133.630915 
L 193.685348 79.950245 
L 194.243441 41.919438 
L 194.49712 35.552339 
L 194.598591 36.458108 
L 194.700062 38.251212 
L 194.903005 46.270012 
L 195.308891 75.202427 
L 196.577284 183.335541 
L 196.729492 184.957961 
L 196.780227 184.71341 
L 196.932435 180.71585 
L 198.150092 116.505979 
L 199.367749 27.699714 
L 199.469221 27.061182 
L 199.621428 29.752307 
L 199.875107 41.148534 
L 200.331728 78.668587 
L 201.397179 177.448804 
L 201.650857 184.49923 
L 201.701593 185.019624 
L 201.752329 184.516574 
L 201.904536 181.369132 
L 202.20895 166.826881 
L 202.969986 129.181484 
L 203.274401 108.633295 
L 204.289115 27.515907 
L 204.441322 24.760629 
L 204.492058 24.777761 
L 204.59353 25.878411 
L 204.94868 41.122895 
L 205.30383 70.232745 
L 206.470752 178.106281 
L 206.72443 185.812092 
L 206.775166 185.945439 
L 206.825902 185.850355 
L 206.978109 182.260111 
L 207.688409 146.740909 
L 208.652388 85.016881 
L 209.311952 28.815259 
L 209.565631 20.892396 
L 209.616367 20.65963 
L 209.717838 22.12614 
L 209.920781 29.761131 
L 210.17446 46.540435 
L 210.88476 120.201991 
L 211.493589 173.325346 
L 211.798003 183.640477 
L 211.848739 183.553792 
L 211.899474 183.84234 
L 212.000946 182.132232 
L 212.203889 175.376734 
L 212.66051 153.849329 
L 213.523018 106.560252 
L 214.537732 26.52688 
L 214.68994 24.982118 
L 214.791411 25.300305 
L 214.943618 29.182132 
L 215.197297 41.790767 
L 215.603183 75.734409 
L 216.617897 171.812086 
L 216.922312 183.534682 
L 216.973047 184.041653 
L 217.023783 183.8512 
L 217.125255 182.904723 
L 217.378933 173.365661 
L 218.647326 108.087543 
L 219.154684 61.725558 
L 219.611305 29.819415 
L 219.814248 25.367451 
L 219.864984 25.613519 
L 219.91572 25.702717 
L 220.017191 27.261852 
L 220.27087 36.851822 
L 220.676756 68.095315 
L 221.843677 180.75781 
L 222.097356 185.670784 
L 222.148092 185.899747 
L 222.300299 182.160274 
L 223.315013 134.412344 
L 223.720899 109.68234 
L 224.837085 26.285448 
L 224.938557 25.386839 
L 225.040028 26.807287 
L 225.192235 31.635583 
L 225.49665 48.743602 
L 226.054743 98.522216 
L 226.967986 179.573858 
L 227.221665 185.167023 
L 227.2724 185.084586 
L 227.475343 179.629703 
L 228.439322 132.287515 
L 228.997415 95.715636 
L 229.758451 31.7385 
L 230.01213 25.144692 
L 230.062865 25.24334 
L 230.215073 28.108843 
L 230.418015 36.167533 
L 230.773166 61.9586 
L 232.14303 181.429499 
L 232.295237 184.26574 
L 232.345973 183.791425 
L 232.49818 180.475784 
L 232.751859 169.650714 
L 233.817309 112.998443 
L 234.375402 66.317395 
L 234.832024 33.747594 
L 235.085702 27.196886 
L 235.187174 27.542249 
L 235.390117 33.455963 
L 235.643796 47.276419 
L 236.201889 98.827042 
L 236.962924 172.770964 
L 237.216603 183.405521 
L 237.318075 184.227908 
L 237.36881 184.1236 
L 237.470282 182.743881 
L 237.673225 175.890519 
L 238.890882 111.389799 
L 239.246032 80.022978 
L 239.804125 35.019434 
L 240.007068 28.13332 
L 240.057804 28.137337 
L 240.10854 28.001023 
L 240.260747 29.919607 
L 240.615897 46.01178 
L 241.123254 88.758401 
L 242.137969 177.321557 
L 242.391647 184.453809 
L 242.442383 184.378187 
L 242.645326 180.327664 
L 242.899005 169.398584 
L 243.609305 133.720418 
L 244.015191 110.411549 
L 244.421077 73.654684 
L 244.97917 30.455722 
L 245.232848 22.418854 
L 245.283584 22.360605 
L 245.486527 27.295948 
L 245.740206 41.972237 
L 246.247563 89.876569 
L 247.008599 167.167989 
L 247.313013 181.831302 
L 247.414485 183.306715 
L 247.46522 183.159271 
L 247.515956 183.078643 
L 247.566692 182.732734 
L 247.871106 172.185653 
L 249.088764 104.903987 
L 250.154214 29.154107 
L 250.255685 28.226009 
L 250.306421 28.545967 
L 250.5601 35.449884 
L 250.91525 55.852826 
L 251.422607 103.860067 
L 252.183643 171.631188 
L 252.437322 181.260552 
L 252.589529 182.756268 
L 252.691 181.535031 
L 252.843208 176.426833 
L 253.350565 151.132503 
L 254.365279 88.039898 
L 254.974108 36.845298 
L 255.227787 29.205419 
L 255.278522 28.787298 
L 255.329258 29.154161 
L 255.379994 29.324534 
L 255.481465 31.284899 
L 255.633673 37.064316 
L 256.14103 71.91618 
L 257.460159 179.037187 
L 257.612366 181.682298 
L 257.663102 181.216604 
L 257.713837 181.083496 
L 257.866045 178.134277 
L 258.221195 161.930183 
L 259.388117 95.528947 
L 260.250624 27.466115 
L 260.453567 24.587118 
L 260.605774 26.722419 
L 260.808717 34.91535 
L 261.214603 66.493928 
L 262.482996 180.641931 
L 262.635203 183.783429 
L 262.685939 183.727302 
L 262.888882 179.848517 
L 263.396239 154.998439 
L 264.208011 113.62692 
L 265.374933 24.795421 
L 265.476404 23.941697 
L 265.577875 25.007454 
L 265.933026 39.042078 
L 266.288176 68.12445 
L 266.897004 131.97493 
L 267.404362 176.236822 
L 267.65804 184.090997 
L 267.708776 184.757599 
L 267.759512 184.713385 
L 267.810247 184.538542 
L 267.962455 181.09851 
L 268.266869 166.836743 
L 268.774226 141.65269 
L 269.078641 129.379967 
L 269.535262 95.449079 
L 270.39777 24.820088 
L 270.600713 21.393993 
L 270.651448 21.488479 
L 270.75292 23.174652 
L 270.955863 31.266148 
L 271.412484 68.47795 
L 272.782349 183.964073 
L 272.88382 184.810376 
L 272.934556 184.796911 
L 273.137499 180.073953 
L 273.594121 158.312526 
L 274.608835 105.74771 
L 275.62355 22.348106 
L 275.775757 20.146259 
L 275.826493 20.258755 
L 276.029436 24.930087 
L 276.283114 39.553685 
L 276.993414 109.103929 
L 277.75445 178.721971 
L 277.957393 185.692453 
L 278.008129 185.994622 
L 278.058865 185.780077 
L 278.160336 184.671269 
L 278.414015 174.534069 
L 279.225786 135.874183 
L 279.733144 105.14871 
L 280.747858 25.969642 
L 280.84933 24.990767 
L 280.900065 25.369413 
L 280.950801 25.241967 
L 281.153744 30.702513 
L 281.55963 56.669649 
L 282.98023 178.940392 
L 283.132438 181.468797 
L 283.233909 180.738958 
L 283.386116 178.099906 
L 283.639795 167.336218 
L 284.908188 96.213804 
L 285.71996 31.199114 
L 285.922903 27.212561 
L 285.973638 27.321336 
L 286.07511 28.979926 
L 286.278053 36.210097 
L 286.633203 58.895602 
L 287.343503 129.01481 
L 287.901596 177.68597 
L 288.155275 186.091351 
L 288.256746 185.372071 
L 288.358218 183.310722 
L 288.764103 163.174289 
L 290.032497 82.774314 
L 290.641325 34.320687 
L 290.895004 28.098116 
L 290.94574 28.031634 
L 291.047211 28.527029 
L 291.199418 32.468471 
L 291.554569 52.536626 
L 292.163397 109.058812 
L 292.924433 177.104628 
L 293.178112 184.566997 
L 293.228848 184.668926 
L 293.381055 182.44606 
L 293.583998 174.915026 
L 294.953862 108.147773 
L 295.968577 24.856753 
L 296.120784 21.970444 
L 296.17152 22.017914 
L 296.272991 23.43222 
L 296.475934 30.306558 
L 296.729613 46.099665 
L 297.490649 123.120157 
L 298.048742 172.823267 
L 298.30242 182.782913 
L 298.454628 183.744125 
L 298.657571 178.4411 
L 299.621549 132.404046 
L 300.230378 88.733378 
L 300.839207 37.686236 
L 301.143621 27.555457 
L 301.194357 27.485913 
L 301.346564 29.227546 
L 301.650979 42.770566 
L 302.158336 85.18104 
L 303.325258 182.044848 
L 303.426729 183.083783 
L 303.477465 182.732153 
L 303.629672 179.679083 
L 303.984822 163.598429 
L 305.303951 81.310338 
L 305.91278 33.477722 
L 306.166458 26.648921 
L 306.217194 26.411677 
L 306.26793 26.634512 
L 306.369401 27.533094 
L 306.521608 32.657142 
L 306.775287 47.257693 
L 307.181173 85.402266 
L 308.246623 179.785118 
L 308.449566 181.855233 
L 308.551038 180.494565 
L 308.804716 171.072616 
L 310.073109 101.268339 
L 311.037088 28.836236 
L 311.189296 26.979834 
L 311.240031 27.063163 
L 311.341503 28.764926 
L 311.595181 38.783478 
L 311.950331 64.126149 
L 313.320196 182.725581 
L 313.472403 183.808274 
L 313.675346 180.878205 
L 315.146682 105.767747 
L 316.161397 25.020398 
L 316.36434 23.137666 
L 316.567283 27.822094 
L 316.973169 51.65023 
L 317.683469 121.030102 
L 318.241562 174.127437 
L 318.49524 185.321564 
L 318.647448 186.422013 
L 318.748919 185.069224 
L 319.002598 175.306054 
L 319.763634 142.370689 
L 320.220255 120.105712 
L 320.626141 83.769129 
L 321.285706 25.8622 
L 321.539384 19.280401 
L 321.59012 19.338345 
L 321.691591 20.808134 
L 321.894534 28.151484 
L 322.30042 57.057897 
L 323.112192 143.25711 
L 323.568813 179.626541 
L 323.822492 186.763462 
L 323.873228 186.905465 
L 323.923963 186.765964 
L 323.974699 186.355356 
L 324.177642 178.382467 
L 325.598242 104.263611 
L 326.612957 22.028637 
L 326.8159 19.82243 
L 326.866636 19.925958 
L 327.069579 27.462981 
L 327.424729 52.574337 
L 328.439443 154.851014 
L 328.794593 180.024961 
L 329.048272 186.745769 
L 329.149743 185.743012 
L 329.301951 180.866163 
L 330.722551 106.997173 
L 331.179173 61.753744 
L 331.635794 26.617436 
L 331.838737 21.026055 
L 331.889473 21.110153 
L 331.990944 22.208999 
L 332.193887 29.062785 
L 332.599773 56.41245 
L 334.071109 184.622627 
L 334.172581 185.789551 
L 334.223316 185.403212 
L 334.324788 184.004252 
L 334.578466 174.54928 
L 335.694652 116.962616 
L 336.151274 77.45473 
L 336.760103 29.466123 
L 337.013781 22.957288 
L 337.064517 22.895881 
L 337.115253 22.949243 
L 337.318196 29.227363 
L 337.673346 52.317914 
L 338.180703 98.978371 
L 339.043211 176.745181 
L 339.296889 183.682346 
L 339.347625 183.742235 
L 339.398361 183.605761 
L 339.550568 180.875253 
L 340.71749 126.038332 
L 341.174111 89.739569 
L 341.935147 28.901604 
L 342.13809 24.758531 
L 342.239561 26.187438 
L 342.391769 30.079551 
L 342.594712 39.893533 
L 342.949862 67.132664 
L 343.609426 133.696215 
L 344.116783 176.486851 
L 344.370462 185.250183 
L 344.421198 185.254585 
L 344.471934 185.118412 
L 344.573405 183.501 
L 344.877819 170.930804 
L 346.247684 93.230125 
L 347.059456 27.978424 
L 347.262399 23.769484 
L 347.313134 23.504271 
L 347.414606 24.692436 
L 347.617549 32.555818 
L 347.871227 49.011403 
L 348.378585 97.001189 
L 349.139621 173.105362 
L 349.444035 186.972899 
L 349.494771 187.03516 
L 349.545506 187.318285 
L 349.646978 186.198568 
L 349.900656 176.742021 
L 351.270521 108.785452 
L 351.676407 69.468194 
L 352.183764 27.32051 
L 352.437443 20.949928 
L 352.488179 20.842255 
L 352.58965 21.560837 
L 352.741857 26.255206 
L 352.995536 39.811063 
L 353.452157 80.829251 
L 354.416136 174.114832 
L 354.669815 183.962886 
L 354.771286 184.79338 
L 354.822022 184.401344 
L 355.024965 179.446849 
L 356.141151 130.730508 
L 356.496301 106.046968 
L 357.054394 50.564619 
L 357.46028 23.731532 
L 357.612487 20.734752 
L 357.663223 20.837808 
L 357.713959 21.001933 
L 357.916902 26.005528 
L 358.322787 52.699003 
L 358.931616 114.250551 
L 359.591181 175.305962 
L 359.844859 184.756065 
L 359.946331 185.558562 
L 360.047802 184.433804 
L 360.402952 169.11651 
L 361.671346 97.525387 
L 362.584589 24.505114 
L 362.736796 22.152262 
L 362.838267 23.06703 
L 362.990474 26.855384 
L 363.244153 42.571317 
L 363.75151 90.94288 
L 364.563282 171.526193 
L 364.867696 183.347937 
L 364.969168 183.864142 
L 365.121375 181.77868 
L 365.324318 173.31364 
L 366.592711 101.729013 
L 367.505954 30.520319 
L 367.658162 28.614278 
L 367.810369 29.957276 
L 368.013312 36.263251 
L 368.26699 51.427134 
L 368.97729 114.577874 
L 369.636855 174.402583 
L 369.941269 184.676075 
L 370.093477 183.635797 
L 370.296419 177.169645 
L 371.108191 140.019872 
L 371.564813 114.781702 
L 372.07217 67.696063 
L 372.579527 28.183452 
L 372.833206 21.638641 
L 372.985413 23.147265 
L 373.239092 33.60366 
L 373.644978 63.508777 
L 374.253806 125.707941 
L 374.811899 176.850141 
L 375.065578 185.005116 
L 375.167049 185.565207 
L 375.369992 181.428 
L 376.689121 118.210585 
L 377.044271 89.06398 
L 377.754572 28.415264 
L 378.00825 21.386495 
L 378.211193 23.890423 
L 378.566343 42.867123 
L 379.124436 94.723844 
L 380.037679 178.263025 
L 380.291358 185.685803 
L 380.342094 185.975737 
L 380.443565 184.684306 
L 380.595772 180.010188 
L 381.762694 123.737928 
L 382.117844 96.816232 
L 382.87888 29.744512 
L 383.132559 21.998985 
L 383.183295 21.588574 
L 383.436973 26.084034 
L 383.741388 43.24331 
L 384.198009 86.074711 
L 385.161988 179.578463 
L 385.415667 187.942228 
L 385.466402 188.125957 
L 385.517138 187.950521 
L 385.618609 186.36191 
L 385.821552 178.656488 
L 386.430381 148.112876 
L 386.836267 132.365584 
L 387.343624 96.731236 
L 388.10466 28.262995 
L 388.358339 20.973148 
L 388.45981 20.645226 
L 388.561282 22.223625 
L 388.865696 36.228676 
L 389.423789 84.809787 
L 390.438504 182.428896 
L 390.641447 188.039267 
L 390.692182 188.157293 
L 390.793654 187.092434 
L 391.098068 175.527576 
L 391.098068 175.527576 
" style="fill:none;stroke:#ff7f0e;stroke-linecap:square;stroke-width:1.5;"/>
   </g>
   <g id="patch_3">
    <path d="M 71.51625 224.64 
L 71.51625 7.2 
" style="fill:none;stroke:#000000;stroke-linecap:square;stroke-linejoin:miter;stroke-width:0.8;"/>
   </g>
   <g id="patch_4">
    <path d="M 406.31625 224.64 
L 406.31625 7.2 
" style="fill:none;stroke:#000000;stroke-linecap:square;stroke-linejoin:miter;stroke-width:0.8;"/>
   </g>
   <g id="patch_5">
    <path d="M 71.51625 224.64 
L 406.31625 224.64 
" style="fill:none;stroke:#000000;stroke-linecap:square;stroke-linejoin:miter;stroke-width:0.8;"/>
   </g>
   <g id="patch_6">
    <path d="M 71.51625 7.2 
L 406.31625 7.2 
" style="fill:none;stroke:#000000;stroke-linecap:square;stroke-linejoin:miter;stroke-width:0.8;"/>
   </g>
   <g id="legend_1">
    <g id="line2d_10">
     <path d="M 433.45625 27.110312 
L 485.45625 27.110312 
" style="fill:none;stroke:#1f77b4;stroke-linecap:square;stroke-width:1.5;"/>
    </g>
    <g id="line2d_11"/>
    <g id="text_10">
     <!-- exact -->
     <defs>
      <path d="M 0.734375 0 
L 19.671875 26.953125 
L 2.15625 51.859375 
L 13.140625 51.859375 
L 21.09375 39.703125 
Q 23.34375 36.234375 24.703125 33.890625 
Q 26.859375 37.109375 28.65625 39.59375 
L 37.40625 51.859375 
L 47.90625 51.859375 
L 29.984375 27.4375 
L 49.265625 0 
L 38.484375 0 
L 27.828125 16.109375 
L 25 20.453125 
L 11.375 0 
z
" id="ArialMT-120"/>
      <path d="M 40.4375 19 
L 49.078125 17.875 
Q 47.65625 8.9375 41.8125 3.875 
Q 35.984375 -1.171875 27.484375 -1.171875 
Q 16.84375 -1.171875 10.375 5.78125 
Q 3.90625 12.75 3.90625 25.734375 
Q 3.90625 34.125 6.6875 40.421875 
Q 9.46875 46.734375 15.15625 49.875 
Q 20.84375 53.03125 27.546875 53.03125 
Q 35.984375 53.03125 41.359375 48.75 
Q 46.734375 44.484375 48.25 36.625 
L 39.703125 35.296875 
Q 38.484375 40.53125 35.375 43.15625 
Q 32.28125 45.796875 27.875 45.796875 
Q 21.234375 45.796875 17.078125 41.03125 
Q 12.9375 36.28125 12.9375 25.984375 
Q 12.9375 15.53125 16.9375 10.796875 
Q 20.953125 6.0625 27.390625 6.0625 
Q 32.5625 6.0625 36.03125 9.234375 
Q 39.5 12.40625 40.4375 19 
z
" id="ArialMT-99"/>
     </defs>
     <g transform="translate(506.25625 36.210312)scale(0.26 -0.26)">
      <use xlink:href="#ArialMT-101"/>
      <use x="55.615234" xlink:href="#ArialMT-120"/>
      <use x="105.615234" xlink:href="#ArialMT-97"/>
      <use x="161.230469" xlink:href="#ArialMT-99"/>
      <use x="211.230469" xlink:href="#ArialMT-116"/>
     </g>
    </g>
    <g id="line2d_12">
     <path d="M 433.45625 63.888125 
L 485.45625 63.888125 
" style="fill:none;stroke:#ff7f0e;stroke-linecap:square;stroke-width:1.5;"/>
    </g>
    <g id="line2d_13"/>
    <g id="text_11">
     <!-- estimated -->
     <g transform="translate(506.25625 72.988125)scale(0.26 -0.26)">
      <use xlink:href="#ArialMT-101"/>
      <use x="55.615234" xlink:href="#ArialMT-115"/>
      <use x="105.615234" xlink:href="#ArialMT-116"/>
      <use x="133.398438" xlink:href="#ArialMT-105"/>
      <use x="155.615234" xlink:href="#ArialMT-109"/>
      <use x="238.916016" xlink:href="#ArialMT-97"/>
      <use x="294.53125" xlink:href="#ArialMT-116"/>
      <use x="322.314453" xlink:href="#ArialMT-101"/>
      <use x="377.929688" xlink:href="#ArialMT-100"/>
     </g>
    </g>
   </g>
  </g>
 </g>
 <defs>
  <clipPath id="p5e9032c91c">
   <rect height="217.44" width="334.8" x="71.51625" y="7.2"/>
  </clipPath>
 </defs>
</svg>
