<?xml version="1.0" encoding="utf-8" standalone="no"?>
<!DOCTYPE svg PUBLIC "-//W3C//DTD SVG 1.1//EN"
  "http://www.w3.org/Graphics/SVG/1.1/DTD/svg11.dtd">
<!-- Created with matplotlib (https://matplotlib.org/) -->
<svg height="293.16625pt" version="1.1" viewBox="0 0 659.702188 293.16625" width="659.702188pt" xmlns="http://www.w3.org/2000/svg" xmlns:xlink="http://www.w3.org/1999/xlink">
 <metadata>
  <rdf:RDF xmlns:cc="http://creativecommons.org/ns#" xmlns:dc="http://purl.org/dc/elements/1.1/" xmlns:rdf="http://www.w3.org/1999/02/22-rdf-syntax-ns#">
   <cc:Work>
    <dc:type rdf:resource="http://purl.org/dc/dcmitype/StillImage"/>
    <dc:date>2022-01-24T15:15:52.941142</dc:date>
    <dc:format>image/svg+xml</dc:format>
    <dc:creator>
     <cc:Agent>
      <dc:title>Matplotlib v3.3.2, https://matplotlib.org/</dc:title>
     </cc:Agent>
    </dc:creator>
   </cc:Work>
  </rdf:RDF>
 </metadata>
 <defs>
  <style type="text/css">*{stroke-linecap:butt;stroke-linejoin:round;}</style>
 </defs>
 <g id="figure_1">
  <g id="patch_1">
   <path d="M 0 293.16625 
L 659.702188 293.16625 
L 659.702188 0 
L 0 0 
z
" style="fill:#ffffff;"/>
  </g>
  <g id="axes_1">
   <g id="patch_2">
    <path d="M 76.448125 224.64 
L 411.248125 224.64 
L 411.248125 7.2 
L 76.448125 7.2 
z
" style="fill:#ffffff;"/>
   </g>
   <g id="line2d_1">
    <path clip-path="url(#p82a681dafe)" d="M 91.666307 214.756364 
L 91.767778 212.802217 
L 92.072193 194.658777 
L 92.782493 152.251068 
L 93.847943 104.916228 
L 95.014865 19.26171 
L 95.116336 18.644891 
L 95.167072 18.7941 
L 95.319279 20.954696 
L 95.522222 28.420282 
L 95.928108 54.699292 
L 97.45018 159.326008 
L 97.653123 161.374881 
L 97.754594 160.96458 
L 97.906801 158.969943 
L 98.211216 151.237983 
L 99.428873 112.454423 
L 100.646531 59.263854 
L 100.748002 58.796661 
L 100.798738 58.950485 
L 100.950945 61.062972 
L 101.204624 68.621419 
L 101.661245 89.52078 
L 102.929639 146.836917 
L 103.132582 148.870173 
L 103.183317 148.869964 
L 103.335524 148.032939 
L 103.538467 144.851597 
L 104.045825 129.477691 
L 104.705389 103.903405 
L 105.517161 75.315525 
L 105.770839 71.840212 
L 105.872311 71.425444 
L 105.923047 71.455061 
L 106.075254 72.342995 
L 106.328932 76.95859 
L 106.734818 91.368407 
L 108.003211 144.466069 
L 108.206154 146.264362 
L 108.307626 145.695976 
L 108.61204 140.671074 
L 108.916455 132.423629 
L 109.981905 92.901343 
L 110.438526 77.965472 
L 110.742941 73.840386 
L 110.844412 73.786262 
L 110.945884 74.435933 
L 111.148827 78.273775 
L 111.605448 93.732261 
L 112.670898 134.929397 
L 112.924577 138.213053 
L 113.076784 138.435424 
L 113.12752 138.374032 
L 113.279727 137.443223 
L 113.48267 135.225785 
L 113.736349 129.883943 
L 114.345178 109.956861 
L 115.207685 84.016473 
L 115.410628 81.498361 
L 115.461364 81.348717 
L 115.512099 81.389177 
L 115.664306 82.066592 
L 115.867249 83.462171 
L 116.120928 87.39901 
L 116.476078 98.014716 
L 117.541528 133.801065 
L 117.845943 137.92053 
L 117.896679 137.965905 
L 118.048886 137.00177 
L 118.302564 134.162051 
L 118.759186 122.934199 
L 120.230522 82.506285 
L 120.433465 82.014591 
L 120.534936 82.29022 
L 120.737879 84.62297 
L 120.991558 90.287228 
L 121.44818 106.356072 
L 122.15848 131.273353 
L 122.51363 137.665891 
L 122.665837 138.647779 
L 122.716573 138.561768 
L 122.86878 137.164257 
L 123.173194 130.732401 
L 123.731287 113.526253 
L 124.746002 82.591266 
L 124.999681 80.348522 
L 125.101152 80.683078 
L 125.354831 83.926926 
L 125.659245 91.265307 
L 126.927638 131.578938 
L 127.232053 135.460007 
L 127.333524 135.754415 
L 127.434996 135.077303 
L 127.688674 131.036381 
L 128.145296 119.899894 
L 129.362953 88.989438 
L 129.667368 86.191828 
L 129.718103 86.115079 
L 129.768839 86.18662 
L 129.921046 86.542869 
L 130.073253 87.748509 
L 130.377668 93.756148 
L 130.885025 108.716664 
L 131.54459 128.567488 
L 131.89974 133.429038 
L 132.102683 133.963211 
L 132.204154 133.581882 
L 132.407097 130.79173 
L 132.863719 119.817336 
L 134.182847 84.508883 
L 134.436526 83.243138 
L 134.487262 83.250681 
L 134.588733 83.69521 
L 134.74094 85.799084 
L 135.096091 96.507476 
L 136.009334 126.441383 
L 136.41522 134.243371 
L 136.618162 135.305732 
L 136.719634 134.988359 
L 136.871841 133.644496 
L 137.176255 127.823539 
L 139.002742 81.928036 
L 139.104213 82.311226 
L 139.307156 84.496266 
L 139.713042 92.016093 
L 140.118928 104.935856 
L 140.930699 130.057668 
L 141.235114 133.445482 
L 141.438057 134.098358 
L 141.590264 133.300054 
L 141.793207 130.495418 
L 142.249828 119.460071 
L 143.619693 85.557241 
L 143.7719 85.187767 
L 143.873372 85.485625 
L 144.076315 87.497363 
L 144.431465 93.416334 
L 144.938822 107.368315 
L 145.547651 125.872822 
L 145.902801 132.269622 
L 146.156479 134.249033 
L 146.257951 133.955891 
L 146.410158 132.876031 
L 146.663837 129.020006 
L 147.069723 119.78918 
L 147.780023 96.952485 
L 148.338116 82.814798 
L 148.591794 80.583313 
L 148.693266 80.827587 
L 148.845473 82.061305 
L 149.099152 87.744958 
L 149.555773 102.552672 
L 150.367545 130.123645 
L 150.671959 134.429094 
L 150.773431 134.627811 
L 150.925638 133.921713 
L 151.179317 131.171511 
L 151.534467 123.136441 
L 152.853596 89.065283 
L 153.208746 85.657515 
L 153.310217 85.604045 
L 153.411689 85.96717 
L 153.665367 89.270247 
L 154.020517 97.462756 
L 155.441118 133.556156 
L 155.644061 134.232052 
L 155.745532 133.546975 
L 155.999211 129.551361 
L 156.455832 117.612827 
L 157.724226 86.730697 
L 157.825697 86.385106 
L 157.876433 86.438688 
L 158.079376 87.364697 
L 158.282319 89.681964 
L 158.586733 96.157556 
L 159.855126 129.248131 
L 160.108805 131.228892 
L 160.159541 131.212027 
L 160.261012 130.524597 
L 160.819105 121.992372 
L 161.224991 112.311585 
L 161.986027 92.42322 
L 162.341177 87.657068 
L 162.442648 87.318525 
L 162.493384 87.417801 
L 162.696327 88.881846 
L 163.102213 94.960755 
L 163.355891 101.283658 
L 164.370606 130.627931 
L 164.624285 132.695546 
L 164.725756 132.526081 
L 164.877963 131.382861 
L 165.233113 125.344992 
L 166.856657 88.053611 
L 167.161071 86.707959 
L 167.211807 86.775211 
L 167.364014 88.157877 
L 167.668428 94.292158 
L 168.378729 115.860934 
L 168.83535 127.572203 
L 169.089029 130.0098 
L 169.342707 130.677897 
L 169.444179 130.464861 
L 169.647122 129.362406 
L 169.9008 125.060408 
L 170.306686 115.109873 
L 171.270665 89.699977 
L 171.524344 87.837156 
L 171.676551 87.349279 
L 171.828758 87.857111 
L 171.93023 88.628697 
L 172.386851 96.939427 
L 172.944944 112.566173 
L 173.452301 127.013594 
L 173.756716 131.686626 
L 173.959659 132.435188 
L 174.111866 131.793131 
L 174.314809 129.466455 
L 174.720695 120.966447 
L 175.278788 105.11054 
L 175.786145 92.043698 
L 176.090559 87.852018 
L 176.293502 87.167288 
L 176.445709 87.80027 
L 176.750124 91.271049 
L 177.105274 97.457051 
L 177.561895 110.043761 
L 178.373667 130.399216 
L 178.678082 133.005231 
L 178.779553 133.142034 
L 178.93176 132.311038 
L 179.185439 128.764163 
L 179.540589 119.591485 
L 180.250889 97.796229 
L 180.910454 86.28842 
L 181.011925 85.858646 
L 181.062661 85.964909 
L 181.316339 87.317712 
L 181.519282 89.896359 
L 181.925168 99.155629 
L 182.432525 116.28171 
L 182.990618 132.159575 
L 183.244297 134.040175 
L 183.345769 134.336662 
L 183.396504 134.26689 
L 183.548711 133.492722 
L 183.80239 130.015508 
L 184.309747 118.199613 
L 185.375198 88.997522 
L 185.730348 84.73324 
L 185.882555 84.358286 
L 185.984026 84.839072 
L 186.186969 87.775612 
L 186.542119 96.365173 
L 187.810513 131.358111 
L 188.013456 132.512826 
L 188.114927 132.42675 
L 188.267134 131.773202 
L 188.520813 128.566607 
L 188.875963 120.758361 
L 189.535527 100.802039 
L 190.042885 88.045196 
L 190.347299 84.410874 
L 190.448771 83.944997 
L 190.499506 84.010968 
L 190.651713 85.463276 
L 191.057599 94.285429 
L 191.666428 110.899987 
L 192.427464 132.089222 
L 192.681143 134.764636 
L 192.731878 134.774538 
L 192.83335 134.430768 
L 193.137764 131.04585 
L 193.289971 125.953762 
L 193.594386 104.128093 
L 194.304686 52.317188 
L 194.6091 44.296701 
L 194.659836 43.997582 
L 194.710572 44.039699 
L 194.862779 45.628233 
L 195.065722 51.755621 
L 195.370136 70.451689 
L 195.978965 126.250563 
L 196.486322 165.696487 
L 196.740001 174.298395 
L 196.841472 174.898151 
L 196.942944 173.941892 
L 197.095151 169.636231 
L 197.551773 146.381435 
L 198.41428 89.159359 
L 199.023109 43.734549 
L 199.327523 34.879417 
L 199.378259 34.783119 
L 199.47973 35.648446 
L 199.682673 41.192891 
L 199.987088 58.371717 
L 200.443709 98.835492 
L 201.255481 173.35689 
L 201.509159 182.323648 
L 201.610631 182.911475 
L 201.712102 181.592326 
L 201.915045 173.638077 
L 203.234174 98.301023 
L 204.096682 31.390937 
L 204.299624 27.414219 
L 204.35036 27.348401 
L 204.451832 28.405157 
L 204.654775 34.779162 
L 204.959189 54.690379 
L 205.568018 113.902801 
L 206.227582 172.989765 
L 206.531997 182.914187 
L 206.582732 183.116943 
L 206.633468 182.946951 
L 206.734939 181.366909 
L 206.937882 173.706897 
L 208.257011 98.607863 
L 209.170254 28.03716 
L 209.373197 24.911969 
L 209.474669 26.066833 
L 209.677612 32.076704 
L 209.982026 50.71835 
L 210.438648 95.797576 
L 211.199684 167.880617 
L 211.554834 183.841336 
L 211.656305 184.891675 
L 211.707041 184.663164 
L 211.808512 182.800592 
L 212.112927 168.830318 
L 213.482791 88.507636 
L 214.193092 28.661476 
L 214.44677 20.702412 
L 214.497506 20.611562 
L 214.598977 21.896503 
L 214.80192 29.244531 
L 215.106335 50.033333 
L 215.816635 123.5987 
L 216.374728 171.038021 
L 216.679142 181.909444 
L 216.780614 182.454691 
L 216.882085 181.287325 
L 217.135764 173.31296 
L 218.049007 130.016038 
L 218.454893 101.13671 
L 219.418872 27.948466 
L 219.621815 25.269182 
L 219.723286 26.088985 
L 219.875493 29.987394 
L 220.129172 43.674319 
L 220.636529 89.492031 
L 221.600508 175.915526 
L 221.854187 182.522334 
L 221.904922 182.613701 
L 222.006394 181.513212 
L 222.260072 172.371128 
L 223.579201 102.291234 
L 224.492445 31.431165 
L 224.746123 26.185645 
L 224.796859 26.135915 
L 224.89833 27.201808 
L 225.050538 31.232449 
L 225.304216 45.681568 
L 225.760838 88.26889 
L 226.623345 173.556049 
L 226.877024 182.671902 
L 226.978495 183.671404 
L 227.029231 183.421224 
L 227.181438 180.095778 
L 227.485853 165.586236 
L 228.855717 87.318519 
L 229.566017 32.004795 
L 229.819696 26.587793 
L 229.921167 27.374692 
L 230.12411 33.363549 
L 230.377789 47.546212 
L 230.834411 87.111701 
L 231.849125 177.935714 
L 232.102804 183.686214 
L 232.204275 182.772859 
L 232.407218 176.207326 
L 233.016047 144.523716 
L 233.675611 109.850991 
L 234.182969 65.3743 
L 234.63959 31.850022 
L 234.893269 25.747796 
L 234.944005 25.767998 
L 235.045476 27.009166 
L 235.248419 33.217214 
L 235.552833 52.350706 
L 236.110926 106.722539 
L 236.821227 171.750104 
L 237.125641 182.243107 
L 237.176377 182.519191 
L 237.227112 182.289539 
L 237.37932 179.331518 
L 237.683734 166.198489 
L 238.850656 100.516068 
L 239.814635 30.427264 
L 240.017577 27.477775 
L 240.119049 28.647281 
L 240.321992 35.176721 
L 240.626406 54.450479 
L 241.235235 115.021069 
L 241.844064 171.425533 
L 242.097742 181.430653 
L 242.199214 182.33582 
L 242.24995 182.243309 
L 242.351421 181.025616 
L 242.554364 174.377007 
L 243.873493 101.42956 
L 244.736 33.753618 
L 244.938943 29.087903 
L 244.989679 28.937547 
L 245.040415 29.077316 
L 245.192622 31.686984 
L 245.4463 41.973902 
L 245.801451 68.919814 
L 247.120579 181.163052 
L 247.272787 183.666421 
L 247.374258 183.070826 
L 247.577201 177.895672 
L 247.881615 162.096716 
L 249.200744 81.617099 
L 249.809573 32.503011 
L 250.063252 22.679677 
L 250.113987 22.200518 
L 250.164723 22.335827 
L 250.31693 25.463034 
L 250.570609 38.372311 
L 251.027231 78.582474 
L 252.092681 176.303124 
L 252.295624 181.21459 
L 252.34636 181.531123 
L 252.397095 181.447369 
L 252.549302 178.965963 
L 252.853717 166.622042 
L 253.969903 103.573322 
L 254.984617 31.704526 
L 255.136825 29.47022 
L 255.238296 30.177217 
L 255.441239 35.004081 
L 255.694918 47.348673 
L 256.050068 77.050668 
L 257.064782 170.673674 
L 257.369197 181.155894 
L 257.470668 181.893069 
L 257.521404 181.645995 
L 257.673611 177.950038 
L 257.978025 163.171097 
L 258.63759 129.171109 
L 259.043476 102.863439 
L 260.05819 31.295418 
L 260.210397 29.887315 
L 260.311869 30.530783 
L 260.464076 34.487164 
L 260.768491 51.143024 
L 261.174376 84.402514 
L 262.138355 170.446252 
L 262.392034 179.901144 
L 262.544241 181.014657 
L 262.645712 180.221074 
L 262.848655 174.197243 
L 263.203805 155.047199 
L 263.761899 127.905339 
L 264.167784 101.747014 
L 265.182499 26.065005 
L 265.334706 24.684979 
L 265.436178 25.700344 
L 265.63912 32.514762 
L 265.943535 52.639224 
L 266.450892 102.702543 
L 267.211928 171.597778 
L 267.465607 181.8628 
L 267.516342 182.335298 
L 267.567078 182.299719 
L 267.719285 179.916316 
L 267.972964 169.81084 
L 269.241357 99.116098 
L 270.103865 28.864643 
L 270.306808 24.36803 
L 270.357543 24.250307 
L 270.459015 25.401721 
L 270.712693 33.191427 
L 270.966372 48.905262 
L 271.473729 98.23605 
L 272.234765 171.898448 
L 272.488444 181.506355 
L 272.640651 183.250129 
L 272.691387 183.091038 
L 272.843594 180.311993 
L 273.097273 169.063522 
L 273.706101 138.228599 
L 274.061251 121.632157 
L 274.467137 89.415557 
L 275.228173 27.569221 
L 275.481852 21.862462 
L 275.532588 21.930976 
L 275.684795 24.574223 
L 275.887738 34.424663 
L 276.344359 72.392787 
L 277.511281 178.158441 
L 277.76496 184.05667 
L 277.815695 183.909367 
L 277.967903 181.339586 
L 278.221581 170.63822 
L 279.439239 108.592373 
L 280.555425 21.521201 
L 280.656896 20.593203 
L 280.707632 20.759009 
L 280.809103 21.992682 
L 281.012046 29.372258 
L 281.316461 51.33098 
L 281.925289 113.36829 
L 282.584854 174.651991 
L 282.838532 184.035602 
L 282.889268 184.400062 
L 282.940004 184.392229 
L 283.041475 183.123029 
L 283.244418 175.867775 
L 284.665019 99.410954 
L 285.578262 30.009988 
L 285.781205 26.630788 
L 285.83194 26.62707 
L 285.933412 27.755148 
L 286.136355 35.329062 
L 286.491505 59.942534 
L 287.201805 130.62659 
L 287.709162 172.025219 
L 287.962841 179.97457 
L 288.013577 180.268262 
L 288.064313 180.216402 
L 288.21652 178.577221 
L 288.419463 172.235612 
L 289.535649 113.874796 
L 289.99227 74.721206 
L 290.448892 39.085818 
L 290.753306 28.583546 
L 290.854778 28.071932 
L 291.006985 30.236296 
L 291.260663 40.758653 
L 291.666549 70.759859 
L 292.985678 183.865074 
L 293.036414 184.330876 
L 293.08715 184.30881 
L 293.188621 182.840635 
L 293.4423 172.714294 
L 294.761429 95.08842 
L 295.522465 35.339362 
L 295.776143 29.039713 
L 295.877615 28.629565 
L 295.979086 29.687479 
L 296.182029 36.043606 
L 296.435708 51.511141 
L 296.943065 98.43637 
L 297.805572 176.469038 
L 298.059251 183.352454 
L 298.109987 183.382147 
L 298.211458 182.406826 
L 298.414401 176.448864 
L 299.632059 120.080587 
L 300.037945 87.904396 
L 300.697509 31.503825 
L 301.001923 22.697419 
L 301.052659 22.563622 
L 301.154131 23.559388 
L 301.357073 29.758125 
L 301.610752 45.650743 
L 302.168845 100.510528 
L 302.929881 171.762809 
L 303.18356 181.485652 
L 303.285031 182.44576 
L 303.335767 182.246948 
L 303.437238 180.632279 
L 303.690917 170.641647 
L 304.857839 108.406294 
L 305.974025 29.516743 
L 306.075496 28.540494 
L 306.126232 28.575135 
L 306.227703 29.868485 
L 306.430646 36.798101 
L 306.735061 57.890966 
L 307.394625 120.953111 
L 308.003454 172.945602 
L 308.257133 181.697509 
L 308.307868 181.890802 
L 308.40934 180.888921 
L 308.612283 174.804093 
L 309.068904 150.99999 
L 309.82994 109.827722 
L 310.438769 56.314782 
L 310.844655 31.22657 
L 311.047598 26.724511 
L 311.149069 26.492729 
L 311.250541 27.479731 
L 311.453483 34.559709 
L 311.757898 55.584504 
L 312.569669 138.823552 
L 313.026291 174.33577 
L 313.229234 179.534543 
L 313.330705 179.953441 
L 313.432177 178.760262 
L 313.63512 172.454705 
L 314.142477 145.487165 
L 314.802042 111.408929 
L 316.019699 28.16591 
L 316.070435 27.743965 
L 316.121171 27.766968 
L 316.273378 30.246548 
L 316.476321 38.496254 
L 316.882206 68.393832 
L 318.1506 179.986728 
L 318.353543 182.689982 
L 318.404278 182.64158 
L 318.50575 181.317241 
L 318.759428 171.436454 
L 319.5712 132.959389 
L 319.92635 112.172125 
L 321.144008 24.212261 
L 321.194743 23.812544 
L 321.245479 23.81913 
L 321.346951 24.965834 
L 321.549893 31.996486 
L 321.905044 55.028365 
L 322.463137 110.076363 
L 323.122701 173.827207 
L 323.37638 184.075647 
L 323.477851 185.160404 
L 323.528587 185.11915 
L 323.630058 183.769716 
L 323.833001 176.929634 
L 325.253602 106.45324 
L 326.369788 20.244483 
L 326.471259 19.833111 
L 326.572731 21.158706 
L 326.775674 28.087566 
L 327.080088 47.417351 
L 327.536709 93.482224 
L 328.348481 172.95656 
L 328.652895 185.32593 
L 328.754367 186.132393 
L 328.805103 185.965167 
L 328.95731 181.965149 
L 329.413931 158.352752 
L 330.479382 102.663045 
L 331.494096 22.698798 
L 331.697039 20.099222 
L 331.798511 21.719163 
L 332.001454 30.63669 
L 332.407339 61.61801 
L 333.82794 184.691923 
L 333.929411 185.890438 
L 333.980147 185.701211 
L 334.132354 181.990008 
L 334.53824 160.302631 
L 334.994862 139.542552 
L 335.400747 120.670232 
L 335.755898 91.425962 
L 336.466198 29.34287 
L 336.719876 21.865138 
L 336.770612 21.778728 
L 336.872084 22.762179 
L 337.024291 27.00766 
L 337.328705 43.940886 
L 337.734591 80.10165 
L 338.749305 175.990186 
L 339.002984 184.528872 
L 339.05372 184.827911 
L 339.104456 184.725061 
L 339.256663 182.085979 
L 339.561077 169.077074 
L 340.880206 91.14708 
L 341.590506 32.868115 
L 341.894921 23.250184 
L 341.945656 22.990665 
L 341.996392 23.267153 
L 342.148599 26.882902 
L 342.402278 40.322019 
L 342.960371 87.750364 
L 343.92435 176.279131 
L 344.178028 182.840873 
L 344.228764 183.067351 
L 344.2795 182.967291 
L 344.380971 181.593747 
L 344.583914 174.102014 
L 345.953779 97.084511 
L 346.816286 30.673967 
L 347.019229 26.292407 
L 347.069965 26.386658 
L 347.171436 27.632586 
L 347.374379 34.212781 
L 347.678794 53.078438 
L 348.236887 106.506162 
L 348.997923 176.02774 
L 349.251601 184.046104 
L 349.302337 184.274957 
L 349.353073 184.077596 
L 349.50528 180.980583 
L 349.809694 167.329554 
L 350.469259 134.651322 
L 350.824409 115.965322 
L 351.331766 73.250489 
L 351.889859 31.114342 
L 352.143538 24.328798 
L 352.194274 24.182651 
L 352.295745 25.237821 
L 352.498688 32.423574 
L 352.853838 56.749589 
L 353.462667 119.143195 
L 354.122231 178.575483 
L 354.37591 186.007585 
L 354.426646 186.044317 
L 354.528117 184.709256 
L 354.73106 178.010539 
L 356.050189 115.017966 
L 356.506811 73.242829 
L 357.014168 30.360227 
L 357.267846 22.357824 
L 357.369318 21.573519 
L 357.420054 21.623494 
L 357.521525 23.052454 
L 357.724468 30.4147 
L 358.028882 51.325196 
L 358.739183 123.702902 
L 359.297276 173.696779 
L 359.550954 183.110357 
L 359.652426 183.751383 
L 359.753897 182.579301 
L 359.95684 176.760775 
L 361.073026 126.320575 
L 361.428176 99.657239 
L 362.290684 25.520404 
L 362.493627 21.127032 
L 362.544362 21.095511 
L 362.645834 22.232428 
L 362.798041 26.365207 
L 363.102455 43.909759 
L 363.559077 85.816709 
L 364.47232 174.573608 
L 364.725999 183.605718 
L 364.82747 184.343177 
L 364.928941 183.054089 
L 365.131884 175.674638 
L 366.197335 122.426013 
L 366.603221 91.41412 
L 367.313521 30.839692 
L 367.567199 22.754032 
L 367.617935 22.512498 
L 367.668671 22.681442 
L 367.820878 25.366095 
L 368.023821 35.349087 
L 368.480443 73.736163 
L 369.545893 175.328498 
L 369.799571 182.227233 
L 369.850307 182.298908 
L 369.951779 181.500593 
L 370.103986 177.032275 
L 370.4084 160.359802 
L 371.017229 129.756174 
L 371.372379 108.586802 
L 372.437829 32.122111 
L 372.590037 30.732334 
L 372.640772 30.825942 
L 372.742244 31.909277 
L 372.945187 38.247643 
L 373.351072 65.159835 
L 373.959901 125.538449 
L 374.517994 173.960182 
L 374.771673 183.160381 
L 374.873144 183.760798 
L 374.974616 182.710645 
L 375.177559 176.597531 
L 376.34448 119.895108 
L 376.750366 86.167274 
L 377.409931 30.400759 
L 377.663609 22.023943 
L 377.714345 21.722734 
L 377.765081 21.804085 
L 377.866552 23.268894 
L 378.069495 30.792542 
L 378.424645 53.998327 
L 378.932003 104.186555 
L 379.693039 176.311808 
L 379.946717 184.151667 
L 379.997453 184.384251 
L 380.048189 184.293389 
L 380.14966 183.115161 
L 380.352603 176.19869 
L 381.570261 116.897775 
L 381.976146 82.582301 
L 382.584975 31.854547 
L 382.889389 22.587607 
L 382.940125 22.424498 
L 382.990861 22.634199 
L 383.092332 24.580482 
L 383.346011 36.353457 
L 383.701161 63.10604 
L 385.071026 183.603473 
L 385.223233 185.345927 
L 385.324704 184.255492 
L 385.527647 177.265572 
L 386.948248 99.714139 
L 387.810755 27.756509 
L 388.013698 22.417359 
L 388.064434 22.256842 
L 388.11517 22.335078 
L 388.216641 23.469045 
L 388.368848 28.193124 
L 388.673263 46.563789 
L 389.129884 91.32837 
L 389.992391 175.721506 
L 390.24607 186.276666 
L 390.347542 187.240157 
L 390.398277 187.09224 
L 390.550484 184.071625 
L 390.804163 171.893533 
L 391.362256 144.672825 
L 391.768142 128.114472 
L 392.123292 104.169645 
L 393.138007 24.328996 
L 393.34095 21.59484 
L 393.442421 22.772443 
L 393.645364 30.128968 
L 394.000514 54.657455 
L 394.457136 101.161415 
L 395.268907 179.175544 
L 395.522586 187.109868 
L 395.573322 187.099236 
L 395.674793 185.684919 
L 395.877736 179.191281 
L 396.029943 171.450649 
L 396.029943 171.450649 
" style="fill:none;stroke:#1f77b4;stroke-linecap:square;stroke-width:1.5;"/>
   </g>
   <g id="matplotlib.axis_1">
    <g id="xtick_1">
     <g id="line2d_2">
      <defs>
       <path d="M 0 0 
L 0 3.5 
" id="md418617753" style="stroke:#000000;stroke-width:0.8;"/>
      </defs>
      <g>
       <use style="stroke:#000000;stroke-width:0.8;" x="91.666307" xlink:href="#md418617753" y="224.64"/>
      </g>
     </g>
     <g id="text_1">
      <!-- 0 -->
      <g transform="translate(83.395057 251.395937)scale(0.26 -0.26)">
       <defs>
        <path d="M 31.78125 66.40625 
Q 24.171875 66.40625 20.328125 58.90625 
Q 16.5 51.421875 16.5 36.375 
Q 16.5 21.390625 20.328125 13.890625 
Q 24.171875 6.390625 31.78125 6.390625 
Q 39.453125 6.390625 43.28125 13.890625 
Q 47.125 21.390625 47.125 36.375 
Q 47.125 51.421875 43.28125 58.90625 
Q 39.453125 66.40625 31.78125 66.40625 
z
M 31.78125 74.21875 
Q 44.046875 74.21875 50.515625 64.515625 
Q 56.984375 54.828125 56.984375 36.375 
Q 56.984375 17.96875 50.515625 8.265625 
Q 44.046875 -1.421875 31.78125 -1.421875 
Q 19.53125 -1.421875 13.0625 8.265625 
Q 6.59375 17.96875 6.59375 36.375 
Q 6.59375 54.828125 13.0625 64.515625 
Q 19.53125 74.21875 31.78125 74.21875 
z
" id="DejaVuSans-48"/>
       </defs>
       <use xlink:href="#DejaVuSans-48"/>
      </g>
     </g>
    </g>
    <g id="xtick_2">
     <g id="line2d_3">
      <g>
       <use style="stroke:#000000;stroke-width:0.8;" x="193.137764" xlink:href="#md418617753" y="224.64"/>
      </g>
     </g>
     <g id="text_2">
      <!-- 2 -->
      <g transform="translate(184.866514 251.395937)scale(0.26 -0.26)">
       <defs>
        <path d="M 19.1875 8.296875 
L 53.609375 8.296875 
L 53.609375 0 
L 7.328125 0 
L 7.328125 8.296875 
Q 12.9375 14.109375 22.625 23.890625 
Q 32.328125 33.6875 34.8125 36.53125 
Q 39.546875 41.84375 41.421875 45.53125 
Q 43.3125 49.21875 43.3125 52.78125 
Q 43.3125 58.59375 39.234375 62.25 
Q 35.15625 65.921875 28.609375 65.921875 
Q 23.96875 65.921875 18.8125 64.3125 
Q 13.671875 62.703125 7.8125 59.421875 
L 7.8125 69.390625 
Q 13.765625 71.78125 18.9375 73 
Q 24.125 74.21875 28.421875 74.21875 
Q 39.75 74.21875 46.484375 68.546875 
Q 53.21875 62.890625 53.21875 53.421875 
Q 53.21875 48.921875 51.53125 44.890625 
Q 49.859375 40.875 45.40625 35.40625 
Q 44.1875 33.984375 37.640625 27.21875 
Q 31.109375 20.453125 19.1875 8.296875 
z
" id="DejaVuSans-50"/>
       </defs>
       <use xlink:href="#DejaVuSans-50"/>
      </g>
     </g>
    </g>
    <g id="xtick_3">
     <g id="line2d_4">
      <g>
       <use style="stroke:#000000;stroke-width:0.8;" x="294.609222" xlink:href="#md418617753" y="224.64"/>
      </g>
     </g>
     <g id="text_3">
      <!-- 4 -->
      <g transform="translate(286.337972 251.395937)scale(0.26 -0.26)">
       <defs>
        <path d="M 37.796875 64.3125 
L 12.890625 25.390625 
L 37.796875 25.390625 
z
M 35.203125 72.90625 
L 47.609375 72.90625 
L 47.609375 25.390625 
L 58.015625 25.390625 
L 58.015625 17.1875 
L 47.609375 17.1875 
L 47.609375 0 
L 37.796875 0 
L 37.796875 17.1875 
L 4.890625 17.1875 
L 4.890625 26.703125 
z
" id="DejaVuSans-52"/>
       </defs>
       <use xlink:href="#DejaVuSans-52"/>
      </g>
     </g>
    </g>
    <g id="xtick_4">
     <g id="line2d_5">
      <g>
       <use style="stroke:#000000;stroke-width:0.8;" x="396.080679" xlink:href="#md418617753" y="224.64"/>
      </g>
     </g>
     <g id="text_4">
      <!-- 6 -->
      <g transform="translate(387.809429 251.395937)scale(0.26 -0.26)">
       <defs>
        <path d="M 33.015625 40.375 
Q 26.375 40.375 22.484375 35.828125 
Q 18.609375 31.296875 18.609375 23.390625 
Q 18.609375 15.53125 22.484375 10.953125 
Q 26.375 6.390625 33.015625 6.390625 
Q 39.65625 6.390625 43.53125 10.953125 
Q 47.40625 15.53125 47.40625 23.390625 
Q 47.40625 31.296875 43.53125 35.828125 
Q 39.65625 40.375 33.015625 40.375 
z
M 52.59375 71.296875 
L 52.59375 62.3125 
Q 48.875 64.0625 45.09375 64.984375 
Q 41.3125 65.921875 37.59375 65.921875 
Q 27.828125 65.921875 22.671875 59.328125 
Q 17.53125 52.734375 16.796875 39.40625 
Q 19.671875 43.65625 24.015625 45.921875 
Q 28.375 48.1875 33.59375 48.1875 
Q 44.578125 48.1875 50.953125 41.515625 
Q 57.328125 34.859375 57.328125 23.390625 
Q 57.328125 12.15625 50.6875 5.359375 
Q 44.046875 -1.421875 33.015625 -1.421875 
Q 20.359375 -1.421875 13.671875 8.265625 
Q 6.984375 17.96875 6.984375 36.375 
Q 6.984375 53.65625 15.1875 63.9375 
Q 23.390625 74.21875 37.203125 74.21875 
Q 40.921875 74.21875 44.703125 73.484375 
Q 48.484375 72.75 52.59375 71.296875 
z
" id="DejaVuSans-54"/>
       </defs>
       <use xlink:href="#DejaVuSans-54"/>
      </g>
     </g>
    </g>
    <g id="text_5">
     <!-- time (s) -->
     <g transform="translate(193.430469 280.559062)scale(0.26 -0.26)">
      <defs>
       <path d="M 18.3125 70.21875 
L 18.3125 54.6875 
L 36.8125 54.6875 
L 36.8125 47.703125 
L 18.3125 47.703125 
L 18.3125 18.015625 
Q 18.3125 11.328125 20.140625 9.421875 
Q 21.96875 7.515625 27.59375 7.515625 
L 36.8125 7.515625 
L 36.8125 0 
L 27.59375 0 
Q 17.1875 0 13.234375 3.875 
Q 9.28125 7.765625 9.28125 18.015625 
L 9.28125 47.703125 
L 2.6875 47.703125 
L 2.6875 54.6875 
L 9.28125 54.6875 
L 9.28125 70.21875 
z
" id="DejaVuSans-116"/>
       <path d="M 9.421875 54.6875 
L 18.40625 54.6875 
L 18.40625 0 
L 9.421875 0 
z
M 9.421875 75.984375 
L 18.40625 75.984375 
L 18.40625 64.59375 
L 9.421875 64.59375 
z
" id="DejaVuSans-105"/>
       <path d="M 52 44.1875 
Q 55.375 50.25 60.0625 53.125 
Q 64.75 56 71.09375 56 
Q 79.640625 56 84.28125 50.015625 
Q 88.921875 44.046875 88.921875 33.015625 
L 88.921875 0 
L 79.890625 0 
L 79.890625 32.71875 
Q 79.890625 40.578125 77.09375 44.375 
Q 74.3125 48.1875 68.609375 48.1875 
Q 61.625 48.1875 57.5625 43.546875 
Q 53.515625 38.921875 53.515625 30.90625 
L 53.515625 0 
L 44.484375 0 
L 44.484375 32.71875 
Q 44.484375 40.625 41.703125 44.40625 
Q 38.921875 48.1875 33.109375 48.1875 
Q 26.21875 48.1875 22.15625 43.53125 
Q 18.109375 38.875 18.109375 30.90625 
L 18.109375 0 
L 9.078125 0 
L 9.078125 54.6875 
L 18.109375 54.6875 
L 18.109375 46.1875 
Q 21.1875 51.21875 25.484375 53.609375 
Q 29.78125 56 35.6875 56 
Q 41.65625 56 45.828125 52.96875 
Q 50 49.953125 52 44.1875 
z
" id="DejaVuSans-109"/>
       <path d="M 56.203125 29.59375 
L 56.203125 25.203125 
L 14.890625 25.203125 
Q 15.484375 15.921875 20.484375 11.0625 
Q 25.484375 6.203125 34.421875 6.203125 
Q 39.59375 6.203125 44.453125 7.46875 
Q 49.3125 8.734375 54.109375 11.28125 
L 54.109375 2.78125 
Q 49.265625 0.734375 44.1875 -0.34375 
Q 39.109375 -1.421875 33.890625 -1.421875 
Q 20.796875 -1.421875 13.15625 6.1875 
Q 5.515625 13.8125 5.515625 26.8125 
Q 5.515625 40.234375 12.765625 48.109375 
Q 20.015625 56 32.328125 56 
Q 43.359375 56 49.78125 48.890625 
Q 56.203125 41.796875 56.203125 29.59375 
z
M 47.21875 32.234375 
Q 47.125 39.59375 43.09375 43.984375 
Q 39.0625 48.390625 32.421875 48.390625 
Q 24.90625 48.390625 20.390625 44.140625 
Q 15.875 39.890625 15.1875 32.171875 
z
" id="DejaVuSans-101"/>
       <path id="DejaVuSans-32"/>
       <path d="M 31 75.875 
Q 24.46875 64.65625 21.28125 53.65625 
Q 18.109375 42.671875 18.109375 31.390625 
Q 18.109375 20.125 21.3125 9.0625 
Q 24.515625 -2 31 -13.1875 
L 23.1875 -13.1875 
Q 15.875 -1.703125 12.234375 9.375 
Q 8.59375 20.453125 8.59375 31.390625 
Q 8.59375 42.28125 12.203125 53.3125 
Q 15.828125 64.359375 23.1875 75.875 
z
" id="DejaVuSans-40"/>
       <path d="M 44.28125 53.078125 
L 44.28125 44.578125 
Q 40.484375 46.53125 36.375 47.5 
Q 32.28125 48.484375 27.875 48.484375 
Q 21.1875 48.484375 17.84375 46.4375 
Q 14.5 44.390625 14.5 40.28125 
Q 14.5 37.15625 16.890625 35.375 
Q 19.28125 33.59375 26.515625 31.984375 
L 29.59375 31.296875 
Q 39.15625 29.25 43.1875 25.515625 
Q 47.21875 21.78125 47.21875 15.09375 
Q 47.21875 7.46875 41.1875 3.015625 
Q 35.15625 -1.421875 24.609375 -1.421875 
Q 20.21875 -1.421875 15.453125 -0.5625 
Q 10.6875 0.296875 5.421875 2 
L 5.421875 11.28125 
Q 10.40625 8.6875 15.234375 7.390625 
Q 20.0625 6.109375 24.8125 6.109375 
Q 31.15625 6.109375 34.5625 8.28125 
Q 37.984375 10.453125 37.984375 14.40625 
Q 37.984375 18.0625 35.515625 20.015625 
Q 33.0625 21.96875 24.703125 23.78125 
L 21.578125 24.515625 
Q 13.234375 26.265625 9.515625 29.90625 
Q 5.8125 33.546875 5.8125 39.890625 
Q 5.8125 47.609375 11.28125 51.796875 
Q 16.75 56 26.8125 56 
Q 31.78125 56 36.171875 55.265625 
Q 40.578125 54.546875 44.28125 53.078125 
z
" id="DejaVuSans-115"/>
       <path d="M 8.015625 75.875 
L 15.828125 75.875 
Q 23.140625 64.359375 26.78125 53.3125 
Q 30.421875 42.28125 30.421875 31.390625 
Q 30.421875 20.453125 26.78125 9.375 
Q 23.140625 -1.703125 15.828125 -13.1875 
L 8.015625 -13.1875 
Q 14.5 -2 17.703125 9.0625 
Q 20.90625 20.125 20.90625 31.390625 
Q 20.90625 42.671875 17.703125 53.65625 
Q 14.5 64.65625 8.015625 75.875 
z
" id="DejaVuSans-41"/>
      </defs>
      <use xlink:href="#DejaVuSans-116"/>
      <use x="39.208984" xlink:href="#DejaVuSans-105"/>
      <use x="66.992188" xlink:href="#DejaVuSans-109"/>
      <use x="164.404297" xlink:href="#DejaVuSans-101"/>
      <use x="225.927734" xlink:href="#DejaVuSans-32"/>
      <use x="257.714844" xlink:href="#DejaVuSans-40"/>
      <use x="296.728516" xlink:href="#DejaVuSans-115"/>
      <use x="348.828125" xlink:href="#DejaVuSans-41"/>
     </g>
    </g>
   </g>
   <g id="matplotlib.axis_2">
    <g id="ytick_1">
     <g id="line2d_6">
      <defs>
       <path d="M 0 0 
L -3.5 0 
" id="maa897edf97" style="stroke:#000000;stroke-width:0.8;"/>
      </defs>
      <g>
       <use style="stroke:#000000;stroke-width:0.8;" x="76.448125" xlink:href="#maa897edf97" y="214.756364"/>
      </g>
     </g>
     <g id="text_6">
      <!-- 0 -->
      <g transform="translate(52.905625 224.634332)scale(0.26 -0.26)">
       <use xlink:href="#DejaVuSans-48"/>
      </g>
     </g>
    </g>
    <g id="ytick_2">
     <g id="line2d_7">
      <g>
       <use style="stroke:#000000;stroke-width:0.8;" x="76.448125" xlink:href="#maa897edf97" y="145.189779"/>
      </g>
     </g>
     <g id="text_7">
      <!-- 5 -->
      <g transform="translate(52.905625 155.067748)scale(0.26 -0.26)">
       <defs>
        <path d="M 10.796875 72.90625 
L 49.515625 72.90625 
L 49.515625 64.59375 
L 19.828125 64.59375 
L 19.828125 46.734375 
Q 21.96875 47.46875 24.109375 47.828125 
Q 26.265625 48.1875 28.421875 48.1875 
Q 40.625 48.1875 47.75 41.5 
Q 54.890625 34.8125 54.890625 23.390625 
Q 54.890625 11.625 47.5625 5.09375 
Q 40.234375 -1.421875 26.90625 -1.421875 
Q 22.3125 -1.421875 17.546875 -0.640625 
Q 12.796875 0.140625 7.71875 1.703125 
L 7.71875 11.625 
Q 12.109375 9.234375 16.796875 8.0625 
Q 21.484375 6.890625 26.703125 6.890625 
Q 35.15625 6.890625 40.078125 11.328125 
Q 45.015625 15.765625 45.015625 23.390625 
Q 45.015625 31 40.078125 35.4375 
Q 35.15625 39.890625 26.703125 39.890625 
Q 22.75 39.890625 18.8125 39.015625 
Q 14.890625 38.140625 10.796875 36.28125 
z
" id="DejaVuSans-53"/>
       </defs>
       <use xlink:href="#DejaVuSans-53"/>
      </g>
     </g>
    </g>
    <g id="ytick_3">
     <g id="line2d_8">
      <g>
       <use style="stroke:#000000;stroke-width:0.8;" x="76.448125" xlink:href="#maa897edf97" y="75.623194"/>
      </g>
     </g>
     <g id="text_8">
      <!-- 10 -->
      <g transform="translate(36.363125 85.501163)scale(0.26 -0.26)">
       <defs>
        <path d="M 12.40625 8.296875 
L 28.515625 8.296875 
L 28.515625 63.921875 
L 10.984375 60.40625 
L 10.984375 69.390625 
L 28.421875 72.90625 
L 38.28125 72.90625 
L 38.28125 8.296875 
L 54.390625 8.296875 
L 54.390625 0 
L 12.40625 0 
z
" id="DejaVuSans-49"/>
       </defs>
       <use xlink:href="#DejaVuSans-49"/>
       <use x="63.623047" xlink:href="#DejaVuSans-48"/>
      </g>
     </g>
    </g>
    <g id="text_9">
     <!-- amplitude (a.u.) -->
     <g transform="translate(26.955937 220.356719)rotate(-90)scale(0.26 -0.26)">
      <defs>
       <path d="M 34.28125 27.484375 
Q 23.390625 27.484375 19.1875 25 
Q 14.984375 22.515625 14.984375 16.5 
Q 14.984375 11.71875 18.140625 8.90625 
Q 21.296875 6.109375 26.703125 6.109375 
Q 34.1875 6.109375 38.703125 11.40625 
Q 43.21875 16.703125 43.21875 25.484375 
L 43.21875 27.484375 
z
M 52.203125 31.203125 
L 52.203125 0 
L 43.21875 0 
L 43.21875 8.296875 
Q 40.140625 3.328125 35.546875 0.953125 
Q 30.953125 -1.421875 24.3125 -1.421875 
Q 15.921875 -1.421875 10.953125 3.296875 
Q 6 8.015625 6 15.921875 
Q 6 25.140625 12.171875 29.828125 
Q 18.359375 34.515625 30.609375 34.515625 
L 43.21875 34.515625 
L 43.21875 35.40625 
Q 43.21875 41.609375 39.140625 45 
Q 35.0625 48.390625 27.6875 48.390625 
Q 23 48.390625 18.546875 47.265625 
Q 14.109375 46.140625 10.015625 43.890625 
L 10.015625 52.203125 
Q 14.9375 54.109375 19.578125 55.046875 
Q 24.21875 56 28.609375 56 
Q 40.484375 56 46.34375 49.84375 
Q 52.203125 43.703125 52.203125 31.203125 
z
" id="DejaVuSans-97"/>
       <path d="M 18.109375 8.203125 
L 18.109375 -20.796875 
L 9.078125 -20.796875 
L 9.078125 54.6875 
L 18.109375 54.6875 
L 18.109375 46.390625 
Q 20.953125 51.265625 25.265625 53.625 
Q 29.59375 56 35.59375 56 
Q 45.5625 56 51.78125 48.09375 
Q 58.015625 40.1875 58.015625 27.296875 
Q 58.015625 14.40625 51.78125 6.484375 
Q 45.5625 -1.421875 35.59375 -1.421875 
Q 29.59375 -1.421875 25.265625 0.953125 
Q 20.953125 3.328125 18.109375 8.203125 
z
M 48.6875 27.296875 
Q 48.6875 37.203125 44.609375 42.84375 
Q 40.53125 48.484375 33.40625 48.484375 
Q 26.265625 48.484375 22.1875 42.84375 
Q 18.109375 37.203125 18.109375 27.296875 
Q 18.109375 17.390625 22.1875 11.75 
Q 26.265625 6.109375 33.40625 6.109375 
Q 40.53125 6.109375 44.609375 11.75 
Q 48.6875 17.390625 48.6875 27.296875 
z
" id="DejaVuSans-112"/>
       <path d="M 9.421875 75.984375 
L 18.40625 75.984375 
L 18.40625 0 
L 9.421875 0 
z
" id="DejaVuSans-108"/>
       <path d="M 8.5 21.578125 
L 8.5 54.6875 
L 17.484375 54.6875 
L 17.484375 21.921875 
Q 17.484375 14.15625 20.5 10.265625 
Q 23.53125 6.390625 29.59375 6.390625 
Q 36.859375 6.390625 41.078125 11.03125 
Q 45.3125 15.671875 45.3125 23.6875 
L 45.3125 54.6875 
L 54.296875 54.6875 
L 54.296875 0 
L 45.3125 0 
L 45.3125 8.40625 
Q 42.046875 3.421875 37.71875 1 
Q 33.40625 -1.421875 27.6875 -1.421875 
Q 18.265625 -1.421875 13.375 4.4375 
Q 8.5 10.296875 8.5 21.578125 
z
M 31.109375 56 
z
" id="DejaVuSans-117"/>
       <path d="M 45.40625 46.390625 
L 45.40625 75.984375 
L 54.390625 75.984375 
L 54.390625 0 
L 45.40625 0 
L 45.40625 8.203125 
Q 42.578125 3.328125 38.25 0.953125 
Q 33.9375 -1.421875 27.875 -1.421875 
Q 17.96875 -1.421875 11.734375 6.484375 
Q 5.515625 14.40625 5.515625 27.296875 
Q 5.515625 40.1875 11.734375 48.09375 
Q 17.96875 56 27.875 56 
Q 33.9375 56 38.25 53.625 
Q 42.578125 51.265625 45.40625 46.390625 
z
M 14.796875 27.296875 
Q 14.796875 17.390625 18.875 11.75 
Q 22.953125 6.109375 30.078125 6.109375 
Q 37.203125 6.109375 41.296875 11.75 
Q 45.40625 17.390625 45.40625 27.296875 
Q 45.40625 37.203125 41.296875 42.84375 
Q 37.203125 48.484375 30.078125 48.484375 
Q 22.953125 48.484375 18.875 42.84375 
Q 14.796875 37.203125 14.796875 27.296875 
z
" id="DejaVuSans-100"/>
       <path d="M 10.6875 12.40625 
L 21 12.40625 
L 21 0 
L 10.6875 0 
z
" id="DejaVuSans-46"/>
      </defs>
      <use xlink:href="#DejaVuSans-97"/>
      <use x="61.279297" xlink:href="#DejaVuSans-109"/>
      <use x="158.691406" xlink:href="#DejaVuSans-112"/>
      <use x="222.167969" xlink:href="#DejaVuSans-108"/>
      <use x="249.951172" xlink:href="#DejaVuSans-105"/>
      <use x="277.734375" xlink:href="#DejaVuSans-116"/>
      <use x="316.943359" xlink:href="#DejaVuSans-117"/>
      <use x="380.322266" xlink:href="#DejaVuSans-100"/>
      <use x="443.798828" xlink:href="#DejaVuSans-101"/>
      <use x="505.322266" xlink:href="#DejaVuSans-32"/>
      <use x="537.109375" xlink:href="#DejaVuSans-40"/>
      <use x="576.123047" xlink:href="#DejaVuSans-97"/>
      <use x="637.402344" xlink:href="#DejaVuSans-46"/>
      <use x="669.189453" xlink:href="#DejaVuSans-117"/>
      <use x="732.568359" xlink:href="#DejaVuSans-46"/>
      <use x="764.355469" xlink:href="#DejaVuSans-41"/>
     </g>
    </g>
   </g>
   <g id="line2d_9">
    <path clip-path="url(#p82a681dafe)" d="M 91.666307 214.756364 
L 91.767778 213.031145 
L 92.021457 199.644155 
L 92.833229 152.558905 
L 93.847943 108.572969 
L 94.253829 73.140949 
L 94.862658 24.145729 
L 95.116336 17.380124 
L 95.167072 17.083636 
L 95.217808 17.279699 
L 95.370015 19.663502 
L 95.572958 27.360148 
L 95.978844 54.288891 
L 97.45018 158.605866 
L 97.703859 161.984577 
L 97.754594 161.891391 
L 97.906801 160.434887 
L 98.211216 153.26346 
L 99.479609 112.885144 
L 100.748002 59.066427 
L 100.849474 58.836067 
L 100.950945 59.668748 
L 101.153888 64.09436 
L 101.509038 78.401517 
L 102.828167 143.549745 
L 103.132582 148.378062 
L 103.183317 148.482629 
L 103.234053 148.399102 
L 103.38626 147.241717 
L 103.589203 143.852189 
L 103.944353 134.157083 
L 104.603918 110.961843 
L 105.466425 77.702341 
L 105.821575 71.761685 
L 105.872311 71.735 
L 105.923047 71.477404 
L 105.973782 71.595878 
L 106.075254 72.261294 
L 106.227461 74.191785 
L 106.633347 85.686112 
L 107.292911 115.743544 
L 107.851004 138.56248 
L 108.155419 144.377793 
L 108.307626 145.039906 
L 108.561304 142.356809 
L 108.96719 132.559975 
L 109.931169 97.59445 
L 110.489262 78.811642 
L 110.793677 74.343522 
L 110.844412 74.078682 
L 110.895148 74.18664 
L 110.996619 74.516725 
L 111.250298 78.872614 
L 111.70692 95.00529 
L 112.721634 135.26449 
L 113.026049 139.346905 
L 113.178256 139.575846 
L 113.330463 138.439788 
L 113.685613 132.226912 
L 114.243706 115.52121 
L 115.156949 86.061637 
L 115.461364 81.105896 
L 115.562835 80.657054 
L 115.613571 80.746443 
L 115.715042 81.073342 
L 115.968721 83.726084 
L 116.2224 88.971236 
L 116.831228 108.973269 
L 117.541528 132.083264 
L 117.896679 136.875962 
L 117.947414 136.99945 
L 117.99815 136.934677 
L 118.099621 136.392392 
L 118.302564 134.518686 
L 118.657714 127.166048 
L 119.41875 103.494278 
L 119.976843 87.367981 
L 120.281258 82.641354 
L 120.484201 82.092454 
L 120.585672 82.429928 
L 120.737879 84.027839 
L 120.991558 88.819728 
L 121.498915 105.646974 
L 122.361423 133.994621 
L 122.615101 137.306619 
L 122.767309 137.824616 
L 122.919516 136.699147 
L 123.173194 132.475582 
L 123.680552 117.982619 
L 124.898209 81.823151 
L 125.101152 80.548833 
L 125.151888 80.600926 
L 125.304095 81.857015 
L 125.507038 85.164172 
L 125.811452 93.890869 
L 126.826167 129.154074 
L 127.130581 134.8311 
L 127.38426 136.101154 
L 127.536467 134.914376 
L 127.790146 130.890991 
L 128.297503 117.267071 
L 129.312218 89.436887 
L 129.667368 85.534239 
L 129.819575 85.553014 
L 130.123989 88.072432 
L 130.479139 95.554935 
L 130.986497 110.814983 
L 131.646061 129.398842 
L 131.950475 133.318896 
L 132.102683 133.655539 
L 132.153418 133.521829 
L 132.25489 133.088875 
L 132.407097 131.312891 
L 132.711511 125.337425 
L 133.066661 115.759694 
L 133.929169 90.369598 
L 134.284319 84.879148 
L 134.487262 84.085822 
L 134.537998 83.997247 
L 134.690205 84.923543 
L 134.893148 88.344334 
L 135.248298 98.850938 
L 136.263012 131.688419 
L 136.567427 135.30062 
L 136.668898 135.610527 
L 136.871841 134.416572 
L 137.074784 131.335729 
L 137.328463 125.414212 
L 137.988027 105.195911 
L 138.54612 89.620612 
L 138.952006 83.364791 
L 139.053477 82.945557 
L 139.104213 83.050335 
L 139.205685 83.500358 
L 139.459363 86.596756 
L 139.763778 93.110528 
L 140.169663 105.822581 
L 140.981435 130.486401 
L 141.285849 133.952297 
L 141.438057 134.372121 
L 141.590264 133.641456 
L 141.894678 129.171021 
L 142.300564 119.14782 
L 143.467486 87.960571 
L 143.721164 85.240253 
L 143.7719 85.126975 
L 143.822636 85.156709 
L 143.974843 85.703884 
L 144.228522 88.891931 
L 144.532936 95.240006 
L 145.293972 117.541291 
L 145.750594 129.078292 
L 146.105744 133.094732 
L 146.207215 133.387797 
L 146.257951 133.292037 
L 146.51163 131.265566 
L 146.816044 126.061714 
L 147.272665 114.495834 
L 148.388851 84.933699 
L 148.64253 82.615186 
L 148.744002 82.784348 
L 148.845473 83.16269 
L 148.99768 84.821035 
L 149.403566 94.95496 
L 150.722695 135.101954 
L 150.874902 135.628555 
L 151.077845 134.38221 
L 151.331524 130.348082 
L 151.73741 119.635228 
L 152.904331 87.952735 
L 153.15801 85.473267 
L 153.310217 85.22812 
L 153.51316 86.461016 
L 153.86831 92.729377 
L 154.324932 105.449318 
L 154.984496 125.294733 
L 155.339646 131.620906 
L 155.593325 133.352215 
L 155.644061 133.345633 
L 155.796268 132.719253 
L 156.202154 126.009456 
L 157.825697 86.15662 
L 157.927168 85.824003 
L 157.977904 85.915824 
L 158.130111 86.574861 
L 158.38379 89.914154 
L 158.789676 100.178293 
L 159.80439 128.264596 
L 160.108805 131.517086 
L 160.261012 131.637275 
L 160.565426 128.259651 
L 160.920576 121.336176 
L 161.377198 109.451832 
L 161.986027 93.888901 
L 162.341177 88.535575 
L 162.493384 87.566623 
L 162.54412 87.577382 
L 162.594856 87.602812 
L 162.848534 89.601984 
L 163.305156 98.412968 
L 164.522813 131.716156 
L 164.725756 132.874579 
L 164.877963 132.478513 
L 165.131642 129.577339 
L 165.537528 119.856243 
L 166.805921 88.615205 
L 167.008864 87.238107 
L 167.161071 87.033503 
L 167.313278 87.540457 
L 167.617693 92.133193 
L 168.023578 102.925201 
L 168.886086 127.817795 
L 169.139765 130.965321 
L 169.291972 131.665618 
L 169.342707 131.643844 
L 169.393443 131.683183 
L 169.697858 129.287892 
L 169.951536 124.684096 
L 170.661836 105.748565 
L 171.321401 89.764017 
L 171.625815 87.198615 
L 171.778022 87.062637 
L 172.031701 89.144599 
L 172.691266 103.999014 
L 173.553773 127.834451 
L 173.807452 131.434412 
L 174.06113 132.271164 
L 174.365545 129.492101 
L 174.872902 118.274074 
L 176.192031 87.30112 
L 176.293502 86.780079 
L 176.344238 86.794066 
L 176.445709 87.014681 
L 176.699388 89.536601 
L 177.003802 95.114952 
L 177.663367 112.498021 
L 178.322931 128.270392 
L 178.627346 131.573444 
L 178.779553 131.923611 
L 178.93176 131.294837 
L 179.236175 127.509099 
L 179.64206 117.838856 
L 180.606039 90.962353 
L 180.910454 86.799415 
L 181.113396 85.945883 
L 181.417811 88.031402 
L 181.823697 95.847479 
L 182.229583 107.537972 
L 183.041354 131.183045 
L 183.295033 133.704019 
L 183.396504 134.151727 
L 183.44724 134.091287 
L 183.599447 133.274688 
L 183.853126 129.851832 
L 184.817105 103.72218 
L 185.476669 88.022857 
L 185.781084 85.027038 
L 185.933291 84.936983 
L 186.034762 85.482207 
L 186.237705 88.101651 
L 186.643591 97.773264 
L 187.810513 131.227806 
L 188.064191 133.070668 
L 188.216399 132.704245 
L 188.419341 130.90101 
L 188.774492 124.472037 
L 189.332585 109.12146 
L 190.195092 87.188426 
L 190.448771 84.874289 
L 190.550242 84.580635 
L 190.600978 84.806888 
L 190.753185 86.2051 
L 191.159071 94.716336 
L 192.579671 132.710865 
L 192.782614 133.963357 
L 192.934821 133.454029 
L 193.137764 131.212699 
L 193.391443 126.684469 
L 193.695857 115.262036 
L 194.913515 57.457643 
L 194.96425 57.1514 
L 195.014986 57.2344 
L 195.167193 59.180912 
L 195.370136 66.688844 
L 195.725286 90.928839 
L 196.689265 169.593618 
L 196.942944 174.3029 
L 197.044415 173.392051 
L 197.196622 169.236546 
L 197.602508 149.038864 
L 198.465016 91.485783 
L 199.073844 45.798635 
L 199.378259 36.38318 
L 199.428995 36.096538 
L 199.47973 36.315701 
L 199.631937 38.810824 
L 199.83488 46.740905 
L 200.19003 70.988421 
L 201.559895 181.779059 
L 201.661367 182.485224 
L 201.762838 181.504535 
L 201.965781 174.382409 
L 202.57461 141.407872 
L 203.28491 98.544643 
L 204.147417 31.566701 
L 204.35036 27.515955 
L 204.401096 27.361057 
L 204.553303 29.816459 
L 204.806982 40.936643 
L 205.212868 73.448396 
L 206.430525 180.291529 
L 206.633468 183.503558 
L 206.785675 181.37129 
L 207.039354 171.060346 
L 208.409219 89.854577 
L 209.119519 32.253813 
L 209.373197 25.47243 
L 209.423933 25.394924 
L 209.525405 26.344384 
L 209.779083 35.094491 
L 210.184969 65.03124 
L 211.504098 181.680254 
L 211.656305 184.162379 
L 211.707041 184.159631 
L 211.808512 182.970574 
L 212.011455 175.834391 
L 213.330584 106.081217 
L 214.396035 23.827167 
L 214.548242 22.13308 
L 214.649713 23.253818 
L 214.852656 30.135508 
L 215.15707 50.535779 
L 215.664428 102.28874 
L 216.374728 170.389488 
L 216.679142 182.780066 
L 216.780614 183.515823 
L 216.831349 183.486745 
L 216.983557 180.463835 
L 217.338707 164.533394 
L 218.049007 132.315165 
L 218.353421 113.880658 
L 218.96225 58.330753 
L 219.418872 28.62269 
L 219.621815 24.975332 
L 219.67255 24.986899 
L 219.774022 26.087517 
L 219.976965 32.893477 
L 220.281379 52.660378 
L 220.991679 121.855263 
L 221.600508 173.761541 
L 221.854187 182.01247 
L 221.904922 182.428994 
L 221.955658 182.307093 
L 222.05713 181.184273 
L 222.260072 174.114184 
L 223.224051 128.495108 
L 223.680673 98.010519 
L 224.54318 30.69525 
L 224.796859 26.17262 
L 224.847595 26.272879 
L 224.949066 27.70279 
L 225.152009 34.494204 
L 225.456423 54.42542 
L 226.014516 109.626438 
L 226.674081 172.775839 
L 226.927759 183.1358 
L 227.079967 184.256864 
L 227.232174 181.227976 
L 227.536588 166.87769 
L 228.906453 87.468612 
L 229.566017 33.833598 
L 229.819696 26.260627 
L 229.870432 25.945349 
L 229.921167 26.106843 
L 230.073375 28.908727 
L 230.377789 43.862419 
L 230.885146 87.780737 
L 231.849125 175.54365 
L 232.102804 182.717703 
L 232.15354 182.989516 
L 232.204275 182.832097 
L 232.356482 179.596047 
L 232.660897 165.869418 
L 234.030762 84.344059 
L 234.63959 34.69742 
L 234.893269 26.368815 
L 234.99474 25.842465 
L 235.096212 26.99879 
L 235.299155 33.312726 
L 235.654305 56.738046 
L 236.466076 138.641969 
L 236.973434 176.896741 
L 237.227112 182.663804 
L 237.328584 181.738005 
L 237.531527 175.850569 
L 238.546241 126.437257 
L 239.002863 92.509295 
L 239.713163 36.046904 
L 240.017577 27.679246 
L 240.068313 27.677096 
L 240.169785 28.784497 
L 240.372728 35.33177 
L 240.677142 54.670841 
L 241.184499 103.339492 
L 241.894799 170.893558 
L 242.148478 181.697339 
L 242.24995 182.858944 
L 242.300685 182.855365 
L 242.402157 181.653246 
L 242.6051 175.05347 
L 243.721286 116.872011 
L 244.076436 88.402912 
L 244.736 35.471077 
L 244.989679 28.269235 
L 245.040415 27.998715 
L 245.09115 28.175158 
L 245.243358 30.991191 
L 245.497036 42.044516 
L 245.852186 69.377335 
L 247.069844 175.83887 
L 247.323522 181.823972 
L 247.374258 181.71403 
L 247.526465 179.241408 
L 247.83088 166.802464 
L 248.54118 132.682286 
L 248.89633 112.67779 
L 249.505159 58.596985 
L 249.911045 31.129561 
L 250.164723 24.206745 
L 250.215459 24.130372 
L 250.367666 26.76183 
L 250.570609 35.222001 
L 250.875023 58.188821 
L 252.295624 182.529768 
L 252.397095 183.212877 
L 252.447831 183.09237 
L 252.549302 181.485565 
L 252.752245 174.317925 
L 253.665488 127.71357 
L 254.223582 86.50668 
L 254.984617 31.487548 
L 255.18756 28.239135 
L 255.238296 28.431302 
L 255.441239 32.995662 
L 255.694918 45.185712 
L 256.151539 82.685571 
L 257.115518 170.989552 
L 257.369197 180.045708 
L 257.521404 180.973266 
L 257.673611 178.379547 
L 258.028761 162.531553 
L 259.34789 81.557295 
L 259.905983 37.253986 
L 260.159662 29.395001 
L 260.210397 28.894662 
L 260.261133 28.974313 
L 260.362605 29.71031 
L 260.565548 36.198112 
L 260.971433 62.611119 
L 262.392034 177.72183 
L 262.544241 179.633951 
L 262.696448 178.00841 
L 262.848655 173.69436 
L 263.305277 151.580565 
L 264.319992 93.935829 
L 265.131763 30.978332 
L 265.334706 26.319046 
L 265.385442 26.166153 
L 265.486913 26.922937 
L 265.689856 33.30426 
L 265.943535 48.622274 
L 266.400156 91.086455 
L 267.262664 171.862412 
L 267.567078 182.477056 
L 267.617814 182.587447 
L 267.770021 180.383268 
L 267.972964 173.00243 
L 269.190621 108.137816 
L 270.306808 26.28836 
L 270.408279 25.387997 
L 270.459015 25.660309 
L 270.560486 27.412895 
L 270.763429 34.393369 
L 271.067843 54.181844 
L 271.778144 126.050814 
L 272.336237 174.971422 
L 272.589915 183.203536 
L 272.640651 183.743987 
L 272.691387 183.731342 
L 272.792858 182.688641 
L 272.995801 176.190403 
L 274.213459 114.369838 
L 274.517873 89.234135 
L 275.278909 27.991208 
L 275.532588 22.724789 
L 275.583323 22.798494 
L 275.684795 24.253667 
L 275.887738 31.725744 
L 276.242888 58.147207 
L 276.851717 121.339154 
L 277.460545 174.335221 
L 277.714224 183.158585 
L 277.815695 183.769374 
L 277.866431 183.552912 
L 278.069374 178.596871 
L 278.47526 158.825458 
L 278.931881 140.014502 
L 279.489974 108.866358 
L 280.504689 25.124838 
L 280.707632 21.305564 
L 280.758368 21.332138 
L 280.910575 23.692985 
L 281.164253 35.629775 
L 281.570139 69.901667 
L 282.787797 182.193883 
L 282.940004 185.005293 
L 282.99074 184.981126 
L 283.092211 183.938752 
L 283.295154 177.007955 
L 284.665019 103.18455 
L 285.679733 26.734732 
L 285.781205 25.374239 
L 285.83194 25.414366 
L 285.882676 25.389145 
L 286.034883 28.351794 
L 286.288562 40.799545 
L 286.694448 73.861856 
L 287.86137 176.897232 
L 288.064313 180.866243 
L 288.115048 180.769389 
L 288.267255 178.493977 
L 288.470198 171.432622 
L 289.789327 99.129763 
L 290.651835 31.957768 
L 290.854778 27.767999 
L 290.905513 27.723889 
L 291.006985 28.921807 
L 291.209928 35.510831 
L 291.514342 54.219663 
L 292.021699 101.505706 
L 292.782735 172.62968 
L 293.08715 183.488264 
L 293.137885 183.588167 
L 293.239357 182.691543 
L 293.4423 176.229825 
L 294.50775 119.184146 
L 294.913636 86.583449 
L 295.522465 37.014312 
L 295.776143 28.67181 
L 295.877615 28.020147 
L 295.92835 28.209912 
L 296.029822 29.50389 
L 296.283501 39.168705 
L 296.587915 60.328074 
L 297.196744 119.642971 
L 297.754837 170.011525 
L 298.059251 182.115717 
L 298.160723 182.77431 
L 298.262194 181.701078 
L 298.465137 175.718445 
L 299.936473 102.166821 
L 300.900452 25.658889 
L 301.103395 22.785212 
L 301.204866 23.905242 
L 301.407809 30.405418 
L 301.661488 45.849696 
L 302.270317 105.654177 
L 302.980617 172.213325 
L 303.234295 182.19535 
L 303.335767 183.154963 
L 303.386503 183.142945 
L 303.53871 180.121018 
L 303.843124 166.284534 
L 305.212989 82.395 
L 305.821818 35.287519 
L 306.075496 27.945983 
L 306.126232 27.726287 
L 306.176968 27.939795 
L 306.278439 29.17114 
L 306.532118 39.018598 
L 306.887268 65.651671 
L 307.597568 136.358811 
L 308.05419 172.492869 
L 308.307868 181.032696 
L 308.358604 181.559629 
L 308.40934 181.408853 
L 308.561547 178.76191 
L 308.865961 165.62699 
L 310.083619 94.214298 
L 310.793919 36.3321 
L 311.098333 27.64818 
L 311.149069 27.459731 
L 311.199805 27.678164 
L 311.352012 30.023478 
L 311.605691 41.59182 
L 311.960841 69.827616 
L 313.178498 179.128967 
L 313.381441 181.958958 
L 313.482913 180.868549 
L 313.685856 174.282852 
L 314.802042 114.276727 
L 315.106456 90.594001 
L 315.867492 33.199145 
L 316.121171 27.932149 
L 316.171906 27.997366 
L 316.273378 29.435005 
L 316.527056 38.971665 
L 316.882206 64.171475 
L 318.252071 181.277049 
L 318.404278 182.504436 
L 318.556485 180.641688 
L 318.810164 170.51086 
L 320.230765 90.686389 
L 320.941065 31.63914 
L 321.194743 24.286169 
L 321.296215 24.03439 
L 321.448422 26.651807 
L 321.702101 38.114046 
L 322.107986 69.352871 
L 323.37638 181.874245 
L 323.579323 184.394395 
L 323.680794 183.152492 
L 323.883737 176.392019 
L 324.898452 131.7506 
L 325.15213 118.341574 
L 325.558016 82.832101 
L 326.166845 29.401596 
L 326.420523 20.756804 
L 326.521995 20.300241 
L 326.623466 21.447162 
L 326.826409 28.270889 
L 327.181559 52.336849 
L 327.790388 115.773585 
L 328.449953 176.128557 
L 328.703631 185.046609 
L 328.805103 185.532268 
L 328.906574 184.691175 
L 329.109517 177.463068 
L 330.479382 106.788163 
L 331.646303 21.448192 
L 331.747775 21.10631 
L 331.798511 21.352048 
L 332.001454 27.834109 
L 332.305868 47.678689 
L 332.813225 97.84591 
L 333.624997 173.875822 
L 333.878676 183.867628 
L 333.980147 184.998411 
L 334.030883 184.732845 
L 334.18309 181.547485 
L 334.487504 167.01968 
L 335.147069 135.042325 
L 335.451483 120.325655 
L 335.857369 86.817695 
L 336.516933 30.122543 
L 336.770612 22.233113 
L 336.821348 22.057406 
L 336.872084 22.228791 
L 337.024291 24.933114 
L 337.277969 37.300201 
L 337.683855 70.462447 
L 338.901513 180.604686 
L 339.104456 184.477226 
L 339.205927 183.689952 
L 339.40887 177.81706 
L 340.372849 131.008399 
L 340.778735 104.477416 
L 341.641242 31.927618 
L 341.894921 23.93578 
L 341.996392 23.528263 
L 342.047128 23.727956 
L 342.250071 29.425687 
L 342.554485 48.023748 
L 343.061842 94.38178 
L 343.92435 173.561758 
L 344.178028 181.831312 
L 344.2795 182.548091 
L 344.380971 181.620301 
L 344.533179 177.330454 
L 344.888329 159.179265 
L 346.105986 88.143785 
L 346.816286 31.669838 
L 347.069965 25.412672 
L 347.120701 25.537747 
L 347.272908 28.015818 
L 347.526587 38.970209 
L 347.881737 66.058135 
L 349.251601 182.459393 
L 349.353073 183.398072 
L 349.403809 183.312472 
L 349.50528 181.891786 
L 349.758959 172.546037 
L 351.128823 96.358369 
L 351.940595 30.880541 
L 352.194274 24.744716 
L 352.245009 24.536796 
L 352.346481 25.529088 
L 352.498688 29.997236 
L 352.853838 52.227353 
L 353.31046 96.073299 
L 354.122231 174.249374 
L 354.37591 184.633042 
L 354.477381 185.36675 
L 354.528117 185.134818 
L 354.629589 183.37664 
L 354.883267 173.489794 
L 356.354603 93.900184 
L 357.115639 28.29027 
L 357.369318 21.671517 
L 357.420054 21.493337 
L 357.470789 21.718399 
L 357.572261 23.163771 
L 357.825939 33.760709 
L 358.18109 60.904433 
L 359.60169 183.112161 
L 359.703161 183.940253 
L 359.753897 183.647215 
L 359.906104 180.402123 
L 360.159783 169.558405 
L 360.768612 141.141898 
L 361.225233 120.535556 
L 361.681855 80.777019 
L 362.290684 29.309363 
L 362.544362 21.847126 
L 362.595098 21.731001 
L 362.645834 21.83875 
L 362.848777 26.398653 
L 363.203927 48.04263 
L 363.76202 102.976807 
L 364.523056 174.650311 
L 364.776734 183.958596 
L 364.878206 184.712949 
L 364.979677 183.681409 
L 365.233356 174.092978 
L 366.349542 115.916154 
L 366.907635 66.501535 
L 367.414992 29.053275 
L 367.668671 23.189561 
L 367.719407 23.341424 
L 367.871614 25.877713 
L 368.074557 35.111334 
L 368.429707 63.211148 
L 369.748836 182.600846 
L 369.901043 184.201202 
L 370.002514 183.155147 
L 370.154722 178.708221 
L 370.560607 156.039082 
L 371.676793 86.305179 
L 372.336358 34.66592 
L 372.590037 28.241364 
L 372.640772 28.226895 
L 372.742244 29.046102 
L 372.945187 35.048615 
L 373.249601 53.887532 
L 373.756958 99.150139 
L 374.56873 172.848593 
L 374.822409 181.878375 
L 374.873144 182.495497 
L 374.92388 182.419268 
L 374.974616 182.316475 
L 375.126823 179.145243 
L 375.380502 168.261342 
L 376.750366 91.549964 
L 377.511402 29.08041 
L 377.765081 22.882185 
L 377.866552 23.34653 
L 378.018759 26.938968 
L 378.323174 43.097807 
L 378.830531 88.514016 
L 379.743774 175.332495 
L 379.997453 183.788646 
L 380.098924 184.328009 
L 380.251132 181.959747 
L 380.50481 171.285593 
L 381.874675 96.732809 
L 382.737182 27.087624 
L 382.940125 22.553099 
L 383.041597 22.903579 
L 383.193804 26.323615 
L 383.498218 42.541688 
L 384.005575 88.801874 
L 384.868083 171.917018 
L 385.172497 183.756013 
L 385.273969 184.38299 
L 385.37544 183.210218 
L 385.578383 176.617425 
L 386.694569 122.198168 
L 387.049719 95.22369 
L 387.810755 30.492763 
L 388.064434 22.954883 
L 388.11517 22.565585 
L 388.165905 22.931253 
L 388.267377 23.981743 
L 388.47032 31.195265 
L 388.774734 51.201787 
L 389.282091 102.042742 
L 390.043127 174.940481 
L 390.296806 185.279498 
L 390.398277 186.346091 
L 390.449013 186.204528 
L 390.550484 184.71233 
L 390.753427 177.402928 
L 391.565199 139.008397 
L 391.971085 119.195218 
L 392.427706 80.000718 
L 393.036535 28.766962 
L 393.290214 21.384542 
L 393.391685 21.037966 
L 393.493157 22.416965 
L 393.746835 32.835858 
L 394.101985 59.276232 
L 394.710814 123.23398 
L 395.319643 177.810643 
L 395.573322 186.086122 
L 395.624057 186.348755 
L 395.674793 186.155973 
L 395.776265 184.456742 
L 395.979207 177.241788 
L 396.029943 174.78411 
L 396.029943 174.78411 
" style="fill:none;stroke:#ff7f0e;stroke-linecap:square;stroke-width:1.5;"/>
   </g>
   <g id="patch_3">
    <path d="M 76.448125 224.64 
L 76.448125 7.2 
" style="fill:none;stroke:#000000;stroke-linecap:square;stroke-linejoin:miter;stroke-width:0.8;"/>
   </g>
   <g id="patch_4">
    <path d="M 411.248125 224.64 
L 411.248125 7.2 
" style="fill:none;stroke:#000000;stroke-linecap:square;stroke-linejoin:miter;stroke-width:0.8;"/>
   </g>
   <g id="patch_5">
    <path d="M 76.448125 224.64 
L 411.248125 224.64 
" style="fill:none;stroke:#000000;stroke-linecap:square;stroke-linejoin:miter;stroke-width:0.8;"/>
   </g>
   <g id="patch_6">
    <path d="M 76.448125 7.2 
L 411.248125 7.2 
" style="fill:none;stroke:#000000;stroke-linecap:square;stroke-linejoin:miter;stroke-width:0.8;"/>
   </g>
   <g id="legend_1">
    <g id="line2d_10">
     <path d="M 438.388125 28.255937 
L 490.388125 28.255937 
" style="fill:none;stroke:#1f77b4;stroke-linecap:square;stroke-width:1.5;"/>
    </g>
    <g id="line2d_11"/>
    <g id="text_10">
     <!-- exact -->
     <g transform="translate(511.188125 37.355937)scale(0.26 -0.26)">
      <defs>
       <path d="M 54.890625 54.6875 
L 35.109375 28.078125 
L 55.90625 0 
L 45.3125 0 
L 29.390625 21.484375 
L 13.484375 0 
L 2.875 0 
L 24.125 28.609375 
L 4.6875 54.6875 
L 15.28125 54.6875 
L 29.78125 35.203125 
L 44.28125 54.6875 
z
" id="DejaVuSans-120"/>
       <path d="M 48.78125 52.59375 
L 48.78125 44.1875 
Q 44.96875 46.296875 41.140625 47.34375 
Q 37.3125 48.390625 33.40625 48.390625 
Q 24.65625 48.390625 19.8125 42.84375 
Q 14.984375 37.3125 14.984375 27.296875 
Q 14.984375 17.28125 19.8125 11.734375 
Q 24.65625 6.203125 33.40625 6.203125 
Q 37.3125 6.203125 41.140625 7.25 
Q 44.96875 8.296875 48.78125 10.40625 
L 48.78125 2.09375 
Q 45.015625 0.34375 40.984375 -0.53125 
Q 36.96875 -1.421875 32.421875 -1.421875 
Q 20.0625 -1.421875 12.78125 6.34375 
Q 5.515625 14.109375 5.515625 27.296875 
Q 5.515625 40.671875 12.859375 48.328125 
Q 20.21875 56 33.015625 56 
Q 37.15625 56 41.109375 55.140625 
Q 45.0625 54.296875 48.78125 52.59375 
z
" id="DejaVuSans-99"/>
      </defs>
      <use xlink:href="#DejaVuSans-101"/>
      <use x="59.773438" xlink:href="#DejaVuSans-120"/>
      <use x="118.953125" xlink:href="#DejaVuSans-97"/>
      <use x="180.232422" xlink:href="#DejaVuSans-99"/>
      <use x="235.212891" xlink:href="#DejaVuSans-116"/>
     </g>
    </g>
    <g id="line2d_12">
     <path d="M 438.388125 66.419062 
L 490.388125 66.419062 
" style="fill:none;stroke:#ff7f0e;stroke-linecap:square;stroke-width:1.5;"/>
    </g>
    <g id="line2d_13"/>
    <g id="text_11">
     <!-- estimated -->
     <g transform="translate(511.188125 75.519062)scale(0.26 -0.26)">
      <use xlink:href="#DejaVuSans-101"/>
      <use x="61.523438" xlink:href="#DejaVuSans-115"/>
      <use x="113.623047" xlink:href="#DejaVuSans-116"/>
      <use x="152.832031" xlink:href="#DejaVuSans-105"/>
      <use x="180.615234" xlink:href="#DejaVuSans-109"/>
      <use x="278.027344" xlink:href="#DejaVuSans-97"/>
      <use x="339.306641" xlink:href="#DejaVuSans-116"/>
      <use x="378.515625" xlink:href="#DejaVuSans-101"/>
      <use x="440.039062" xlink:href="#DejaVuSans-100"/>
     </g>
    </g>
   </g>
  </g>
 </g>
 <defs>
  <clipPath id="p82a681dafe">
   <rect height="217.44" width="334.8" x="76.448125" y="7.2"/>
  </clipPath>
 </defs>
</svg>
