<?xml version="1.0" encoding="utf-8" standalone="no"?>
<!DOCTYPE svg PUBLIC "-//W3C//DTD SVG 1.1//EN"
  "http://www.w3.org/Graphics/SVG/1.1/DTD/svg11.dtd">
<!-- Created with matplotlib (https://matplotlib.org/) -->
<svg height="323.362pt" version="1.1" viewBox="0 0 659.702188 323.362" width="659.702188pt" xmlns="http://www.w3.org/2000/svg" xmlns:xlink="http://www.w3.org/1999/xlink">
 <metadata>
  <rdf:RDF xmlns:cc="http://creativecommons.org/ns#" xmlns:dc="http://purl.org/dc/elements/1.1/" xmlns:rdf="http://www.w3.org/1999/02/22-rdf-syntax-ns#">
   <cc:Work>
    <dc:type rdf:resource="http://purl.org/dc/dcmitype/StillImage"/>
    <dc:date>2022-01-24T15:15:53.849716</dc:date>
    <dc:format>image/svg+xml</dc:format>
    <dc:creator>
     <cc:Agent>
      <dc:title>Matplotlib v3.3.2, https://matplotlib.org/</dc:title>
     </cc:Agent>
    </dc:creator>
   </cc:Work>
  </rdf:RDF>
 </metadata>
 <defs>
  <style type="text/css">*{stroke-linecap:butt;stroke-linejoin:round;}</style>
 </defs>
 <g id="figure_1">
  <g id="patch_1">
   <path d="M 0 323.362 
L 659.702188 323.362 
L 659.702188 0 
L 0 0 
z
" style="fill:#ffffff;"/>
  </g>
  <g id="axes_1">
   <g id="patch_2">
    <path d="M 76.448125 254.83575 
L 411.248125 254.83575 
L 411.248125 37.39575 
L 76.448125 37.39575 
z
" style="fill:#ffffff;"/>
   </g>
   <g id="line2d_1">
    <path clip-path="url(#p97fe61a602)" d="M 91.666307 61.55575 
L 193.137764 61.55575 
L 193.289971 85.71575 
L 396.029943 85.71575 
L 396.029943 85.71575 
" style="fill:none;stroke:#1f77b4;stroke-linecap:square;stroke-width:1.5;"/>
   </g>
   <g id="matplotlib.axis_1">
    <g id="xtick_1">
     <g id="line2d_2">
      <defs>
       <path d="M 0 0 
L 0 3.5 
" id="m103f109b9b" style="stroke:#000000;stroke-width:0.8;"/>
      </defs>
      <g>
       <use style="stroke:#000000;stroke-width:0.8;" x="91.666307" xlink:href="#m103f109b9b" y="254.83575"/>
      </g>
     </g>
     <g id="text_1">
      <!-- 0 -->
      <g transform="translate(83.395057 281.591688)scale(0.26 -0.26)">
       <defs>
        <path d="M 31.78125 66.40625 
Q 24.171875 66.40625 20.328125 58.90625 
Q 16.5 51.421875 16.5 36.375 
Q 16.5 21.390625 20.328125 13.890625 
Q 24.171875 6.390625 31.78125 6.390625 
Q 39.453125 6.390625 43.28125 13.890625 
Q 47.125 21.390625 47.125 36.375 
Q 47.125 51.421875 43.28125 58.90625 
Q 39.453125 66.40625 31.78125 66.40625 
z
M 31.78125 74.21875 
Q 44.046875 74.21875 50.515625 64.515625 
Q 56.984375 54.828125 56.984375 36.375 
Q 56.984375 17.96875 50.515625 8.265625 
Q 44.046875 -1.421875 31.78125 -1.421875 
Q 19.53125 -1.421875 13.0625 8.265625 
Q 6.59375 17.96875 6.59375 36.375 
Q 6.59375 54.828125 13.0625 64.515625 
Q 19.53125 74.21875 31.78125 74.21875 
z
" id="DejaVuSans-48"/>
       </defs>
       <use xlink:href="#DejaVuSans-48"/>
      </g>
     </g>
    </g>
    <g id="xtick_2">
     <g id="line2d_3">
      <g>
       <use style="stroke:#000000;stroke-width:0.8;" x="193.137764" xlink:href="#m103f109b9b" y="254.83575"/>
      </g>
     </g>
     <g id="text_2">
      <!-- 2 -->
      <g transform="translate(184.866514 281.591688)scale(0.26 -0.26)">
       <defs>
        <path d="M 19.1875 8.296875 
L 53.609375 8.296875 
L 53.609375 0 
L 7.328125 0 
L 7.328125 8.296875 
Q 12.9375 14.109375 22.625 23.890625 
Q 32.328125 33.6875 34.8125 36.53125 
Q 39.546875 41.84375 41.421875 45.53125 
Q 43.3125 49.21875 43.3125 52.78125 
Q 43.3125 58.59375 39.234375 62.25 
Q 35.15625 65.921875 28.609375 65.921875 
Q 23.96875 65.921875 18.8125 64.3125 
Q 13.671875 62.703125 7.8125 59.421875 
L 7.8125 69.390625 
Q 13.765625 71.78125 18.9375 73 
Q 24.125 74.21875 28.421875 74.21875 
Q 39.75 74.21875 46.484375 68.546875 
Q 53.21875 62.890625 53.21875 53.421875 
Q 53.21875 48.921875 51.53125 44.890625 
Q 49.859375 40.875 45.40625 35.40625 
Q 44.1875 33.984375 37.640625 27.21875 
Q 31.109375 20.453125 19.1875 8.296875 
z
" id="DejaVuSans-50"/>
       </defs>
       <use xlink:href="#DejaVuSans-50"/>
      </g>
     </g>
    </g>
    <g id="xtick_3">
     <g id="line2d_4">
      <g>
       <use style="stroke:#000000;stroke-width:0.8;" x="294.609222" xlink:href="#m103f109b9b" y="254.83575"/>
      </g>
     </g>
     <g id="text_3">
      <!-- 4 -->
      <g transform="translate(286.337972 281.591688)scale(0.26 -0.26)">
       <defs>
        <path d="M 37.796875 64.3125 
L 12.890625 25.390625 
L 37.796875 25.390625 
z
M 35.203125 72.90625 
L 47.609375 72.90625 
L 47.609375 25.390625 
L 58.015625 25.390625 
L 58.015625 17.1875 
L 47.609375 17.1875 
L 47.609375 0 
L 37.796875 0 
L 37.796875 17.1875 
L 4.890625 17.1875 
L 4.890625 26.703125 
z
" id="DejaVuSans-52"/>
       </defs>
       <use xlink:href="#DejaVuSans-52"/>
      </g>
     </g>
    </g>
    <g id="xtick_4">
     <g id="line2d_5">
      <g>
       <use style="stroke:#000000;stroke-width:0.8;" x="396.080679" xlink:href="#m103f109b9b" y="254.83575"/>
      </g>
     </g>
     <g id="text_4">
      <!-- 6 -->
      <g transform="translate(387.809429 281.591688)scale(0.26 -0.26)">
       <defs>
        <path d="M 33.015625 40.375 
Q 26.375 40.375 22.484375 35.828125 
Q 18.609375 31.296875 18.609375 23.390625 
Q 18.609375 15.53125 22.484375 10.953125 
Q 26.375 6.390625 33.015625 6.390625 
Q 39.65625 6.390625 43.53125 10.953125 
Q 47.40625 15.53125 47.40625 23.390625 
Q 47.40625 31.296875 43.53125 35.828125 
Q 39.65625 40.375 33.015625 40.375 
z
M 52.59375 71.296875 
L 52.59375 62.3125 
Q 48.875 64.0625 45.09375 64.984375 
Q 41.3125 65.921875 37.59375 65.921875 
Q 27.828125 65.921875 22.671875 59.328125 
Q 17.53125 52.734375 16.796875 39.40625 
Q 19.671875 43.65625 24.015625 45.921875 
Q 28.375 48.1875 33.59375 48.1875 
Q 44.578125 48.1875 50.953125 41.515625 
Q 57.328125 34.859375 57.328125 23.390625 
Q 57.328125 12.15625 50.6875 5.359375 
Q 44.046875 -1.421875 33.015625 -1.421875 
Q 20.359375 -1.421875 13.671875 8.265625 
Q 6.984375 17.96875 6.984375 36.375 
Q 6.984375 53.65625 15.1875 63.9375 
Q 23.390625 74.21875 37.203125 74.21875 
Q 40.921875 74.21875 44.703125 73.484375 
Q 48.484375 72.75 52.59375 71.296875 
z
" id="DejaVuSans-54"/>
       </defs>
       <use xlink:href="#DejaVuSans-54"/>
      </g>
     </g>
    </g>
    <g id="text_5">
     <!-- time (s) -->
     <g transform="translate(193.430469 310.754813)scale(0.26 -0.26)">
      <defs>
       <path d="M 18.3125 70.21875 
L 18.3125 54.6875 
L 36.8125 54.6875 
L 36.8125 47.703125 
L 18.3125 47.703125 
L 18.3125 18.015625 
Q 18.3125 11.328125 20.140625 9.421875 
Q 21.96875 7.515625 27.59375 7.515625 
L 36.8125 7.515625 
L 36.8125 0 
L 27.59375 0 
Q 17.1875 0 13.234375 3.875 
Q 9.28125 7.765625 9.28125 18.015625 
L 9.28125 47.703125 
L 2.6875 47.703125 
L 2.6875 54.6875 
L 9.28125 54.6875 
L 9.28125 70.21875 
z
" id="DejaVuSans-116"/>
       <path d="M 9.421875 54.6875 
L 18.40625 54.6875 
L 18.40625 0 
L 9.421875 0 
z
M 9.421875 75.984375 
L 18.40625 75.984375 
L 18.40625 64.59375 
L 9.421875 64.59375 
z
" id="DejaVuSans-105"/>
       <path d="M 52 44.1875 
Q 55.375 50.25 60.0625 53.125 
Q 64.75 56 71.09375 56 
Q 79.640625 56 84.28125 50.015625 
Q 88.921875 44.046875 88.921875 33.015625 
L 88.921875 0 
L 79.890625 0 
L 79.890625 32.71875 
Q 79.890625 40.578125 77.09375 44.375 
Q 74.3125 48.1875 68.609375 48.1875 
Q 61.625 48.1875 57.5625 43.546875 
Q 53.515625 38.921875 53.515625 30.90625 
L 53.515625 0 
L 44.484375 0 
L 44.484375 32.71875 
Q 44.484375 40.625 41.703125 44.40625 
Q 38.921875 48.1875 33.109375 48.1875 
Q 26.21875 48.1875 22.15625 43.53125 
Q 18.109375 38.875 18.109375 30.90625 
L 18.109375 0 
L 9.078125 0 
L 9.078125 54.6875 
L 18.109375 54.6875 
L 18.109375 46.1875 
Q 21.1875 51.21875 25.484375 53.609375 
Q 29.78125 56 35.6875 56 
Q 41.65625 56 45.828125 52.96875 
Q 50 49.953125 52 44.1875 
z
" id="DejaVuSans-109"/>
       <path d="M 56.203125 29.59375 
L 56.203125 25.203125 
L 14.890625 25.203125 
Q 15.484375 15.921875 20.484375 11.0625 
Q 25.484375 6.203125 34.421875 6.203125 
Q 39.59375 6.203125 44.453125 7.46875 
Q 49.3125 8.734375 54.109375 11.28125 
L 54.109375 2.78125 
Q 49.265625 0.734375 44.1875 -0.34375 
Q 39.109375 -1.421875 33.890625 -1.421875 
Q 20.796875 -1.421875 13.15625 6.1875 
Q 5.515625 13.8125 5.515625 26.8125 
Q 5.515625 40.234375 12.765625 48.109375 
Q 20.015625 56 32.328125 56 
Q 43.359375 56 49.78125 48.890625 
Q 56.203125 41.796875 56.203125 29.59375 
z
M 47.21875 32.234375 
Q 47.125 39.59375 43.09375 43.984375 
Q 39.0625 48.390625 32.421875 48.390625 
Q 24.90625 48.390625 20.390625 44.140625 
Q 15.875 39.890625 15.1875 32.171875 
z
" id="DejaVuSans-101"/>
       <path id="DejaVuSans-32"/>
       <path d="M 31 75.875 
Q 24.46875 64.65625 21.28125 53.65625 
Q 18.109375 42.671875 18.109375 31.390625 
Q 18.109375 20.125 21.3125 9.0625 
Q 24.515625 -2 31 -13.1875 
L 23.1875 -13.1875 
Q 15.875 -1.703125 12.234375 9.375 
Q 8.59375 20.453125 8.59375 31.390625 
Q 8.59375 42.28125 12.203125 53.3125 
Q 15.828125 64.359375 23.1875 75.875 
z
" id="DejaVuSans-40"/>
       <path d="M 44.28125 53.078125 
L 44.28125 44.578125 
Q 40.484375 46.53125 36.375 47.5 
Q 32.28125 48.484375 27.875 48.484375 
Q 21.1875 48.484375 17.84375 46.4375 
Q 14.5 44.390625 14.5 40.28125 
Q 14.5 37.15625 16.890625 35.375 
Q 19.28125 33.59375 26.515625 31.984375 
L 29.59375 31.296875 
Q 39.15625 29.25 43.1875 25.515625 
Q 47.21875 21.78125 47.21875 15.09375 
Q 47.21875 7.46875 41.1875 3.015625 
Q 35.15625 -1.421875 24.609375 -1.421875 
Q 20.21875 -1.421875 15.453125 -0.5625 
Q 10.6875 0.296875 5.421875 2 
L 5.421875 11.28125 
Q 10.40625 8.6875 15.234375 7.390625 
Q 20.0625 6.109375 24.8125 6.109375 
Q 31.15625 6.109375 34.5625 8.28125 
Q 37.984375 10.453125 37.984375 14.40625 
Q 37.984375 18.0625 35.515625 20.015625 
Q 33.0625 21.96875 24.703125 23.78125 
L 21.578125 24.515625 
Q 13.234375 26.265625 9.515625 29.90625 
Q 5.8125 33.546875 5.8125 39.890625 
Q 5.8125 47.609375 11.28125 51.796875 
Q 16.75 56 26.8125 56 
Q 31.78125 56 36.171875 55.265625 
Q 40.578125 54.546875 44.28125 53.078125 
z
" id="DejaVuSans-115"/>
       <path d="M 8.015625 75.875 
L 15.828125 75.875 
Q 23.140625 64.359375 26.78125 53.3125 
Q 30.421875 42.28125 30.421875 31.390625 
Q 30.421875 20.453125 26.78125 9.375 
Q 23.140625 -1.703125 15.828125 -13.1875 
L 8.015625 -13.1875 
Q 14.5 -2 17.703125 9.0625 
Q 20.90625 20.125 20.90625 31.390625 
Q 20.90625 42.671875 17.703125 53.65625 
Q 14.5 64.65625 8.015625 75.875 
z
" id="DejaVuSans-41"/>
      </defs>
      <use xlink:href="#DejaVuSans-116"/>
      <use x="39.208984" xlink:href="#DejaVuSans-105"/>
      <use x="66.992188" xlink:href="#DejaVuSans-109"/>
      <use x="164.404297" xlink:href="#DejaVuSans-101"/>
      <use x="225.927734" xlink:href="#DejaVuSans-32"/>
      <use x="257.714844" xlink:href="#DejaVuSans-40"/>
      <use x="296.728516" xlink:href="#DejaVuSans-115"/>
      <use x="348.828125" xlink:href="#DejaVuSans-41"/>
     </g>
    </g>
   </g>
   <g id="matplotlib.axis_2">
    <g id="ytick_1">
     <g id="line2d_6">
      <defs>
       <path d="M 0 0 
L -3.5 0 
" id="m6ec436f36f" style="stroke:#000000;stroke-width:0.8;"/>
      </defs>
      <g>
       <use style="stroke:#000000;stroke-width:0.8;" x="76.448125" xlink:href="#m6ec436f36f" y="254.83575"/>
      </g>
     </g>
     <g id="text_6">
      <!-- 18 -->
      <g transform="translate(36.363125 264.713719)scale(0.26 -0.26)">
       <defs>
        <path d="M 12.40625 8.296875 
L 28.515625 8.296875 
L 28.515625 63.921875 
L 10.984375 60.40625 
L 10.984375 69.390625 
L 28.421875 72.90625 
L 38.28125 72.90625 
L 38.28125 8.296875 
L 54.390625 8.296875 
L 54.390625 0 
L 12.40625 0 
z
" id="DejaVuSans-49"/>
        <path d="M 31.78125 34.625 
Q 24.75 34.625 20.71875 30.859375 
Q 16.703125 27.09375 16.703125 20.515625 
Q 16.703125 13.921875 20.71875 10.15625 
Q 24.75 6.390625 31.78125 6.390625 
Q 38.8125 6.390625 42.859375 10.171875 
Q 46.921875 13.96875 46.921875 20.515625 
Q 46.921875 27.09375 42.890625 30.859375 
Q 38.875 34.625 31.78125 34.625 
z
M 21.921875 38.8125 
Q 15.578125 40.375 12.03125 44.71875 
Q 8.5 49.078125 8.5 55.328125 
Q 8.5 64.0625 14.71875 69.140625 
Q 20.953125 74.21875 31.78125 74.21875 
Q 42.671875 74.21875 48.875 69.140625 
Q 55.078125 64.0625 55.078125 55.328125 
Q 55.078125 49.078125 51.53125 44.71875 
Q 48 40.375 41.703125 38.8125 
Q 48.828125 37.15625 52.796875 32.3125 
Q 56.78125 27.484375 56.78125 20.515625 
Q 56.78125 9.90625 50.3125 4.234375 
Q 43.84375 -1.421875 31.78125 -1.421875 
Q 19.734375 -1.421875 13.25 4.234375 
Q 6.78125 9.90625 6.78125 20.515625 
Q 6.78125 27.484375 10.78125 32.3125 
Q 14.796875 37.15625 21.921875 38.8125 
z
M 18.3125 54.390625 
Q 18.3125 48.734375 21.84375 45.5625 
Q 25.390625 42.390625 31.78125 42.390625 
Q 38.140625 42.390625 41.71875 45.5625 
Q 45.3125 48.734375 45.3125 54.390625 
Q 45.3125 60.0625 41.71875 63.234375 
Q 38.140625 66.40625 31.78125 66.40625 
Q 25.390625 66.40625 21.84375 63.234375 
Q 18.3125 60.0625 18.3125 54.390625 
z
" id="DejaVuSans-56"/>
       </defs>
       <use xlink:href="#DejaVuSans-49"/>
       <use x="63.623047" xlink:href="#DejaVuSans-56"/>
      </g>
     </g>
    </g>
    <g id="ytick_2">
     <g id="line2d_7">
      <g>
       <use style="stroke:#000000;stroke-width:0.8;" x="76.448125" xlink:href="#m6ec436f36f" y="158.19575"/>
      </g>
     </g>
     <g id="text_7">
      <!-- 20 -->
      <g transform="translate(36.363125 168.073719)scale(0.26 -0.26)">
       <use xlink:href="#DejaVuSans-50"/>
       <use x="63.623047" xlink:href="#DejaVuSans-48"/>
      </g>
     </g>
    </g>
    <g id="ytick_3">
     <g id="line2d_8">
      <g>
       <use style="stroke:#000000;stroke-width:0.8;" x="76.448125" xlink:href="#m6ec436f36f" y="61.55575"/>
      </g>
     </g>
     <g id="text_8">
      <!-- 22 -->
      <g transform="translate(36.363125 71.433719)scale(0.26 -0.26)">
       <use xlink:href="#DejaVuSans-50"/>
       <use x="63.623047" xlink:href="#DejaVuSans-50"/>
      </g>
     </g>
    </g>
    <g id="text_9">
     <!-- amplitude (a.u.) -->
     <g transform="translate(26.955937 250.552469)rotate(-90)scale(0.26 -0.26)">
      <defs>
       <path d="M 34.28125 27.484375 
Q 23.390625 27.484375 19.1875 25 
Q 14.984375 22.515625 14.984375 16.5 
Q 14.984375 11.71875 18.140625 8.90625 
Q 21.296875 6.109375 26.703125 6.109375 
Q 34.1875 6.109375 38.703125 11.40625 
Q 43.21875 16.703125 43.21875 25.484375 
L 43.21875 27.484375 
z
M 52.203125 31.203125 
L 52.203125 0 
L 43.21875 0 
L 43.21875 8.296875 
Q 40.140625 3.328125 35.546875 0.953125 
Q 30.953125 -1.421875 24.3125 -1.421875 
Q 15.921875 -1.421875 10.953125 3.296875 
Q 6 8.015625 6 15.921875 
Q 6 25.140625 12.171875 29.828125 
Q 18.359375 34.515625 30.609375 34.515625 
L 43.21875 34.515625 
L 43.21875 35.40625 
Q 43.21875 41.609375 39.140625 45 
Q 35.0625 48.390625 27.6875 48.390625 
Q 23 48.390625 18.546875 47.265625 
Q 14.109375 46.140625 10.015625 43.890625 
L 10.015625 52.203125 
Q 14.9375 54.109375 19.578125 55.046875 
Q 24.21875 56 28.609375 56 
Q 40.484375 56 46.34375 49.84375 
Q 52.203125 43.703125 52.203125 31.203125 
z
" id="DejaVuSans-97"/>
       <path d="M 18.109375 8.203125 
L 18.109375 -20.796875 
L 9.078125 -20.796875 
L 9.078125 54.6875 
L 18.109375 54.6875 
L 18.109375 46.390625 
Q 20.953125 51.265625 25.265625 53.625 
Q 29.59375 56 35.59375 56 
Q 45.5625 56 51.78125 48.09375 
Q 58.015625 40.1875 58.015625 27.296875 
Q 58.015625 14.40625 51.78125 6.484375 
Q 45.5625 -1.421875 35.59375 -1.421875 
Q 29.59375 -1.421875 25.265625 0.953125 
Q 20.953125 3.328125 18.109375 8.203125 
z
M 48.6875 27.296875 
Q 48.6875 37.203125 44.609375 42.84375 
Q 40.53125 48.484375 33.40625 48.484375 
Q 26.265625 48.484375 22.1875 42.84375 
Q 18.109375 37.203125 18.109375 27.296875 
Q 18.109375 17.390625 22.1875 11.75 
Q 26.265625 6.109375 33.40625 6.109375 
Q 40.53125 6.109375 44.609375 11.75 
Q 48.6875 17.390625 48.6875 27.296875 
z
" id="DejaVuSans-112"/>
       <path d="M 9.421875 75.984375 
L 18.40625 75.984375 
L 18.40625 0 
L 9.421875 0 
z
" id="DejaVuSans-108"/>
       <path d="M 8.5 21.578125 
L 8.5 54.6875 
L 17.484375 54.6875 
L 17.484375 21.921875 
Q 17.484375 14.15625 20.5 10.265625 
Q 23.53125 6.390625 29.59375 6.390625 
Q 36.859375 6.390625 41.078125 11.03125 
Q 45.3125 15.671875 45.3125 23.6875 
L 45.3125 54.6875 
L 54.296875 54.6875 
L 54.296875 0 
L 45.3125 0 
L 45.3125 8.40625 
Q 42.046875 3.421875 37.71875 1 
Q 33.40625 -1.421875 27.6875 -1.421875 
Q 18.265625 -1.421875 13.375 4.4375 
Q 8.5 10.296875 8.5 21.578125 
z
M 31.109375 56 
z
" id="DejaVuSans-117"/>
       <path d="M 45.40625 46.390625 
L 45.40625 75.984375 
L 54.390625 75.984375 
L 54.390625 0 
L 45.40625 0 
L 45.40625 8.203125 
Q 42.578125 3.328125 38.25 0.953125 
Q 33.9375 -1.421875 27.875 -1.421875 
Q 17.96875 -1.421875 11.734375 6.484375 
Q 5.515625 14.40625 5.515625 27.296875 
Q 5.515625 40.1875 11.734375 48.09375 
Q 17.96875 56 27.875 56 
Q 33.9375 56 38.25 53.625 
Q 42.578125 51.265625 45.40625 46.390625 
z
M 14.796875 27.296875 
Q 14.796875 17.390625 18.875 11.75 
Q 22.953125 6.109375 30.078125 6.109375 
Q 37.203125 6.109375 41.296875 11.75 
Q 45.40625 17.390625 45.40625 27.296875 
Q 45.40625 37.203125 41.296875 42.84375 
Q 37.203125 48.484375 30.078125 48.484375 
Q 22.953125 48.484375 18.875 42.84375 
Q 14.796875 37.203125 14.796875 27.296875 
z
" id="DejaVuSans-100"/>
       <path d="M 10.6875 12.40625 
L 21 12.40625 
L 21 0 
L 10.6875 0 
z
" id="DejaVuSans-46"/>
      </defs>
      <use xlink:href="#DejaVuSans-97"/>
      <use x="61.279297" xlink:href="#DejaVuSans-109"/>
      <use x="158.691406" xlink:href="#DejaVuSans-112"/>
      <use x="222.167969" xlink:href="#DejaVuSans-108"/>
      <use x="249.951172" xlink:href="#DejaVuSans-105"/>
      <use x="277.734375" xlink:href="#DejaVuSans-116"/>
      <use x="316.943359" xlink:href="#DejaVuSans-117"/>
      <use x="380.322266" xlink:href="#DejaVuSans-100"/>
      <use x="443.798828" xlink:href="#DejaVuSans-101"/>
      <use x="505.322266" xlink:href="#DejaVuSans-32"/>
      <use x="537.109375" xlink:href="#DejaVuSans-40"/>
      <use x="576.123047" xlink:href="#DejaVuSans-97"/>
      <use x="637.402344" xlink:href="#DejaVuSans-46"/>
      <use x="669.189453" xlink:href="#DejaVuSans-117"/>
      <use x="732.568359" xlink:href="#DejaVuSans-46"/>
      <use x="764.355469" xlink:href="#DejaVuSans-41"/>
     </g>
    </g>
   </g>
   <g id="line2d_9">
    <path clip-path="url(#p97fe61a602)" d="M 91.666307 61.55575 
L 95.877372 61.450506 
L 96.232522 61.46371 
L 96.73988 61.546894 
L 97.044294 61.578657 
L 97.551651 61.648947 
L 98.464894 61.719851 
L 102.32081 61.720329 
L 102.625224 61.767364 
L 103.436996 61.712143 
L 104.147296 61.640637 
L 105.009803 61.65035 
L 106.48114 61.755799 
L 106.684083 61.83394 
L 107.19144 61.841345 
L 107.597326 61.606193 
L 108.358362 61.214917 
L 108.713512 61.163247 
L 108.96719 61.163691 
L 110.539998 61.175568 
L 111.047355 61.193756 
L 111.402505 61.003836 
L 112.265013 60.841958 
L 112.467956 60.870402 
L 112.620163 60.855694 
L 112.77237 60.937606 
L 113.026049 61.131694 
L 113.330463 61.224731 
L 113.533406 61.185092 
L 113.787085 61.166826 
L 114.497385 61.173796 
L 116.070192 61.117021 
L 116.273135 61.157086 
L 116.323871 61.080743 
L 116.374607 61.140862 
L 116.9327 61.354163 
L 117.135643 61.359317 
L 117.28785 61.382745 
L 118.404036 60.919217 
L 118.556243 60.906527 
L 118.759186 60.888096 
L 119.215807 60.84992 
L 119.773901 60.881972 
L 121.194501 60.762333 
L 121.44818 60.615628 
L 121.549651 60.572216 
L 121.701858 60.414821 
L 122.970251 59.637537 
L 125.202623 59.846506 
L 125.507038 59.713534 
L 125.608509 59.637709 
L 125.709981 59.589095 
L 126.014395 59.220222 
L 126.420281 59.412629 
L 126.471017 59.309243 
L 126.521752 59.435804 
L 126.623224 59.421268 
L 126.775431 59.689927 
L 126.826167 59.659774 
L 126.927638 59.630293 
L 127.130581 59.738694 
L 127.232053 59.758824 
L 127.38426 59.752301 
L 127.637938 59.932194 
L 128.246767 60.040012 
L 129.616632 59.797061 
L 129.819575 59.700283 
L 130.631346 59.874358 
L 130.783554 59.978629 
L 130.986497 59.989114 
L 131.240175 59.804365 
L 131.392382 59.893565 
L 131.54459 59.838584 
L 131.747532 59.808304 
L 132.25489 59.592012 
L 132.508568 59.640687 
L 134.893148 60.056749 
L 135.045355 59.902577 
L 135.755655 59.299781 
L 135.958598 59.370127 
L 136.212277 59.340458 
L 136.516691 59.34768 
L 136.871841 59.3012 
L 137.328463 59.389903 
L 137.582141 59.352915 
L 137.83582 59.400975 
L 138.596856 59.338442 
L 139.002742 59.522903 
L 139.205685 59.4983 
L 139.357892 59.553128 
L 139.510099 59.683554 
L 139.713042 59.919469 
L 139.915985 60.100076 
L 140.626285 60.697316 
L 140.778492 60.80698 
L 141.285849 61.125031 
L 142.199093 61.147874 
L 143.467486 61.046228 
L 143.7719 61.016275 
L 144.025579 60.974736 
L 144.228522 61.007311 
L 145.040293 61.605302 
L 145.141765 61.701543 
L 145.243236 61.913818 
L 145.293972 61.861679 
L 145.446179 61.924462 
L 145.649122 61.894114 
L 146.004272 61.83547 
L 146.257951 61.653482 
L 146.410158 61.538542 
L 146.765308 61.34431 
L 147.171194 61.113288 
L 147.374137 61.137021 
L 148.084437 61.307171 
L 148.541059 61.716765 
L 148.896209 62.094916 
L 148.99768 62.059573 
L 149.149887 62.096662 
L 149.35283 62.087903 
L 149.657245 61.997205 
L 149.860188 61.848309 
L 150.266073 61.720822 
L 150.469016 61.889528 
L 150.570488 61.808139 
L 150.976374 62.29399 
L 151.686674 62.751233 
L 152.599917 62.719568 
L 152.853596 62.619482 
L 154.071253 62.760923 
L 154.274196 62.981328 
L 154.375667 62.847331 
L 154.426403 62.919828 
L 154.527875 62.922878 
L 154.57861 62.871376 
L 154.730818 63.062491 
L 155.085968 63.143241 
L 155.187439 63.131878 
L 155.339646 63.194671 
L 155.745532 62.819137 
L 155.897739 62.856125 
L 156.049947 62.792802 
L 156.252889 62.853142 
L 156.658775 62.805785 
L 157.115397 62.802496 
L 157.622754 62.78678 
L 158.130111 62.550975 
L 158.282319 62.477873 
L 159.043355 62.046937 
L 159.297033 62.214427 
L 159.44924 62.227105 
L 159.499976 62.173887 
L 159.550712 62.281163 
L 159.601448 62.252958 
L 159.652183 62.347589 
L 159.956598 62.397212 
L 160.869841 62.954948 
L 161.123519 62.928043 
L 161.580141 62.99974 
L 161.83382 63.032573 
L 162.239705 63.155001 
L 163.102213 63.110046 
L 163.25442 63.214715 
L 163.508099 62.963785 
L 163.558834 63.05322 
L 163.60957 62.956697 
L 163.812513 62.517162 
L 163.913984 62.492154 
L 164.218399 62.350585 
L 164.269135 62.373693 
L 164.421342 62.168719 
L 164.522813 62.174467 
L 164.776492 62.238045 
L 164.877963 62.25774 
L 165.486792 62.630872 
L 166.856657 62.526747 
L 167.0596 62.505494 
L 167.364014 62.658666 
L 168.784614 62.523308 
L 169.1905 62.985746 
L 169.342707 62.950271 
L 169.494915 63.016746 
L 169.647122 62.927809 
L 169.850065 62.966227 
L 170.560365 62.904412 
L 170.864779 62.987464 
L 171.676551 62.942676 
L 171.778022 62.930484 
L 171.93023 62.970304 
L 171.980965 62.990327 
L 172.133173 62.84474 
L 172.183908 62.826626 
L 172.336115 63.052238 
L 172.488323 63.055245 
L 172.742001 63.41687 
L 172.792737 63.372228 
L 173.300094 63.404243 
L 173.35083 63.320001 
L 173.401566 63.366605 
L 173.452301 63.47613 
L 173.503037 63.374042 
L 173.70598 63.225094 
L 173.908923 63.303499 
L 174.010394 63.213762 
L 174.06113 63.273225 
L 175.126581 63.223175 
L 175.278788 63.237317 
L 176.242767 63.220253 
L 176.597917 63.065421 
L 176.902331 63.207342 
L 177.054538 63.308776 
L 177.257481 63.670809 
L 177.51116 63.882934 
L 177.714103 64.243187 
L 177.86631 64.318589 
L 177.917046 64.377229 
L 177.967781 64.309395 
L 178.22146 64.359173 
L 178.322931 64.307184 
L 178.475139 64.239493 
L 178.982496 63.752962 
L 179.236175 63.557324 
L 179.692796 63.58344 
L 179.946475 63.716526 
L 181.316339 63.73399 
L 182.280318 64.290301 
L 182.331054 64.152214 
L 182.38179 64.221913 
L 182.432525 64.215538 
L 182.635468 63.952734 
L 182.889147 63.687263 
L 183.09209 63.560063 
L 183.244297 63.625139 
L 183.80239 63.327808 
L 183.903862 63.374246 
L 184.208276 63.23617 
L 184.51269 63.151601 
L 185.831819 62.996781 
L 186.034762 63.11148 
L 187.201684 62.819621 
L 187.353891 62.889311 
L 187.404627 62.802109 
L 187.455363 62.892622 
L 187.60757 62.850415 
L 187.759777 62.99424 
L 188.419341 63.169657 
L 189.434056 63.116309 
L 189.687735 63.221008 
L 190.09362 63.338782 
L 190.600978 63.583916 
L 190.956128 63.315127 
L 191.057599 63.230655 
L 191.362014 63.509896 
L 191.463485 63.439403 
L 191.717164 63.672847 
L 192.12305 63.833642 
L 192.934821 63.387645 
L 193.087028 63.377852 
L 193.340707 63.235246 
L 193.54365 63.663423 
L 193.8988 65.651172 
L 194.659836 71.275807 
L 195.217929 75.281856 
L 195.370136 75.399802 
L 195.471608 75.258816 
L 195.725286 73.909081 
L 196.689265 68.722428 
L 197.145887 68.792927 
L 197.501037 69.094595 
L 197.602508 69.231201 
L 197.906923 69.707533 
L 198.109866 69.929505 
L 198.566487 70.442125 
L 199.83488 71.299397 
L 199.987088 71.499336 
L 200.088559 71.598165 
L 200.240766 71.778149 
L 200.443709 71.931281 
L 200.545181 71.640047 
L 200.595916 71.65861 
L 200.697388 71.810699 
L 200.900331 71.438491 
L 200.951066 71.542403 
L 201.001802 71.543915 
L 201.306217 70.912959 
L 201.559895 70.713228 
L 201.813574 70.647559 
L 202.016517 70.767532 
L 202.371667 70.89996 
L 202.879024 70.909486 
L 203.690796 70.908177 
L 204.604039 70.952473 
L 204.756246 71.010529 
L 204.806982 70.96259 
L 204.908453 71.084538 
L 204.959189 70.975792 
L 205.162132 71.272692 
L 205.314339 71.482829 
L 205.365075 71.393479 
L 205.720225 72.091075 
L 205.973904 72.650647 
L 206.024639 72.808169 
L 206.075375 72.660227 
L 206.227582 72.711214 
L 206.430525 72.965934 
L 206.481261 72.904519 
L 206.633468 72.918663 
L 208.257011 72.921485 
L 209.626876 73.007064 
L 210.134233 73.644645 
L 210.438648 73.642727 
L 210.489383 73.67066 
L 210.540119 73.549555 
L 210.590855 73.667001 
L 210.692326 73.778255 
L 211.199684 74.992419 
L 211.351891 75.274748 
L 211.453362 75.086804 
L 211.909984 74.842764 
L 212.214398 74.820605 
L 213.634999 74.83495 
L 214.294563 74.930001 
L 214.700449 75.186312 
L 214.903392 75.329123 
L 215.055599 75.393516 
L 215.360013 75.059159 
L 215.715163 75.361264 
L 215.765899 75.378807 
L 216.628407 77.732924 
L 219.875493 77.685961 
L 220.332115 77.982214 
L 220.738001 78.743201 
L 220.940944 79.475332 
L 221.093151 79.579022 
L 221.143886 79.522327 
L 221.194622 79.600296 
L 221.397565 79.973832 
L 221.448301 79.952266 
L 221.651244 80.058616 
L 221.701979 80.140728 
L 221.752715 80.076478 
L 222.05713 80.021623 
L 222.41228 80.023608 
L 224.949066 80.131589 
L 225.557895 80.792642 
L 225.608631 80.664418 
L 225.659366 80.712699 
L 225.811573 80.747694 
L 225.913045 80.516271 
L 225.963781 80.563717 
L 226.521874 79.356327 
L 226.927759 79.411776 
L 227.485853 79.571341 
L 229.870432 79.478715 
L 230.12411 79.21665 
L 230.276318 79.33422 
L 230.428525 79.206364 
L 230.631468 79.415818 
L 230.682203 79.417331 
L 230.732939 79.586551 
L 230.783675 79.56819 
L 230.834411 79.517206 
L 230.885146 79.57048 
L 231.037354 79.873898 
L 231.088089 79.821608 
L 231.138825 79.802844 
L 231.291032 79.542942 
L 231.392504 79.495838 
L 231.646182 79.313924 
L 231.747654 79.428418 
L 231.798389 79.376841 
L 232.305747 79.102914 
L 233.675611 79.114702 
L 235.197683 79.165511 
L 235.34989 79.234288 
L 235.400626 79.154381 
L 235.451362 79.193272 
L 235.603569 79.382591 
L 235.755776 79.263348 
L 235.857248 79.33363 
L 236.009455 79.239548 
L 236.212398 79.475547 
L 236.313869 79.518606 
L 237.430055 79.730165 
L 239.15507 79.77556 
L 240.169785 79.704876 
L 240.372728 79.737082 
L 240.524935 79.849686 
L 240.778613 79.583127 
L 240.880085 79.617661 
L 240.930821 79.484671 
L 240.981556 79.566832 
L 241.083028 79.611412 
L 241.488914 78.835178 
L 241.539649 78.844687 
L 241.691857 78.555013 
L 241.742592 78.579974 
L 242.047007 78.490217 
L 242.655835 78.594195 
L 244.177907 78.604879 
L 244.888207 78.557419 
L 245.09115 78.376124 
L 245.192622 78.287435 
L 245.395565 78.297013 
L 245.547772 78.331497 
L 245.649243 78.377921 
L 245.750715 78.41386 
L 245.852186 78.277377 
L 246.207336 79.099185 
L 246.258072 79.086302 
L 246.410279 79.414462 
L 246.663958 79.709076 
L 247.019108 79.534174 
L 247.323522 79.100252 
L 247.526465 78.980095 
L 247.780144 78.913065 
L 249.860309 78.936847 
L 250.164723 79.303864 
L 250.31693 79.302881 
L 250.519873 79.369043 
L 250.621345 79.274442 
L 251.230174 78.515558 
L 251.534588 78.129763 
L 251.585324 78.071275 
L 251.636059 78.160699 
L 251.991209 78.467832 
L 252.244888 78.852257 
L 252.498567 79.076886 
L 255.136825 78.94561 
L 255.491975 78.839156 
L 255.999332 79.505267 
L 256.050068 79.501922 
L 256.202275 79.63473 
L 256.354482 79.645373 
L 256.455954 79.729753 
L 256.506689 79.560177 
L 256.557425 79.684966 
L 256.811104 80.012248 
L 257.014047 80.127606 
L 257.166254 80.177393 
L 257.21699 80.235613 
L 257.267725 80.169851 
L 257.419932 80.093221 
L 257.622875 79.917473 
L 258.180968 79.893347 
L 259.956719 79.831196 
L 260.261133 79.697709 
L 260.464076 79.659963 
L 260.667019 79.453755 
L 261.072905 79.956453 
L 261.275848 80.21654 
L 261.326584 80.234723 
L 261.529526 80.705777 
L 261.630998 80.881651 
L 261.986148 81.542408 
L 262.44277 81.283327 
L 262.747184 81.003145 
L 263.15307 80.962741 
L 264.269256 80.969948 
L 265.081027 81.066533 
L 265.537649 81.458061 
L 265.63912 81.434905 
L 265.689856 81.567824 
L 265.740592 81.536989 
L 265.943535 81.537264 
L 266.095742 81.48615 
L 266.552364 81.05376 
L 266.704571 81.515694 
L 266.907514 81.419972 
L 266.958249 81.254541 
L 267.008985 81.325301 
L 267.3134 81.581432 
L 267.414871 81.422071 
L 267.465607 81.460241 
L 267.567078 81.503073 
L 267.719285 81.620109 
L 267.922228 81.628842 
L 270.306808 81.778509 
L 270.763429 82.357674 
L 271.017108 82.805024 
L 271.067843 82.757585 
L 271.270786 82.879356 
L 271.422994 83.018945 
L 271.524465 83.258684 
L 271.575201 83.035628 
L 271.625936 83.093648 
L 271.727408 83.183087 
L 271.778144 83.130145 
L 271.981087 83.091381 
L 272.082558 83.041104 
L 272.234765 83.071319 
L 272.336237 83.172691 
L 272.53918 83.401404 
L 272.843594 83.327568 
L 273.95978 83.286826 
L 275.481852 83.428788 
L 275.786266 83.761317 
L 275.837002 83.683936 
L 276.141416 83.363047 
L 276.445831 83.598862 
L 276.953188 83.874526 
L 277.105395 84.213174 
L 277.156131 84.223292 
L 277.460545 84.735969 
L 277.511281 84.790169 
L 277.562017 84.711291 
L 277.76496 84.690704 
L 278.018638 84.591823 
L 278.424524 84.616813 
L 280.301746 84.682745 
L 281.113518 84.917948 
L 281.265725 84.673817 
L 281.316461 84.717991 
L 281.417932 84.803485 
L 281.468668 84.746372 
L 281.570139 84.812445 
L 281.671611 84.538631 
L 281.722346 84.673507 
L 281.773082 84.698791 
L 281.823818 84.579958 
L 281.874554 84.664429 
L 282.026761 84.826132 
L 282.077497 84.517561 
L 282.128232 84.62927 
L 282.280439 84.716342 
L 282.584854 84.768264 
L 282.686325 84.744397 
L 282.787797 84.733175 
L 283.244418 84.937215 
L 283.751776 84.936254 
L 285.730469 84.744105 
L 285.882676 84.687036 
L 286.034883 84.63684 
L 286.237826 84.464608 
L 286.440769 84.501876 
L 286.491505 84.386092 
L 286.542241 84.494203 
L 286.694448 84.54018 
L 286.846655 84.432473 
L 286.998862 84.752307 
L 287.049598 84.675963 
L 287.151069 85.027195 
L 287.201805 84.858123 
L 287.252541 84.922685 
L 287.354012 84.964818 
L 288.115048 85.528243 
L 288.723877 85.433369 
L 289.434177 85.453522 
L 290.905513 85.389642 
L 291.006985 85.287239 
L 291.057721 85.365195 
L 291.260663 85.255172 
L 291.463606 85.337525 
L 291.818756 85.561707 
L 292.275378 85.182069 
L 292.529057 84.673334 
L 292.884207 84.022483 
L 292.934942 84.019377 
L 293.036414 83.843117 
L 293.08715 83.871655 
L 293.645243 83.938236 
L 294.457014 83.895915 
L 295.674672 83.802497 
L 295.92835 83.80402 
L 296.232765 83.969259 
L 296.334236 84.157364 
L 296.384972 84.046825 
L 296.537179 84.230337 
L 296.841594 84.640184 
L 296.892329 84.53041 
L 296.943065 84.589594 
L 297.146008 84.967241 
L 297.196744 84.832515 
L 297.704101 84.539535 
L 297.907044 84.349232 
L 298.109987 84.295677 
L 301.052659 84.332466 
L 301.407809 84.495214 
L 301.509281 84.619397 
L 301.560016 84.558825 
L 301.610752 84.572792 
L 301.712224 84.37338 
L 301.762959 84.436013 
L 301.915166 84.421585 
L 302.016638 84.27638 
L 302.067374 84.338497 
L 302.118109 84.352239 
L 302.270317 84.193067 
L 302.321052 84.315694 
L 302.422524 84.054891 
L 302.473259 84.120722 
L 302.523995 84.014192 
L 302.574731 84.203505 
L 302.625467 84.095813 
L 302.726938 84.142781 
L 302.980617 84.328167 
L 303.082088 84.371115 
L 303.285031 84.534737 
L 303.437238 84.567895 
L 303.792388 84.640771 
L 306.379911 84.394293 
L 306.785796 83.801535 
L 306.836532 83.839262 
L 307.090211 84.174238 
L 307.140947 84.118178 
L 307.496097 83.980999 
L 307.546832 84.005162 
L 307.69904 83.907994 
L 307.800511 84.056547 
L 308.155661 83.718144 
L 308.307868 83.709528 
L 308.612283 83.807565 
L 310.89539 83.844112 
L 311.605691 84.717103 
L 311.707162 84.908558 
L 311.757898 84.734405 
L 311.808634 84.793126 
L 312.163784 84.838193 
L 312.214519 84.895242 
L 312.265255 84.80404 
L 312.772612 84.413551 
L 313.026291 84.753381 
L 313.127763 84.833796 
L 313.330705 85.206462 
L 313.685856 85.43506 
L 314.649834 85.431564 
L 316.273378 85.47916 
L 316.527056 85.699856 
L 316.628528 85.737472 
L 316.831471 86.061229 
L 317.034414 85.97059 
L 317.085149 85.863495 
L 317.186621 86.154821 
L 317.237357 86.141636 
L 317.491035 85.819057 
L 317.744714 85.829325 
L 317.846185 85.703707 
L 317.896921 85.742617 
L 318.099864 85.862807 
L 318.1506 85.766672 
L 318.302807 85.727433 
L 319.5712 85.59846 
L 321.296215 85.657193 
L 322.006515 86.613593 
L 322.209458 87.046637 
L 322.513872 87.542755 
L 322.564608 87.507081 
L 322.869022 87.102547 
L 322.919758 87.127075 
L 323.071965 86.889244 
L 323.579323 86.556772 
L 323.934473 86.508449 
L 326.724938 86.720399 
L 327.130824 87.128157 
L 327.283031 87.179806 
L 327.333767 87.050292 
L 327.384502 87.123589 
L 327.739652 87.006149 
L 327.790388 87.160883 
L 327.841124 87.004904 
L 327.942595 87.063071 
L 328.196274 87.07647 
L 328.24701 87.037767 
L 328.297745 87.145744 
L 328.348481 87.095818 
L 328.500688 87.039229 
L 328.95731 86.871482 
L 331.646303 87.030334 
L 331.849246 87.16397 
L 332.102925 86.941304 
L 332.255132 86.972985 
L 332.356604 86.959233 
L 332.458075 86.786686 
L 332.610282 86.936015 
L 332.76249 86.880123 
L 333.066904 87.580242 
L 333.320583 87.753558 
L 333.422054 87.53594 
L 333.47279 87.680711 
L 333.574261 87.790088 
L 333.82794 87.547406 
L 334.081618 87.414495 
L 334.639711 87.430132 
L 335.451483 87.438394 
L 337.379441 87.568137 
L 337.683855 87.769514 
L 337.734591 87.62998 
L 337.785327 87.755687 
L 337.98827 88.167391 
L 338.140477 88.105563 
L 338.597098 88.590036 
L 338.901513 88.519376 
L 339.713284 88.429036 
L 340.372849 88.425465 
L 342.351542 88.495127 
L 342.453014 88.526349 
L 342.503749 88.446488 
L 342.554485 88.547285 
L 343.112578 89.889677 
L 343.21405 89.853607 
L 343.467728 90.436628 
L 343.822878 90.571137 
L 343.873614 90.48072 
L 343.92435 90.560969 
L 344.076557 90.608726 
L 344.127293 90.673142 
L 344.178028 90.595344 
L 347.069965 90.347283 
L 347.272908 90.184412 
L 347.323644 90.235232 
L 347.374379 90.17635 
L 347.577322 90.035517 
L 347.780265 90.119649 
L 347.831001 90.062506 
L 347.881737 90.132351 
L 348.135415 90.362264 
L 348.287622 90.114806 
L 348.43983 90.319031 
L 348.541301 89.994365 
L 348.592037 90.025623 
L 348.693508 89.813135 
L 349.048658 89.423879 
L 349.403809 89.168134 
L 351.027352 89.123019 
L 352.194274 89.207758 
L 352.447952 89.271842 
L 352.600159 89.191754 
L 352.803102 89.131555 
L 352.853838 89.226953 
L 352.904574 89.186838 
L 353.107517 89.019396 
L 353.158252 89.09722 
L 353.208988 89.187687 
L 353.462667 88.615042 
L 353.66561 88.572847 
L 354.02076 87.729835 
L 354.071496 87.732882 
L 354.325174 87.304607 
L 354.37591 87.367676 
L 354.426646 87.322511 
L 355.08621 87.314472 
L 355.897982 87.303212 
L 357.470789 87.397417 
L 358.586975 88.185781 
L 358.637711 88.422035 
L 358.688447 88.316839 
L 358.739183 88.31562 
L 358.942126 88.598836 
L 359.145068 88.586658 
L 359.348011 88.556647 
L 359.449483 88.67064 
L 359.500219 88.615286 
L 359.550954 88.673331 
L 359.855369 88.759289 
L 360.159783 88.734887 
L 362.747305 88.955347 
L 362.798041 89.069207 
L 362.848777 88.967287 
L 363.40687 89.334333 
L 363.457605 89.449089 
L 363.508341 89.397264 
L 363.559077 89.307039 
L 363.609813 89.365375 
L 363.76202 89.438567 
L 363.863491 89.42895 
L 363.964963 89.564548 
L 364.015698 89.504078 
L 365.436299 89.759379 
L 366.400278 89.74759 
L 367.820878 89.942452 
L 367.922349 89.972922 
L 368.683385 88.780548 
L 368.734121 88.628633 
L 368.784857 88.649573 
L 368.835593 88.839662 
L 368.886328 88.718607 
L 368.9878 88.609755 
L 369.038536 88.431549 
L 369.140007 88.480254 
L 369.292214 88.747729 
L 369.34295 88.708394 
L 369.393686 88.550427 
L 369.444421 88.6515 
L 369.596629 88.957039 
L 369.850307 89.248571 
L 370.154722 89.404086 
L 371.067965 89.352929 
L 372.234886 89.31331 
L 372.995922 88.64618 
L 373.097394 88.438258 
L 373.14813 88.480269 
L 373.198865 88.412267 
L 373.50328 88.8926 
L 373.85843 89.29081 
L 374.21358 89.002783 
L 374.264316 89.066736 
L 374.56873 88.626058 
L 374.92388 88.279123 
L 375.431237 88.206414 
L 376.395216 88.255397 
L 377.511402 88.371077 
L 378.170967 88.673802 
L 378.526117 89.303778 
L 378.678324 89.839412 
L 378.779795 89.753381 
L 378.830531 89.71325 
L 379.033474 89.985854 
L 379.08421 89.981339 
L 379.236417 90.298259 
L 379.693039 89.742413 
L 379.997453 89.859825 
L 380.251132 89.811108 
L 380.657017 89.815922 
L 381.976146 89.832145 
L 383.041597 89.931894 
L 383.092332 89.988558 
L 383.143068 89.912316 
L 383.346011 89.784041 
L 383.701161 90.203371 
L 383.751897 90.119018 
L 383.802633 90.241594 
L 384.005575 90.159501 
L 384.107047 90.274191 
L 384.208518 90.024056 
L 384.259254 90.166316 
L 384.462197 90.422154 
L 384.614404 90.576739 
L 384.715876 90.625518 
L 384.817347 90.388193 
L 384.868083 90.402683 
L 385.02029 90.373534 
L 385.223233 90.168507 
L 386.136476 90.108199 
L 386.745305 90.109353 
L 388.013698 90.173146 
L 388.926941 90.841902 
L 389.18062 90.542833 
L 389.282091 90.488528 
L 389.332827 90.543607 
L 389.485034 90.55 
L 389.53577 90.464419 
L 389.586506 90.573684 
L 389.637241 90.579943 
L 389.789449 90.253752 
L 389.840184 90.315508 
L 389.89092 90.254276 
L 390.449013 89.662505 
L 391.362256 89.621519 
L 392.985799 89.56657 
L 393.290214 89.452102 
L 393.442421 89.505172 
L 393.645364 89.413572 
L 393.949778 89.350569 
L 394.101985 89.800196 
L 394.203457 89.694095 
L 394.355664 89.685156 
L 394.507871 89.575968 
L 394.558607 89.598613 
L 394.609343 89.802052 
L 394.660079 89.61954 
L 395.015229 89.410069 
L 395.218172 88.996138 
L 395.421114 88.604969 
L 395.877736 88.605825 
L 396.029943 88.607858 
L 396.029943 88.607858 
" style="fill:none;stroke:#ff7f0e;stroke-linecap:square;stroke-width:1.5;"/>
   </g>
   <g id="patch_3">
    <path d="M 76.448125 254.83575 
L 76.448125 37.39575 
" style="fill:none;stroke:#000000;stroke-linecap:square;stroke-linejoin:miter;stroke-width:0.8;"/>
   </g>
   <g id="patch_4">
    <path d="M 411.248125 254.83575 
L 411.248125 37.39575 
" style="fill:none;stroke:#000000;stroke-linecap:square;stroke-linejoin:miter;stroke-width:0.8;"/>
   </g>
   <g id="patch_5">
    <path d="M 76.448125 254.83575 
L 411.248125 254.83575 
" style="fill:none;stroke:#000000;stroke-linecap:square;stroke-linejoin:miter;stroke-width:0.8;"/>
   </g>
   <g id="patch_6">
    <path d="M 76.448125 37.39575 
L 411.248125 37.39575 
" style="fill:none;stroke:#000000;stroke-linecap:square;stroke-linejoin:miter;stroke-width:0.8;"/>
   </g>
   <g id="text_10">
    <!-- $B(t)$ -->
    <g transform="translate(219.512125 30.907125)scale(0.312 -0.312)">
     <defs>
      <path d="M 13 65.296875 
L 38 65.296875 
Q 58.796875 65.296875 58.796875 50.296875 
Q 58.796875 43.296875 52.40625 39 
Q 49 36.703125 41.296875 35.09375 
L 41.296875 35 
Q 53.90625 31.203125 53.90625 20 
Q 53.90625 10.203125 46.453125 5.09375 
Q 39 0 26.40625 0 
L -0.796875 0 
L -0.796875 1.59375 
Q 3.296875 2.203125 4.75 3.59375 
Q 6.203125 5 7.5 9.59375 
L 19.59375 53.203125 
Q 20.703125 57.09375 20.703125 59.59375 
Q 20.703125 61.796875 19.203125 62.546875 
Q 17.703125 63.296875 13 63.703125 
z
M 24.796875 36.296875 
L 28.59375 36.296875 
Q 38.40625 36.296875 43.546875 40.1875 
Q 48.703125 44.09375 48.703125 51.5 
Q 48.703125 57.09375 45.890625 59.6875 
Q 43.09375 62.296875 37 62.296875 
Q 34.703125 62.296875 33.84375 62.140625 
Q 33 62 32.296875 61.25 
Q 31.59375 60.5 31.09375 58.703125 
z
M 23.796875 33.09375 
L 20.59375 21.203125 
Q 17.09375 7.90625 17.09375 7.203125 
Q 17.09375 3 23.796875 3 
Q 32.59375 3 37.84375 7.390625 
Q 43.09375 11.796875 43.09375 20 
Q 43.09375 24.5 41.1875 27.703125 
Q 39.296875 30.90625 36.40625 31.90625 
Q 33 33.09375 23.796875 33.09375 
z
" id="STIXGeneral-Italic-66"/>
      <path d="M 30.40625 -16.09375 
L 29.203125 -17.703125 
Q 17.59375 -11.09375 11.1875 0.5 
Q 4.796875 12.09375 4.796875 25.203125 
Q 4.796875 52.90625 29.5 67.59375 
L 30.40625 66 
Q 20.203125 57.296875 16.796875 48.84375 
Q 13.40625 40.40625 13.40625 25.5 
Q 13.40625 10.703125 16.90625 1.5 
Q 20.40625 -7.703125 30.40625 -16.09375 
z
" id="STIXGeneral-Regular-40"/>
      <path d="M 29.59375 42.796875 
L 29.09375 39.59375 
L 20.703125 39.59375 
L 12 6.796875 
Q 11.796875 6 11.796875 5.40625 
Q 11.796875 3.796875 13.296875 3.796875 
Q 14.5 3.796875 16.09375 5.34375 
Q 17.703125 6.90625 21.40625 11.703125 
L 22.703125 11 
Q 18.09375 4 15.140625 1.453125 
Q 12.203125 -1.09375 8.40625 -1.09375 
Q 3.796875 -1.09375 3.796875 2.59375 
Q 3.796875 3.59375 5.40625 10 
L 13.203125 39.59375 
L 5.703125 39.59375 
L 5.59375 40.203125 
Q 5.59375 42 8.90625 42.703125 
Q 11.40625 43.296875 15.5 46.546875 
Q 19.59375 49.796875 22.203125 53.703125 
Q 22.796875 54.59375 23.59375 54.59375 
Q 24.5 54.59375 24.5 53.796875 
Q 24.5 53.296875 24.40625 53.09375 
L 21.59375 42.796875 
z
" id="STIXGeneral-Italic-116"/>
      <path d="M 2.90625 66 
L 4.09375 67.59375 
Q 15.5 60.796875 22 49.1875 
Q 28.5 37.59375 28.5 24.703125 
Q 28.5 -2.59375 3.796875 -17.703125 
L 2.90625 -16.09375 
Q 13.203125 -7.59375 16.546875 0.84375 
Q 19.90625 9.296875 19.90625 24.40625 
Q 19.90625 39.59375 16.546875 48.75 
Q 13.203125 57.90625 2.90625 66 
z
" id="STIXGeneral-Regular-41"/>
     </defs>
     <use transform="translate(0 0.40625)" xlink:href="#STIXGeneral-Italic-66"/>
     <use transform="translate(61.099991 0.40625)" xlink:href="#STIXGeneral-Regular-40"/>
     <use transform="translate(94.399979 0.40625)" xlink:href="#STIXGeneral-Italic-116"/>
     <use transform="translate(122.199966 0.40625)" xlink:href="#STIXGeneral-Regular-41"/>
    </g>
   </g>
   <g id="legend_1">
    <g id="line2d_10">
     <path d="M 438.388125 58.451688 
L 490.388125 58.451688 
" style="fill:none;stroke:#1f77b4;stroke-linecap:square;stroke-width:1.5;"/>
    </g>
    <g id="line2d_11"/>
    <g id="text_11">
     <!-- exact -->
     <g transform="translate(511.188125 67.551688)scale(0.26 -0.26)">
      <defs>
       <path d="M 54.890625 54.6875 
L 35.109375 28.078125 
L 55.90625 0 
L 45.3125 0 
L 29.390625 21.484375 
L 13.484375 0 
L 2.875 0 
L 24.125 28.609375 
L 4.6875 54.6875 
L 15.28125 54.6875 
L 29.78125 35.203125 
L 44.28125 54.6875 
z
" id="DejaVuSans-120"/>
       <path d="M 48.78125 52.59375 
L 48.78125 44.1875 
Q 44.96875 46.296875 41.140625 47.34375 
Q 37.3125 48.390625 33.40625 48.390625 
Q 24.65625 48.390625 19.8125 42.84375 
Q 14.984375 37.3125 14.984375 27.296875 
Q 14.984375 17.28125 19.8125 11.734375 
Q 24.65625 6.203125 33.40625 6.203125 
Q 37.3125 6.203125 41.140625 7.25 
Q 44.96875 8.296875 48.78125 10.40625 
L 48.78125 2.09375 
Q 45.015625 0.34375 40.984375 -0.53125 
Q 36.96875 -1.421875 32.421875 -1.421875 
Q 20.0625 -1.421875 12.78125 6.34375 
Q 5.515625 14.109375 5.515625 27.296875 
Q 5.515625 40.671875 12.859375 48.328125 
Q 20.21875 56 33.015625 56 
Q 37.15625 56 41.109375 55.140625 
Q 45.0625 54.296875 48.78125 52.59375 
z
" id="DejaVuSans-99"/>
      </defs>
      <use xlink:href="#DejaVuSans-101"/>
      <use x="59.773438" xlink:href="#DejaVuSans-120"/>
      <use x="118.953125" xlink:href="#DejaVuSans-97"/>
      <use x="180.232422" xlink:href="#DejaVuSans-99"/>
      <use x="235.212891" xlink:href="#DejaVuSans-116"/>
     </g>
    </g>
    <g id="line2d_12">
     <path d="M 438.388125 96.614813 
L 490.388125 96.614813 
" style="fill:none;stroke:#ff7f0e;stroke-linecap:square;stroke-width:1.5;"/>
    </g>
    <g id="line2d_13"/>
    <g id="text_12">
     <!-- estimated -->
     <g transform="translate(511.188125 105.714813)scale(0.26 -0.26)">
      <use xlink:href="#DejaVuSans-101"/>
      <use x="61.523438" xlink:href="#DejaVuSans-115"/>
      <use x="113.623047" xlink:href="#DejaVuSans-116"/>
      <use x="152.832031" xlink:href="#DejaVuSans-105"/>
      <use x="180.615234" xlink:href="#DejaVuSans-109"/>
      <use x="278.027344" xlink:href="#DejaVuSans-97"/>
      <use x="339.306641" xlink:href="#DejaVuSans-116"/>
      <use x="378.515625" xlink:href="#DejaVuSans-101"/>
      <use x="440.039062" xlink:href="#DejaVuSans-100"/>
     </g>
    </g>
   </g>
  </g>
 </g>
 <defs>
  <clipPath id="p97fe61a602">
   <rect height="217.44" width="334.8" x="76.448125" y="37.39575"/>
  </clipPath>
 </defs>
</svg>
