<?xml version="1.0" encoding="utf-8" standalone="no"?>
<!DOCTYPE svg PUBLIC "-//W3C//DTD SVG 1.1//EN"
  "http://www.w3.org/Graphics/SVG/1.1/DTD/svg11.dtd">
<!-- Created with matplotlib (https://matplotlib.org/) -->
<svg height="319.550562pt" version="1.1" viewBox="0 0 636.570312 319.550562" width="636.570312pt" xmlns="http://www.w3.org/2000/svg" xmlns:xlink="http://www.w3.org/1999/xlink">
 <defs>
  <style type="text/css">
*{stroke-linecap:butt;stroke-linejoin:round;}
  </style>
 </defs>
 <g id="figure_1">
  <g id="patch_1">
   <path d="M 0 319.550562 
L 636.570312 319.550562 
L 636.570312 0 
L 0 0 
z
" style="fill:#ffffff;"/>
  </g>
  <g id="axes_1">
   <g id="patch_2">
    <path d="M 71.51625 253.173375 
L 406.31625 253.173375 
L 406.31625 35.733375 
L 71.51625 35.733375 
z
" style="fill:#ffffff;"/>
   </g>
   <g id="line2d_1">
    <path clip-path="url(#p807346c433)" d="M 86.734432 59.893375 
L 188.205889 59.893375 
L 188.358096 84.053375 
L 391.098068 84.053375 
L 391.098068 84.053375 
" style="fill:none;stroke:#1f77b4;stroke-linecap:square;stroke-width:1.5;"/>
   </g>
   <g id="matplotlib.axis_1">
    <g id="xtick_1">
     <g id="line2d_2">
      <defs>
       <path d="M 0 0 
L 0 3.5 
" id="me17faae9b6" style="stroke:#000000;stroke-width:0.8;"/>
      </defs>
      <g>
       <use style="stroke:#000000;stroke-width:0.8;" x="86.734432" xlink:href="#me17faae9b6" y="253.173375"/>
      </g>
     </g>
     <g id="text_1">
      <!-- 0 -->
      <defs>
       <path d="M 4.15625 35.296875 
Q 4.15625 48 6.765625 55.734375 
Q 9.375 63.484375 14.515625 67.671875 
Q 19.671875 71.875 27.484375 71.875 
Q 33.25 71.875 37.59375 69.546875 
Q 41.9375 67.234375 44.765625 62.859375 
Q 47.609375 58.5 49.21875 52.21875 
Q 50.828125 45.953125 50.828125 35.296875 
Q 50.828125 22.703125 48.234375 14.96875 
Q 45.65625 7.234375 40.5 3 
Q 35.359375 -1.21875 27.484375 -1.21875 
Q 17.140625 -1.21875 11.234375 6.203125 
Q 4.15625 15.140625 4.15625 35.296875 
z
M 13.1875 35.296875 
Q 13.1875 17.671875 17.3125 11.828125 
Q 21.4375 6 27.484375 6 
Q 33.546875 6 37.671875 11.859375 
Q 41.796875 17.71875 41.796875 35.296875 
Q 41.796875 52.984375 37.671875 58.78125 
Q 33.546875 64.59375 27.390625 64.59375 
Q 21.34375 64.59375 17.71875 59.46875 
Q 13.1875 52.9375 13.1875 35.296875 
z
" id="ArialMT-48"/>
      </defs>
      <g transform="translate(79.505213 278.783687)scale(0.26 -0.26)">
       <use xlink:href="#ArialMT-48"/>
      </g>
     </g>
    </g>
    <g id="xtick_2">
     <g id="line2d_3">
      <g>
       <use style="stroke:#000000;stroke-width:0.8;" x="188.205889" xlink:href="#me17faae9b6" y="253.173375"/>
      </g>
     </g>
     <g id="text_2">
      <!-- 2 -->
      <defs>
       <path d="M 50.34375 8.453125 
L 50.34375 0 
L 3.03125 0 
Q 2.9375 3.171875 4.046875 6.109375 
Q 5.859375 10.9375 9.828125 15.625 
Q 13.8125 20.3125 21.34375 26.46875 
Q 33.015625 36.03125 37.109375 41.625 
Q 41.21875 47.21875 41.21875 52.203125 
Q 41.21875 57.421875 37.46875 61 
Q 33.734375 64.59375 27.734375 64.59375 
Q 21.390625 64.59375 17.578125 60.78125 
Q 13.765625 56.984375 13.71875 50.25 
L 4.6875 51.171875 
Q 5.609375 61.28125 11.65625 66.578125 
Q 17.71875 71.875 27.9375 71.875 
Q 38.234375 71.875 44.234375 66.15625 
Q 50.25 60.453125 50.25 52 
Q 50.25 47.703125 48.484375 43.546875 
Q 46.734375 39.40625 42.65625 34.8125 
Q 38.578125 30.21875 29.109375 22.21875 
Q 21.1875 15.578125 18.9375 13.203125 
Q 16.703125 10.84375 15.234375 8.453125 
z
" id="ArialMT-50"/>
      </defs>
      <g transform="translate(180.97667 278.783687)scale(0.26 -0.26)">
       <use xlink:href="#ArialMT-50"/>
      </g>
     </g>
    </g>
    <g id="xtick_3">
     <g id="line2d_4">
      <g>
       <use style="stroke:#000000;stroke-width:0.8;" x="289.677347" xlink:href="#me17faae9b6" y="253.173375"/>
      </g>
     </g>
     <g id="text_3">
      <!-- 4 -->
      <defs>
       <path d="M 32.328125 0 
L 32.328125 17.140625 
L 1.265625 17.140625 
L 1.265625 25.203125 
L 33.9375 71.578125 
L 41.109375 71.578125 
L 41.109375 25.203125 
L 50.78125 25.203125 
L 50.78125 17.140625 
L 41.109375 17.140625 
L 41.109375 0 
z
M 32.328125 25.203125 
L 32.328125 57.46875 
L 9.90625 25.203125 
z
" id="ArialMT-52"/>
      </defs>
      <g transform="translate(282.448128 278.783687)scale(0.26 -0.26)">
       <use xlink:href="#ArialMT-52"/>
      </g>
     </g>
    </g>
    <g id="xtick_4">
     <g id="line2d_5">
      <g>
       <use style="stroke:#000000;stroke-width:0.8;" x="391.148804" xlink:href="#me17faae9b6" y="253.173375"/>
      </g>
     </g>
     <g id="text_4">
      <!-- 6 -->
      <defs>
       <path d="M 49.75 54.046875 
L 41.015625 53.375 
Q 39.84375 58.546875 37.703125 60.890625 
Q 34.125 64.65625 28.90625 64.65625 
Q 24.703125 64.65625 21.53125 62.3125 
Q 17.390625 59.28125 14.984375 53.46875 
Q 12.59375 47.65625 12.5 36.921875 
Q 15.671875 41.75 20.265625 44.09375 
Q 24.859375 46.4375 29.890625 46.4375 
Q 38.671875 46.4375 44.84375 39.96875 
Q 51.03125 33.5 51.03125 23.25 
Q 51.03125 16.5 48.125 10.71875 
Q 45.21875 4.9375 40.140625 1.859375 
Q 35.0625 -1.21875 28.609375 -1.21875 
Q 17.625 -1.21875 10.6875 6.859375 
Q 3.765625 14.9375 3.765625 33.5 
Q 3.765625 54.25 11.421875 63.671875 
Q 18.109375 71.875 29.4375 71.875 
Q 37.890625 71.875 43.28125 67.140625 
Q 48.6875 62.40625 49.75 54.046875 
z
M 13.875 23.1875 
Q 13.875 18.65625 15.796875 14.5 
Q 17.71875 10.359375 21.1875 8.171875 
Q 24.65625 6 28.46875 6 
Q 34.03125 6 38.03125 10.484375 
Q 42.046875 14.984375 42.046875 22.703125 
Q 42.046875 30.125 38.078125 34.390625 
Q 34.125 38.671875 28.125 38.671875 
Q 22.171875 38.671875 18.015625 34.390625 
Q 13.875 30.125 13.875 23.1875 
z
" id="ArialMT-54"/>
      </defs>
      <g transform="translate(383.919585 278.783687)scale(0.26 -0.26)">
       <use xlink:href="#ArialMT-54"/>
      </g>
     </g>
    </g>
    <g id="text_5">
     <!-- time (s) -->
     <defs>
      <path d="M 25.78125 7.859375 
L 27.046875 0.09375 
Q 23.34375 -0.6875 20.40625 -0.6875 
Q 15.625 -0.6875 12.984375 0.828125 
Q 10.359375 2.34375 9.28125 4.8125 
Q 8.203125 7.28125 8.203125 15.1875 
L 8.203125 45.015625 
L 1.765625 45.015625 
L 1.765625 51.859375 
L 8.203125 51.859375 
L 8.203125 64.703125 
L 16.9375 69.96875 
L 16.9375 51.859375 
L 25.78125 51.859375 
L 25.78125 45.015625 
L 16.9375 45.015625 
L 16.9375 14.703125 
Q 16.9375 10.9375 17.40625 9.859375 
Q 17.875 8.796875 18.921875 8.15625 
Q 19.96875 7.515625 21.921875 7.515625 
Q 23.390625 7.515625 25.78125 7.859375 
z
" id="ArialMT-116"/>
      <path d="M 6.640625 61.46875 
L 6.640625 71.578125 
L 15.4375 71.578125 
L 15.4375 61.46875 
z
M 6.640625 0 
L 6.640625 51.859375 
L 15.4375 51.859375 
L 15.4375 0 
z
" id="ArialMT-105"/>
      <path d="M 6.59375 0 
L 6.59375 51.859375 
L 14.453125 51.859375 
L 14.453125 44.578125 
Q 16.890625 48.390625 20.9375 50.703125 
Q 25 53.03125 30.171875 53.03125 
Q 35.9375 53.03125 39.625 50.640625 
Q 43.3125 48.25 44.828125 43.953125 
Q 50.984375 53.03125 60.84375 53.03125 
Q 68.5625 53.03125 72.703125 48.75 
Q 76.859375 44.484375 76.859375 35.59375 
L 76.859375 0 
L 68.109375 0 
L 68.109375 32.671875 
Q 68.109375 37.9375 67.25 40.25 
Q 66.40625 42.578125 64.15625 43.984375 
Q 61.921875 45.40625 58.890625 45.40625 
Q 53.421875 45.40625 49.796875 41.765625 
Q 46.1875 38.140625 46.1875 30.125 
L 46.1875 0 
L 37.40625 0 
L 37.40625 33.6875 
Q 37.40625 39.546875 35.25 42.46875 
Q 33.109375 45.40625 28.21875 45.40625 
Q 24.515625 45.40625 21.359375 43.453125 
Q 18.21875 41.5 16.796875 37.734375 
Q 15.375 33.984375 15.375 26.90625 
L 15.375 0 
z
" id="ArialMT-109"/>
      <path d="M 42.09375 16.703125 
L 51.171875 15.578125 
Q 49.03125 7.625 43.21875 3.21875 
Q 37.40625 -1.171875 28.375 -1.171875 
Q 17 -1.171875 10.328125 5.828125 
Q 3.65625 12.84375 3.65625 25.484375 
Q 3.65625 38.578125 10.390625 45.796875 
Q 17.140625 53.03125 27.875 53.03125 
Q 38.28125 53.03125 44.875 45.953125 
Q 51.46875 38.875 51.46875 26.03125 
Q 51.46875 25.25 51.421875 23.6875 
L 12.75 23.6875 
Q 13.234375 15.140625 17.578125 10.59375 
Q 21.921875 6.0625 28.421875 6.0625 
Q 33.25 6.0625 36.671875 8.59375 
Q 40.09375 11.140625 42.09375 16.703125 
z
M 13.234375 30.90625 
L 42.1875 30.90625 
Q 41.609375 37.453125 38.875 40.71875 
Q 34.671875 45.796875 27.984375 45.796875 
Q 21.921875 45.796875 17.796875 41.75 
Q 13.671875 37.703125 13.234375 30.90625 
z
" id="ArialMT-101"/>
      <path id="ArialMT-32"/>
      <path d="M 23.390625 -21.046875 
Q 16.109375 -11.859375 11.078125 0.4375 
Q 6.0625 12.75 6.0625 25.921875 
Q 6.0625 37.546875 9.8125 48.1875 
Q 14.203125 60.546875 23.390625 72.796875 
L 29.6875 72.796875 
Q 23.78125 62.640625 21.875 58.296875 
Q 18.890625 51.5625 17.1875 44.234375 
Q 15.09375 35.109375 15.09375 25.875 
Q 15.09375 2.390625 29.6875 -21.046875 
z
" id="ArialMT-40"/>
      <path d="M 3.078125 15.484375 
L 11.765625 16.84375 
Q 12.5 11.625 15.84375 8.84375 
Q 19.1875 6.0625 25.203125 6.0625 
Q 31.25 6.0625 34.171875 8.515625 
Q 37.109375 10.984375 37.109375 14.3125 
Q 37.109375 17.28125 34.515625 19 
Q 32.71875 20.171875 25.53125 21.96875 
Q 15.875 24.421875 12.140625 26.203125 
Q 8.40625 27.984375 6.46875 31.125 
Q 4.546875 34.28125 4.546875 38.09375 
Q 4.546875 41.546875 6.125 44.5 
Q 7.71875 47.46875 10.453125 49.421875 
Q 12.5 50.921875 16.03125 51.96875 
Q 19.578125 53.03125 23.640625 53.03125 
Q 29.734375 53.03125 34.34375 51.265625 
Q 38.96875 49.515625 41.15625 46.5 
Q 43.359375 43.5 44.1875 38.484375 
L 35.59375 37.3125 
Q 35.015625 41.3125 32.203125 43.546875 
Q 29.390625 45.796875 24.265625 45.796875 
Q 18.21875 45.796875 15.625 43.796875 
Q 13.03125 41.796875 13.03125 39.109375 
Q 13.03125 37.40625 14.109375 36.03125 
Q 15.1875 34.625 17.484375 33.6875 
Q 18.796875 33.203125 25.25 31.453125 
Q 34.578125 28.953125 38.25 27.359375 
Q 41.9375 25.78125 44.03125 22.75 
Q 46.140625 19.734375 46.140625 15.234375 
Q 46.140625 10.84375 43.578125 6.953125 
Q 41.015625 3.078125 36.171875 0.953125 
Q 31.34375 -1.171875 25.25 -1.171875 
Q 15.140625 -1.171875 9.84375 3.03125 
Q 4.546875 7.234375 3.078125 15.484375 
z
" id="ArialMT-115"/>
      <path d="M 12.359375 -21.046875 
L 6.0625 -21.046875 
Q 20.65625 2.390625 20.65625 25.875 
Q 20.65625 35.0625 18.5625 44.09375 
Q 16.890625 51.421875 13.921875 58.15625 
Q 12.015625 62.546875 6.0625 72.796875 
L 12.359375 72.796875 
Q 21.53125 60.546875 25.921875 48.1875 
Q 29.6875 37.546875 29.6875 25.921875 
Q 29.6875 12.75 24.625 0.4375 
Q 19.578125 -11.859375 12.359375 -21.046875 
z
" id="ArialMT-41"/>
     </defs>
     <g transform="translate(195.589688 306.878375)scale(0.26 -0.26)">
      <use xlink:href="#ArialMT-116"/>
      <use x="27.783203" xlink:href="#ArialMT-105"/>
      <use x="50" xlink:href="#ArialMT-109"/>
      <use x="133.300781" xlink:href="#ArialMT-101"/>
      <use x="188.916016" xlink:href="#ArialMT-32"/>
      <use x="216.699219" xlink:href="#ArialMT-40"/>
      <use x="250" xlink:href="#ArialMT-115"/>
      <use x="300" xlink:href="#ArialMT-41"/>
     </g>
    </g>
   </g>
   <g id="matplotlib.axis_2">
    <g id="ytick_1">
     <g id="line2d_6">
      <defs>
       <path d="M 0 0 
L -3.5 0 
" id="m9396aef165" style="stroke:#000000;stroke-width:0.8;"/>
      </defs>
      <g>
       <use style="stroke:#000000;stroke-width:0.8;" x="71.51625" xlink:href="#m9396aef165" y="253.173375"/>
      </g>
     </g>
     <g id="text_6">
      <!-- 18 -->
      <defs>
       <path d="M 37.25 0 
L 28.46875 0 
L 28.46875 56 
Q 25.296875 52.984375 20.140625 49.953125 
Q 14.984375 46.921875 10.890625 45.40625 
L 10.890625 53.90625 
Q 18.265625 57.375 23.78125 62.296875 
Q 29.296875 67.234375 31.59375 71.875 
L 37.25 71.875 
z
" id="ArialMT-49"/>
       <path d="M 17.671875 38.8125 
Q 12.203125 40.828125 9.5625 44.53125 
Q 6.9375 48.25 6.9375 53.421875 
Q 6.9375 61.234375 12.546875 66.546875 
Q 18.171875 71.875 27.484375 71.875 
Q 36.859375 71.875 42.578125 66.421875 
Q 48.296875 60.984375 48.296875 53.171875 
Q 48.296875 48.1875 45.671875 44.5 
Q 43.0625 40.828125 37.75 38.8125 
Q 44.34375 36.671875 47.78125 31.875 
Q 51.21875 27.09375 51.21875 20.453125 
Q 51.21875 11.28125 44.71875 5.03125 
Q 38.234375 -1.21875 27.640625 -1.21875 
Q 17.046875 -1.21875 10.546875 5.046875 
Q 4.046875 11.328125 4.046875 20.703125 
Q 4.046875 27.6875 7.59375 32.390625 
Q 11.140625 37.109375 17.671875 38.8125 
z
M 15.921875 53.71875 
Q 15.921875 48.640625 19.1875 45.40625 
Q 22.46875 42.1875 27.6875 42.1875 
Q 32.765625 42.1875 36.015625 45.375 
Q 39.265625 48.578125 39.265625 53.21875 
Q 39.265625 58.0625 35.90625 61.359375 
Q 32.5625 64.65625 27.59375 64.65625 
Q 22.5625 64.65625 19.234375 61.421875 
Q 15.921875 58.203125 15.921875 53.71875 
z
M 13.09375 20.65625 
Q 13.09375 16.890625 14.875 13.375 
Q 16.65625 9.859375 20.171875 7.921875 
Q 23.6875 6 27.734375 6 
Q 34.03125 6 38.125 10.046875 
Q 42.234375 14.109375 42.234375 20.359375 
Q 42.234375 26.703125 38.015625 30.859375 
Q 33.796875 35.015625 27.4375 35.015625 
Q 21.234375 35.015625 17.15625 30.90625 
Q 13.09375 26.8125 13.09375 20.65625 
z
" id="ArialMT-56"/>
      </defs>
      <g transform="translate(35.599375 262.478531)scale(0.26 -0.26)">
       <use xlink:href="#ArialMT-49"/>
       <use x="55.615234" xlink:href="#ArialMT-56"/>
      </g>
     </g>
    </g>
    <g id="ytick_2">
     <g id="line2d_7">
      <g>
       <use style="stroke:#000000;stroke-width:0.8;" x="71.51625" xlink:href="#m9396aef165" y="156.533375"/>
      </g>
     </g>
     <g id="text_7">
      <!-- 20 -->
      <g transform="translate(35.599375 165.838531)scale(0.26 -0.26)">
       <use xlink:href="#ArialMT-50"/>
       <use x="55.615234" xlink:href="#ArialMT-48"/>
      </g>
     </g>
    </g>
    <g id="ytick_3">
     <g id="line2d_8">
      <g>
       <use style="stroke:#000000;stroke-width:0.8;" x="71.51625" xlink:href="#m9396aef165" y="59.893375"/>
      </g>
     </g>
     <g id="text_8">
      <!-- 22 -->
      <g transform="translate(35.599375 69.198531)scale(0.26 -0.26)">
       <use xlink:href="#ArialMT-50"/>
       <use x="55.615234" xlink:href="#ArialMT-50"/>
      </g>
     </g>
    </g>
    <g id="text_9">
     <!-- amplitude (a.u.) -->
     <defs>
      <path d="M 40.4375 6.390625 
Q 35.546875 2.25 31.03125 0.53125 
Q 26.515625 -1.171875 21.34375 -1.171875 
Q 12.796875 -1.171875 8.203125 3 
Q 3.609375 7.171875 3.609375 13.671875 
Q 3.609375 17.484375 5.34375 20.625 
Q 7.078125 23.78125 9.890625 25.6875 
Q 12.703125 27.59375 16.21875 28.5625 
Q 18.796875 29.25 24.03125 29.890625 
Q 34.671875 31.15625 39.703125 32.90625 
Q 39.75 34.71875 39.75 35.203125 
Q 39.75 40.578125 37.25 42.78125 
Q 33.890625 45.75 27.25 45.75 
Q 21.046875 45.75 18.09375 43.578125 
Q 15.140625 41.40625 13.71875 35.890625 
L 5.125 37.0625 
Q 6.296875 42.578125 8.984375 45.96875 
Q 11.671875 49.359375 16.75 51.1875 
Q 21.828125 53.03125 28.515625 53.03125 
Q 35.15625 53.03125 39.296875 51.46875 
Q 43.453125 49.90625 45.40625 47.53125 
Q 47.359375 45.171875 48.140625 41.546875 
Q 48.578125 39.3125 48.578125 33.453125 
L 48.578125 21.734375 
Q 48.578125 9.46875 49.140625 6.21875 
Q 49.703125 2.984375 51.375 0 
L 42.1875 0 
Q 40.828125 2.734375 40.4375 6.390625 
z
M 39.703125 26.03125 
Q 34.90625 24.078125 25.34375 22.703125 
Q 19.921875 21.921875 17.671875 20.9375 
Q 15.4375 19.96875 14.203125 18.09375 
Q 12.984375 16.21875 12.984375 13.921875 
Q 12.984375 10.40625 15.640625 8.0625 
Q 18.3125 5.71875 23.4375 5.71875 
Q 28.515625 5.71875 32.46875 7.9375 
Q 36.421875 10.15625 38.28125 14.015625 
Q 39.703125 17 39.703125 22.796875 
z
" id="ArialMT-97"/>
      <path d="M 6.59375 -19.875 
L 6.59375 51.859375 
L 14.59375 51.859375 
L 14.59375 45.125 
Q 17.4375 49.078125 21 51.046875 
Q 24.5625 53.03125 29.640625 53.03125 
Q 36.28125 53.03125 41.359375 49.609375 
Q 46.4375 46.1875 49.015625 39.953125 
Q 51.609375 33.734375 51.609375 26.3125 
Q 51.609375 18.359375 48.75 11.984375 
Q 45.90625 5.609375 40.453125 2.21875 
Q 35.015625 -1.171875 29 -1.171875 
Q 24.609375 -1.171875 21.109375 0.6875 
Q 17.625 2.546875 15.375 5.375 
L 15.375 -19.875 
z
M 14.546875 25.640625 
Q 14.546875 15.625 18.59375 10.84375 
Q 22.65625 6.0625 28.421875 6.0625 
Q 34.28125 6.0625 38.453125 11.015625 
Q 42.625 15.96875 42.625 26.375 
Q 42.625 36.28125 38.546875 41.203125 
Q 34.46875 46.140625 28.8125 46.140625 
Q 23.1875 46.140625 18.859375 40.890625 
Q 14.546875 35.640625 14.546875 25.640625 
z
" id="ArialMT-112"/>
      <path d="M 6.390625 0 
L 6.390625 71.578125 
L 15.1875 71.578125 
L 15.1875 0 
z
" id="ArialMT-108"/>
      <path d="M 40.578125 0 
L 40.578125 7.625 
Q 34.515625 -1.171875 24.125 -1.171875 
Q 19.53125 -1.171875 15.546875 0.578125 
Q 11.578125 2.34375 9.640625 5 
Q 7.71875 7.671875 6.9375 11.53125 
Q 6.390625 14.109375 6.390625 19.734375 
L 6.390625 51.859375 
L 15.1875 51.859375 
L 15.1875 23.09375 
Q 15.1875 16.21875 15.71875 13.8125 
Q 16.546875 10.359375 19.234375 8.375 
Q 21.921875 6.390625 25.875 6.390625 
Q 29.828125 6.390625 33.296875 8.421875 
Q 36.765625 10.453125 38.203125 13.9375 
Q 39.65625 17.4375 39.65625 24.078125 
L 39.65625 51.859375 
L 48.4375 51.859375 
L 48.4375 0 
z
" id="ArialMT-117"/>
      <path d="M 40.234375 0 
L 40.234375 6.546875 
Q 35.296875 -1.171875 25.734375 -1.171875 
Q 19.53125 -1.171875 14.328125 2.25 
Q 9.125 5.671875 6.265625 11.796875 
Q 3.421875 17.921875 3.421875 25.875 
Q 3.421875 33.640625 6 39.96875 
Q 8.59375 46.296875 13.765625 49.65625 
Q 18.953125 53.03125 25.34375 53.03125 
Q 30.03125 53.03125 33.6875 51.046875 
Q 37.359375 49.078125 39.65625 45.90625 
L 39.65625 71.578125 
L 48.390625 71.578125 
L 48.390625 0 
z
M 12.453125 25.875 
Q 12.453125 15.921875 16.640625 10.984375 
Q 20.84375 6.0625 26.5625 6.0625 
Q 32.328125 6.0625 36.34375 10.765625 
Q 40.375 15.484375 40.375 25.140625 
Q 40.375 35.796875 36.265625 40.765625 
Q 32.171875 45.75 26.171875 45.75 
Q 20.3125 45.75 16.375 40.96875 
Q 12.453125 36.1875 12.453125 25.875 
z
" id="ArialMT-100"/>
      <path d="M 9.078125 0 
L 9.078125 10.015625 
L 19.09375 10.015625 
L 19.09375 0 
z
" id="ArialMT-46"/>
     </defs>
     <g transform="translate(26.127188 234.766812)rotate(-90)scale(0.26 -0.26)">
      <use xlink:href="#ArialMT-97"/>
      <use x="55.615234" xlink:href="#ArialMT-109"/>
      <use x="138.916016" xlink:href="#ArialMT-112"/>
      <use x="194.53125" xlink:href="#ArialMT-108"/>
      <use x="216.748047" xlink:href="#ArialMT-105"/>
      <use x="238.964844" xlink:href="#ArialMT-116"/>
      <use x="266.748047" xlink:href="#ArialMT-117"/>
      <use x="322.363281" xlink:href="#ArialMT-100"/>
      <use x="377.978516" xlink:href="#ArialMT-101"/>
      <use x="433.59375" xlink:href="#ArialMT-32"/>
      <use x="461.376953" xlink:href="#ArialMT-40"/>
      <use x="494.677734" xlink:href="#ArialMT-97"/>
      <use x="550.292969" xlink:href="#ArialMT-46"/>
      <use x="578.076172" xlink:href="#ArialMT-117"/>
      <use x="633.691406" xlink:href="#ArialMT-46"/>
      <use x="661.474609" xlink:href="#ArialMT-41"/>
     </g>
    </g>
   </g>
   <g id="line2d_9">
    <path clip-path="url(#p807346c433)" d="M 86.734432 59.893375 
L 94.649205 60.003017 
L 96.171277 59.982698 
L 96.780106 59.99448 
L 97.287463 60.064897 
L 98.454385 60.114726 
L 101.549265 60.170874 
L 101.853679 60.212073 
L 103.477222 60.260889 
L 104.491937 60.32597 
L 106.014009 60.284416 
L 106.47063 60.187876 
L 107.333138 60.336366 
L 107.688288 60.392434 
L 110.123603 60.534053 
L 111.087582 60.431384 
L 112.305239 60.648157 
L 118.089112 60.657647 
L 118.444262 60.698898 
L 118.900884 60.756967 
L 120.169277 60.707021 
L 120.676634 60.555795 
L 120.879577 60.49034 
L 121.133256 60.550492 
L 121.488406 60.756795 
L 121.640613 60.776247 
L 122.300178 60.944481 
L 122.553856 60.985253 
L 123.213421 61.065109 
L 124.684757 60.853918 
L 124.938436 60.804482 
L 125.24285 60.866172 
L 125.445793 60.877936 
L 127.221543 61.052218 
L 127.931844 61.141126 
L 128.489937 61.22535 
L 129.504651 61.223582 
L 129.707594 61.247182 
L 130.570101 61.017678 
L 131.584816 61.303425 
L 132.142909 61.337902 
L 132.396588 61.389611 
L 132.701002 61.406152 
L 133.918659 61.393759 
L 134.121602 61.376796 
L 134.578224 61.34345 
L 134.730431 61.408947 
L 135.33926 61.588687 
L 135.491467 61.633527 
L 135.948089 61.827938 
L 136.100296 61.866912 
L 136.353974 61.952992 
L 137.977518 62.037208 
L 138.434139 61.991578 
L 139.601061 61.972697 
L 140.057683 62.149258 
L 140.20989 62.188109 
L 140.311361 62.296034 
L 140.362097 62.262783 
L 140.56504 62.30595 
L 140.767983 62.305521 
L 141.173869 62.317535 
L 141.326076 62.324289 
L 141.681226 62.328774 
L 142.239319 62.244531 
L 142.492998 62.319147 
L 143.203298 62.470662 
L 143.304769 62.49515 
L 143.558448 62.54708 
L 143.913598 62.548894 
L 144.674634 62.321143 
L 144.877577 62.396938 
L 145.334198 62.578427 
L 145.587877 62.732565 
L 145.79082 62.876133 
L 146.247442 63.068963 
L 147.617306 63.120829 
L 148.124664 62.965408 
L 149.088642 63.030385 
L 149.596 63.14383 
L 149.697471 63.208339 
L 150.712186 63.332882 
L 150.864393 63.349637 
L 151.7269 63.479033 
L 152.995293 63.23164 
L 153.451915 63.081509 
L 153.654858 63.079353 
L 153.857801 63.045046 
L 154.212951 63.25278 
L 154.46663 63.367405 
L 154.669573 63.402598 
L 154.872515 63.487412 
L 155.17693 63.552687 
L 155.988701 63.770632 
L 156.343852 63.792133 
L 157.510773 63.853542 
L 157.916659 63.654211 
L 158.068866 63.653131 
L 158.373281 63.734924 
L 158.677695 63.69747 
L 158.880638 63.538059 
L 159.185052 63.711618 
L 159.489467 63.695117 
L 159.743145 63.806232 
L 160.04756 63.969804 
L 160.554917 64.148928 
L 162.229196 63.945229 
L 162.330668 64.005136 
L 162.635082 63.921967 
L 163.243911 63.888578 
L 163.446854 63.957004 
L 163.599061 63.936961 
L 164.613775 64.377981 
L 164.867454 64.341168 
L 165.171868 64.345361 
L 165.62849 64.416235 
L 165.932904 64.520032 
L 167.302769 64.281833 
L 167.810126 64.554229 
L 167.962333 64.55042 
L 168.114541 64.51601 
L 168.216012 64.505816 
L 168.368219 64.555291 
L 168.469691 64.556065 
L 168.520426 64.641123 
L 168.571162 64.583035 
L 168.774105 64.558776 
L 168.977048 64.676072 
L 169.129255 64.704611 
L 170.702063 64.885463 
L 170.955741 64.876526 
L 171.107949 64.807081 
L 171.310892 64.720809 
L 171.666042 64.5528 
L 172.071927 64.711283 
L 172.173399 64.837602 
L 172.427078 65.015635 
L 172.528549 64.931704 
L 172.579285 65.014352 
L 172.782228 65.193554 
L 173.086642 65.165762 
L 173.340321 65.223313 
L 173.898414 65.098458 
L 174.507242 65.137186 
L 174.608714 65.169913 
L 174.913128 65.419247 
L 175.166807 65.496857 
L 175.572693 65.334095 
L 175.775636 65.29521 
L 176.485936 65.114326 
L 176.638143 65.150909 
L 176.841086 65.254408 
L 177.044029 65.33363 
L 177.348443 65.408897 
L 177.399179 65.317381 
L 177.449915 65.378532 
L 177.652858 65.342026 
L 177.855801 65.243489 
L 178.210951 65.397171 
L 178.363158 65.460656 
L 178.515365 65.455825 
L 178.718308 65.51487 
L 179.479344 65.437839 
L 179.682287 65.458122 
L 180.443323 65.306801 
L 180.59553 65.288857 
L 181.965395 65.03311 
L 182.066866 65.085708 
L 182.624959 65.415095 
L 182.675695 65.371496 
L 182.72643 65.464233 
L 182.929373 65.542755 
L 183.132316 65.643412 
L 183.690409 65.691553 
L 183.842617 65.633413 
L 184.045559 65.658245 
L 185.11101 65.874899 
L 185.263217 65.888534 
L 185.669103 65.781581 
L 186.125724 65.442567 
L 186.430139 65.741422 
L 186.53161 65.714088 
L 186.785289 65.928531 
L 187.191175 66.0683 
L 187.698532 65.963171 
L 187.901475 66.033492 
L 188.256625 66.046659 
L 188.408832 66.079311 
L 188.611775 66.510203 
L 189.017661 68.654744 
L 189.525018 71.393248 
L 189.829433 72.124474 
L 190.032375 72.101933 
L 190.488997 70.815577 
L 191.04709 69.305982 
L 191.199297 69.08493 
L 191.250033 69.110199 
L 191.40224 69.369867 
L 191.605183 69.284178 
L 191.909597 69.771092 
L 192.569162 70.496977 
L 192.670633 70.736399 
L 192.924312 71.381717 
L 193.177991 71.597155 
L 193.837555 71.945713 
L 194.040498 72.128413 
L 194.243441 72.406604 
L 194.446384 72.637817 
L 194.649327 72.532203 
L 195.511834 72.548698 
L 195.613306 72.328208 
L 195.664041 72.352039 
L 195.765513 72.483409 
L 195.816248 72.424004 
L 195.968456 72.322831 
L 196.069927 72.48471 
L 196.120663 72.42301 
L 196.475813 72.473186 
L 196.678756 72.683286 
L 196.881699 72.830225 
L 197.135377 73.03798 
L 197.69347 73.449221 
L 198.302299 73.439894 
L 198.911128 73.437947 
L 199.063335 73.451268 
L 199.469221 73.206088 
L 199.570692 73.172391 
L 199.672164 73.153221 
L 199.773635 73.177839 
L 199.875107 73.073768 
L 199.925843 73.175525 
L 200.128785 73.128209 
L 200.382464 73.431181 
L 200.4332 73.357318 
L 200.483936 73.467091 
L 200.585407 73.762063 
L 200.636143 73.658899 
L 200.737614 73.698221 
L 201.092764 74.257829 
L 201.194236 74.155374 
L 201.904536 74.661929 
L 202.462629 74.915201 
L 202.716308 75.01905 
L 203.629551 74.965631 
L 204.289115 74.896565 
L 204.59353 74.574522 
L 204.745737 74.672374 
L 204.897944 74.755115 
L 205.202358 74.953555 
L 205.456037 74.872402 
L 205.557508 74.988308 
L 205.608244 74.908075 
L 205.65898 75.019051 
L 205.760451 75.138474 
L 206.166337 75.94581 
L 206.217073 75.912937 
L 206.420016 76.286177 
L 206.775166 76.19506 
L 207.282523 76.311436 
L 207.536202 76.43119 
L 207.78988 76.547595 
L 209.362688 76.560171 
L 209.514895 76.534826 
L 209.616367 76.501417 
L 209.870045 76.265612 
L 210.072988 76.326846 
L 210.428138 76.058346 
L 210.88476 76.772536 
L 210.986231 76.930818 
L 211.392117 77.996479 
L 212.102417 78.433867 
L 213.421546 78.379069 
L 214.030375 78.343345 
L 214.334789 78.246114 
L 214.68994 77.814569 
L 214.740675 77.850629 
L 214.994354 77.863991 
L 215.450975 78.16546 
L 215.653918 78.426625 
L 215.806126 78.718336 
L 216.009069 79.192408 
L 216.161276 79.167323 
L 216.212011 79.102023 
L 216.262747 79.154584 
L 216.516426 79.436351 
L 216.719369 79.61607 
L 216.871576 79.702545 
L 217.53114 79.899616 
L 217.987762 79.941215 
L 218.393648 79.970767 
L 219.56057 79.75579 
L 219.712777 79.570398 
L 219.763512 79.605079 
L 219.864984 79.519765 
L 220.62602 79.854603 
L 220.676756 79.738037 
L 220.727491 79.791765 
L 220.879698 79.866696 
L 220.98117 79.733027 
L 221.031906 79.813083 
L 221.082641 79.740657 
L 221.184113 79.483503 
L 221.234849 79.517242 
L 221.387056 79.629551 
L 221.437791 79.542773 
L 221.539263 79.612331 
L 221.792942 79.924646 
L 221.995884 80.286045 
L 222.351035 80.525143 
L 223.162806 80.720143 
L 223.873106 80.692144 
L 224.684878 80.489654 
L 224.887821 80.252636 
L 225.192235 79.750388 
L 225.344443 79.917915 
L 225.49665 79.861608 
L 225.699593 80.180526 
L 225.750328 80.205324 
L 225.8518 80.37514 
L 225.902536 80.344138 
L 226.20695 80.614885 
L 226.359157 80.447528 
L 226.511364 80.464649 
L 226.663572 80.462658 
L 227.018722 80.841943 
L 227.678286 80.96537 
L 228.794472 81.140584 
L 229.707715 81.063251 
L 230.519487 80.677463 
L 230.671694 80.865166 
L 230.823901 80.779325 
L 230.976108 80.863936 
L 231.07758 80.860572 
L 231.280523 81.133825 
L 231.381994 81.200146 
L 231.889352 81.463131 
L 232.092294 81.767793 
L 232.548916 81.916551 
L 233.563631 82.013059 
L 235.034967 81.72462 
L 235.390117 81.497884 
L 235.491588 81.508966 
L 235.59306 81.548451 
L 235.694531 81.399279 
L 235.745267 81.461972 
L 235.998946 81.33191 
L 236.151153 81.547525 
L 236.455567 81.25632 
L 236.709246 81.379088 
L 236.759982 81.325705 
L 236.810717 81.419542 
L 237.216603 81.826587 
L 237.419546 81.984128 
L 238.129846 82.131947 
L 238.586468 82.22177 
L 239.75339 82.053334 
L 240.10854 81.565787 
L 240.311483 81.363214 
L 240.514425 81.489752 
L 240.869576 81.585384 
L 240.920311 81.538642 
L 241.17399 82.087461 
L 241.681347 82.529209 
L 241.935026 82.456367 
L 242.087233 82.440652 
L 242.340912 82.362547 
L 242.746798 82.384922 
L 244.319605 82.500751 
L 244.97917 82.593579 
L 245.182112 82.716429 
L 245.283584 82.573193 
L 245.943148 81.745964 
L 246.095356 81.803637 
L 246.196827 81.915191 
L 246.247563 81.807528 
L 246.653449 81.900257 
L 246.907127 82.28617 
L 247.414485 83.091717 
L 249.748328 83.191818 
L 250.052742 82.816026 
L 250.509364 82.481382 
L 250.610835 82.57139 
L 250.661571 82.77706 
L 250.763043 82.726571 
L 250.965986 83.04973 
L 251.422607 83.017706 
L 251.524079 83.078172 
L 251.574814 82.935097 
L 251.62555 83.049466 
L 251.929964 83.374936 
L 252.082172 83.511158 
L 252.285115 83.684078 
L 252.538793 83.627738 
L 253.249093 83.694443 
L 254.111601 83.75723 
L 254.923372 83.707727 
L 255.43073 83.078271 
L 255.532201 83.069546 
L 255.633673 82.82905 
L 255.684408 82.88592 
L 255.836616 82.97299 
L 255.938087 83.207572 
L 256.191766 83.593682 
L 257.105009 84.369799 
L 257.155744 84.29459 
L 257.663102 84.31087 
L 258.221195 84.261173 
L 258.779288 84.360615 
L 260.605774 84.253626 
L 260.910188 83.887204 
L 261.113131 84.063757 
L 261.316074 83.798219 
L 261.468281 83.899946 
L 261.620489 83.916164 
L 261.772696 84.410275 
L 261.975639 84.404485 
L 262.026374 84.29482 
L 262.07711 84.390045 
L 262.381525 84.76369 
L 262.43226 84.661183 
L 262.482996 84.69709 
L 262.838146 84.957614 
L 263.14256 85.003054 
L 264.461689 84.997071 
L 265.019782 84.96599 
L 265.273461 84.986466 
L 265.476404 84.813088 
L 265.52714 84.814708 
L 265.679347 84.690075 
L 265.933026 85.066965 
L 266.034497 84.988823 
L 266.085233 85.143693 
L 266.135968 85.04836 
L 266.338911 85.04356 
L 266.389647 85.169969 
L 266.440383 85.137514 
L 266.491119 85.106075 
L 266.59259 85.279794 
L 266.643326 85.074603 
L 266.694061 85.122419 
L 266.846269 85.152274 
L 267.30289 85.32288 
L 267.810247 85.770971 
L 268.723491 85.865702 
L 270.39777 85.73554 
L 270.549977 85.610929 
L 270.854391 85.588068 
L 271.10807 85.05139 
L 271.260277 85.103029 
L 271.46322 85.357922 
L 271.564691 85.389552 
L 271.615427 85.496817 
L 271.666163 85.40718 
L 272.021313 85.698788 
L 272.17352 85.964106 
L 272.274992 86.076596 
L 272.680877 86.362543 
L 273.086763 86.366093 
L 275.319135 86.336831 
L 275.471343 86.369703 
L 275.877228 85.994122 
L 275.927964 86.069655 
L 275.9787 85.964289 
L 276.33385 85.574605 
L 276.384586 85.636061 
L 276.587529 85.800132 
L 276.638264 85.834677 
L 276.739736 85.653981 
L 276.841207 85.867482 
L 276.891943 85.795576 
L 277.094886 86.100502 
L 277.145622 85.861108 
L 277.196357 85.984648 
L 277.348564 86.120313 
L 277.652979 86.320995 
L 278.160336 86.634843 
L 280.341972 86.689872 
L 280.595651 86.403758 
L 281.001537 85.869674 
L 281.103008 85.764939 
L 281.255216 85.61202 
L 281.407423 85.679084 
L 281.813309 85.897209 
L 281.91478 85.897895 
L 282.066987 86.206501 
L 282.117723 86.141025 
L 282.219194 86.420725 
L 282.371402 86.296116 
L 283.183173 86.896229 
L 284.045681 86.865474 
L 284.908188 86.849918 
L 285.71996 86.683933 
L 285.922903 86.422708 
L 286.328788 86.111963 
L 286.582467 86.300467 
L 286.633203 86.284839 
L 286.78541 86.493558 
L 286.937617 86.466023 
L 287.901596 86.011677 
L 288.20601 86.221871 
L 289.119254 86.475449 
L 289.931025 86.428293 
L 290.692061 86.249939 
L 290.895004 85.941121 
L 291.097947 85.901308 
L 291.402361 86.174827 
L 291.554569 86.028112 
L 291.757511 86.328296 
L 291.858983 86.344547 
L 291.909719 86.350862 
L 291.960454 86.224836 
L 292.01119 86.255514 
L 292.214133 86.473369 
L 292.36634 86.28449 
L 292.72149 86.195997 
L 293.685469 86.384974 
L 295.81637 86.199964 
L 295.968577 86.072728 
L 296.120784 86.020916 
L 296.425198 85.852031 
L 296.577406 85.962237 
L 296.780349 85.651974 
L 296.831084 85.719304 
L 296.983291 85.730843 
L 297.084763 85.637684 
L 297.135499 85.716264 
L 297.186234 85.748069 
L 297.338442 85.684652 
L 297.389177 85.809999 
L 297.439913 85.679786 
L 297.59212 85.656958 
L 297.642856 85.838937 
L 297.744327 85.79412 
L 298.251685 86.285706 
L 298.505363 86.383051 
L 298.911249 86.439666 
L 300.636264 86.404885 
L 301.143621 86.001655 
L 301.346564 85.72239 
L 301.448036 85.729784 
L 301.803186 85.233029 
L 301.904657 85.342125 
L 302.158336 85.819147 
L 302.412014 85.691159 
L 302.614957 85.765886 
L 302.767165 85.724101 
L 302.868636 85.868026 
L 302.919372 85.821699 
L 303.426729 85.917504 
L 303.731143 86.012492 
L 306.318666 86.096828 
L 306.420137 86.090824 
L 306.62308 86.061781 
L 306.775287 86.157105 
L 306.927494 85.896069 
L 307.130437 85.723475 
L 307.282644 85.921371 
L 307.485587 85.779718 
L 307.891473 85.859357 
L 308.449566 86.597086 
L 308.804716 86.696395 
L 310.884881 86.50059 
L 311.240031 86.304695 
L 311.392238 86.208309 
L 311.442974 86.271556 
L 311.49371 86.220232 
L 311.645917 86.137655 
L 312.001067 86.360971 
L 312.153274 86.126182 
L 312.254746 86.376301 
L 312.305482 86.354529 
L 312.508424 86.101923 
L 313.523139 86.497725 
L 313.776818 86.492285 
L 315.958454 86.371335 
L 316.71949 85.998756 
L 317.226847 86.615464 
L 317.328319 86.664522 
L 317.42979 86.788056 
L 317.480526 86.763112 
L 318.038619 86.246319 
L 318.089355 86.390803 
L 318.14009 86.28837 
L 319.509955 86.529072 
L 320.981291 86.469783 
L 321.437913 86.306716 
L 321.742327 85.973326 
L 321.996006 86.038727 
L 322.351156 86.176017 
L 322.401892 86.049274 
L 322.452627 86.115291 
L 322.807777 86.064662 
L 322.858513 86.198602 
L 322.909249 86.072051 
L 323.01072 86.139401 
L 323.264399 86.186754 
L 323.315135 86.175521 
L 323.416606 86.26407 
L 323.467342 86.214008 
L 323.518078 86.301148 
L 326.562221 86.327345 
L 326.714428 86.203345 
L 326.8159 86.315722 
L 326.866636 86.181408 
L 327.272521 85.568942 
L 327.424729 85.639033 
L 327.5262 85.516171 
L 327.678407 85.726626 
L 327.830615 85.743822 
L 328.084293 86.22453 
L 328.2365 86.298174 
L 328.287236 86.216477 
L 328.337972 86.313522 
L 328.439443 86.238909 
L 328.490179 86.145955 
L 328.540915 86.269512 
L 328.642386 86.366179 
L 328.693122 86.303551 
L 330.925494 86.281177 
L 331.788001 86.101146 
L 331.990944 85.752884 
L 332.04168 85.788309 
L 332.295359 85.512857 
L 332.39683 85.632575 
L 332.549037 85.925023 
L 332.599773 85.873306 
L 332.853452 85.907979 
L 333.056395 86.214345 
L 333.208602 86.099056 
L 333.259337 86.14126 
L 333.46228 86.260662 
L 333.513016 86.236905 
L 333.665223 86.361253 
L 335.999067 86.409105 
L 336.91231 86.220005 
L 337.419667 85.888081 
L 337.521139 85.877935 
L 337.571874 85.782049 
L 337.62261 85.879755 
L 337.927025 86.398526 
L 338.180703 86.764455 
L 338.231439 86.675813 
L 338.282175 86.629772 
L 338.434382 86.870038 
L 338.485118 86.79547 
L 338.535853 86.872457 
L 339.043211 86.889935 
L 339.195418 87.031363 
L 339.246153 86.989182 
L 339.601304 86.991562 
L 340.920433 86.975397 
L 341.935147 86.694987 
L 342.239561 86.182166 
L 342.49324 85.960819 
L 342.594712 86.032706 
L 342.645447 85.937069 
L 342.696183 86.008993 
L 342.746919 86.165183 
L 342.797654 86.147224 
L 342.899126 86.086397 
L 342.949862 86.180897 
L 343.20354 86.461613 
L 343.355747 86.266473 
L 343.507955 86.462289 
L 343.609426 86.212645 
L 343.660162 86.259695 
L 343.863105 86.095998 
L 343.913841 85.997385 
L 343.964576 86.100111 
L 344.167519 86.144579 
L 344.471934 86.209294 
L 344.979291 86.23706 
L 347.110191 86.084997 
L 347.36387 85.867518 
L 347.871227 85.468414 
L 347.921963 85.573599 
L 347.972699 85.542023 
L 348.175642 85.465378 
L 348.277113 85.664819 
L 348.42932 85.342991 
L 348.480056 85.393833 
L 348.530792 85.323304 
L 348.581528 85.363958 
L 348.682999 85.504541 
L 348.733735 85.422139 
L 348.987413 85.144543 
L 349.190356 85.136607 
L 349.393299 85.129743 
L 349.545506 85.238452 
L 350.357278 85.286454 
L 351.980821 85.254153 
L 352.183764 85.093563 
L 352.488179 84.828408 
L 352.58965 84.866417 
L 352.741857 84.798271 
L 353.046272 84.939605 
L 353.198479 84.817884 
L 353.452157 84.980604 
L 353.705836 85.280799 
L 353.756572 85.1628 
L 353.959515 85.171078 
L 354.111722 85.331677 
L 354.416136 85.236004 
L 354.517608 85.357286 
L 354.568344 85.3333 
L 354.822022 85.482397 
L 355.278644 85.49374 
L 356.293358 85.482846 
L 357.561752 85.289375 
L 357.81543 85.030592 
L 357.866166 85.127199 
L 358.018373 84.85504 
L 358.474995 85.189812 
L 358.52573 85.282474 
L 358.576466 85.218488 
L 358.627202 85.126848 
L 358.677938 85.17234 
L 358.728673 85.257894 
L 358.779409 85.153925 
L 359.033088 85.266807 
L 359.236031 85.191209 
L 359.286766 85.279091 
L 359.337502 85.245581 
L 359.438973 85.25009 
L 359.743388 85.490061 
L 359.895595 85.471988 
L 360.301481 85.560176 
L 362.584589 85.499126 
L 362.889003 85.282429 
L 362.990474 85.209281 
L 363.294889 84.582338 
L 363.447096 84.548969 
L 363.497832 84.491961 
L 363.599303 84.616162 
L 363.802246 84.273069 
L 364.055925 84.505415 
L 364.106661 84.395554 
L 364.157396 84.53167 
L 364.208132 84.512484 
L 364.411075 84.777106 
L 364.461811 84.666432 
L 364.512546 84.768421 
L 364.664754 85.02703 
L 365.375054 85.270246 
L 367.303011 85.106133 
L 367.962576 84.037799 
L 368.064047 84.032111 
L 368.165519 83.877445 
L 368.774348 84.782649 
L 369.180233 84.392905 
L 369.332441 84.42145 
L 369.535383 84.259769 
L 369.789062 84.226453 
L 370.194948 84.270739 
L 371.463341 84.275766 
L 372.376584 84.221618 
L 372.579527 84.287441 
L 373.036149 84.01305 
L 373.188356 83.931185 
L 373.289827 83.95973 
L 373.49277 84.218672 
L 373.594242 84.3011 
L 373.746449 84.662322 
L 373.797185 84.528245 
L 373.898656 84.401602 
L 373.949392 84.49776 
L 374.406013 84.5517 
L 374.761164 84.238069 
L 374.811899 84.31258 
L 375.522199 84.562251 
L 376.993536 84.52 
L 377.754572 84.364168 
L 378.109722 84.107612 
L 378.160457 84.120668 
L 378.414136 83.701113 
L 378.71855 84.036057 
L 378.870758 84.103625 
L 378.972229 83.950463 
L 379.022965 84.053801 
L 379.124436 84.095305 
L 379.175172 84.127968 
L 379.225908 84.040642 
L 379.276643 83.91721 
L 379.327379 84.046293 
L 379.784001 84.367001 
L 379.885472 84.199452 
L 379.936208 84.231862 
L 380.088415 84.276507 
L 380.240622 84.243427 
L 380.595772 84.254599 
L 382.87888 84.163091 
L 383.487709 83.815637 
L 383.639916 83.972121 
L 383.690652 83.932199 
L 384.045802 83.86752 
L 384.299481 83.690536 
L 384.806838 83.703793 
L 384.959045 83.729766 
L 385.364931 83.671129 
L 385.770817 83.69562 
L 387.39436 83.62634 
L 387.901717 83.589537 
L 388.10466 83.377692 
L 388.764225 82.74887 
L 388.81496 82.828772 
L 388.865696 82.74178 
L 389.068639 82.853745 
L 389.17011 83.173076 
L 389.220846 83.117123 
L 389.474525 82.932051 
L 389.677468 83.122978 
L 389.829675 82.940093 
L 390.184825 82.75698 
L 390.286297 82.652322 
L 390.438504 82.554017 
L 391.098068 82.758776 
L 391.098068 82.758776 
" style="fill:none;stroke:#ff7f0e;stroke-linecap:square;stroke-width:1.5;"/>
   </g>
   <g id="patch_3">
    <path d="M 71.51625 253.173375 
L 71.51625 35.733375 
" style="fill:none;stroke:#000000;stroke-linecap:square;stroke-linejoin:miter;stroke-width:0.8;"/>
   </g>
   <g id="patch_4">
    <path d="M 406.31625 253.173375 
L 406.31625 35.733375 
" style="fill:none;stroke:#000000;stroke-linecap:square;stroke-linejoin:miter;stroke-width:0.8;"/>
   </g>
   <g id="patch_5">
    <path d="M 71.51625 253.173375 
L 406.31625 253.173375 
" style="fill:none;stroke:#000000;stroke-linecap:square;stroke-linejoin:miter;stroke-width:0.8;"/>
   </g>
   <g id="patch_6">
    <path d="M 71.51625 35.733375 
L 406.31625 35.733375 
" style="fill:none;stroke:#000000;stroke-linecap:square;stroke-linejoin:miter;stroke-width:0.8;"/>
   </g>
   <g id="text_10">
    <!-- $B(t)$ -->
    <defs>
     <path d="M 13 65.296875 
L 38 65.296875 
Q 58.796875 65.296875 58.796875 50.296875 
Q 58.796875 43.296875 52.40625 39 
Q 49 36.703125 41.296875 35.09375 
L 41.296875 35 
Q 53.90625 31.203125 53.90625 20 
Q 53.90625 10.203125 46.453125 5.09375 
Q 39 0 26.40625 0 
L -0.796875 0 
L -0.796875 1.59375 
Q 3.296875 2.203125 4.75 3.59375 
Q 6.203125 5 7.5 9.59375 
L 19.59375 53.203125 
Q 20.703125 57.09375 20.703125 59.59375 
Q 20.703125 61.796875 19.203125 62.546875 
Q 17.703125 63.296875 13 63.703125 
z
M 24.796875 36.296875 
L 28.59375 36.296875 
Q 38.40625 36.296875 43.546875 40.1875 
Q 48.703125 44.09375 48.703125 51.5 
Q 48.703125 57.09375 45.890625 59.6875 
Q 43.09375 62.296875 37 62.296875 
Q 34.703125 62.296875 33.84375 62.140625 
Q 33 62 32.296875 61.25 
Q 31.59375 60.5 31.09375 58.703125 
z
M 23.796875 33.09375 
L 20.59375 21.203125 
Q 17.09375 7.90625 17.09375 7.203125 
Q 17.09375 3 23.796875 3 
Q 32.59375 3 37.84375 7.390625 
Q 43.09375 11.796875 43.09375 20 
Q 43.09375 24.5 41.1875 27.703125 
Q 39.296875 30.90625 36.40625 31.90625 
Q 33 33.09375 23.796875 33.09375 
z
" id="STIXGeneral-Italic-66"/>
     <path d="M 30.40625 -16.09375 
L 29.203125 -17.703125 
Q 17.59375 -11.09375 11.1875 0.5 
Q 4.796875 12.09375 4.796875 25.203125 
Q 4.796875 52.90625 29.5 67.59375 
L 30.40625 66 
Q 20.203125 57.296875 16.796875 48.84375 
Q 13.40625 40.40625 13.40625 25.5 
Q 13.40625 10.703125 16.90625 1.5 
Q 20.40625 -7.703125 30.40625 -16.09375 
z
" id="STIXGeneral-Regular-40"/>
     <path d="M 29.59375 42.796875 
L 29.09375 39.59375 
L 20.703125 39.59375 
L 12 6.796875 
Q 11.796875 6 11.796875 5.40625 
Q 11.796875 3.796875 13.296875 3.796875 
Q 14.5 3.796875 16.09375 5.34375 
Q 17.703125 6.90625 21.40625 11.703125 
L 22.703125 11 
Q 18.09375 4 15.140625 1.453125 
Q 12.203125 -1.09375 8.40625 -1.09375 
Q 3.796875 -1.09375 3.796875 2.59375 
Q 3.796875 3.59375 5.40625 10 
L 13.203125 39.59375 
L 5.703125 39.59375 
L 5.59375 40.203125 
Q 5.59375 42 8.90625 42.703125 
Q 11.40625 43.296875 15.5 46.546875 
Q 19.59375 49.796875 22.203125 53.703125 
Q 22.796875 54.59375 23.59375 54.59375 
Q 24.5 54.59375 24.5 53.796875 
Q 24.5 53.296875 24.40625 53.09375 
L 21.59375 42.796875 
z
" id="STIXGeneral-Italic-116"/>
     <path d="M 2.90625 66 
L 4.09375 67.59375 
Q 15.5 60.796875 22 49.1875 
Q 28.5 37.59375 28.5 24.703125 
Q 28.5 -2.59375 3.796875 -17.703125 
L 2.90625 -16.09375 
Q 13.203125 -7.59375 16.546875 0.84375 
Q 19.90625 9.296875 19.90625 24.40625 
Q 19.90625 39.59375 16.546875 48.75 
Q 13.203125 57.90625 2.90625 66 
z
" id="STIXGeneral-Regular-41"/>
    </defs>
    <g transform="translate(214.58025 29.532375)scale(0.312 -0.312)">
     <use transform="translate(0 0.40625)" xlink:href="#STIXGeneral-Italic-66"/>
     <use transform="translate(61.099991 0.40625)" xlink:href="#STIXGeneral-Regular-40"/>
     <use transform="translate(94.399979 0.40625)" xlink:href="#STIXGeneral-Italic-116"/>
     <use transform="translate(122.199966 0.40625)" xlink:href="#STIXGeneral-Regular-41"/>
    </g>
   </g>
   <g id="legend_1">
    <g id="line2d_10">
     <path d="M 433.45625 55.643687 
L 485.45625 55.643687 
" style="fill:none;stroke:#1f77b4;stroke-linecap:square;stroke-width:1.5;"/>
    </g>
    <g id="line2d_11"/>
    <g id="text_11">
     <!-- exact -->
     <defs>
      <path d="M 0.734375 0 
L 19.671875 26.953125 
L 2.15625 51.859375 
L 13.140625 51.859375 
L 21.09375 39.703125 
Q 23.34375 36.234375 24.703125 33.890625 
Q 26.859375 37.109375 28.65625 39.59375 
L 37.40625 51.859375 
L 47.90625 51.859375 
L 29.984375 27.4375 
L 49.265625 0 
L 38.484375 0 
L 27.828125 16.109375 
L 25 20.453125 
L 11.375 0 
z
" id="ArialMT-120"/>
      <path d="M 40.4375 19 
L 49.078125 17.875 
Q 47.65625 8.9375 41.8125 3.875 
Q 35.984375 -1.171875 27.484375 -1.171875 
Q 16.84375 -1.171875 10.375 5.78125 
Q 3.90625 12.75 3.90625 25.734375 
Q 3.90625 34.125 6.6875 40.421875 
Q 9.46875 46.734375 15.15625 49.875 
Q 20.84375 53.03125 27.546875 53.03125 
Q 35.984375 53.03125 41.359375 48.75 
Q 46.734375 44.484375 48.25 36.625 
L 39.703125 35.296875 
Q 38.484375 40.53125 35.375 43.15625 
Q 32.28125 45.796875 27.875 45.796875 
Q 21.234375 45.796875 17.078125 41.03125 
Q 12.9375 36.28125 12.9375 25.984375 
Q 12.9375 15.53125 16.9375 10.796875 
Q 20.953125 6.0625 27.390625 6.0625 
Q 32.5625 6.0625 36.03125 9.234375 
Q 39.5 12.40625 40.4375 19 
z
" id="ArialMT-99"/>
     </defs>
     <g transform="translate(506.25625 64.743687)scale(0.26 -0.26)">
      <use xlink:href="#ArialMT-101"/>
      <use x="55.615234" xlink:href="#ArialMT-120"/>
      <use x="105.615234" xlink:href="#ArialMT-97"/>
      <use x="161.230469" xlink:href="#ArialMT-99"/>
      <use x="211.230469" xlink:href="#ArialMT-116"/>
     </g>
    </g>
    <g id="line2d_12">
     <path d="M 433.45625 92.4215 
L 485.45625 92.4215 
" style="fill:none;stroke:#ff7f0e;stroke-linecap:square;stroke-width:1.5;"/>
    </g>
    <g id="line2d_13"/>
    <g id="text_12">
     <!-- estimated -->
     <g transform="translate(506.25625 101.5215)scale(0.26 -0.26)">
      <use xlink:href="#ArialMT-101"/>
      <use x="55.615234" xlink:href="#ArialMT-115"/>
      <use x="105.615234" xlink:href="#ArialMT-116"/>
      <use x="133.398438" xlink:href="#ArialMT-105"/>
      <use x="155.615234" xlink:href="#ArialMT-109"/>
      <use x="238.916016" xlink:href="#ArialMT-97"/>
      <use x="294.53125" xlink:href="#ArialMT-116"/>
      <use x="322.314453" xlink:href="#ArialMT-101"/>
      <use x="377.929688" xlink:href="#ArialMT-100"/>
     </g>
    </g>
   </g>
  </g>
 </g>
 <defs>
  <clipPath id="p807346c433">
   <rect height="217.44" width="334.8" x="71.51625" y="35.733375"/>
  </clipPath>
 </defs>
</svg>
