<?xml version="1.0" encoding="utf-8" standalone="no"?>
<!DOCTYPE svg PUBLIC "-//W3C//DTD SVG 1.1//EN"
  "http://www.w3.org/Graphics/SVG/1.1/DTD/svg11.dtd">
<!-- Created with matplotlib (https://matplotlib.org/) -->
<svg height="323.362pt" version="1.1" viewBox="0 0 667.965312 323.362" width="667.965312pt" xmlns="http://www.w3.org/2000/svg" xmlns:xlink="http://www.w3.org/1999/xlink">
 <metadata>
  <rdf:RDF xmlns:cc="http://creativecommons.org/ns#" xmlns:dc="http://purl.org/dc/elements/1.1/" xmlns:rdf="http://www.w3.org/1999/02/22-rdf-syntax-ns#">
   <cc:Work>
    <dc:type rdf:resource="http://purl.org/dc/dcmitype/StillImage"/>
    <dc:date>2022-01-24T15:15:53.241183</dc:date>
    <dc:format>image/svg+xml</dc:format>
    <dc:creator>
     <cc:Agent>
      <dc:title>Matplotlib v3.3.2, https://matplotlib.org/</dc:title>
     </cc:Agent>
    </dc:creator>
   </cc:Work>
  </rdf:RDF>
 </metadata>
 <defs>
  <style type="text/css">*{stroke-linecap:butt;stroke-linejoin:round;}</style>
 </defs>
 <g id="figure_1">
  <g id="patch_1">
   <path d="M 0 323.362 
L 667.965312 323.362 
L 667.965312 0 
L 0 0 
z
" style="fill:#ffffff;"/>
  </g>
  <g id="axes_1">
   <g id="patch_2">
    <path d="M 84.71125 254.83575 
L 419.51125 254.83575 
L 419.51125 37.39575 
L 84.71125 37.39575 
z
" style="fill:#ffffff;"/>
   </g>
   <g id="line2d_1">
    <path clip-path="url(#p793b412d76)" d="M 99.929432 218.59575 
L 201.400889 218.59575 
L 201.553096 109.87575 
L 404.293068 109.87575 
L 404.293068 109.87575 
" style="fill:none;stroke:#1f77b4;stroke-linecap:square;stroke-width:1.5;"/>
   </g>
   <g id="matplotlib.axis_1">
    <g id="xtick_1">
     <g id="line2d_2">
      <defs>
       <path d="M 0 0 
L 0 3.5 
" id="m3242bb6057" style="stroke:#000000;stroke-width:0.8;"/>
      </defs>
      <g>
       <use style="stroke:#000000;stroke-width:0.8;" x="99.929432" xlink:href="#m3242bb6057" y="254.83575"/>
      </g>
     </g>
     <g id="text_1">
      <!-- 0 -->
      <g transform="translate(91.658182 281.591688)scale(0.26 -0.26)">
       <defs>
        <path d="M 31.78125 66.40625 
Q 24.171875 66.40625 20.328125 58.90625 
Q 16.5 51.421875 16.5 36.375 
Q 16.5 21.390625 20.328125 13.890625 
Q 24.171875 6.390625 31.78125 6.390625 
Q 39.453125 6.390625 43.28125 13.890625 
Q 47.125 21.390625 47.125 36.375 
Q 47.125 51.421875 43.28125 58.90625 
Q 39.453125 66.40625 31.78125 66.40625 
z
M 31.78125 74.21875 
Q 44.046875 74.21875 50.515625 64.515625 
Q 56.984375 54.828125 56.984375 36.375 
Q 56.984375 17.96875 50.515625 8.265625 
Q 44.046875 -1.421875 31.78125 -1.421875 
Q 19.53125 -1.421875 13.0625 8.265625 
Q 6.59375 17.96875 6.59375 36.375 
Q 6.59375 54.828125 13.0625 64.515625 
Q 19.53125 74.21875 31.78125 74.21875 
z
" id="DejaVuSans-48"/>
       </defs>
       <use xlink:href="#DejaVuSans-48"/>
      </g>
     </g>
    </g>
    <g id="xtick_2">
     <g id="line2d_3">
      <g>
       <use style="stroke:#000000;stroke-width:0.8;" x="201.400889" xlink:href="#m3242bb6057" y="254.83575"/>
      </g>
     </g>
     <g id="text_2">
      <!-- 2 -->
      <g transform="translate(193.129639 281.591688)scale(0.26 -0.26)">
       <defs>
        <path d="M 19.1875 8.296875 
L 53.609375 8.296875 
L 53.609375 0 
L 7.328125 0 
L 7.328125 8.296875 
Q 12.9375 14.109375 22.625 23.890625 
Q 32.328125 33.6875 34.8125 36.53125 
Q 39.546875 41.84375 41.421875 45.53125 
Q 43.3125 49.21875 43.3125 52.78125 
Q 43.3125 58.59375 39.234375 62.25 
Q 35.15625 65.921875 28.609375 65.921875 
Q 23.96875 65.921875 18.8125 64.3125 
Q 13.671875 62.703125 7.8125 59.421875 
L 7.8125 69.390625 
Q 13.765625 71.78125 18.9375 73 
Q 24.125 74.21875 28.421875 74.21875 
Q 39.75 74.21875 46.484375 68.546875 
Q 53.21875 62.890625 53.21875 53.421875 
Q 53.21875 48.921875 51.53125 44.890625 
Q 49.859375 40.875 45.40625 35.40625 
Q 44.1875 33.984375 37.640625 27.21875 
Q 31.109375 20.453125 19.1875 8.296875 
z
" id="DejaVuSans-50"/>
       </defs>
       <use xlink:href="#DejaVuSans-50"/>
      </g>
     </g>
    </g>
    <g id="xtick_3">
     <g id="line2d_4">
      <g>
       <use style="stroke:#000000;stroke-width:0.8;" x="302.872347" xlink:href="#m3242bb6057" y="254.83575"/>
      </g>
     </g>
     <g id="text_3">
      <!-- 4 -->
      <g transform="translate(294.601097 281.591688)scale(0.26 -0.26)">
       <defs>
        <path d="M 37.796875 64.3125 
L 12.890625 25.390625 
L 37.796875 25.390625 
z
M 35.203125 72.90625 
L 47.609375 72.90625 
L 47.609375 25.390625 
L 58.015625 25.390625 
L 58.015625 17.1875 
L 47.609375 17.1875 
L 47.609375 0 
L 37.796875 0 
L 37.796875 17.1875 
L 4.890625 17.1875 
L 4.890625 26.703125 
z
" id="DejaVuSans-52"/>
       </defs>
       <use xlink:href="#DejaVuSans-52"/>
      </g>
     </g>
    </g>
    <g id="xtick_4">
     <g id="line2d_5">
      <g>
       <use style="stroke:#000000;stroke-width:0.8;" x="404.343804" xlink:href="#m3242bb6057" y="254.83575"/>
      </g>
     </g>
     <g id="text_4">
      <!-- 6 -->
      <g transform="translate(396.072554 281.591688)scale(0.26 -0.26)">
       <defs>
        <path d="M 33.015625 40.375 
Q 26.375 40.375 22.484375 35.828125 
Q 18.609375 31.296875 18.609375 23.390625 
Q 18.609375 15.53125 22.484375 10.953125 
Q 26.375 6.390625 33.015625 6.390625 
Q 39.65625 6.390625 43.53125 10.953125 
Q 47.40625 15.53125 47.40625 23.390625 
Q 47.40625 31.296875 43.53125 35.828125 
Q 39.65625 40.375 33.015625 40.375 
z
M 52.59375 71.296875 
L 52.59375 62.3125 
Q 48.875 64.0625 45.09375 64.984375 
Q 41.3125 65.921875 37.59375 65.921875 
Q 27.828125 65.921875 22.671875 59.328125 
Q 17.53125 52.734375 16.796875 39.40625 
Q 19.671875 43.65625 24.015625 45.921875 
Q 28.375 48.1875 33.59375 48.1875 
Q 44.578125 48.1875 50.953125 41.515625 
Q 57.328125 34.859375 57.328125 23.390625 
Q 57.328125 12.15625 50.6875 5.359375 
Q 44.046875 -1.421875 33.015625 -1.421875 
Q 20.359375 -1.421875 13.671875 8.265625 
Q 6.984375 17.96875 6.984375 36.375 
Q 6.984375 53.65625 15.1875 63.9375 
Q 23.390625 74.21875 37.203125 74.21875 
Q 40.921875 74.21875 44.703125 73.484375 
Q 48.484375 72.75 52.59375 71.296875 
z
" id="DejaVuSans-54"/>
       </defs>
       <use xlink:href="#DejaVuSans-54"/>
      </g>
     </g>
    </g>
    <g id="text_5">
     <!-- time (s) -->
     <g transform="translate(201.693594 310.754813)scale(0.26 -0.26)">
      <defs>
       <path d="M 18.3125 70.21875 
L 18.3125 54.6875 
L 36.8125 54.6875 
L 36.8125 47.703125 
L 18.3125 47.703125 
L 18.3125 18.015625 
Q 18.3125 11.328125 20.140625 9.421875 
Q 21.96875 7.515625 27.59375 7.515625 
L 36.8125 7.515625 
L 36.8125 0 
L 27.59375 0 
Q 17.1875 0 13.234375 3.875 
Q 9.28125 7.765625 9.28125 18.015625 
L 9.28125 47.703125 
L 2.6875 47.703125 
L 2.6875 54.6875 
L 9.28125 54.6875 
L 9.28125 70.21875 
z
" id="DejaVuSans-116"/>
       <path d="M 9.421875 54.6875 
L 18.40625 54.6875 
L 18.40625 0 
L 9.421875 0 
z
M 9.421875 75.984375 
L 18.40625 75.984375 
L 18.40625 64.59375 
L 9.421875 64.59375 
z
" id="DejaVuSans-105"/>
       <path d="M 52 44.1875 
Q 55.375 50.25 60.0625 53.125 
Q 64.75 56 71.09375 56 
Q 79.640625 56 84.28125 50.015625 
Q 88.921875 44.046875 88.921875 33.015625 
L 88.921875 0 
L 79.890625 0 
L 79.890625 32.71875 
Q 79.890625 40.578125 77.09375 44.375 
Q 74.3125 48.1875 68.609375 48.1875 
Q 61.625 48.1875 57.5625 43.546875 
Q 53.515625 38.921875 53.515625 30.90625 
L 53.515625 0 
L 44.484375 0 
L 44.484375 32.71875 
Q 44.484375 40.625 41.703125 44.40625 
Q 38.921875 48.1875 33.109375 48.1875 
Q 26.21875 48.1875 22.15625 43.53125 
Q 18.109375 38.875 18.109375 30.90625 
L 18.109375 0 
L 9.078125 0 
L 9.078125 54.6875 
L 18.109375 54.6875 
L 18.109375 46.1875 
Q 21.1875 51.21875 25.484375 53.609375 
Q 29.78125 56 35.6875 56 
Q 41.65625 56 45.828125 52.96875 
Q 50 49.953125 52 44.1875 
z
" id="DejaVuSans-109"/>
       <path d="M 56.203125 29.59375 
L 56.203125 25.203125 
L 14.890625 25.203125 
Q 15.484375 15.921875 20.484375 11.0625 
Q 25.484375 6.203125 34.421875 6.203125 
Q 39.59375 6.203125 44.453125 7.46875 
Q 49.3125 8.734375 54.109375 11.28125 
L 54.109375 2.78125 
Q 49.265625 0.734375 44.1875 -0.34375 
Q 39.109375 -1.421875 33.890625 -1.421875 
Q 20.796875 -1.421875 13.15625 6.1875 
Q 5.515625 13.8125 5.515625 26.8125 
Q 5.515625 40.234375 12.765625 48.109375 
Q 20.015625 56 32.328125 56 
Q 43.359375 56 49.78125 48.890625 
Q 56.203125 41.796875 56.203125 29.59375 
z
M 47.21875 32.234375 
Q 47.125 39.59375 43.09375 43.984375 
Q 39.0625 48.390625 32.421875 48.390625 
Q 24.90625 48.390625 20.390625 44.140625 
Q 15.875 39.890625 15.1875 32.171875 
z
" id="DejaVuSans-101"/>
       <path id="DejaVuSans-32"/>
       <path d="M 31 75.875 
Q 24.46875 64.65625 21.28125 53.65625 
Q 18.109375 42.671875 18.109375 31.390625 
Q 18.109375 20.125 21.3125 9.0625 
Q 24.515625 -2 31 -13.1875 
L 23.1875 -13.1875 
Q 15.875 -1.703125 12.234375 9.375 
Q 8.59375 20.453125 8.59375 31.390625 
Q 8.59375 42.28125 12.203125 53.3125 
Q 15.828125 64.359375 23.1875 75.875 
z
" id="DejaVuSans-40"/>
       <path d="M 44.28125 53.078125 
L 44.28125 44.578125 
Q 40.484375 46.53125 36.375 47.5 
Q 32.28125 48.484375 27.875 48.484375 
Q 21.1875 48.484375 17.84375 46.4375 
Q 14.5 44.390625 14.5 40.28125 
Q 14.5 37.15625 16.890625 35.375 
Q 19.28125 33.59375 26.515625 31.984375 
L 29.59375 31.296875 
Q 39.15625 29.25 43.1875 25.515625 
Q 47.21875 21.78125 47.21875 15.09375 
Q 47.21875 7.46875 41.1875 3.015625 
Q 35.15625 -1.421875 24.609375 -1.421875 
Q 20.21875 -1.421875 15.453125 -0.5625 
Q 10.6875 0.296875 5.421875 2 
L 5.421875 11.28125 
Q 10.40625 8.6875 15.234375 7.390625 
Q 20.0625 6.109375 24.8125 6.109375 
Q 31.15625 6.109375 34.5625 8.28125 
Q 37.984375 10.453125 37.984375 14.40625 
Q 37.984375 18.0625 35.515625 20.015625 
Q 33.0625 21.96875 24.703125 23.78125 
L 21.578125 24.515625 
Q 13.234375 26.265625 9.515625 29.90625 
Q 5.8125 33.546875 5.8125 39.890625 
Q 5.8125 47.609375 11.28125 51.796875 
Q 16.75 56 26.8125 56 
Q 31.78125 56 36.171875 55.265625 
Q 40.578125 54.546875 44.28125 53.078125 
z
" id="DejaVuSans-115"/>
       <path d="M 8.015625 75.875 
L 15.828125 75.875 
Q 23.140625 64.359375 26.78125 53.3125 
Q 30.421875 42.28125 30.421875 31.390625 
Q 30.421875 20.453125 26.78125 9.375 
Q 23.140625 -1.703125 15.828125 -13.1875 
L 8.015625 -13.1875 
Q 14.5 -2 17.703125 9.0625 
Q 20.90625 20.125 20.90625 31.390625 
Q 20.90625 42.671875 17.703125 53.65625 
Q 14.5 64.65625 8.015625 75.875 
z
" id="DejaVuSans-41"/>
      </defs>
      <use xlink:href="#DejaVuSans-116"/>
      <use x="39.208984" xlink:href="#DejaVuSans-105"/>
      <use x="66.992188" xlink:href="#DejaVuSans-109"/>
      <use x="164.404297" xlink:href="#DejaVuSans-101"/>
      <use x="225.927734" xlink:href="#DejaVuSans-32"/>
      <use x="257.714844" xlink:href="#DejaVuSans-40"/>
      <use x="296.728516" xlink:href="#DejaVuSans-115"/>
      <use x="348.828125" xlink:href="#DejaVuSans-41"/>
     </g>
    </g>
   </g>
   <g id="matplotlib.axis_2">
    <g id="ytick_1">
     <g id="line2d_6">
      <defs>
       <path d="M 0 0 
L -3.5 0 
" id="ma1216b4329" style="stroke:#000000;stroke-width:0.8;"/>
      </defs>
      <g>
       <use style="stroke:#000000;stroke-width:0.8;" x="84.71125" xlink:href="#ma1216b4329" y="254.83575"/>
      </g>
     </g>
     <g id="text_6">
      <!-- 3.0 -->
      <g transform="translate(36.363125 264.713719)scale(0.26 -0.26)">
       <defs>
        <path d="M 40.578125 39.3125 
Q 47.65625 37.796875 51.625 33 
Q 55.609375 28.21875 55.609375 21.1875 
Q 55.609375 10.40625 48.1875 4.484375 
Q 40.765625 -1.421875 27.09375 -1.421875 
Q 22.515625 -1.421875 17.65625 -0.515625 
Q 12.796875 0.390625 7.625 2.203125 
L 7.625 11.71875 
Q 11.71875 9.328125 16.59375 8.109375 
Q 21.484375 6.890625 26.8125 6.890625 
Q 36.078125 6.890625 40.9375 10.546875 
Q 45.796875 14.203125 45.796875 21.1875 
Q 45.796875 27.640625 41.28125 31.265625 
Q 36.765625 34.90625 28.71875 34.90625 
L 20.21875 34.90625 
L 20.21875 43.015625 
L 29.109375 43.015625 
Q 36.375 43.015625 40.234375 45.921875 
Q 44.09375 48.828125 44.09375 54.296875 
Q 44.09375 59.90625 40.109375 62.90625 
Q 36.140625 65.921875 28.71875 65.921875 
Q 24.65625 65.921875 20.015625 65.03125 
Q 15.375 64.15625 9.8125 62.3125 
L 9.8125 71.09375 
Q 15.4375 72.65625 20.34375 73.4375 
Q 25.25 74.21875 29.59375 74.21875 
Q 40.828125 74.21875 47.359375 69.109375 
Q 53.90625 64.015625 53.90625 55.328125 
Q 53.90625 49.265625 50.4375 45.09375 
Q 46.96875 40.921875 40.578125 39.3125 
z
" id="DejaVuSans-51"/>
        <path d="M 10.6875 12.40625 
L 21 12.40625 
L 21 0 
L 10.6875 0 
z
" id="DejaVuSans-46"/>
       </defs>
       <use xlink:href="#DejaVuSans-51"/>
       <use x="63.623047" xlink:href="#DejaVuSans-46"/>
       <use x="95.410156" xlink:href="#DejaVuSans-48"/>
      </g>
     </g>
    </g>
    <g id="ytick_2">
     <g id="line2d_7">
      <g>
       <use style="stroke:#000000;stroke-width:0.8;" x="84.71125" xlink:href="#ma1216b4329" y="182.35575"/>
      </g>
     </g>
     <g id="text_7">
      <!-- 3.5 -->
      <g transform="translate(36.363125 192.233719)scale(0.26 -0.26)">
       <defs>
        <path d="M 10.796875 72.90625 
L 49.515625 72.90625 
L 49.515625 64.59375 
L 19.828125 64.59375 
L 19.828125 46.734375 
Q 21.96875 47.46875 24.109375 47.828125 
Q 26.265625 48.1875 28.421875 48.1875 
Q 40.625 48.1875 47.75 41.5 
Q 54.890625 34.8125 54.890625 23.390625 
Q 54.890625 11.625 47.5625 5.09375 
Q 40.234375 -1.421875 26.90625 -1.421875 
Q 22.3125 -1.421875 17.546875 -0.640625 
Q 12.796875 0.140625 7.71875 1.703125 
L 7.71875 11.625 
Q 12.109375 9.234375 16.796875 8.0625 
Q 21.484375 6.890625 26.703125 6.890625 
Q 35.15625 6.890625 40.078125 11.328125 
Q 45.015625 15.765625 45.015625 23.390625 
Q 45.015625 31 40.078125 35.4375 
Q 35.15625 39.890625 26.703125 39.890625 
Q 22.75 39.890625 18.8125 39.015625 
Q 14.890625 38.140625 10.796875 36.28125 
z
" id="DejaVuSans-53"/>
       </defs>
       <use xlink:href="#DejaVuSans-51"/>
       <use x="63.623047" xlink:href="#DejaVuSans-46"/>
       <use x="95.410156" xlink:href="#DejaVuSans-53"/>
      </g>
     </g>
    </g>
    <g id="ytick_3">
     <g id="line2d_8">
      <g>
       <use style="stroke:#000000;stroke-width:0.8;" x="84.71125" xlink:href="#ma1216b4329" y="109.87575"/>
      </g>
     </g>
     <g id="text_8">
      <!-- 4.0 -->
      <g transform="translate(36.363125 119.753719)scale(0.26 -0.26)">
       <use xlink:href="#DejaVuSans-52"/>
       <use x="63.623047" xlink:href="#DejaVuSans-46"/>
       <use x="95.410156" xlink:href="#DejaVuSans-48"/>
      </g>
     </g>
    </g>
    <g id="ytick_4">
     <g id="line2d_9">
      <g>
       <use style="stroke:#000000;stroke-width:0.8;" x="84.71125" xlink:href="#ma1216b4329" y="37.39575"/>
      </g>
     </g>
     <g id="text_9">
      <!-- 4.5 -->
      <g transform="translate(36.363125 47.273719)scale(0.26 -0.26)">
       <use xlink:href="#DejaVuSans-52"/>
       <use x="63.623047" xlink:href="#DejaVuSans-46"/>
       <use x="95.410156" xlink:href="#DejaVuSans-53"/>
      </g>
     </g>
    </g>
    <g id="text_10">
     <!-- amplitude (a.u.) -->
     <g transform="translate(26.955937 250.552469)rotate(-90)scale(0.26 -0.26)">
      <defs>
       <path d="M 34.28125 27.484375 
Q 23.390625 27.484375 19.1875 25 
Q 14.984375 22.515625 14.984375 16.5 
Q 14.984375 11.71875 18.140625 8.90625 
Q 21.296875 6.109375 26.703125 6.109375 
Q 34.1875 6.109375 38.703125 11.40625 
Q 43.21875 16.703125 43.21875 25.484375 
L 43.21875 27.484375 
z
M 52.203125 31.203125 
L 52.203125 0 
L 43.21875 0 
L 43.21875 8.296875 
Q 40.140625 3.328125 35.546875 0.953125 
Q 30.953125 -1.421875 24.3125 -1.421875 
Q 15.921875 -1.421875 10.953125 3.296875 
Q 6 8.015625 6 15.921875 
Q 6 25.140625 12.171875 29.828125 
Q 18.359375 34.515625 30.609375 34.515625 
L 43.21875 34.515625 
L 43.21875 35.40625 
Q 43.21875 41.609375 39.140625 45 
Q 35.0625 48.390625 27.6875 48.390625 
Q 23 48.390625 18.546875 47.265625 
Q 14.109375 46.140625 10.015625 43.890625 
L 10.015625 52.203125 
Q 14.9375 54.109375 19.578125 55.046875 
Q 24.21875 56 28.609375 56 
Q 40.484375 56 46.34375 49.84375 
Q 52.203125 43.703125 52.203125 31.203125 
z
" id="DejaVuSans-97"/>
       <path d="M 18.109375 8.203125 
L 18.109375 -20.796875 
L 9.078125 -20.796875 
L 9.078125 54.6875 
L 18.109375 54.6875 
L 18.109375 46.390625 
Q 20.953125 51.265625 25.265625 53.625 
Q 29.59375 56 35.59375 56 
Q 45.5625 56 51.78125 48.09375 
Q 58.015625 40.1875 58.015625 27.296875 
Q 58.015625 14.40625 51.78125 6.484375 
Q 45.5625 -1.421875 35.59375 -1.421875 
Q 29.59375 -1.421875 25.265625 0.953125 
Q 20.953125 3.328125 18.109375 8.203125 
z
M 48.6875 27.296875 
Q 48.6875 37.203125 44.609375 42.84375 
Q 40.53125 48.484375 33.40625 48.484375 
Q 26.265625 48.484375 22.1875 42.84375 
Q 18.109375 37.203125 18.109375 27.296875 
Q 18.109375 17.390625 22.1875 11.75 
Q 26.265625 6.109375 33.40625 6.109375 
Q 40.53125 6.109375 44.609375 11.75 
Q 48.6875 17.390625 48.6875 27.296875 
z
" id="DejaVuSans-112"/>
       <path d="M 9.421875 75.984375 
L 18.40625 75.984375 
L 18.40625 0 
L 9.421875 0 
z
" id="DejaVuSans-108"/>
       <path d="M 8.5 21.578125 
L 8.5 54.6875 
L 17.484375 54.6875 
L 17.484375 21.921875 
Q 17.484375 14.15625 20.5 10.265625 
Q 23.53125 6.390625 29.59375 6.390625 
Q 36.859375 6.390625 41.078125 11.03125 
Q 45.3125 15.671875 45.3125 23.6875 
L 45.3125 54.6875 
L 54.296875 54.6875 
L 54.296875 0 
L 45.3125 0 
L 45.3125 8.40625 
Q 42.046875 3.421875 37.71875 1 
Q 33.40625 -1.421875 27.6875 -1.421875 
Q 18.265625 -1.421875 13.375 4.4375 
Q 8.5 10.296875 8.5 21.578125 
z
M 31.109375 56 
z
" id="DejaVuSans-117"/>
       <path d="M 45.40625 46.390625 
L 45.40625 75.984375 
L 54.390625 75.984375 
L 54.390625 0 
L 45.40625 0 
L 45.40625 8.203125 
Q 42.578125 3.328125 38.25 0.953125 
Q 33.9375 -1.421875 27.875 -1.421875 
Q 17.96875 -1.421875 11.734375 6.484375 
Q 5.515625 14.40625 5.515625 27.296875 
Q 5.515625 40.1875 11.734375 48.09375 
Q 17.96875 56 27.875 56 
Q 33.9375 56 38.25 53.625 
Q 42.578125 51.265625 45.40625 46.390625 
z
M 14.796875 27.296875 
Q 14.796875 17.390625 18.875 11.75 
Q 22.953125 6.109375 30.078125 6.109375 
Q 37.203125 6.109375 41.296875 11.75 
Q 45.40625 17.390625 45.40625 27.296875 
Q 45.40625 37.203125 41.296875 42.84375 
Q 37.203125 48.484375 30.078125 48.484375 
Q 22.953125 48.484375 18.875 42.84375 
Q 14.796875 37.203125 14.796875 27.296875 
z
" id="DejaVuSans-100"/>
      </defs>
      <use xlink:href="#DejaVuSans-97"/>
      <use x="61.279297" xlink:href="#DejaVuSans-109"/>
      <use x="158.691406" xlink:href="#DejaVuSans-112"/>
      <use x="222.167969" xlink:href="#DejaVuSans-108"/>
      <use x="249.951172" xlink:href="#DejaVuSans-105"/>
      <use x="277.734375" xlink:href="#DejaVuSans-116"/>
      <use x="316.943359" xlink:href="#DejaVuSans-117"/>
      <use x="380.322266" xlink:href="#DejaVuSans-100"/>
      <use x="443.798828" xlink:href="#DejaVuSans-101"/>
      <use x="505.322266" xlink:href="#DejaVuSans-32"/>
      <use x="537.109375" xlink:href="#DejaVuSans-40"/>
      <use x="576.123047" xlink:href="#DejaVuSans-97"/>
      <use x="637.402344" xlink:href="#DejaVuSans-46"/>
      <use x="669.189453" xlink:href="#DejaVuSans-117"/>
      <use x="732.568359" xlink:href="#DejaVuSans-46"/>
      <use x="764.355469" xlink:href="#DejaVuSans-41"/>
     </g>
    </g>
   </g>
   <g id="line2d_10">
    <path clip-path="url(#p793b412d76)" d="M 99.929432 218.59575 
L 101.350032 218.549072 
L 101.603711 218.300244 
L 101.705182 218.408958 
L 101.755918 218.379647 
L 101.85739 218.152289 
L 101.908125 218.17843 
L 102.009597 218.298513 
L 102.111068 218.603375 
L 102.161804 218.410059 
L 102.821368 219.097964 
L 102.872104 219.084281 
L 103.125783 219.837892 
L 103.430197 221.501375 
L 103.937554 222.899659 
L 104.191233 223.250288 
L 104.241969 223.179229 
L 104.394176 223.052617 
L 104.546383 223.057852 
L 104.850798 223.007279 
L 105.814776 223.110755 
L 106.372869 222.903722 
L 106.525077 222.452393 
L 106.575812 222.504775 
L 106.728019 222.328343 
L 106.778755 222.374885 
L 106.981698 221.803554 
L 107.08317 222.223973 
L 107.133905 222.076402 
L 107.235377 221.818217 
L 107.336848 221.092848 
L 107.387584 221.209615 
L 107.43832 220.946142 
L 107.489055 221.122863 
L 107.590527 221.06811 
L 107.641263 220.705219 
L 107.691998 220.782585 
L 107.844205 220.886588 
L 107.894941 220.636558 
L 107.945677 220.798034 
L 108.097884 221.093665 
L 108.250091 220.423759 
L 108.453034 220.885677 
L 108.706713 219.839041 
L 108.808184 220.076821 
L 108.85892 219.874055 
L 108.909656 219.992362 
L 109.315542 220.916451 
L 109.518485 221.52812 
L 109.56922 221.477345 
L 109.772163 221.71912 
L 110.583935 221.828757 
L 110.837613 221.900058 
L 111.446442 221.961728 
L 111.598649 222.036303 
L 111.903064 222.456028 
L 111.9538 222.356042 
L 112.055271 222.671969 
L 112.106007 222.628657 
L 112.410421 223.414532 
L 112.511893 222.905287 
L 112.562628 223.056561 
L 112.613364 223.335325 
L 112.6641 223.15709 
L 112.714835 223.223137 
L 112.765571 223.116342 
L 112.816307 223.104249 
L 112.917778 222.578977 
L 112.968514 222.639736 
L 113.069986 223.09894 
L 113.171457 223.053316 
L 113.323664 223.15913 
L 113.3744 223.56055 
L 113.425136 223.510833 
L 113.526607 223.39047 
L 113.628079 223.441889 
L 113.678814 223.377496 
L 113.72955 223.91573 
L 113.780286 223.551368 
L 113.831021 223.486474 
L 113.932493 223.663318 
L 113.983229 223.581278 
L 114.033964 223.602401 
L 114.0847 223.878182 
L 114.135436 223.610894 
L 114.186172 223.619116 
L 114.389114 223.376472 
L 114.642793 223.213705 
L 115.454565 223.226716 
L 115.708243 223.000786 
L 115.809715 222.933925 
L 116.114129 222.726524 
L 116.418544 222.713705 
L 116.875165 222.894137 
L 117.027372 223.319244 
L 117.078108 223.279764 
L 117.128844 223.386607 
L 117.230315 222.963746 
L 117.281051 223.016436 
L 117.53473 223.303914 
L 117.686937 222.753762 
L 117.737673 222.820117 
L 117.788408 223.028771 
L 117.839144 222.551709 
L 117.940616 222.59508 
L 117.991351 222.590325 
L 118.143558 222.941205 
L 118.549444 221.422551 
L 118.752387 221.215416 
L 118.803123 221.295278 
L 119.006066 220.86997 
L 119.056802 220.751676 
L 119.107537 220.894652 
L 119.31048 220.887455 
L 119.513423 221.125569 
L 119.767102 221.149575 
L 120.172988 221.033947 
L 120.274459 221.030095 
L 120.325195 220.968869 
L 120.37593 221.021537 
L 120.680345 221.072404 
L 120.934023 221.017315 
L 121.136966 221.120792 
L 121.441381 221.132564 
L 121.745795 221.082546 
L 122.100945 221.13354 
L 122.151681 221.149785 
L 122.253152 221.016812 
L 122.40536 221.316232 
L 122.456095 221.260687 
L 122.608303 220.913095 
L 122.811245 221.453647 
L 123.064924 220.360811 
L 123.11566 220.406844 
L 123.166396 220.820446 
L 123.217131 220.71206 
L 123.267867 220.669868 
L 123.318603 220.73687 
L 123.521546 221.036216 
L 123.572281 220.661783 
L 123.623017 220.817473 
L 123.978167 221.784182 
L 124.079639 221.704768 
L 124.282582 221.696566 
L 124.942146 221.838134 
L 125.195825 222.148852 
L 125.348032 222.149016 
L 125.601711 222.162169 
L 125.753918 221.898551 
L 125.804653 221.927981 
L 126.058332 221.867592 
L 126.413482 221.922704 
L 126.616425 222.245135 
L 126.717897 222.042977 
L 126.870104 222.625726 
L 127.022311 222.39956 
L 127.225254 222.853727 
L 127.478932 223.111475 
L 127.529668 222.692446 
L 127.63114 222.758592 
L 127.681875 222.415606 
L 127.732611 222.951885 
L 127.783347 222.567964 
L 127.834083 222.625051 
L 128.138497 221.628263 
L 128.290704 222.082169 
L 128.34144 222.152786 
L 128.493647 221.702284 
L 128.595119 221.968705 
L 128.645854 221.941473 
L 128.950269 221.851782 
L 129.356154 221.826242 
L 129.508362 221.524737 
L 129.559097 221.555767 
L 130.523076 220.145685 
L 130.726019 219.999873 
L 130.928962 219.947185 
L 131.233376 219.976515 
L 131.740734 219.758419 
L 131.892941 219.058107 
L 131.943677 219.055609 
L 132.349562 217.642671 
L 132.552505 215.908042 
L 132.603241 215.938685 
L 132.653977 216.021725 
L 132.85692 215.302917 
L 132.958391 214.681311 
L 133.009127 214.996606 
L 133.059863 214.857158 
L 133.262806 214.49807 
L 133.516484 214.844132 
L 133.92237 214.744886 
L 134.023841 214.518012 
L 134.27752 214.003682 
L 134.683406 214.43022 
L 134.734142 214.206067 
L 134.784877 214.475542 
L 134.835613 214.380083 
L 134.886349 214.443546 
L 135.038556 214.954768 
L 135.190763 214.854277 
L 135.34297 214.962274 
L 135.596649 215.003994 
L 135.850328 214.839885 
L 136.053271 214.565237 
L 136.154742 214.544177 
L 136.256214 214.236177 
L 136.306949 214.289568 
L 136.357685 214.29367 
L 136.408421 214.049744 
L 136.459156 214.099131 
L 136.662099 214.251957 
L 136.814307 215.236672 
L 136.865042 215.052219 
L 136.966514 214.96434 
L 137.72755 218.196449 
L 137.879757 218.283845 
L 137.981228 218.530484 
L 138.031964 218.505681 
L 138.133436 218.618345 
L 138.336378 218.563844 
L 138.640793 218.616814 
L 138.894471 218.723825 
L 139.046679 218.943696 
L 139.249622 218.966719 
L 139.452564 218.590131 
L 139.5033 218.568875 
L 139.655507 218.745808 
L 139.807715 218.644968 
L 139.959922 218.618396 
L 140.467279 218.633249 
L 140.518015 218.68526 
L 140.56875 218.621857 
L 140.670222 218.610725 
L 140.720958 218.658876 
L 140.771693 218.568583 
L 140.923901 218.424206 
L 141.076108 218.680686 
L 141.634201 216.809885 
L 141.735672 216.880417 
L 141.786408 216.927076 
L 141.887879 216.571485 
L 142.090822 215.328146 
L 142.344501 214.332203 
L 142.445972 214.318309 
L 142.750387 213.733294 
L 143.004065 213.655158 
L 143.105537 213.583671 
L 143.359216 213.203914 
L 143.562158 212.615027 
L 143.66363 212.561131 
L 144.01878 211.957432 
L 144.069516 212.058352 
L 144.120252 212.187826 
L 144.170987 212.129293 
L 145.337909 212.104873 
L 145.388645 211.869781 
L 145.43938 211.954989 
L 145.490116 212.128425 
L 145.540852 211.713491 
L 145.591588 211.746437 
L 145.693059 212.053539 
L 145.743795 211.951729 
L 145.794531 211.894208 
L 145.845266 212.052767 
L 145.896002 211.622682 
L 145.946738 211.733973 
L 145.997473 211.99985 
L 146.048209 211.735319 
L 146.098945 211.380056 
L 146.149681 211.575294 
L 146.352624 212.539871 
L 146.403359 212.338034 
L 146.454095 212.418295 
L 146.657038 213.041241 
L 146.707774 212.818286 
L 146.910717 212.143524 
L 146.961452 212.165995 
L 147.062924 212.055084 
L 147.265867 211.394226 
L 147.46881 211.436582 
L 147.671753 211.42039 
L 147.976167 211.888545 
L 148.128374 212.281138 
L 148.17911 212.255137 
L 148.838674 213.67424 
L 148.88941 213.648793 
L 148.990881 213.691329 
L 149.143089 214.027159 
L 149.193824 213.994382 
L 149.498239 214.3232 
L 149.95486 214.319026 
L 150.056332 214.320505 
L 150.208539 214.22728 
L 150.259275 214.2293 
L 150.360746 214.368063 
L 150.411482 214.348571 
L 150.462218 214.306672 
L 150.512953 214.381906 
L 150.563689 214.407625 
L 150.665161 214.846076 
L 150.715896 214.780463 
L 150.766632 214.640792 
L 150.817368 214.81566 
L 150.969575 214.87155 
L 151.020311 214.799273 
L 151.172518 215.412214 
L 151.223254 215.726992 
L 151.273989 215.383823 
L 151.324725 215.393863 
L 151.375461 215.068969 
L 151.426196 215.276702 
L 151.578404 215.818498 
L 151.629139 215.800937 
L 151.679875 215.805193 
L 151.781347 215.557111 
L 151.832082 215.625961 
L 151.882818 215.764184 
L 151.933554 215.565855 
L 151.984289 215.64416 
L 152.085761 215.809694 
L 152.136497 215.746651 
L 152.643854 215.989423 
L 152.69459 215.87837 
L 153.100475 216.958905 
L 153.252683 217.040344 
L 153.354154 217.036961 
L 153.658568 217.747319 
L 153.912247 217.654645 
L 154.622547 217.689154 
L 155.028433 218.543449 
L 155.434319 220.490528 
L 155.485055 220.114618 
L 155.586526 220.151891 
L 155.637262 220.221597 
L 155.687998 220.147639 
L 155.738733 219.967487 
L 155.789469 220.217599 
L 155.840205 220.149432 
L 155.890941 219.647184 
L 155.941676 219.746473 
L 156.043148 219.713788 
L 156.296826 218.305777 
L 156.651976 215.986716 
L 156.854919 215.059292 
L 157.362277 214.824332 
L 157.514484 214.912435 
L 157.666691 214.850108 
L 157.717427 214.975877 
L 157.768163 214.9515 
L 157.971105 214.463066 
L 158.021841 214.505233 
L 158.072577 214.41124 
L 158.27552 214.297608 
L 158.326256 214.249756 
L 158.427727 214.024006 
L 158.478463 214.052897 
L 158.529198 214.056269 
L 158.732141 214.346983 
L 158.833613 214.22671 
L 159.087291 214.499535 
L 159.290234 214.486436 
L 159.493177 214.312031 
L 159.69612 213.771039 
L 159.746856 213.765243 
L 160.000535 212.921604 
L 160.05127 213.239788 
L 160.102006 213.223795 
L 160.203477 212.874732 
L 160.254213 212.650963 
L 160.304949 212.774394 
L 160.355685 212.865856 
L 160.40642 212.614669 
L 160.457156 212.706083 
L 160.507892 212.879138 
L 160.609363 212.338736 
L 160.660099 212.373693 
L 160.863042 213.356668 
L 160.913778 213.904433 
L 160.964513 213.685592 
L 161.015249 213.689486 
L 161.218192 214.667802 
L 161.370399 214.615744 
L 161.776285 214.620988 
L 162.080699 214.701163 
L 162.232907 214.849696 
L 162.283642 214.80771 
L 162.334378 214.877921 
L 162.537321 215.336329 
L 162.638792 215.045546 
L 162.689528 215.20374 
L 162.740264 215.259516 
L 162.791 215.210489 
L 162.841735 215.099673 
L 162.993943 215.502867 
L 163.298357 215.805014 
L 163.399828 215.639796 
L 163.450564 215.665189 
L 163.602771 215.74218 
L 163.85645 215.639257 
L 164.160864 215.700599 
L 164.313072 215.893645 
L 164.363807 215.69383 
L 164.414543 216.007597 
L 164.465279 215.8127 
L 164.516014 215.563052 
L 164.617486 215.592005 
L 164.668222 215.451721 
L 164.718957 215.578935 
L 164.820429 216.111923 
L 164.871165 215.973264 
L 164.972636 216.13791 
L 165.074107 215.801612 
L 165.327786 216.409281 
L 165.429258 215.930802 
L 165.581465 216.29484 
L 165.6322 215.925251 
L 165.733672 215.948497 
L 165.835143 215.800636 
L 165.987351 216.39918 
L 166.038086 216.373114 
L 166.139558 216.540549 
L 166.342501 216.807443 
L 166.545444 216.823378 
L 166.849858 216.620257 
L 167.154272 216.105825 
L 167.205008 216.059623 
L 167.458687 216.535195 
L 167.509422 216.485025 
L 167.560158 216.554689 
L 167.66163 216.620037 
L 167.712365 216.582997 
L 167.763101 216.478065 
L 167.915308 216.798133 
L 168.219723 216.858669 
L 168.473401 216.902231 
L 168.625608 216.784212 
L 168.828551 216.597813 
L 168.930023 216.684546 
L 169.132966 216.194646 
L 169.183701 216.346131 
L 169.285173 216.476739 
L 169.335909 216.40627 
L 169.589587 215.855921 
L 169.741794 215.369531 
L 169.79253 215.759337 
L 169.894002 215.743102 
L 169.944737 215.736203 
L 170.299888 214.55776 
L 170.807245 214.066718 
L 170.959452 214.157694 
L 171.365338 214.19707 
L 171.416074 214.388374 
L 171.517545 214.358445 
L 171.771224 213.838839 
L 171.821959 214.037336 
L 171.872695 213.82034 
L 172.075638 212.82071 
L 172.126374 212.874541 
L 172.329317 212.655722 
L 172.380052 212.715778 
L 172.633731 212.14173 
L 172.988881 212.190145 
L 173.24256 212.109278 
L 173.293295 212.047419 
L 173.344031 212.203821 
L 173.394767 212.087863 
L 173.749917 210.940519 
L 173.851389 211.004228 
L 174.003596 211.487435 
L 174.105067 210.884558 
L 174.155803 211.051718 
L 174.358746 211.476788 
L 174.409482 211.36288 
L 174.460217 211.452998 
L 174.510953 211.443262 
L 174.561689 211.298724 
L 174.612424 211.42243 
L 174.66316 211.408931 
L 174.916839 211.840484 
L 175.069046 211.743295 
L 175.170517 212.045445 
L 175.271989 211.975443 
L 175.37346 211.902195 
L 175.677875 211.754444 
L 175.931553 211.787069 
L 176.083761 211.695968 
L 176.235968 211.628884 
L 176.286703 211.50004 
L 176.337439 211.564269 
L 176.438911 211.588479 
L 176.489646 211.732519 
L 176.540382 211.58295 
L 176.591118 211.470674 
L 176.641854 211.651634 
L 176.692589 211.446127 
L 176.743325 211.274875 
L 176.794061 211.388833 
L 177.301418 211.802014 
L 177.453625 212.095988 
L 177.656568 212.077681 
L 177.910247 212.206992 
L 177.960983 212.24715 
L 178.11319 212.087347 
L 178.163925 212.125842 
L 178.214661 212.045468 
L 178.316133 212.481781 
L 178.366868 212.374729 
L 178.519076 212.718379 
L 178.569811 212.541601 
L 178.722018 212.480901 
L 179.127904 211.350929 
L 179.17864 211.445478 
L 179.229376 211.645322 
L 179.381583 211.2784 
L 179.483054 211.202165 
L 179.53379 211.021507 
L 179.584526 211.152727 
L 179.787469 211.729998 
L 179.88894 211.520837 
L 179.939676 211.541517 
L 179.990412 211.481962 
L 180.041147 211.539028 
L 180.24409 211.551205 
L 180.447033 211.438234 
L 180.59924 211.793121 
L 180.649976 211.700468 
L 180.700712 211.732658 
L 180.802183 212.004165 
L 181.005126 212.637528 
L 181.055862 212.529835 
L 181.106598 212.545172 
L 181.208069 212.741519 
L 181.258805 212.661004 
L 181.360276 212.414478 
L 181.411012 212.507853 
L 181.512484 212.663914 
L 181.613955 212.430136 
L 181.664691 212.524195 
L 181.715426 212.735574 
L 181.766162 212.548588 
L 181.969105 212.308533 
L 182.172048 212.408945 
L 182.527198 212.366785 
L 182.577934 212.46352 
L 182.62867 212.348934 
L 182.933084 212.358056 
L 183.136027 212.73899 
L 183.186763 212.732783 
L 183.237498 212.474652 
L 183.288234 212.531476 
L 183.33897 212.717347 
L 183.389706 212.645002 
L 183.440441 212.19749 
L 183.491177 212.585763 
L 183.643384 212.134661 
L 183.69412 211.857056 
L 183.744856 211.877106 
L 183.795591 212.254034 
L 183.897063 212.202871 
L 183.947799 212.403573 
L 184.100006 212.053472 
L 184.252213 211.864767 
L 184.353684 212.395523 
L 184.455156 212.333341 
L 184.658099 212.479753 
L 184.861042 212.536233 
L 185.063985 212.512514 
L 185.266927 212.849767 
L 185.317663 212.914477 
L 185.520606 213.682065 
L 185.571342 213.756308 
L 185.622078 214.048251 
L 185.672813 213.967237 
L 185.723549 213.859909 
L 185.977228 215.045319 
L 186.078699 215.14266 
L 186.180171 215.344484 
L 186.230906 215.200456 
L 186.281642 215.174482 
L 186.332378 215.27882 
L 186.383113 215.211099 
L 186.433849 215.11596 
L 186.535321 215.267707 
L 186.839735 215.045387 
L 187.042678 215.062018 
L 187.397828 215.620052 
L 187.600771 216.081656 
L 187.651507 216.118896 
L 187.752978 216.58685 
L 187.803714 216.373371 
L 188.057393 214.680958 
L 188.108128 214.613283 
L 188.2096 214.073661 
L 188.260335 214.10161 
L 188.311071 214.107212 
L 188.463278 213.696111 
L 188.615486 214.932572 
L 188.716957 214.590835 
L 188.767693 214.628156 
L 188.869164 214.246283 
L 188.9199 214.549183 
L 188.970636 214.420619 
L 189.325786 214.34742 
L 189.477993 214.485612 
L 189.680936 214.452451 
L 189.782407 214.559485 
L 189.833143 214.515222 
L 189.934615 214.639428 
L 190.036086 214.816139 
L 190.239029 215.127818 
L 190.289765 215.203606 
L 190.3405 215.515764 
L 190.391236 215.348047 
L 190.543443 215.419052 
L 190.594179 215.097507 
L 190.644915 215.258964 
L 190.69565 215.244266 
L 190.898593 214.661723 
L 191.000065 214.403128 
L 191.253743 213.992158 
L 192.014779 214.139186 
L 192.065515 214.299361 
L 192.116251 214.031918 
L 192.166987 214.158536 
L 192.369929 214.83615 
L 192.420665 214.750735 
L 192.522137 215.186465 
L 192.674344 215.811825 
L 192.72508 215.528871 
L 192.775815 215.596756 
L 192.877287 216.051339 
L 193.43538 217.524386 
L 193.486116 217.331064 
L 193.689058 218.048423 
L 193.739794 218.030866 
L 193.841266 217.762713 
L 193.892001 217.819311 
L 194.196416 217.576241 
L 194.754509 217.559539 
L 195.21113 216.953451 
L 195.363337 217.109457 
L 195.414073 217.009211 
L 195.464809 217.062746 
L 195.515545 217.272915 
L 195.56628 217.177681 
L 195.617016 217.206686 
L 195.667752 217.038669 
L 195.718488 217.207658 
L 195.870695 217.141165 
L 196.022902 217.353893 
L 196.428788 217.451454 
L 196.885409 217.364627 
L 197.037617 217.748991 
L 197.189824 217.296755 
L 197.240559 217.747548 
L 197.291295 217.666525 
L 197.342031 217.611672 
L 197.392767 217.307386 
L 197.494238 217.738629 
L 197.544974 217.730379 
L 197.59571 217.855693 
L 197.900124 216.183753 
L 197.95086 216.327792 
L 198.001595 216.303479 
L 198.30601 215.092961 
L 198.356745 215.142541 
L 198.610424 214.423878 
L 198.762631 214.084237 
L 198.864103 214.139709 
L 199.117781 214.112549 
L 199.422196 214.026713 
L 199.625139 214.488904 
L 199.675874 214.311654 
L 199.72661 214.349984 
L 199.929553 214.867291 
L 200.031025 214.905771 
L 200.284703 215.321055 
L 200.995003 214.703625 
L 201.350153 214.779224 
L 201.502361 215.272857 
L 201.603832 215.158745 
L 201.756039 213.600639 
L 201.908246 208.740874 
L 202.212661 189.876436 
L 202.82149 147.87205 
L 203.075168 141.263194 
L 203.227375 140.317366 
L 203.328847 140.54262 
L 203.582526 141.349608 
L 203.683997 141.261083 
L 203.836204 140.443305 
L 204.800183 126.619648 
L 205.155333 125.901916 
L 205.409012 125.929681 
L 205.66269 125.519036 
L 205.967105 123.523949 
L 206.220783 120.240791 
L 206.271519 120.219623 
L 206.931084 113.192435 
L 207.032555 111.866721 
L 207.184762 110.326891 
L 207.235498 110.639144 
L 207.286234 110.503237 
L 207.641384 107.822365 
L 207.742855 107.941417 
L 207.945798 107.507816 
L 208.148741 107.323886 
L 208.554627 107.454765 
L 208.706834 107.538799 
L 208.808306 107.286216 
L 208.859041 107.303124 
L 208.960513 107.445406 
L 209.163456 107.084564 
L 209.214191 107.186383 
L 209.264927 107.187852 
L 209.569342 106.585661 
L 209.772284 106.476121 
L 210.025963 106.38336 
L 210.228906 106.306314 
L 210.482585 105.724008 
L 210.634792 105.381777 
L 210.786999 105.58109 
L 210.88847 105.223699 
L 210.989942 105.56851 
L 211.091413 105.528346 
L 211.192885 105.188427 
L 211.294356 105.569535 
L 211.446563 105.133218 
L 211.598771 105.331682 
L 211.649506 105.397569 
L 211.903185 104.563298 
L 211.953921 104.712956 
L 212.004656 104.695716 
L 212.156864 104.167338 
L 212.207599 104.300413 
L 212.258335 104.316554 
L 212.359807 105.07716 
L 212.410542 104.612034 
L 212.562749 104.830596 
L 212.613485 104.535859 
L 212.714957 104.570005 
L 212.816428 104.664141 
L 212.867164 104.554739 
L 212.968635 104.423084 
L 213.019371 104.445758 
L 213.171578 104.418068 
L 213.678936 104.623825 
L 213.780407 104.922792 
L 213.831143 104.840697 
L 213.932614 104.904101 
L 214.287764 105.611671 
L 214.389236 105.485029 
L 214.439971 105.517073 
L 214.541443 105.589873 
L 214.69365 105.730386 
L 214.896593 105.696358 
L 215.302479 105.622944 
L 215.454686 105.413109 
L 215.606893 104.954055 
L 215.657629 105.019058 
L 215.708365 104.867306 
L 215.7591 105.013181 
L 216.012779 105.295928 
L 216.114251 105.390649 
L 216.164986 105.496259 
L 216.215722 105.383595 
L 216.317193 105.426826 
L 216.469401 104.820503 
L 216.723079 105.385464 
L 216.875286 105.077708 
L 217.027494 105.222132 
L 217.179701 104.789712 
L 217.331908 105.150409 
L 217.382644 105.043934 
L 217.484115 104.61563 
L 217.534851 104.764718 
L 217.687058 104.469029 
L 217.737794 104.442001 
L 217.78853 104.711714 
L 217.839265 104.591265 
L 218.194415 104.040361 
L 218.600301 103.976698 
L 218.955451 104.147987 
L 219.56428 105.282624 
L 219.615016 105.359896 
L 219.665752 105.315695 
L 219.868694 105.16662 
L 220.27458 105.098864 
L 220.528259 105.570613 
L 220.781938 105.04505 
L 220.832673 105.109367 
L 220.934145 104.691126 
L 220.98488 104.816005 
L 221.137088 105.144183 
L 221.187823 104.999418 
L 221.238559 105.046394 
L 221.289295 105.143785 
L 221.340031 105.001039 
L 221.695181 105.416892 
L 221.796652 105.536989 
L 221.847388 105.573823 
L 221.999595 105.305599 
L 222.050331 105.460109 
L 222.354745 104.606412 
L 222.405481 104.681197 
L 222.456217 104.63183 
L 222.760631 102.036807 
L 222.963574 101.700129 
L 223.115781 101.544704 
L 223.318724 101.439355 
L 223.572403 101.418286 
L 223.72461 101.439723 
L 224.181231 101.79953 
L 224.739324 103.269286 
L 225.449625 103.780742 
L 226.159925 106.297675 
L 226.616546 105.275253 
L 226.718018 104.927665 
L 226.768754 105.070893 
L 226.819489 105.317545 
L 226.870225 105.176301 
L 226.920961 104.80959 
L 226.971696 104.952631 
L 227.022432 104.987639 
L 227.123904 104.953781 
L 227.580525 107.575148 
L 227.834204 108.769396 
L 227.88494 108.743083 
L 227.986411 108.520163 
L 228.037147 108.622171 
L 228.087882 108.521991 
L 228.290825 108.212891 
L 228.544504 108.135501 
L 228.848918 108.264912 
L 229.001126 108.499095 
L 229.254804 109.077053 
L 229.356276 109.114012 
L 229.407011 109.066785 
L 229.457747 109.132492 
L 229.711426 109.434235 
L 229.914369 109.523976 
L 229.965104 109.587576 
L 230.01584 109.541031 
L 230.472462 109.476936 
L 230.675405 109.689739 
L 230.72614 109.672505 
L 231.182762 111.317299 
L 231.233498 111.21152 
L 231.284233 111.289949 
L 231.385705 110.832429 
L 231.537912 111.309121 
L 231.690119 111.433857 
L 231.740855 111.360252 
L 231.842326 111.707918 
L 231.893062 111.593283 
L 231.994534 111.567712 
L 232.197476 112.465056 
L 232.248212 112.322962 
L 232.501891 113.5948 
L 232.603362 113.151894 
L 232.857041 114.545905 
L 232.907777 114.458175 
L 233.059984 114.076357 
L 233.364398 113.050735 
L 233.668813 112.861672 
L 234.074698 112.864814 
L 234.429849 112.253496 
L 234.632791 111.949429 
L 234.784999 111.774845 
L 235.698242 111.569271 
L 235.850449 111.416123 
L 235.901185 111.387328 
L 236.002656 111.162548 
L 236.154863 111.40293 
L 236.205599 111.236816 
L 236.307071 111.272498 
L 236.357806 111.34847 
L 236.408542 111.263337 
L 236.510013 111.244032 
L 236.560749 111.701531 
L 236.611485 111.661745 
L 236.915899 111.008399 
L 236.966635 111.286291 
L 237.068106 111.848851 
L 237.118842 111.814993 
L 237.271049 111.913446 
L 237.321785 112.090549 
L 237.372521 111.994963 
L 237.423257 111.881369 
L 237.473992 111.978353 
L 237.524728 112.01699 
L 237.575464 111.935774 
L 237.626199 111.829863 
L 237.829142 112.98111 
L 237.879878 112.854679 
L 237.930614 112.815895 
L 238.082821 113.20818 
L 238.387235 114.302107 
L 238.437971 114.102776 
L 238.590178 114.138528 
L 238.742385 114.148329 
L 239.148271 114.216912 
L 239.300479 114.414811 
L 239.351214 114.376359 
L 239.452686 114.234891 
L 239.7571 114.016179 
L 240.061514 114.011617 
L 240.4674 113.852826 
L 240.721079 113.871092 
L 240.82255 114.074666 
L 240.873286 113.999026 
L 240.974758 113.893728 
L 241.025493 114.028601 
L 241.076229 113.971691 
L 241.279172 113.534491 
L 241.329908 113.742199 
L 241.634322 112.560433 
L 241.685058 112.602318 
L 241.735793 112.521924 
L 241.888001 112.519871 
L 242.090944 113.01165 
L 242.192415 112.913014 
L 242.293887 112.635433 
L 242.395358 113.306261 
L 242.446094 113.266743 
L 242.699772 111.988308 
L 242.85198 112.168193 
L 242.953451 112.245142 
L 243.004187 112.180222 
L 243.156394 111.892081 
L 243.257865 112.030364 
L 243.359337 112.150638 
L 243.410073 112.075165 
L 243.613015 111.825128 
L 243.714487 111.876702 
L 243.91743 111.814609 
L 244.323316 111.854598 
L 244.62773 111.989675 
L 244.881409 112.116151 
L 244.98288 112.073515 
L 245.084352 112.019579 
L 245.236559 112.121191 
L 245.33803 112.191355 
L 245.388766 112.150512 
L 245.591709 112.135544 
L 245.896123 112.156179 
L 246.454216 113.211902 
L 246.809366 111.767291 
L 247.012309 110.864344 
L 247.113781 111.241436 
L 247.164516 111.227825 
L 247.265988 111.217608 
L 247.671874 112.986789 
L 247.874817 113.751373 
L 247.976288 114.456706 
L 248.027024 114.321887 
L 248.128495 113.824151 
L 248.179231 114.123582 
L 248.635853 114.269249 
L 248.838796 114.180302 
L 249.092474 114.183775 
L 249.396889 114.101521 
L 249.752039 113.590365 
L 249.802774 113.598696 
L 250.005717 113.361175 
L 250.310132 113.277863 
L 250.817489 113.33137 
L 250.91896 113.142474 
L 251.223375 112.508977 
L 251.27411 112.720993 
L 251.324846 112.769392 
L 251.477053 112.072285 
L 251.527789 111.888374 
L 251.578525 111.932346 
L 251.730732 112.318001 
L 251.933675 111.598207 
L 252.035146 111.697434 
L 252.085882 111.842021 
L 252.136618 111.778768 
L 252.339561 111.061557 
L 252.390297 111.200385 
L 252.441032 111.176374 
L 252.542504 110.95106 
L 252.593239 111.212028 
L 252.643975 111.059713 
L 252.796182 110.935528 
L 253.049861 112.077844 
L 253.100597 111.962372 
L 253.151332 112.124421 
L 253.30354 113.286086 
L 253.506483 113.789957 
L 253.557218 113.648925 
L 253.607954 113.755307 
L 254.01384 113.653741 
L 254.216783 113.695168 
L 254.470461 114.089377 
L 254.521197 114.079532 
L 254.673404 114.342043 
L 254.927083 114.599581 
L 255.282233 114.442079 
L 255.586647 114.125533 
L 255.78959 114.202338 
L 256.043269 114.73182 
L 256.094005 114.624508 
L 256.14474 114.606698 
L 256.296948 114.977969 
L 256.347683 114.43376 
L 256.398419 114.676231 
L 256.449155 114.5947 
L 256.499891 114.934297 
L 256.550626 114.847452 
L 256.753569 114.020117 
L 256.956512 114.078475 
L 257.007248 114.238408 
L 257.159455 113.896684 
L 257.210191 113.998797 
L 257.362398 113.731939 
L 257.413134 114.003511 
L 257.463869 113.842151 
L 257.514605 113.406476 
L 257.565341 113.500933 
L 257.616077 113.505585 
L 257.666812 113.655296 
L 257.717548 113.519343 
L 257.819019 113.094106 
L 257.971227 112.680091 
L 258.021962 112.622512 
L 258.072698 112.773202 
L 258.123434 112.638874 
L 258.326377 109.651835 
L 258.427848 109.087077 
L 258.478584 109.206839 
L 258.833734 108.93045 
L 259.036677 109.103826 
L 259.391827 109.06805 
L 259.645506 108.777055 
L 259.746977 108.691491 
L 259.848449 108.592283 
L 259.899184 108.666949 
L 260.254334 108.936113 
L 260.508013 109.261572 
L 260.761692 109.369904 
L 261.218313 109.439841 
L 261.319785 109.590137 
L 261.421256 109.338675 
L 261.471992 109.525146 
L 261.522728 109.006341 
L 261.573463 109.048413 
L 261.624199 109.223704 
L 262.080821 107.570004 
L 262.182292 107.569739 
L 262.233028 107.516697 
L 262.435971 108.115473 
L 262.638914 109.169342 
L 262.689649 109.050033 
L 262.740385 109.182082 
L 263.552157 114.185216 
L 263.653628 114.093872 
L 264.11025 113.600325 
L 264.972757 113.797225 
L 265.124964 114.01634 
L 265.277172 114.112398 
L 265.429379 114.157502 
L 265.581586 114.155619 
L 265.784529 114.074558 
L 266.038208 114.177725 
L 266.190415 114.531012 
L 266.24115 114.501659 
L 266.393358 114.217702 
L 266.494829 114.262466 
L 266.647036 113.485901 
L 266.697772 113.591544 
L 266.748508 113.536655 
L 266.900715 113.813666 
L 267.103658 113.123868 
L 267.154394 113.281243 
L 267.205129 113.20976 
L 267.306601 112.818751 
L 267.509544 113.610214 
L 267.560279 113.41533 
L 267.712487 113.2658 
L 267.813958 113.36344 
L 267.966165 113.190603 
L 268.321315 115.319397 
L 268.62573 116.081136 
L 268.676465 115.964445 
L 268.777937 116.28984 
L 268.930144 116.452211 
L 269.183823 116.378875 
L 269.386766 116.473933 
L 269.640444 116.707876 
L 269.995594 117.253723 
L 270.300009 117.645874 
L 270.502952 117.507301 
L 270.655159 117.49203 
L 270.858102 117.421916 
L 271.010309 117.576941 
L 271.213252 118.081399 
L 271.46693 118.755632 
L 271.619138 118.390454 
L 271.669873 118.580159 
L 271.720609 118.508702 
L 271.822081 118.283018 
L 271.872816 118.390618 
L 271.923552 118.591973 
L 271.974288 118.466041 
L 272.329438 118.084124 
L 272.583117 118.35725 
L 272.786059 117.542389 
L 272.836795 117.618738 
L 273.090474 116.488292 
L 273.14121 116.294089 
L 273.445624 113.666739 
L 273.49636 113.816705 
L 273.699303 112.618159 
L 273.952981 112.176223 
L 274.054453 112.242915 
L 274.105188 112.321517 
L 274.155924 112.263354 
L 274.714017 112.109993 
L 274.815489 112.019719 
L 274.967696 112.374979 
L 275.170639 112.293987 
L 275.221374 112.150566 
L 275.27211 112.212484 
L 275.576525 112.438905 
L 275.677996 112.30624 
L 275.728732 112.334456 
L 276.33756 112.270643 
L 276.439032 112.189987 
L 276.591239 112.260728 
L 276.743446 111.993369 
L 276.844918 112.611508 
L 276.895653 112.432452 
L 277.047861 112.790447 
L 277.200068 112.242731 
L 277.250804 112.271542 
L 277.301539 112.206469 
L 277.352275 112.35779 
L 277.605954 111.454776 
L 277.656689 111.388897 
L 277.910368 110.051772 
L 278.72214 106.041242 
L 278.772875 106.239249 
L 278.823611 106.040343 
L 278.925083 105.61512 
L 279.178761 105.048563 
L 279.533911 105.037951 
L 279.78759 105.262157 
L 279.838326 105.101444 
L 279.889061 105.144922 
L 280.041269 105.171634 
L 280.650097 105.303418 
L 280.802305 105.402433 
L 281.106719 105.38861 
L 281.411133 105.500141 
L 281.56334 105.236648 
L 281.664812 105.054405 
L 281.766283 105.535434 
L 281.817019 105.517685 
L 281.867755 105.372289 
L 281.918491 105.400114 
L 282.172169 106.535946 
L 282.222905 106.750192 
L 282.273641 106.650968 
L 282.324376 106.523028 
L 282.375112 106.674356 
L 282.425848 106.681441 
L 282.527319 107.045124 
L 282.679527 106.836359 
L 282.831734 107.121018 
L 282.882469 107.447793 
L 282.933205 107.131399 
L 282.983941 107.040428 
L 283.034677 107.098581 
L 283.136148 107.325114 
L 283.23762 106.918894 
L 283.288355 107.186323 
L 283.339091 107.454728 
L 283.542034 106.297847 
L 283.795713 105.360098 
L 284.049391 104.5612 
L 284.30307 104.941744 
L 284.759691 104.991401 
L 284.810427 105.051236 
L 284.861163 104.978534 
L 285.064106 105.073444 
L 285.520727 105.640083 
L 285.622199 105.879198 
L 285.672935 105.859791 
L 285.875877 105.895404 
L 286.332499 106.001177 
L 286.484706 106.195746 
L 286.586178 106.580308 
L 286.687649 107.263608 
L 286.738385 107.239592 
L 286.890592 107.876663 
L 287.144271 109.198951 
L 287.245742 108.607533 
L 287.296478 108.674642 
L 287.499421 108.38724 
L 287.600892 108.690772 
L 287.651628 108.637753 
L 287.702364 108.687904 
L 287.803835 108.303034 
L 287.854571 108.375898 
L 288.108249 108.788609 
L 288.158985 108.658612 
L 288.311192 108.874772 
L 288.361928 108.798842 
L 288.564871 107.525531 
L 288.666343 106.852297 
L 288.717078 106.928221 
L 288.767814 107.06453 
L 288.970757 106.567332 
L 289.021493 106.61641 
L 289.122964 106.086952 
L 289.224436 106.201474 
L 289.427378 106.166687 
L 289.579586 106.271817 
L 290.137679 106.222231 
L 290.289886 106.33699 
L 290.340622 106.101958 
L 290.391357 106.189019 
L 290.543564 106.25831 
L 291.101657 106.29876 
L 291.355336 106.35159 
L 291.507543 106.273907 
L 291.964165 105.563512 
L 292.014901 105.742875 
L 292.065636 105.601275 
L 292.116372 105.595084 
L 292.167108 105.976488 
L 292.217844 105.674932 
L 292.319315 106.179405 
L 292.420786 106.108781 
L 292.471522 106.044307 
L 292.674465 106.645085 
L 292.775937 106.555933 
L 292.826672 106.631316 
L 293.029615 107.349479 
L 293.131087 107.625812 
L 293.181822 107.523408 
L 293.232558 107.515759 
L 293.283294 107.367937 
L 293.841387 111.260998 
L 293.892123 111.209694 
L 294.04433 112.409332 
L 294.095065 112.076125 
L 294.247273 112.254068 
L 294.500951 112.707967 
L 294.75463 112.690233 
L 295.312723 112.80535 
L 295.414194 113.075773 
L 295.46493 112.939303 
L 295.566402 112.980746 
L 296.124495 113.415845 
L 296.17523 113.375708 
L 296.225966 113.447542 
L 296.581116 113.562586 
L 296.682588 113.66214 
L 296.733323 113.613589 
L 296.885531 113.66717 
L 296.936266 113.643043 
L 297.443624 114.800556 
L 297.595831 114.340374 
L 297.697302 114.539516 
L 297.798774 114.052137 
L 297.900245 114.202217 
L 297.950981 114.144564 
L 298.001717 114.342002 
L 298.052452 114.278709 
L 298.153924 114.015476 
L 298.407602 112.969401 
L 298.509074 113.336215 
L 298.55981 113.16217 
L 298.610545 113.474524 
L 298.661281 113.338394 
L 298.712017 113.403855 
L 298.813488 113.793569 
L 298.864224 113.624516 
L 298.91496 113.444596 
L 299.016431 114.049521 
L 299.067167 113.892082 
L 299.473053 114.541112 
L 299.726731 114.429044 
L 300.538503 114.17796 
L 300.893653 113.490973 
L 301.147332 113.146263 
L 301.248803 113.052718 
L 301.40101 113.034175 
L 301.756161 112.921379 
L 302.060575 111.970405 
L 302.314254 110.424596 
L 302.364989 110.390602 
L 302.415725 110.492032 
L 302.517196 110.120654 
L 302.567932 110.195575 
L 303.278232 108.439109 
L 303.328968 108.159598 
L 303.481175 108.647305 
L 303.531911 108.575619 
L 303.633382 109.372003 
L 303.684118 109.178547 
L 303.734854 109.232991 
L 303.988533 110.49338 
L 304.14074 110.777026 
L 304.242211 110.447907 
L 304.292947 110.552081 
L 304.49589 110.221632 
L 304.597361 110.037158 
L 304.648097 110.102813 
L 304.901776 110.106197 
L 305.104719 110.208316 
L 305.155454 110.140957 
L 305.20619 110.180213 
L 305.409133 110.465522 
L 305.459869 110.354509 
L 305.967226 110.090001 
L 306.170169 109.921262 
L 306.778998 110.087041 
L 306.981941 110.776125 
L 307.083412 111.469082 
L 307.337091 113.397532 
L 307.387826 113.384835 
L 307.540034 114.424605 
L 307.590769 114.353847 
L 307.692241 114.236488 
L 307.895184 113.43868 
L 308.098127 113.755405 
L 308.148862 113.571455 
L 308.199598 113.640124 
L 308.250334 113.688796 
L 308.30107 113.905529 
L 308.402541 113.243949 
L 308.453277 113.326015 
L 308.554748 112.805591 
L 308.605484 112.883245 
L 308.757691 112.201496 
L 308.859163 112.981748 
L 308.909898 112.56796 
L 308.960634 112.449505 
L 309.062105 113.272831 
L 309.112841 112.965739 
L 309.163577 113.006008 
L 309.315784 112.4874 
L 309.670934 112.131136 
L 309.772406 111.973301 
L 309.823141 112.022761 
L 310.330499 112.039221 
L 310.482706 111.954854 
L 310.736384 111.894879 
L 310.78712 111.810138 
L 310.837856 111.963556 
L 310.888592 111.874867 
L 311.040799 111.979366 
L 311.243742 112.073288 
L 311.345213 112.108377 
L 311.548156 112.22438 
L 312.106249 112.010821 
L 312.461399 111.426116 
L 312.664342 111.636288 
L 312.867285 111.097511 
L 312.918021 111.035849 
L 312.968757 111.203468 
L 313.019492 111.109808 
L 313.120964 110.92412 
L 313.171699 110.983995 
L 313.222435 111.193923 
L 313.273171 111.107079 
L 313.374642 110.970495 
L 313.425378 110.753882 
L 313.476114 110.9247 
L 313.52685 111.385737 
L 313.577585 111.269472 
L 313.628321 111.186084 
L 313.679057 111.308734 
L 313.729792 111.300466 
L 314.186414 113.679491 
L 314.23715 113.64566 
L 314.338621 113.998602 
L 314.541564 114.562432 
L 314.643036 114.49264 
L 314.845979 114.762535 
L 315.150393 114.924671 
L 315.251864 114.945391 
L 315.454807 115.004753 
L 315.607014 114.920673 
L 315.809957 114.956721 
L 315.962165 114.873316 
L 316.063636 115.00654 
L 316.418786 114.705033 
L 316.621729 114.720179 
L 317.078351 114.680029 
L 317.129086 114.661356 
L 317.281293 114.326383 
L 317.332029 114.330433 
L 317.484236 114.725281 
L 317.737915 114.179847 
L 317.788651 114.17068 
L 318.042329 113.166766 
L 318.093065 113.441425 
L 318.143801 113.302925 
L 318.600422 112.032456 
L 318.651158 112.085096 
L 318.701894 111.958649 
L 318.904837 110.839803 
L 319.006308 110.683652 
L 319.057044 110.837541 
L 319.10778 110.720566 
L 319.665873 107.914862 
L 319.868816 107.557641 
L 320.021023 107.497893 
L 320.731323 107.427055 
L 321.035737 107.199549 
L 321.289416 107.505242 
L 321.390888 107.574977 
L 321.59383 107.865386 
L 321.796773 107.866828 
L 322.101188 107.539222 
L 322.354866 106.796355 
L 322.405602 106.859755 
L 322.760752 108.483115 
L 322.862224 108.415826 
L 322.912959 108.235752 
L 322.963695 108.367507 
L 323.014431 108.483133 
L 323.065167 108.931052 
L 323.115902 108.823444 
L 323.166638 108.657616 
L 323.217374 108.749095 
L 323.268109 108.817922 
L 323.318845 108.68059 
L 323.369581 108.836976 
L 323.521788 109.104764 
L 323.572524 109.015211 
L 323.62326 109.258576 
L 323.724731 108.845525 
L 323.775467 108.876156 
L 323.97841 110.334345 
L 324.079881 110.217197 
L 324.485767 109.347999 
L 324.536503 109.388953 
L 324.739446 109.020648 
L 324.942389 108.895856 
L 325.551217 108.911385 
L 325.703424 108.734615 
L 326.058575 108.67077 
L 326.210782 108.693427 
L 326.768875 108.687 
L 327.276232 108.913544 
L 327.326968 108.784538 
L 327.377703 108.898988 
L 327.479175 108.984142 
L 327.783589 110.561777 
L 328.138739 111.097625 
L 328.341682 110.834197 
L 328.443154 110.765664 
L 328.544625 110.311854 
L 328.595361 110.349622 
L 328.696832 110.675108 
L 328.747568 110.558252 
L 329.001247 110.321904 
L 329.051983 110.745313 
L 329.102718 110.701386 
L 329.254925 110.515183 
L 329.305661 110.47422 
L 329.356397 110.735206 
L 329.508604 110.106863 
L 329.55934 110.179472 
L 329.711547 109.827008 
L 329.762283 109.89864 
L 329.965226 109.539687 
L 330.320376 109.46953 
L 330.523319 109.61106 
L 330.675526 109.801405 
L 330.929205 109.684389 
L 331.233619 109.372764 
L 331.284355 109.482529 
L 331.33509 109.329403 
L 331.791712 109.087477 
L 332.045391 109.124913 
L 332.248333 109.326442 
L 332.299069 109.113845 
L 332.349805 109.300623 
L 332.400541 109.282629 
L 332.552748 109.67695 
L 332.654219 110.164852 
L 332.857162 111.448237 
L 332.958634 111.370335 
L 333.009369 111.249122 
L 333.313784 112.288211 
L 333.415255 112.00474 
L 333.465991 112.029818 
L 333.567462 111.887307 
L 333.668934 112.06233 
L 334.176291 109.342001 
L 334.227027 109.389219 
L 334.379234 108.647339 
L 334.42997 108.847692 
L 334.480706 108.827263 
L 334.632913 107.991853 
L 334.683648 108.058933 
L 334.734384 107.969274 
L 334.78512 107.830006 
L 334.835856 107.873037 
L 334.988063 107.811956 
L 335.191006 107.547648 
L 335.596892 107.395846 
L 335.799834 107.394716 
L 335.952042 107.31889 
L 336.053513 107.478162 
L 336.104249 107.365114 
L 336.20572 107.409758 
L 336.459399 107.41746 
L 336.662342 107.35366 
L 336.814549 107.363594 
L 336.966756 107.327266 
L 337.575585 107.200812 
L 337.626321 107.317681 
L 337.677056 107.276908 
L 337.727792 107.2492 
L 337.879999 107.627763 
L 337.981471 107.559347 
L 338.032207 107.656865 
L 338.133678 108.017149 
L 338.184414 107.963986 
L 338.387357 107.335501 
L 338.539564 107.64383 
L 338.5903 107.701936 
L 338.691771 107.304379 
L 338.742507 107.458722 
L 338.894714 107.550505 
L 339.097657 108.773842 
L 339.351335 108.353213 
L 339.554278 108.644064 
L 339.858693 107.225176 
L 339.909428 107.134875 
L 340.0109 106.232417 
L 340.061636 106.372406 
L 340.264579 106.644934 
L 340.36605 106.827982 
L 340.518257 106.805947 
L 341.025615 106.806309 
L 341.380765 107.320349 
L 341.634443 107.340358 
L 341.685179 107.242864 
L 341.735915 107.363777 
L 341.837386 107.455144 
L 342.091065 107.264099 
L 342.649158 107.028257 
L 342.699894 107.10285 
L 342.750629 107.000091 
L 342.801365 106.974272 
L 343.004308 106.389841 
L 343.156515 107.010825 
L 343.257987 106.949397 
L 343.308722 106.861922 
L 343.613137 107.682824 
L 343.968287 107.586186 
L 344.221965 106.472371 
L 344.88153 104.098139 
L 344.983001 103.987783 
L 345.185944 104.417981 
L 345.23668 104.218402 
L 345.287416 104.356378 
L 345.541094 104.476685 
L 345.794773 104.340381 
L 346.099187 104.440495 
L 346.200659 104.547567 
L 346.352866 104.568492 
L 346.454337 104.620926 
L 346.65728 104.813527 
L 346.708016 104.802357 
L 346.860223 104.958846 
L 347.215373 104.89429 
L 347.469052 104.874976 
L 347.671995 104.970027 
L 348.077881 105.711604 
L 348.128617 105.615852 
L 348.280824 105.326429 
L 348.331559 105.630067 
L 348.382295 105.544187 
L 348.68671 104.405128 
L 348.788181 104.497202 
L 348.889652 104.230047 
L 348.991124 104.460599 
L 349.04186 104.014882 
L 349.092595 104.464234 
L 349.143331 104.274936 
L 349.194067 104.416569 
L 349.295538 104.254491 
L 349.650688 106.039472 
L 349.75216 106.284335 
L 349.904367 107.26254 
L 349.955103 107.216363 
L 350.005838 107.301989 
L 350.158046 106.85509 
L 350.259517 106.351251 
L 350.411724 106.45426 
L 350.614667 106.477367 
L 350.766874 106.480011 
L 350.969817 106.445402 
L 351.324967 106.89358 
L 351.629382 107.329326 
L 351.680118 107.30441 
L 351.781589 107.457674 
L 351.832325 107.39981 
L 352.086003 107.541284 
L 352.136739 107.463128 
L 352.187475 107.531594 
L 352.847039 107.610049 
L 352.897775 107.782736 
L 352.948511 107.644639 
L 352.999246 107.699146 
L 353.049982 107.651262 
L 353.100718 107.549222 
L 353.151454 107.655877 
L 353.252925 107.686009 
L 353.405132 108.222914 
L 353.455868 108.142611 
L 353.608075 108.057116 
L 353.658811 108.071157 
L 353.861754 109.133126 
L 353.91249 109.04105 
L 354.013961 108.592659 
L 354.064697 108.694302 
L 354.115433 108.718486 
L 354.166168 108.54403 
L 354.216904 108.657223 
L 354.26764 108.642612 
L 354.419847 109.388961 
L 354.470583 109.30027 
L 354.521318 109.516324 
L 354.572054 109.44408 
L 354.62279 109.459944 
L 354.673526 109.085466 
L 354.724261 109.425685 
L 354.876468 110.986093 
L 354.927204 110.868208 
L 355.180883 111.874304 
L 355.231619 111.53984 
L 355.282354 111.550508 
L 355.485297 112.522459 
L 355.68824 112.750074 
L 355.840447 112.784643 
L 356.144862 112.733863 
L 356.39854 112.85006 
L 356.550747 112.682947 
L 356.702955 112.841133 
L 356.804426 112.574539 
L 356.855162 112.601036 
L 357.007369 112.343563 
L 357.565462 111.904734 
L 357.819141 111.904852 
L 358.022084 111.982249 
L 358.123555 112.089187 
L 358.174291 111.933187 
L 358.377234 111.403871 
L 358.427969 111.486253 
L 358.478705 111.504028 
L 358.529441 111.72951 
L 358.580177 111.591778 
L 358.732384 111.20217 
L 358.935327 111.611565 
L 358.986062 111.41006 
L 359.036798 111.404549 
L 359.13827 111.188854 
L 359.290477 111.573587 
L 359.341213 111.399976 
L 359.391948 111.34926 
L 359.696363 112.327515 
L 359.797834 111.67801 
L 359.84857 111.803111 
L 360.000777 112.857776 
L 360.051513 112.638739 
L 360.305191 111.783046 
L 360.355927 111.867779 
L 360.406663 111.99195 
L 360.55887 111.466753 
L 360.609606 111.448084 
L 360.761813 111.662717 
L 360.812549 111.569833 
L 360.863284 111.602527 
L 361.167699 111.644751 
L 361.522849 111.56891 
L 361.776528 111.311919 
L 361.877999 111.383123 
L 362.486828 110.282222 
L 362.791242 110.212152 
L 363.095656 110.274862 
L 363.400071 110.8271 
L 363.501542 110.620026 
L 363.603014 110.556392 
L 363.704485 110.142779 
L 363.755221 110.15273 
L 363.856692 110.21628 
L 363.907428 110.045589 
L 364.0089 110.526019 
L 364.059635 110.2819 
L 364.110371 110.402928 
L 364.262578 110.706319 
L 364.313314 110.667801 
L 364.36405 110.848728 
L 364.414785 110.612483 
L 364.465521 110.827224 
L 364.617728 110.727873 
L 364.769936 110.617189 
L 364.922143 109.874611 
L 364.972878 109.92544 
L 365.328029 109.078745 
L 365.4295 109.763128 
L 365.480236 109.469139 
L 365.530971 109.552101 
L 365.581707 109.636604 
L 365.632443 109.539521 
L 365.733914 109.116856 
L 365.987593 108.761674 
L 366.038329 108.812209 
L 366.089064 108.730154 
L 366.241272 108.573183 
L 366.8501 108.787749 
L 366.900836 108.949372 
L 366.951572 108.874666 
L 367.154515 108.962548 
L 367.306722 109.178033 
L 368.118494 109.15956 
L 368.372172 109.275366 
L 368.422908 109.228936 
L 368.473644 109.303734 
L 368.981001 111.084136 
L 369.031737 111.167564 
L 369.133208 111.582893 
L 369.183944 111.352082 
L 369.23468 111.662065 
L 369.285415 111.517187 
L 369.336151 111.514942 
L 369.386887 111.742526 
L 369.437623 111.624694 
L 370.046451 109.20657 
L 370.249394 107.739922 
L 370.30013 107.891816 
L 370.503073 106.546441 
L 370.756752 105.709636 
L 370.807487 105.845072 
L 370.858223 105.645514 
L 370.908959 105.830992 
L 371.01043 105.668775 
L 371.061166 105.361814 
L 371.111902 105.589587 
L 371.162637 105.541911 
L 371.314845 105.603695 
L 371.568523 105.506652 
L 372.126616 105.565633 
L 372.228088 105.665968 
L 372.278823 105.619177 
L 373.293538 105.71592 
L 373.75016 105.520787 
L 373.902367 105.771228 
L 373.953102 105.698868 
L 374.308253 105.186145 
L 374.358988 104.872267 
L 374.409724 104.941202 
L 374.46046 105.064599 
L 374.663403 104.628192 
L 374.714138 104.934504 
L 374.764874 104.899912 
L 375.018553 104.30575 
L 375.069288 104.153131 
L 375.120024 104.320931 
L 375.17076 104.272214 
L 375.373703 104.640028 
L 375.424439 104.581366 
L 375.678117 102.966649 
L 375.830324 102.795012 
L 375.88106 102.518285 
L 375.982532 102.543624 
L 376.134739 102.186373 
L 376.185474 102.215306 
L 376.489889 102.763052 
L 376.794303 102.752661 
L 377.047982 102.437075 
L 377.098718 102.568977 
L 377.149453 102.481292 
L 377.250925 102.397983 
L 377.301661 102.256614 
L 377.403132 102.295141 
L 377.555339 102.521844 
L 377.606075 102.487645 
L 377.656811 102.349276 
L 377.707546 102.438231 
L 377.859754 102.706338 
L 378.367111 102.880802 
L 378.620789 102.443966 
L 378.823732 101.737449 
L 378.874468 101.818309 
L 378.97594 101.442116 
L 379.026675 101.468831 
L 379.229618 101.142188 
L 379.534033 101.818387 
L 379.584768 101.681591 
L 379.635504 101.763943 
L 379.787711 101.927502 
L 379.838447 101.782378 
L 380.244333 103.804402 
L 380.954633 110.317505 
L 381.157576 110.750613 
L 381.259047 110.833399 
L 381.360519 111.062843 
L 381.411255 111.036953 
L 381.664933 111.080368 
L 381.766405 111.09137 
L 382.17229 111.28221 
L 382.476705 111.074409 
L 382.527441 111.133538 
L 382.578176 111.023502 
L 383.237741 110.466783 
L 383.440684 110.564138 
L 383.998777 112.186522 
L 384.150984 112.471911 
L 384.404663 111.92965 
L 384.506134 112.036851 
L 384.55687 111.977953 
L 384.709077 111.715111 
L 385.216434 110.424804 
L 385.368641 110.202819 
L 385.470113 110.325279 
L 386.129677 107.195502 
L 386.180413 107.206741 
L 386.637035 106.791652 
L 386.839978 106.828632 
L 387.347335 107.090781 
L 387.499542 107.339492 
L 388.006899 106.900843 
L 388.209842 106.953397 
L 389.07235 106.851122 
L 389.123085 106.532258 
L 389.173821 106.802986 
L 389.275292 107.025317 
L 389.376764 107.38833 
L 389.4275 107.302602 
L 389.579707 107.590641 
L 389.630443 107.571512 
L 389.985593 108.425836 
L 390.290007 108.609588 
L 390.340743 108.858987 
L 390.442214 108.816847 
L 390.49295 108.991166 
L 390.543686 108.768823 
L 390.645157 108.940286 
L 390.695893 109.045586 
L 390.746629 108.944151 
L 390.797364 108.929915 
L 390.8481 108.798181 
L 390.898836 109.332794 
L 390.949572 109.080612 
L 391.000307 109.15101 
L 391.051043 109.044798 
L 391.152514 108.421005 
L 391.20325 108.704442 
L 391.355457 108.20756 
L 391.5584 108.610742 
L 391.609136 108.652988 
L 391.659872 108.568952 
L 391.812079 108.45381 
L 392.573115 108.481976 
L 392.826793 108.770584 
L 392.979001 108.814236 
L 393.131208 108.625105 
L 393.283415 108.602807 
L 393.486358 108.473149 
L 393.790772 108.505937 
L 393.841508 108.578739 
L 393.892244 108.49186 
L 393.94298 108.414856 
L 393.993715 108.49803 
L 394.095187 108.647969 
L 394.145922 108.562865 
L 394.29813 108.185093 
L 394.450337 108.818505 
L 394.501073 108.65293 
L 394.602544 108.287581 
L 394.65328 108.383229 
L 394.754751 108.277698 
L 394.805487 108.047538 
L 394.856223 108.369768 
L 394.957694 108.314985 
L 395.00843 108.372074 
L 395.059166 108.275129 
L 395.109901 108.219442 
L 395.160637 108.363239 
L 395.211373 108.274879 
L 395.262108 108.196043 
L 395.414316 107.646065 
L 395.566523 108.113026 
L 395.617259 108.072643 
L 395.667994 107.64438 
L 395.71873 108.041011 
L 395.870937 108.248617 
L 396.124616 107.197067 
L 396.327559 106.696801 
L 396.378295 107.069941 
L 396.42903 106.796042 
L 396.631973 106.113462 
L 396.682709 106.180065 
L 396.885652 105.899684 
L 397.595952 105.77428 
L 397.748159 105.778123 
L 397.798895 105.711111 
L 397.849631 105.798228 
L 397.900366 105.803283 
L 398.052574 105.533769 
L 398.103309 105.585912 
L 398.154045 105.533949 
L 398.661402 105.11112 
L 398.915081 105.140611 
L 398.965817 105.197896 
L 399.118024 105.04143 
L 399.422438 104.909453 
L 399.574645 104.878286 
L 399.777588 105.383536 
L 399.87906 105.424042 
L 399.929796 105.20222 
L 399.980531 105.465363 
L 400.082003 105.283923 
L 400.132738 105.324856 
L 400.284946 105.648495 
L 400.335681 105.639391 
L 400.487889 106.06005 
L 400.538624 105.851289 
L 400.58936 105.988649 
L 400.640096 106.409043 
L 400.690831 106.391118 
L 400.741567 106.129691 
L 400.792303 106.261286 
L 401.553339 109.418388 
L 401.65481 109.064733 
L 401.705546 109.126089 
L 401.857753 109.475681 
L 402.00996 109.349423 
L 402.162168 109.420169 
L 402.415846 109.41374 
L 402.821732 109.34141 
L 402.872468 109.48412 
L 402.923204 109.351728 
L 403.329089 109.127497 
L 403.734975 108.513408 
L 404.242332 108.564677 
L 404.293068 108.514857 
L 404.293068 108.514857 
" style="fill:none;stroke:#ff7f0e;stroke-linecap:square;stroke-width:1.5;"/>
   </g>
   <g id="patch_3">
    <path d="M 84.71125 254.83575 
L 84.71125 37.39575 
" style="fill:none;stroke:#000000;stroke-linecap:square;stroke-linejoin:miter;stroke-width:0.8;"/>
   </g>
   <g id="patch_4">
    <path d="M 419.51125 254.83575 
L 419.51125 37.39575 
" style="fill:none;stroke:#000000;stroke-linecap:square;stroke-linejoin:miter;stroke-width:0.8;"/>
   </g>
   <g id="patch_5">
    <path d="M 84.71125 254.83575 
L 419.51125 254.83575 
" style="fill:none;stroke:#000000;stroke-linecap:square;stroke-linejoin:miter;stroke-width:0.8;"/>
   </g>
   <g id="patch_6">
    <path d="M 84.71125 37.39575 
L 419.51125 37.39575 
" style="fill:none;stroke:#000000;stroke-linecap:square;stroke-linejoin:miter;stroke-width:0.8;"/>
   </g>
   <g id="text_11">
    <!-- $A(t)$ -->
    <g transform="translate(227.77525 30.907125)scale(0.312 -0.312)">
     <defs>
      <path d="M 56.40625 0 
L 31.90625 0 
L 31.90625 1.59375 
Q 36.40625 1.796875 38 3 
Q 39.59375 4.203125 39.59375 6.90625 
Q 39.59375 7.703125 39.40625 9.5 
L 37.40625 22.59375 
L 15.40625 22.59375 
L 9.5 11.5 
Q 7.296875 7.40625 7.296875 4.90625 
Q 7.296875 1.90625 13.5 1.59375 
L 13.5 0 
L -5.09375 0 
L -5.09375 1.59375 
Q -1.703125 2.296875 0.4375 4.796875 
Q 2.59375 7.296875 8.296875 17.203125 
L 36.796875 66.796875 
L 39.40625 66.796875 
L 48.59375 11.5 
Q 49.59375 5.296875 51 3.59375 
Q 52.40625 1.90625 56.40625 1.59375 
z
M 36.90625 26.203125 
L 32.40625 52.5 
L 17.5 26.203125 
z
" id="STIXGeneral-Italic-65"/>
      <path d="M 30.40625 -16.09375 
L 29.203125 -17.703125 
Q 17.59375 -11.09375 11.1875 0.5 
Q 4.796875 12.09375 4.796875 25.203125 
Q 4.796875 52.90625 29.5 67.59375 
L 30.40625 66 
Q 20.203125 57.296875 16.796875 48.84375 
Q 13.40625 40.40625 13.40625 25.5 
Q 13.40625 10.703125 16.90625 1.5 
Q 20.40625 -7.703125 30.40625 -16.09375 
z
" id="STIXGeneral-Regular-40"/>
      <path d="M 29.59375 42.796875 
L 29.09375 39.59375 
L 20.703125 39.59375 
L 12 6.796875 
Q 11.796875 6 11.796875 5.40625 
Q 11.796875 3.796875 13.296875 3.796875 
Q 14.5 3.796875 16.09375 5.34375 
Q 17.703125 6.90625 21.40625 11.703125 
L 22.703125 11 
Q 18.09375 4 15.140625 1.453125 
Q 12.203125 -1.09375 8.40625 -1.09375 
Q 3.796875 -1.09375 3.796875 2.59375 
Q 3.796875 3.59375 5.40625 10 
L 13.203125 39.59375 
L 5.703125 39.59375 
L 5.59375 40.203125 
Q 5.59375 42 8.90625 42.703125 
Q 11.40625 43.296875 15.5 46.546875 
Q 19.59375 49.796875 22.203125 53.703125 
Q 22.796875 54.59375 23.59375 54.59375 
Q 24.5 54.59375 24.5 53.796875 
Q 24.5 53.296875 24.40625 53.09375 
L 21.59375 42.796875 
z
" id="STIXGeneral-Italic-116"/>
      <path d="M 2.90625 66 
L 4.09375 67.59375 
Q 15.5 60.796875 22 49.1875 
Q 28.5 37.59375 28.5 24.703125 
Q 28.5 -2.59375 3.796875 -17.703125 
L 2.90625 -16.09375 
Q 13.203125 -7.59375 16.546875 0.84375 
Q 19.90625 9.296875 19.90625 24.40625 
Q 19.90625 39.59375 16.546875 48.75 
Q 13.203125 57.90625 2.90625 66 
z
" id="STIXGeneral-Regular-41"/>
     </defs>
     <use transform="translate(0 0.40625)" xlink:href="#STIXGeneral-Italic-65"/>
     <use transform="translate(61.099991 0.40625)" xlink:href="#STIXGeneral-Regular-40"/>
     <use transform="translate(94.399979 0.40625)" xlink:href="#STIXGeneral-Italic-116"/>
     <use transform="translate(122.199966 0.40625)" xlink:href="#STIXGeneral-Regular-41"/>
    </g>
   </g>
   <g id="legend_1">
    <g id="line2d_11">
     <path d="M 446.65125 58.451688 
L 498.65125 58.451688 
" style="fill:none;stroke:#1f77b4;stroke-linecap:square;stroke-width:1.5;"/>
    </g>
    <g id="line2d_12"/>
    <g id="text_12">
     <!-- exact -->
     <g transform="translate(519.45125 67.551688)scale(0.26 -0.26)">
      <defs>
       <path d="M 54.890625 54.6875 
L 35.109375 28.078125 
L 55.90625 0 
L 45.3125 0 
L 29.390625 21.484375 
L 13.484375 0 
L 2.875 0 
L 24.125 28.609375 
L 4.6875 54.6875 
L 15.28125 54.6875 
L 29.78125 35.203125 
L 44.28125 54.6875 
z
" id="DejaVuSans-120"/>
       <path d="M 48.78125 52.59375 
L 48.78125 44.1875 
Q 44.96875 46.296875 41.140625 47.34375 
Q 37.3125 48.390625 33.40625 48.390625 
Q 24.65625 48.390625 19.8125 42.84375 
Q 14.984375 37.3125 14.984375 27.296875 
Q 14.984375 17.28125 19.8125 11.734375 
Q 24.65625 6.203125 33.40625 6.203125 
Q 37.3125 6.203125 41.140625 7.25 
Q 44.96875 8.296875 48.78125 10.40625 
L 48.78125 2.09375 
Q 45.015625 0.34375 40.984375 -0.53125 
Q 36.96875 -1.421875 32.421875 -1.421875 
Q 20.0625 -1.421875 12.78125 6.34375 
Q 5.515625 14.109375 5.515625 27.296875 
Q 5.515625 40.671875 12.859375 48.328125 
Q 20.21875 56 33.015625 56 
Q 37.15625 56 41.109375 55.140625 
Q 45.0625 54.296875 48.78125 52.59375 
z
" id="DejaVuSans-99"/>
      </defs>
      <use xlink:href="#DejaVuSans-101"/>
      <use x="59.773438" xlink:href="#DejaVuSans-120"/>
      <use x="118.953125" xlink:href="#DejaVuSans-97"/>
      <use x="180.232422" xlink:href="#DejaVuSans-99"/>
      <use x="235.212891" xlink:href="#DejaVuSans-116"/>
     </g>
    </g>
    <g id="line2d_13">
     <path d="M 446.65125 96.614813 
L 498.65125 96.614813 
" style="fill:none;stroke:#ff7f0e;stroke-linecap:square;stroke-width:1.5;"/>
    </g>
    <g id="line2d_14"/>
    <g id="text_13">
     <!-- estimated -->
     <g transform="translate(519.45125 105.714813)scale(0.26 -0.26)">
      <use xlink:href="#DejaVuSans-101"/>
      <use x="61.523438" xlink:href="#DejaVuSans-115"/>
      <use x="113.623047" xlink:href="#DejaVuSans-116"/>
      <use x="152.832031" xlink:href="#DejaVuSans-105"/>
      <use x="180.615234" xlink:href="#DejaVuSans-109"/>
      <use x="278.027344" xlink:href="#DejaVuSans-97"/>
      <use x="339.306641" xlink:href="#DejaVuSans-116"/>
      <use x="378.515625" xlink:href="#DejaVuSans-101"/>
      <use x="440.039062" xlink:href="#DejaVuSans-100"/>
     </g>
    </g>
   </g>
  </g>
 </g>
 <defs>
  <clipPath id="p793b412d76">
   <rect height="217.44" width="334.8" x="84.71125" y="37.39575"/>
  </clipPath>
 </defs>
</svg>
