<?xml version="1.0" encoding="utf-8" standalone="no"?>
<!DOCTYPE svg PUBLIC "-//W3C//DTD SVG 1.1//EN"
  "http://www.w3.org/Graphics/SVG/1.1/DTD/svg11.dtd">
<!-- Created with matplotlib (https://matplotlib.org/) -->
<svg height="319.550562pt" version="1.1" viewBox="0 0 636.570312 319.550562" width="636.570312pt" xmlns="http://www.w3.org/2000/svg" xmlns:xlink="http://www.w3.org/1999/xlink">
 <defs>
  <style type="text/css">
*{stroke-linecap:butt;stroke-linejoin:round;}
  </style>
 </defs>
 <g id="figure_1">
  <g id="patch_1">
   <path d="M 0 319.550562 
L 636.570312 319.550562 
L 636.570312 0 
L 0 0 
z
" style="fill:#ffffff;"/>
  </g>
  <g id="axes_1">
   <g id="patch_2">
    <path d="M 71.51625 253.173375 
L 406.31625 253.173375 
L 406.31625 35.733375 
L 71.51625 35.733375 
z
" style="fill:#ffffff;"/>
   </g>
   <g id="line2d_1">
    <path clip-path="url(#p38da92ef90)" d="M 86.734432 222.110518 
L 391.098068 222.110518 
L 391.098068 222.110518 
" style="fill:none;stroke:#1f77b4;stroke-linecap:square;stroke-width:1.5;"/>
   </g>
   <g id="matplotlib.axis_1">
    <g id="xtick_1">
     <g id="line2d_2">
      <defs>
       <path d="M 0 0 
L 0 3.5 
" id="m0440ab3d76" style="stroke:#000000;stroke-width:0.8;"/>
      </defs>
      <g>
       <use style="stroke:#000000;stroke-width:0.8;" x="86.734432" xlink:href="#m0440ab3d76" y="253.173375"/>
      </g>
     </g>
     <g id="text_1">
      <!-- 0 -->
      <defs>
       <path d="M 4.15625 35.296875 
Q 4.15625 48 6.765625 55.734375 
Q 9.375 63.484375 14.515625 67.671875 
Q 19.671875 71.875 27.484375 71.875 
Q 33.25 71.875 37.59375 69.546875 
Q 41.9375 67.234375 44.765625 62.859375 
Q 47.609375 58.5 49.21875 52.21875 
Q 50.828125 45.953125 50.828125 35.296875 
Q 50.828125 22.703125 48.234375 14.96875 
Q 45.65625 7.234375 40.5 3 
Q 35.359375 -1.21875 27.484375 -1.21875 
Q 17.140625 -1.21875 11.234375 6.203125 
Q 4.15625 15.140625 4.15625 35.296875 
z
M 13.1875 35.296875 
Q 13.1875 17.671875 17.3125 11.828125 
Q 21.4375 6 27.484375 6 
Q 33.546875 6 37.671875 11.859375 
Q 41.796875 17.71875 41.796875 35.296875 
Q 41.796875 52.984375 37.671875 58.78125 
Q 33.546875 64.59375 27.390625 64.59375 
Q 21.34375 64.59375 17.71875 59.46875 
Q 13.1875 52.9375 13.1875 35.296875 
z
" id="ArialMT-48"/>
      </defs>
      <g transform="translate(79.505213 278.783687)scale(0.26 -0.26)">
       <use xlink:href="#ArialMT-48"/>
      </g>
     </g>
    </g>
    <g id="xtick_2">
     <g id="line2d_3">
      <g>
       <use style="stroke:#000000;stroke-width:0.8;" x="188.205889" xlink:href="#m0440ab3d76" y="253.173375"/>
      </g>
     </g>
     <g id="text_2">
      <!-- 2 -->
      <defs>
       <path d="M 50.34375 8.453125 
L 50.34375 0 
L 3.03125 0 
Q 2.9375 3.171875 4.046875 6.109375 
Q 5.859375 10.9375 9.828125 15.625 
Q 13.8125 20.3125 21.34375 26.46875 
Q 33.015625 36.03125 37.109375 41.625 
Q 41.21875 47.21875 41.21875 52.203125 
Q 41.21875 57.421875 37.46875 61 
Q 33.734375 64.59375 27.734375 64.59375 
Q 21.390625 64.59375 17.578125 60.78125 
Q 13.765625 56.984375 13.71875 50.25 
L 4.6875 51.171875 
Q 5.609375 61.28125 11.65625 66.578125 
Q 17.71875 71.875 27.9375 71.875 
Q 38.234375 71.875 44.234375 66.15625 
Q 50.25 60.453125 50.25 52 
Q 50.25 47.703125 48.484375 43.546875 
Q 46.734375 39.40625 42.65625 34.8125 
Q 38.578125 30.21875 29.109375 22.21875 
Q 21.1875 15.578125 18.9375 13.203125 
Q 16.703125 10.84375 15.234375 8.453125 
z
" id="ArialMT-50"/>
      </defs>
      <g transform="translate(180.97667 278.783687)scale(0.26 -0.26)">
       <use xlink:href="#ArialMT-50"/>
      </g>
     </g>
    </g>
    <g id="xtick_3">
     <g id="line2d_4">
      <g>
       <use style="stroke:#000000;stroke-width:0.8;" x="289.677347" xlink:href="#m0440ab3d76" y="253.173375"/>
      </g>
     </g>
     <g id="text_3">
      <!-- 4 -->
      <defs>
       <path d="M 32.328125 0 
L 32.328125 17.140625 
L 1.265625 17.140625 
L 1.265625 25.203125 
L 33.9375 71.578125 
L 41.109375 71.578125 
L 41.109375 25.203125 
L 50.78125 25.203125 
L 50.78125 17.140625 
L 41.109375 17.140625 
L 41.109375 0 
z
M 32.328125 25.203125 
L 32.328125 57.46875 
L 9.90625 25.203125 
z
" id="ArialMT-52"/>
      </defs>
      <g transform="translate(282.448128 278.783687)scale(0.26 -0.26)">
       <use xlink:href="#ArialMT-52"/>
      </g>
     </g>
    </g>
    <g id="xtick_4">
     <g id="line2d_5">
      <g>
       <use style="stroke:#000000;stroke-width:0.8;" x="391.148804" xlink:href="#m0440ab3d76" y="253.173375"/>
      </g>
     </g>
     <g id="text_4">
      <!-- 6 -->
      <defs>
       <path d="M 49.75 54.046875 
L 41.015625 53.375 
Q 39.84375 58.546875 37.703125 60.890625 
Q 34.125 64.65625 28.90625 64.65625 
Q 24.703125 64.65625 21.53125 62.3125 
Q 17.390625 59.28125 14.984375 53.46875 
Q 12.59375 47.65625 12.5 36.921875 
Q 15.671875 41.75 20.265625 44.09375 
Q 24.859375 46.4375 29.890625 46.4375 
Q 38.671875 46.4375 44.84375 39.96875 
Q 51.03125 33.5 51.03125 23.25 
Q 51.03125 16.5 48.125 10.71875 
Q 45.21875 4.9375 40.140625 1.859375 
Q 35.0625 -1.21875 28.609375 -1.21875 
Q 17.625 -1.21875 10.6875 6.859375 
Q 3.765625 14.9375 3.765625 33.5 
Q 3.765625 54.25 11.421875 63.671875 
Q 18.109375 71.875 29.4375 71.875 
Q 37.890625 71.875 43.28125 67.140625 
Q 48.6875 62.40625 49.75 54.046875 
z
M 13.875 23.1875 
Q 13.875 18.65625 15.796875 14.5 
Q 17.71875 10.359375 21.1875 8.171875 
Q 24.65625 6 28.46875 6 
Q 34.03125 6 38.03125 10.484375 
Q 42.046875 14.984375 42.046875 22.703125 
Q 42.046875 30.125 38.078125 34.390625 
Q 34.125 38.671875 28.125 38.671875 
Q 22.171875 38.671875 18.015625 34.390625 
Q 13.875 30.125 13.875 23.1875 
z
" id="ArialMT-54"/>
      </defs>
      <g transform="translate(383.919585 278.783687)scale(0.26 -0.26)">
       <use xlink:href="#ArialMT-54"/>
      </g>
     </g>
    </g>
    <g id="text_5">
     <!-- time (s) -->
     <defs>
      <path d="M 25.78125 7.859375 
L 27.046875 0.09375 
Q 23.34375 -0.6875 20.40625 -0.6875 
Q 15.625 -0.6875 12.984375 0.828125 
Q 10.359375 2.34375 9.28125 4.8125 
Q 8.203125 7.28125 8.203125 15.1875 
L 8.203125 45.015625 
L 1.765625 45.015625 
L 1.765625 51.859375 
L 8.203125 51.859375 
L 8.203125 64.703125 
L 16.9375 69.96875 
L 16.9375 51.859375 
L 25.78125 51.859375 
L 25.78125 45.015625 
L 16.9375 45.015625 
L 16.9375 14.703125 
Q 16.9375 10.9375 17.40625 9.859375 
Q 17.875 8.796875 18.921875 8.15625 
Q 19.96875 7.515625 21.921875 7.515625 
Q 23.390625 7.515625 25.78125 7.859375 
z
" id="ArialMT-116"/>
      <path d="M 6.640625 61.46875 
L 6.640625 71.578125 
L 15.4375 71.578125 
L 15.4375 61.46875 
z
M 6.640625 0 
L 6.640625 51.859375 
L 15.4375 51.859375 
L 15.4375 0 
z
" id="ArialMT-105"/>
      <path d="M 6.59375 0 
L 6.59375 51.859375 
L 14.453125 51.859375 
L 14.453125 44.578125 
Q 16.890625 48.390625 20.9375 50.703125 
Q 25 53.03125 30.171875 53.03125 
Q 35.9375 53.03125 39.625 50.640625 
Q 43.3125 48.25 44.828125 43.953125 
Q 50.984375 53.03125 60.84375 53.03125 
Q 68.5625 53.03125 72.703125 48.75 
Q 76.859375 44.484375 76.859375 35.59375 
L 76.859375 0 
L 68.109375 0 
L 68.109375 32.671875 
Q 68.109375 37.9375 67.25 40.25 
Q 66.40625 42.578125 64.15625 43.984375 
Q 61.921875 45.40625 58.890625 45.40625 
Q 53.421875 45.40625 49.796875 41.765625 
Q 46.1875 38.140625 46.1875 30.125 
L 46.1875 0 
L 37.40625 0 
L 37.40625 33.6875 
Q 37.40625 39.546875 35.25 42.46875 
Q 33.109375 45.40625 28.21875 45.40625 
Q 24.515625 45.40625 21.359375 43.453125 
Q 18.21875 41.5 16.796875 37.734375 
Q 15.375 33.984375 15.375 26.90625 
L 15.375 0 
z
" id="ArialMT-109"/>
      <path d="M 42.09375 16.703125 
L 51.171875 15.578125 
Q 49.03125 7.625 43.21875 3.21875 
Q 37.40625 -1.171875 28.375 -1.171875 
Q 17 -1.171875 10.328125 5.828125 
Q 3.65625 12.84375 3.65625 25.484375 
Q 3.65625 38.578125 10.390625 45.796875 
Q 17.140625 53.03125 27.875 53.03125 
Q 38.28125 53.03125 44.875 45.953125 
Q 51.46875 38.875 51.46875 26.03125 
Q 51.46875 25.25 51.421875 23.6875 
L 12.75 23.6875 
Q 13.234375 15.140625 17.578125 10.59375 
Q 21.921875 6.0625 28.421875 6.0625 
Q 33.25 6.0625 36.671875 8.59375 
Q 40.09375 11.140625 42.09375 16.703125 
z
M 13.234375 30.90625 
L 42.1875 30.90625 
Q 41.609375 37.453125 38.875 40.71875 
Q 34.671875 45.796875 27.984375 45.796875 
Q 21.921875 45.796875 17.796875 41.75 
Q 13.671875 37.703125 13.234375 30.90625 
z
" id="ArialMT-101"/>
      <path id="ArialMT-32"/>
      <path d="M 23.390625 -21.046875 
Q 16.109375 -11.859375 11.078125 0.4375 
Q 6.0625 12.75 6.0625 25.921875 
Q 6.0625 37.546875 9.8125 48.1875 
Q 14.203125 60.546875 23.390625 72.796875 
L 29.6875 72.796875 
Q 23.78125 62.640625 21.875 58.296875 
Q 18.890625 51.5625 17.1875 44.234375 
Q 15.09375 35.109375 15.09375 25.875 
Q 15.09375 2.390625 29.6875 -21.046875 
z
" id="ArialMT-40"/>
      <path d="M 3.078125 15.484375 
L 11.765625 16.84375 
Q 12.5 11.625 15.84375 8.84375 
Q 19.1875 6.0625 25.203125 6.0625 
Q 31.25 6.0625 34.171875 8.515625 
Q 37.109375 10.984375 37.109375 14.3125 
Q 37.109375 17.28125 34.515625 19 
Q 32.71875 20.171875 25.53125 21.96875 
Q 15.875 24.421875 12.140625 26.203125 
Q 8.40625 27.984375 6.46875 31.125 
Q 4.546875 34.28125 4.546875 38.09375 
Q 4.546875 41.546875 6.125 44.5 
Q 7.71875 47.46875 10.453125 49.421875 
Q 12.5 50.921875 16.03125 51.96875 
Q 19.578125 53.03125 23.640625 53.03125 
Q 29.734375 53.03125 34.34375 51.265625 
Q 38.96875 49.515625 41.15625 46.5 
Q 43.359375 43.5 44.1875 38.484375 
L 35.59375 37.3125 
Q 35.015625 41.3125 32.203125 43.546875 
Q 29.390625 45.796875 24.265625 45.796875 
Q 18.21875 45.796875 15.625 43.796875 
Q 13.03125 41.796875 13.03125 39.109375 
Q 13.03125 37.40625 14.109375 36.03125 
Q 15.1875 34.625 17.484375 33.6875 
Q 18.796875 33.203125 25.25 31.453125 
Q 34.578125 28.953125 38.25 27.359375 
Q 41.9375 25.78125 44.03125 22.75 
Q 46.140625 19.734375 46.140625 15.234375 
Q 46.140625 10.84375 43.578125 6.953125 
Q 41.015625 3.078125 36.171875 0.953125 
Q 31.34375 -1.171875 25.25 -1.171875 
Q 15.140625 -1.171875 9.84375 3.03125 
Q 4.546875 7.234375 3.078125 15.484375 
z
" id="ArialMT-115"/>
      <path d="M 12.359375 -21.046875 
L 6.0625 -21.046875 
Q 20.65625 2.390625 20.65625 25.875 
Q 20.65625 35.0625 18.5625 44.09375 
Q 16.890625 51.421875 13.921875 58.15625 
Q 12.015625 62.546875 6.0625 72.796875 
L 12.359375 72.796875 
Q 21.53125 60.546875 25.921875 48.1875 
Q 29.6875 37.546875 29.6875 25.921875 
Q 29.6875 12.75 24.625 0.4375 
Q 19.578125 -11.859375 12.359375 -21.046875 
z
" id="ArialMT-41"/>
     </defs>
     <g transform="translate(195.589688 306.878375)scale(0.26 -0.26)">
      <use xlink:href="#ArialMT-116"/>
      <use x="27.783203" xlink:href="#ArialMT-105"/>
      <use x="50" xlink:href="#ArialMT-109"/>
      <use x="133.300781" xlink:href="#ArialMT-101"/>
      <use x="188.916016" xlink:href="#ArialMT-32"/>
      <use x="216.699219" xlink:href="#ArialMT-40"/>
      <use x="250" xlink:href="#ArialMT-115"/>
      <use x="300" xlink:href="#ArialMT-41"/>
     </g>
    </g>
   </g>
   <g id="matplotlib.axis_2">
    <g id="ytick_1">
     <g id="line2d_6">
      <defs>
       <path d="M 0 0 
L -3.5 0 
" id="mae8ff8b1c1" style="stroke:#000000;stroke-width:0.8;"/>
      </defs>
      <g>
       <use style="stroke:#000000;stroke-width:0.8;" x="71.51625" xlink:href="#mae8ff8b1c1" y="222.110518"/>
      </g>
     </g>
     <g id="text_6">
      <!-- 50 -->
      <defs>
       <path d="M 4.15625 18.75 
L 13.375 19.53125 
Q 14.40625 12.796875 18.140625 9.390625 
Q 21.875 6 27.15625 6 
Q 33.5 6 37.890625 10.78125 
Q 42.28125 15.578125 42.28125 23.484375 
Q 42.28125 31 38.0625 35.34375 
Q 33.84375 39.703125 27 39.703125 
Q 22.75 39.703125 19.328125 37.765625 
Q 15.921875 35.84375 13.96875 32.765625 
L 5.71875 33.84375 
L 12.640625 70.609375 
L 48.25 70.609375 
L 48.25 62.203125 
L 19.671875 62.203125 
L 15.828125 42.96875 
Q 22.265625 47.46875 29.34375 47.46875 
Q 38.71875 47.46875 45.15625 40.96875 
Q 51.609375 34.46875 51.609375 24.265625 
Q 51.609375 14.546875 45.953125 7.46875 
Q 39.0625 -1.21875 27.15625 -1.21875 
Q 17.390625 -1.21875 11.203125 4.25 
Q 5.03125 9.71875 4.15625 18.75 
z
" id="ArialMT-53"/>
      </defs>
      <g transform="translate(35.599375 231.415674)scale(0.26 -0.26)">
       <use xlink:href="#ArialMT-53"/>
       <use x="55.615234" xlink:href="#ArialMT-48"/>
      </g>
     </g>
    </g>
    <g id="ytick_2">
     <g id="line2d_7">
      <g>
       <use style="stroke:#000000;stroke-width:0.8;" x="71.51625" xlink:href="#mae8ff8b1c1" y="159.984804"/>
      </g>
     </g>
     <g id="text_7">
      <!-- 52 -->
      <g transform="translate(35.599375 169.28996)scale(0.26 -0.26)">
       <use xlink:href="#ArialMT-53"/>
       <use x="55.615234" xlink:href="#ArialMT-50"/>
      </g>
     </g>
    </g>
    <g id="ytick_3">
     <g id="line2d_8">
      <g>
       <use style="stroke:#000000;stroke-width:0.8;" x="71.51625" xlink:href="#mae8ff8b1c1" y="97.859089"/>
      </g>
     </g>
     <g id="text_8">
      <!-- 54 -->
      <g transform="translate(35.599375 107.164246)scale(0.26 -0.26)">
       <use xlink:href="#ArialMT-53"/>
       <use x="55.615234" xlink:href="#ArialMT-52"/>
      </g>
     </g>
    </g>
    <g id="ytick_4">
     <g id="line2d_9">
      <g>
       <use style="stroke:#000000;stroke-width:0.8;" x="71.51625" xlink:href="#mae8ff8b1c1" y="35.733375"/>
      </g>
     </g>
     <g id="text_9">
      <!-- 56 -->
      <g transform="translate(35.599375 45.038531)scale(0.26 -0.26)">
       <use xlink:href="#ArialMT-53"/>
       <use x="55.615234" xlink:href="#ArialMT-54"/>
      </g>
     </g>
    </g>
    <g id="text_10">
     <!-- amplitude (a.u.) -->
     <defs>
      <path d="M 40.4375 6.390625 
Q 35.546875 2.25 31.03125 0.53125 
Q 26.515625 -1.171875 21.34375 -1.171875 
Q 12.796875 -1.171875 8.203125 3 
Q 3.609375 7.171875 3.609375 13.671875 
Q 3.609375 17.484375 5.34375 20.625 
Q 7.078125 23.78125 9.890625 25.6875 
Q 12.703125 27.59375 16.21875 28.5625 
Q 18.796875 29.25 24.03125 29.890625 
Q 34.671875 31.15625 39.703125 32.90625 
Q 39.75 34.71875 39.75 35.203125 
Q 39.75 40.578125 37.25 42.78125 
Q 33.890625 45.75 27.25 45.75 
Q 21.046875 45.75 18.09375 43.578125 
Q 15.140625 41.40625 13.71875 35.890625 
L 5.125 37.0625 
Q 6.296875 42.578125 8.984375 45.96875 
Q 11.671875 49.359375 16.75 51.1875 
Q 21.828125 53.03125 28.515625 53.03125 
Q 35.15625 53.03125 39.296875 51.46875 
Q 43.453125 49.90625 45.40625 47.53125 
Q 47.359375 45.171875 48.140625 41.546875 
Q 48.578125 39.3125 48.578125 33.453125 
L 48.578125 21.734375 
Q 48.578125 9.46875 49.140625 6.21875 
Q 49.703125 2.984375 51.375 0 
L 42.1875 0 
Q 40.828125 2.734375 40.4375 6.390625 
z
M 39.703125 26.03125 
Q 34.90625 24.078125 25.34375 22.703125 
Q 19.921875 21.921875 17.671875 20.9375 
Q 15.4375 19.96875 14.203125 18.09375 
Q 12.984375 16.21875 12.984375 13.921875 
Q 12.984375 10.40625 15.640625 8.0625 
Q 18.3125 5.71875 23.4375 5.71875 
Q 28.515625 5.71875 32.46875 7.9375 
Q 36.421875 10.15625 38.28125 14.015625 
Q 39.703125 17 39.703125 22.796875 
z
" id="ArialMT-97"/>
      <path d="M 6.59375 -19.875 
L 6.59375 51.859375 
L 14.59375 51.859375 
L 14.59375 45.125 
Q 17.4375 49.078125 21 51.046875 
Q 24.5625 53.03125 29.640625 53.03125 
Q 36.28125 53.03125 41.359375 49.609375 
Q 46.4375 46.1875 49.015625 39.953125 
Q 51.609375 33.734375 51.609375 26.3125 
Q 51.609375 18.359375 48.75 11.984375 
Q 45.90625 5.609375 40.453125 2.21875 
Q 35.015625 -1.171875 29 -1.171875 
Q 24.609375 -1.171875 21.109375 0.6875 
Q 17.625 2.546875 15.375 5.375 
L 15.375 -19.875 
z
M 14.546875 25.640625 
Q 14.546875 15.625 18.59375 10.84375 
Q 22.65625 6.0625 28.421875 6.0625 
Q 34.28125 6.0625 38.453125 11.015625 
Q 42.625 15.96875 42.625 26.375 
Q 42.625 36.28125 38.546875 41.203125 
Q 34.46875 46.140625 28.8125 46.140625 
Q 23.1875 46.140625 18.859375 40.890625 
Q 14.546875 35.640625 14.546875 25.640625 
z
" id="ArialMT-112"/>
      <path d="M 6.390625 0 
L 6.390625 71.578125 
L 15.1875 71.578125 
L 15.1875 0 
z
" id="ArialMT-108"/>
      <path d="M 40.578125 0 
L 40.578125 7.625 
Q 34.515625 -1.171875 24.125 -1.171875 
Q 19.53125 -1.171875 15.546875 0.578125 
Q 11.578125 2.34375 9.640625 5 
Q 7.71875 7.671875 6.9375 11.53125 
Q 6.390625 14.109375 6.390625 19.734375 
L 6.390625 51.859375 
L 15.1875 51.859375 
L 15.1875 23.09375 
Q 15.1875 16.21875 15.71875 13.8125 
Q 16.546875 10.359375 19.234375 8.375 
Q 21.921875 6.390625 25.875 6.390625 
Q 29.828125 6.390625 33.296875 8.421875 
Q 36.765625 10.453125 38.203125 13.9375 
Q 39.65625 17.4375 39.65625 24.078125 
L 39.65625 51.859375 
L 48.4375 51.859375 
L 48.4375 0 
z
" id="ArialMT-117"/>
      <path d="M 40.234375 0 
L 40.234375 6.546875 
Q 35.296875 -1.171875 25.734375 -1.171875 
Q 19.53125 -1.171875 14.328125 2.25 
Q 9.125 5.671875 6.265625 11.796875 
Q 3.421875 17.921875 3.421875 25.875 
Q 3.421875 33.640625 6 39.96875 
Q 8.59375 46.296875 13.765625 49.65625 
Q 18.953125 53.03125 25.34375 53.03125 
Q 30.03125 53.03125 33.6875 51.046875 
Q 37.359375 49.078125 39.65625 45.90625 
L 39.65625 71.578125 
L 48.390625 71.578125 
L 48.390625 0 
z
M 12.453125 25.875 
Q 12.453125 15.921875 16.640625 10.984375 
Q 20.84375 6.0625 26.5625 6.0625 
Q 32.328125 6.0625 36.34375 10.765625 
Q 40.375 15.484375 40.375 25.140625 
Q 40.375 35.796875 36.265625 40.765625 
Q 32.171875 45.75 26.171875 45.75 
Q 20.3125 45.75 16.375 40.96875 
Q 12.453125 36.1875 12.453125 25.875 
z
" id="ArialMT-100"/>
      <path d="M 9.078125 0 
L 9.078125 10.015625 
L 19.09375 10.015625 
L 19.09375 0 
z
" id="ArialMT-46"/>
     </defs>
     <g transform="translate(26.127188 234.766812)rotate(-90)scale(0.26 -0.26)">
      <use xlink:href="#ArialMT-97"/>
      <use x="55.615234" xlink:href="#ArialMT-109"/>
      <use x="138.916016" xlink:href="#ArialMT-112"/>
      <use x="194.53125" xlink:href="#ArialMT-108"/>
      <use x="216.748047" xlink:href="#ArialMT-105"/>
      <use x="238.964844" xlink:href="#ArialMT-116"/>
      <use x="266.748047" xlink:href="#ArialMT-117"/>
      <use x="322.363281" xlink:href="#ArialMT-100"/>
      <use x="377.978516" xlink:href="#ArialMT-101"/>
      <use x="433.59375" xlink:href="#ArialMT-32"/>
      <use x="461.376953" xlink:href="#ArialMT-40"/>
      <use x="494.677734" xlink:href="#ArialMT-97"/>
      <use x="550.292969" xlink:href="#ArialMT-46"/>
      <use x="578.076172" xlink:href="#ArialMT-117"/>
      <use x="633.691406" xlink:href="#ArialMT-46"/>
      <use x="661.474609" xlink:href="#ArialMT-41"/>
     </g>
    </g>
   </g>
   <g id="line2d_10">
    <path clip-path="url(#p38da92ef90)" d="M 86.734432 222.110518 
L 97.744085 222.000537 
L 103.172808 221.932402 
L 104.491937 221.87068 
L 114.79129 221.708251 
L 118.545734 221.673695 
L 119.103827 221.635558 
L 120.118541 221.63166 
L 121.539142 221.616531 
L 121.945028 221.56453 
L 124.836964 221.556799 
L 125.648736 221.542289 
L 130.012008 221.432694 
L 130.722309 221.439669 
L 132.041438 221.332743 
L 136.151032 221.162664 
L 136.506182 221.138054 
L 145.638613 220.881697 
L 146.14597 220.746964 
L 146.602592 220.700377 
L 146.907006 220.704019 
L 153.401179 220.632249 
L 154.162215 220.598878 
L 155.684287 220.404257 
L 157.003416 220.363914 
L 157.815188 220.39439 
L 162.53361 220.248121 
L 162.939496 220.265992 
L 167.04909 220.073549 
L 167.302769 220.077369 
L 168.368219 220.006682 
L 168.723369 220.013602 
L 170.346913 219.871193 
L 171.56457 219.912292 
L 171.91972 219.905132 
L 173.746207 219.778949 
L 174.355035 219.789237 
L 174.760921 219.700465 
L 175.065335 219.63939 
L 178.210951 219.630882 
L 178.464629 219.610641 
L 179.733022 219.606208 
L 182.269809 219.644984 
L 182.574223 219.590754 
L 183.183052 219.47294 
L 185.669103 219.422614 
L 186.328667 219.455454 
L 186.734553 219.359493 
L 188.002946 219.315323 
L 188.205889 219.307158 
L 188.408832 219.306438 
L 188.662511 218.990799 
L 189.372811 217.650463 
L 189.677225 217.499163 
L 190.235318 217.514902 
L 191.351504 217.894953 
L 191.554447 217.897297 
L 191.706654 217.832458 
L 193.279462 216.168213 
L 194.243441 216.078025 
L 194.801534 216.05566 
L 195.461098 216.052631 
L 196.526549 215.990969 
L 197.135377 215.473772 
L 197.490528 215.080197 
L 197.845678 214.907414 
L 200.940557 214.814838 
L 201.1435 214.762465 
L 201.397179 214.635742 
L 201.701593 214.520234 
L 202.259686 214.189649 
L 202.513365 213.888976 
L 203.071458 213.813859 
L 205.456037 213.849326 
L 206.36928 213.458447 
L 206.521487 213.478425 
L 206.978109 213.372238 
L 207.130316 213.317711 
L 207.333259 213.272994 
L 207.78988 212.848824 
L 210.631081 212.909401 
L 211.442853 212.426741 
L 211.798003 212.191884 
L 211.95021 212.170907 
L 212.66051 212.327108 
L 213.117132 212.287038 
L 214.588468 212.302087 
L 215.704654 212.215084 
L 216.161276 212.07283 
L 216.313483 212.047822 
L 217.53114 211.57563 
L 217.784819 211.60311 
L 218.038498 211.478017 
L 218.698062 211.484832 
L 219.56057 211.446662 
L 220.473813 211.416735 
L 221.133377 211.463596 
L 221.33632 211.451258 
L 221.742206 211.347924 
L 221.995884 211.101031 
L 222.807656 210.486878 
L 222.959863 210.429345 
L 223.213542 210.328298 
L 226.91725 210.135567 
L 227.069457 210.083625 
L 227.2724 210.047173 
L 227.526079 209.893548 
L 227.729022 209.817137 
L 228.287115 209.351953 
L 230.01213 209.393418 
L 231.483466 209.299734 
L 231.78788 209.241235 
L 231.889352 209.230078 
L 232.092294 209.065398 
L 232.904066 208.834909 
L 233.056273 208.845512 
L 233.259216 208.703092 
L 233.512895 208.644697 
L 234.679817 208.661872 
L 236.201889 208.654741 
L 236.65851 208.680351 
L 237.216603 208.417204 
L 237.419546 208.260795 
L 237.673225 208.157698 
L 237.926903 207.906833 
L 238.535732 207.556082 
L 240.46369 207.583408 
L 243.000476 207.282908 
L 243.101948 207.209398 
L 243.254155 206.957458 
L 243.406362 206.86725 
L 243.964455 206.867833 
L 246.907127 206.841938 
L 247.718899 206.296648 
L 248.17552 206.297183 
L 248.530671 206.052859 
L 248.835085 206.033863 
L 249.545385 206.04583 
L 252.234379 205.72744 
L 252.386586 205.682989 
L 252.691 205.756635 
L 252.843208 205.681616 
L 253.04615 205.676044 
L 253.452036 205.134862 
L 254.060865 205.133844 
L 255.024844 205.116748 
L 255.582937 205.089996 
L 256.191766 205.021818 
L 257.713837 204.902048 
L 257.91678 204.991839 
L 258.27193 204.939819 
L 258.576345 204.576183 
L 258.830024 204.537578 
L 261.72196 204.581591 
L 261.924903 204.534021 
L 262.127846 204.523369 
L 262.381525 204.390037 
L 262.482996 204.430041 
L 263.041089 204.023133 
L 264.157275 203.755419 
L 264.867575 203.850898 
L 265.88229 203.826937 
L 267.353626 203.720067 
L 267.708776 203.458344 
L 268.063926 203.447358 
L 268.774226 202.958721 
L 269.788941 203.022042 
L 271.919842 202.906809 
L 273.23897 202.660999 
L 273.644856 202.839066 
L 274.101478 202.771384 
L 275.62355 202.816856 
L 276.486057 202.788916 
L 277.297829 202.733616 
L 278.1096 202.352722 
L 278.464751 202.072551 
L 278.566222 202.014395 
L 278.769165 201.816193 
L 278.870636 201.764207 
L 279.175051 201.688192 
L 280.798594 201.555684 
L 281.20448 201.53221 
L 282.168459 201.43433 
L 283.386116 201.181734 
L 283.487588 201.217845 
L 283.741266 201.088968 
L 284.096416 201.008929 
L 284.350095 200.937363 
L 288.104539 200.980671 
L 288.510425 200.478375 
L 288.611896 200.379921 
L 289.322196 199.467147 
L 293.178112 199.375992 
L 293.43179 199.306581 
L 293.736205 199.390335 
L 293.888412 199.512264 
L 293.989883 199.622374 
L 294.040619 199.568596 
L 294.192826 199.51886 
L 295.81637 199.587945 
L 296.070048 199.548897 
L 296.780349 199.533524 
L 298.150213 199.335439 
L 298.353156 199.176949 
L 298.505363 199.10964 
L 298.809778 198.937699 
L 298.911249 198.890705 
L 299.418606 198.506195 
L 300.027435 198.50976 
L 300.737735 198.501056 
L 301.904657 198.428661 
L 303.071579 198.348577 
L 303.274522 198.382649 
L 303.5282 198.127493 
L 304.898065 197.536134 
L 305.963515 197.61813 
L 307.028966 197.643548 
L 308.145152 197.439928 
L 308.956923 196.728015 
L 309.312074 196.54069 
L 309.464281 196.527009 
L 312.965046 196.474048 
L 313.472403 196.234649 
L 313.62461 196.392335 
L 313.726082 196.264769 
L 313.827553 196.352834 
L 313.878289 196.317712 
L 314.334911 195.976105 
L 315.197418 196.022457 
L 315.958454 196.011842 
L 316.820961 195.935478 
L 317.886412 195.972802 
L 318.190826 196.005277 
L 318.444505 195.925049 
L 318.647448 195.819059 
L 319.053333 195.701796 
L 319.205541 195.553189 
L 319.256276 195.627092 
L 319.307012 195.572007 
L 319.509955 195.497813 
L 320.169519 195.488077 
L 321.488648 195.531643 
L 322.351156 195.497017 
L 322.959985 195.505497 
L 323.416606 195.44647 
L 323.568813 195.419036 
L 323.974699 195.376673 
L 324.177642 195.139746 
L 324.532792 194.952904 
L 324.684999 194.901033 
L 324.887942 194.789109 
L 325.344564 194.78895 
L 327.018843 194.761199 
L 328.896065 194.656149 
L 329.099008 194.636227 
L 329.352686 194.319967 
L 330.113722 193.749303 
L 331.229908 193.855456 
L 331.788001 193.825873 
L 332.244623 193.76607 
L 334.527731 193.606654 
L 334.679938 193.611838 
L 335.593181 193.233125 
L 336.20201 193.27019 
L 339.144682 193.00214 
L 339.296889 192.959889 
L 339.601304 192.961866 
L 340.057925 192.669194 
L 341.275583 192.557314 
L 342.087354 192.410968 
L 342.442504 192.345325 
L 343.55869 192.347233 
L 344.015312 192.370033 
L 344.827084 192.128703 
L 344.979291 192.028495 
L 345.283705 191.637707 
L 345.385177 191.589613 
L 345.58812 191.518337 
L 349.444035 191.439094 
L 349.596242 191.377776 
L 349.849921 191.202626 
L 350.052864 191.207892 
L 350.306542 191.119275 
L 350.610957 190.867792 
L 351.473464 190.923661 
L 352.183764 190.910348 
L 352.538914 190.847186 
L 354.619079 190.673216 
L 354.923494 190.4604 
L 355.075701 190.495682 
L 355.786001 190.602111 
L 356.141151 190.603518 
L 356.648508 190.683279 
L 357.663223 190.705641 
L 358.069109 190.670647 
L 359.641916 190.61632 
L 359.743388 190.473333 
L 359.794124 190.511668 
L 359.997066 190.433494 
L 360.250745 190.113507 
L 360.402952 190.183468 
L 360.707367 190.085478 
L 361.011781 189.822398 
L 361.569874 189.85403 
L 362.584589 189.902721 
L 363.447096 189.829231 
L 364.309603 189.746263 
L 364.766225 189.548296 
L 365.019904 189.28311 
L 365.121375 189.290172 
L 365.324318 189.104638 
L 365.628732 188.746449 
L 365.679468 188.779242 
L 365.882411 188.547442 
L 366.389768 188.502269 
L 367.20154 188.470341 
L 367.455219 188.375415 
L 367.91184 188.238806 
L 370.550098 188.345178 
L 370.600834 188.449112 
L 370.65157 188.393704 
L 371.158927 188.159142 
L 373.391299 188.280482 
L 374.964106 188.243377 
L 375.167049 188.036048 
L 375.217785 188.097817 
L 375.268521 188.052641 
L 375.674407 187.852646 
L 376.080292 187.544339 
L 377.6531 187.552211 
L 377.906779 187.480584 
L 379.124436 187.403988 
L 380.697244 187.222133 
L 380.849451 187.179871 
L 380.950922 187.10802 
L 381.204601 186.825623 
L 381.306073 186.792622 
L 381.559751 186.738223 
L 382.574466 186.818577 
L 385.060516 186.790393 
L 385.263459 186.835303 
L 385.466402 186.756749 
L 385.618609 186.752293 
L 385.97376 186.464684 
L 386.582588 186.045304 
L 388.206132 185.906573 
L 388.510546 185.83681 
L 388.916432 185.804172 
L 390.235561 185.892449 
L 390.438504 186.003188 
L 390.641447 185.821817 
L 390.996597 185.597458 
L 391.098068 185.532719 
L 391.098068 185.532719 
" style="fill:none;stroke:#ff7f0e;stroke-linecap:square;stroke-width:1.5;"/>
   </g>
   <g id="patch_3">
    <path d="M 71.51625 253.173375 
L 71.51625 35.733375 
" style="fill:none;stroke:#000000;stroke-linecap:square;stroke-linejoin:miter;stroke-width:0.8;"/>
   </g>
   <g id="patch_4">
    <path d="M 406.31625 253.173375 
L 406.31625 35.733375 
" style="fill:none;stroke:#000000;stroke-linecap:square;stroke-linejoin:miter;stroke-width:0.8;"/>
   </g>
   <g id="patch_5">
    <path d="M 71.51625 253.173375 
L 406.31625 253.173375 
" style="fill:none;stroke:#000000;stroke-linecap:square;stroke-linejoin:miter;stroke-width:0.8;"/>
   </g>
   <g id="patch_6">
    <path d="M 71.51625 35.733375 
L 406.31625 35.733375 
" style="fill:none;stroke:#000000;stroke-linecap:square;stroke-linejoin:miter;stroke-width:0.8;"/>
   </g>
   <g id="text_11">
    <!-- $b(t)$ -->
    <defs>
     <path d="M 16.296875 29 
L 16.40625 29 
Q 21.40625 37.296875 25.84375 40.6875 
Q 30.296875 44.09375 35.703125 44.09375 
Q 40.90625 44.09375 44.09375 40.890625 
Q 47.296875 37.703125 47.296875 32.09375 
Q 47.296875 24.40625 42.59375 16.59375 
Q 37.90625 8.796875 30.34375 3.84375 
Q 22.796875 -1.09375 15.296875 -1.09375 
Q 10.703125 -1.09375 6.5 0.5 
Q 2.296875 2.09375 2.296875 4.203125 
L 2.296875 4.796875 
L 16.5 57.09375 
Q 17.40625 60.703125 17.40625 61.796875 
Q 17.40625 63.40625 16.453125 63.75 
Q 15.5 64.09375 11 64.296875 
L 11 66 
Q 18.5 66.90625 26.296875 68.296875 
L 26.796875 67.796875 
L 24.703125 59.59375 
z
M 38.796875 30.59375 
Q 38.796875 39.203125 31.796875 39.203125 
Q 24.90625 39.203125 18.09375 27.703125 
Q 14.90625 22.296875 12.90625 15.75 
Q 10.90625 9.203125 10.90625 4.59375 
Q 10.90625 1.203125 15.5 1.203125 
Q 22.09375 1.203125 27.796875 7.09375 
Q 32.40625 11.90625 35.59375 18.546875 
Q 38.796875 25.203125 38.796875 30.59375 
z
" id="STIXGeneral-Italic-98"/>
     <path d="M 30.40625 -16.09375 
L 29.203125 -17.703125 
Q 17.59375 -11.09375 11.1875 0.5 
Q 4.796875 12.09375 4.796875 25.203125 
Q 4.796875 52.90625 29.5 67.59375 
L 30.40625 66 
Q 20.203125 57.296875 16.796875 48.84375 
Q 13.40625 40.40625 13.40625 25.5 
Q 13.40625 10.703125 16.90625 1.5 
Q 20.40625 -7.703125 30.40625 -16.09375 
z
" id="STIXGeneral-Regular-40"/>
     <path d="M 29.59375 42.796875 
L 29.09375 39.59375 
L 20.703125 39.59375 
L 12 6.796875 
Q 11.796875 6 11.796875 5.40625 
Q 11.796875 3.796875 13.296875 3.796875 
Q 14.5 3.796875 16.09375 5.34375 
Q 17.703125 6.90625 21.40625 11.703125 
L 22.703125 11 
Q 18.09375 4 15.140625 1.453125 
Q 12.203125 -1.09375 8.40625 -1.09375 
Q 3.796875 -1.09375 3.796875 2.59375 
Q 3.796875 3.59375 5.40625 10 
L 13.203125 39.59375 
L 5.703125 39.59375 
L 5.59375 40.203125 
Q 5.59375 42 8.90625 42.703125 
Q 11.40625 43.296875 15.5 46.546875 
Q 19.59375 49.796875 22.203125 53.703125 
Q 22.796875 54.59375 23.59375 54.59375 
Q 24.5 54.59375 24.5 53.796875 
Q 24.5 53.296875 24.40625 53.09375 
L 21.59375 42.796875 
z
" id="STIXGeneral-Italic-116"/>
     <path d="M 2.90625 66 
L 4.09375 67.59375 
Q 15.5 60.796875 22 49.1875 
Q 28.5 37.59375 28.5 24.703125 
Q 28.5 -2.59375 3.796875 -17.703125 
L 2.90625 -16.09375 
Q 13.203125 -7.59375 16.546875 0.84375 
Q 19.90625 9.296875 19.90625 24.40625 
Q 19.90625 39.59375 16.546875 48.75 
Q 13.203125 57.90625 2.90625 66 
z
" id="STIXGeneral-Regular-41"/>
    </defs>
    <g transform="translate(216.29625 29.532375)scale(0.312 -0.312)">
     <use transform="translate(0 0.703125)" xlink:href="#STIXGeneral-Italic-98"/>
     <use transform="translate(49.999985 0.703125)" xlink:href="#STIXGeneral-Regular-40"/>
     <use transform="translate(83.299973 0.703125)" xlink:href="#STIXGeneral-Italic-116"/>
     <use transform="translate(111.09996 0.703125)" xlink:href="#STIXGeneral-Regular-41"/>
    </g>
   </g>
   <g id="legend_1">
    <g id="line2d_11">
     <path d="M 433.45625 55.643687 
L 485.45625 55.643687 
" style="fill:none;stroke:#1f77b4;stroke-linecap:square;stroke-width:1.5;"/>
    </g>
    <g id="line2d_12"/>
    <g id="text_12">
     <!-- exact -->
     <defs>
      <path d="M 0.734375 0 
L 19.671875 26.953125 
L 2.15625 51.859375 
L 13.140625 51.859375 
L 21.09375 39.703125 
Q 23.34375 36.234375 24.703125 33.890625 
Q 26.859375 37.109375 28.65625 39.59375 
L 37.40625 51.859375 
L 47.90625 51.859375 
L 29.984375 27.4375 
L 49.265625 0 
L 38.484375 0 
L 27.828125 16.109375 
L 25 20.453125 
L 11.375 0 
z
" id="ArialMT-120"/>
      <path d="M 40.4375 19 
L 49.078125 17.875 
Q 47.65625 8.9375 41.8125 3.875 
Q 35.984375 -1.171875 27.484375 -1.171875 
Q 16.84375 -1.171875 10.375 5.78125 
Q 3.90625 12.75 3.90625 25.734375 
Q 3.90625 34.125 6.6875 40.421875 
Q 9.46875 46.734375 15.15625 49.875 
Q 20.84375 53.03125 27.546875 53.03125 
Q 35.984375 53.03125 41.359375 48.75 
Q 46.734375 44.484375 48.25 36.625 
L 39.703125 35.296875 
Q 38.484375 40.53125 35.375 43.15625 
Q 32.28125 45.796875 27.875 45.796875 
Q 21.234375 45.796875 17.078125 41.03125 
Q 12.9375 36.28125 12.9375 25.984375 
Q 12.9375 15.53125 16.9375 10.796875 
Q 20.953125 6.0625 27.390625 6.0625 
Q 32.5625 6.0625 36.03125 9.234375 
Q 39.5 12.40625 40.4375 19 
z
" id="ArialMT-99"/>
     </defs>
     <g transform="translate(506.25625 64.743687)scale(0.26 -0.26)">
      <use xlink:href="#ArialMT-101"/>
      <use x="55.615234" xlink:href="#ArialMT-120"/>
      <use x="105.615234" xlink:href="#ArialMT-97"/>
      <use x="161.230469" xlink:href="#ArialMT-99"/>
      <use x="211.230469" xlink:href="#ArialMT-116"/>
     </g>
    </g>
    <g id="line2d_13">
     <path d="M 433.45625 92.4215 
L 485.45625 92.4215 
" style="fill:none;stroke:#ff7f0e;stroke-linecap:square;stroke-width:1.5;"/>
    </g>
    <g id="line2d_14"/>
    <g id="text_13">
     <!-- estimated -->
     <g transform="translate(506.25625 101.5215)scale(0.26 -0.26)">
      <use xlink:href="#ArialMT-101"/>
      <use x="55.615234" xlink:href="#ArialMT-115"/>
      <use x="105.615234" xlink:href="#ArialMT-116"/>
      <use x="133.398438" xlink:href="#ArialMT-105"/>
      <use x="155.615234" xlink:href="#ArialMT-109"/>
      <use x="238.916016" xlink:href="#ArialMT-97"/>
      <use x="294.53125" xlink:href="#ArialMT-116"/>
      <use x="322.314453" xlink:href="#ArialMT-101"/>
      <use x="377.929688" xlink:href="#ArialMT-100"/>
     </g>
    </g>
   </g>
  </g>
 </g>
 <defs>
  <clipPath id="p38da92ef90">
   <rect height="217.44" width="334.8" x="71.51625" y="35.733375"/>
  </clipPath>
 </defs>
</svg>
