<?xml version="1.0" encoding="utf-8" standalone="no"?>
<!DOCTYPE svg PUBLIC "-//W3C//DTD SVG 1.1//EN"
  "http://www.w3.org/Graphics/SVG/1.1/DTD/svg11.dtd">
<!-- Created with matplotlib (https://matplotlib.org/) -->
<svg height="323.362pt" version="1.1" viewBox="0 0 659.702188 323.362" width="659.702188pt" xmlns="http://www.w3.org/2000/svg" xmlns:xlink="http://www.w3.org/1999/xlink">
 <metadata>
  <rdf:RDF xmlns:cc="http://creativecommons.org/ns#" xmlns:dc="http://purl.org/dc/elements/1.1/" xmlns:rdf="http://www.w3.org/1999/02/22-rdf-syntax-ns#">
   <cc:Work>
    <dc:type rdf:resource="http://purl.org/dc/dcmitype/StillImage"/>
    <dc:date>2022-01-24T15:15:54.166455</dc:date>
    <dc:format>image/svg+xml</dc:format>
    <dc:creator>
     <cc:Agent>
      <dc:title>Matplotlib v3.3.2, https://matplotlib.org/</dc:title>
     </cc:Agent>
    </dc:creator>
   </cc:Work>
  </rdf:RDF>
 </metadata>
 <defs>
  <style type="text/css">*{stroke-linecap:butt;stroke-linejoin:round;}</style>
 </defs>
 <g id="figure_1">
  <g id="patch_1">
   <path d="M 0 323.362 
L 659.702188 323.362 
L 659.702188 0 
L 0 0 
z
" style="fill:#ffffff;"/>
  </g>
  <g id="axes_1">
   <g id="patch_2">
    <path d="M 76.448125 254.83575 
L 411.248125 254.83575 
L 411.248125 37.39575 
L 76.448125 37.39575 
z
" style="fill:#ffffff;"/>
   </g>
   <g id="line2d_1">
    <path clip-path="url(#pa8c41e4cd7)" d="M 91.666307 223.772893 
L 396.029943 223.772893 
L 396.029943 223.772893 
" style="fill:none;stroke:#1f77b4;stroke-linecap:square;stroke-width:1.5;"/>
   </g>
   <g id="matplotlib.axis_1">
    <g id="xtick_1">
     <g id="line2d_2">
      <defs>
       <path d="M 0 0 
L 0 3.5 
" id="mefbd613451" style="stroke:#000000;stroke-width:0.8;"/>
      </defs>
      <g>
       <use style="stroke:#000000;stroke-width:0.8;" x="91.666307" xlink:href="#mefbd613451" y="254.83575"/>
      </g>
     </g>
     <g id="text_1">
      <!-- 0 -->
      <g transform="translate(83.395057 281.591688)scale(0.26 -0.26)">
       <defs>
        <path d="M 31.78125 66.40625 
Q 24.171875 66.40625 20.328125 58.90625 
Q 16.5 51.421875 16.5 36.375 
Q 16.5 21.390625 20.328125 13.890625 
Q 24.171875 6.390625 31.78125 6.390625 
Q 39.453125 6.390625 43.28125 13.890625 
Q 47.125 21.390625 47.125 36.375 
Q 47.125 51.421875 43.28125 58.90625 
Q 39.453125 66.40625 31.78125 66.40625 
z
M 31.78125 74.21875 
Q 44.046875 74.21875 50.515625 64.515625 
Q 56.984375 54.828125 56.984375 36.375 
Q 56.984375 17.96875 50.515625 8.265625 
Q 44.046875 -1.421875 31.78125 -1.421875 
Q 19.53125 -1.421875 13.0625 8.265625 
Q 6.59375 17.96875 6.59375 36.375 
Q 6.59375 54.828125 13.0625 64.515625 
Q 19.53125 74.21875 31.78125 74.21875 
z
" id="DejaVuSans-48"/>
       </defs>
       <use xlink:href="#DejaVuSans-48"/>
      </g>
     </g>
    </g>
    <g id="xtick_2">
     <g id="line2d_3">
      <g>
       <use style="stroke:#000000;stroke-width:0.8;" x="193.137764" xlink:href="#mefbd613451" y="254.83575"/>
      </g>
     </g>
     <g id="text_2">
      <!-- 2 -->
      <g transform="translate(184.866514 281.591688)scale(0.26 -0.26)">
       <defs>
        <path d="M 19.1875 8.296875 
L 53.609375 8.296875 
L 53.609375 0 
L 7.328125 0 
L 7.328125 8.296875 
Q 12.9375 14.109375 22.625 23.890625 
Q 32.328125 33.6875 34.8125 36.53125 
Q 39.546875 41.84375 41.421875 45.53125 
Q 43.3125 49.21875 43.3125 52.78125 
Q 43.3125 58.59375 39.234375 62.25 
Q 35.15625 65.921875 28.609375 65.921875 
Q 23.96875 65.921875 18.8125 64.3125 
Q 13.671875 62.703125 7.8125 59.421875 
L 7.8125 69.390625 
Q 13.765625 71.78125 18.9375 73 
Q 24.125 74.21875 28.421875 74.21875 
Q 39.75 74.21875 46.484375 68.546875 
Q 53.21875 62.890625 53.21875 53.421875 
Q 53.21875 48.921875 51.53125 44.890625 
Q 49.859375 40.875 45.40625 35.40625 
Q 44.1875 33.984375 37.640625 27.21875 
Q 31.109375 20.453125 19.1875 8.296875 
z
" id="DejaVuSans-50"/>
       </defs>
       <use xlink:href="#DejaVuSans-50"/>
      </g>
     </g>
    </g>
    <g id="xtick_3">
     <g id="line2d_4">
      <g>
       <use style="stroke:#000000;stroke-width:0.8;" x="294.609222" xlink:href="#mefbd613451" y="254.83575"/>
      </g>
     </g>
     <g id="text_3">
      <!-- 4 -->
      <g transform="translate(286.337972 281.591688)scale(0.26 -0.26)">
       <defs>
        <path d="M 37.796875 64.3125 
L 12.890625 25.390625 
L 37.796875 25.390625 
z
M 35.203125 72.90625 
L 47.609375 72.90625 
L 47.609375 25.390625 
L 58.015625 25.390625 
L 58.015625 17.1875 
L 47.609375 17.1875 
L 47.609375 0 
L 37.796875 0 
L 37.796875 17.1875 
L 4.890625 17.1875 
L 4.890625 26.703125 
z
" id="DejaVuSans-52"/>
       </defs>
       <use xlink:href="#DejaVuSans-52"/>
      </g>
     </g>
    </g>
    <g id="xtick_4">
     <g id="line2d_5">
      <g>
       <use style="stroke:#000000;stroke-width:0.8;" x="396.080679" xlink:href="#mefbd613451" y="254.83575"/>
      </g>
     </g>
     <g id="text_4">
      <!-- 6 -->
      <g transform="translate(387.809429 281.591688)scale(0.26 -0.26)">
       <defs>
        <path d="M 33.015625 40.375 
Q 26.375 40.375 22.484375 35.828125 
Q 18.609375 31.296875 18.609375 23.390625 
Q 18.609375 15.53125 22.484375 10.953125 
Q 26.375 6.390625 33.015625 6.390625 
Q 39.65625 6.390625 43.53125 10.953125 
Q 47.40625 15.53125 47.40625 23.390625 
Q 47.40625 31.296875 43.53125 35.828125 
Q 39.65625 40.375 33.015625 40.375 
z
M 52.59375 71.296875 
L 52.59375 62.3125 
Q 48.875 64.0625 45.09375 64.984375 
Q 41.3125 65.921875 37.59375 65.921875 
Q 27.828125 65.921875 22.671875 59.328125 
Q 17.53125 52.734375 16.796875 39.40625 
Q 19.671875 43.65625 24.015625 45.921875 
Q 28.375 48.1875 33.59375 48.1875 
Q 44.578125 48.1875 50.953125 41.515625 
Q 57.328125 34.859375 57.328125 23.390625 
Q 57.328125 12.15625 50.6875 5.359375 
Q 44.046875 -1.421875 33.015625 -1.421875 
Q 20.359375 -1.421875 13.671875 8.265625 
Q 6.984375 17.96875 6.984375 36.375 
Q 6.984375 53.65625 15.1875 63.9375 
Q 23.390625 74.21875 37.203125 74.21875 
Q 40.921875 74.21875 44.703125 73.484375 
Q 48.484375 72.75 52.59375 71.296875 
z
" id="DejaVuSans-54"/>
       </defs>
       <use xlink:href="#DejaVuSans-54"/>
      </g>
     </g>
    </g>
    <g id="text_5">
     <!-- time (s) -->
     <g transform="translate(193.430469 310.754813)scale(0.26 -0.26)">
      <defs>
       <path d="M 18.3125 70.21875 
L 18.3125 54.6875 
L 36.8125 54.6875 
L 36.8125 47.703125 
L 18.3125 47.703125 
L 18.3125 18.015625 
Q 18.3125 11.328125 20.140625 9.421875 
Q 21.96875 7.515625 27.59375 7.515625 
L 36.8125 7.515625 
L 36.8125 0 
L 27.59375 0 
Q 17.1875 0 13.234375 3.875 
Q 9.28125 7.765625 9.28125 18.015625 
L 9.28125 47.703125 
L 2.6875 47.703125 
L 2.6875 54.6875 
L 9.28125 54.6875 
L 9.28125 70.21875 
z
" id="DejaVuSans-116"/>
       <path d="M 9.421875 54.6875 
L 18.40625 54.6875 
L 18.40625 0 
L 9.421875 0 
z
M 9.421875 75.984375 
L 18.40625 75.984375 
L 18.40625 64.59375 
L 9.421875 64.59375 
z
" id="DejaVuSans-105"/>
       <path d="M 52 44.1875 
Q 55.375 50.25 60.0625 53.125 
Q 64.75 56 71.09375 56 
Q 79.640625 56 84.28125 50.015625 
Q 88.921875 44.046875 88.921875 33.015625 
L 88.921875 0 
L 79.890625 0 
L 79.890625 32.71875 
Q 79.890625 40.578125 77.09375 44.375 
Q 74.3125 48.1875 68.609375 48.1875 
Q 61.625 48.1875 57.5625 43.546875 
Q 53.515625 38.921875 53.515625 30.90625 
L 53.515625 0 
L 44.484375 0 
L 44.484375 32.71875 
Q 44.484375 40.625 41.703125 44.40625 
Q 38.921875 48.1875 33.109375 48.1875 
Q 26.21875 48.1875 22.15625 43.53125 
Q 18.109375 38.875 18.109375 30.90625 
L 18.109375 0 
L 9.078125 0 
L 9.078125 54.6875 
L 18.109375 54.6875 
L 18.109375 46.1875 
Q 21.1875 51.21875 25.484375 53.609375 
Q 29.78125 56 35.6875 56 
Q 41.65625 56 45.828125 52.96875 
Q 50 49.953125 52 44.1875 
z
" id="DejaVuSans-109"/>
       <path d="M 56.203125 29.59375 
L 56.203125 25.203125 
L 14.890625 25.203125 
Q 15.484375 15.921875 20.484375 11.0625 
Q 25.484375 6.203125 34.421875 6.203125 
Q 39.59375 6.203125 44.453125 7.46875 
Q 49.3125 8.734375 54.109375 11.28125 
L 54.109375 2.78125 
Q 49.265625 0.734375 44.1875 -0.34375 
Q 39.109375 -1.421875 33.890625 -1.421875 
Q 20.796875 -1.421875 13.15625 6.1875 
Q 5.515625 13.8125 5.515625 26.8125 
Q 5.515625 40.234375 12.765625 48.109375 
Q 20.015625 56 32.328125 56 
Q 43.359375 56 49.78125 48.890625 
Q 56.203125 41.796875 56.203125 29.59375 
z
M 47.21875 32.234375 
Q 47.125 39.59375 43.09375 43.984375 
Q 39.0625 48.390625 32.421875 48.390625 
Q 24.90625 48.390625 20.390625 44.140625 
Q 15.875 39.890625 15.1875 32.171875 
z
" id="DejaVuSans-101"/>
       <path id="DejaVuSans-32"/>
       <path d="M 31 75.875 
Q 24.46875 64.65625 21.28125 53.65625 
Q 18.109375 42.671875 18.109375 31.390625 
Q 18.109375 20.125 21.3125 9.0625 
Q 24.515625 -2 31 -13.1875 
L 23.1875 -13.1875 
Q 15.875 -1.703125 12.234375 9.375 
Q 8.59375 20.453125 8.59375 31.390625 
Q 8.59375 42.28125 12.203125 53.3125 
Q 15.828125 64.359375 23.1875 75.875 
z
" id="DejaVuSans-40"/>
       <path d="M 44.28125 53.078125 
L 44.28125 44.578125 
Q 40.484375 46.53125 36.375 47.5 
Q 32.28125 48.484375 27.875 48.484375 
Q 21.1875 48.484375 17.84375 46.4375 
Q 14.5 44.390625 14.5 40.28125 
Q 14.5 37.15625 16.890625 35.375 
Q 19.28125 33.59375 26.515625 31.984375 
L 29.59375 31.296875 
Q 39.15625 29.25 43.1875 25.515625 
Q 47.21875 21.78125 47.21875 15.09375 
Q 47.21875 7.46875 41.1875 3.015625 
Q 35.15625 -1.421875 24.609375 -1.421875 
Q 20.21875 -1.421875 15.453125 -0.5625 
Q 10.6875 0.296875 5.421875 2 
L 5.421875 11.28125 
Q 10.40625 8.6875 15.234375 7.390625 
Q 20.0625 6.109375 24.8125 6.109375 
Q 31.15625 6.109375 34.5625 8.28125 
Q 37.984375 10.453125 37.984375 14.40625 
Q 37.984375 18.0625 35.515625 20.015625 
Q 33.0625 21.96875 24.703125 23.78125 
L 21.578125 24.515625 
Q 13.234375 26.265625 9.515625 29.90625 
Q 5.8125 33.546875 5.8125 39.890625 
Q 5.8125 47.609375 11.28125 51.796875 
Q 16.75 56 26.8125 56 
Q 31.78125 56 36.171875 55.265625 
Q 40.578125 54.546875 44.28125 53.078125 
z
" id="DejaVuSans-115"/>
       <path d="M 8.015625 75.875 
L 15.828125 75.875 
Q 23.140625 64.359375 26.78125 53.3125 
Q 30.421875 42.28125 30.421875 31.390625 
Q 30.421875 20.453125 26.78125 9.375 
Q 23.140625 -1.703125 15.828125 -13.1875 
L 8.015625 -13.1875 
Q 14.5 -2 17.703125 9.0625 
Q 20.90625 20.125 20.90625 31.390625 
Q 20.90625 42.671875 17.703125 53.65625 
Q 14.5 64.65625 8.015625 75.875 
z
" id="DejaVuSans-41"/>
      </defs>
      <use xlink:href="#DejaVuSans-116"/>
      <use x="39.208984" xlink:href="#DejaVuSans-105"/>
      <use x="66.992188" xlink:href="#DejaVuSans-109"/>
      <use x="164.404297" xlink:href="#DejaVuSans-101"/>
      <use x="225.927734" xlink:href="#DejaVuSans-32"/>
      <use x="257.714844" xlink:href="#DejaVuSans-40"/>
      <use x="296.728516" xlink:href="#DejaVuSans-115"/>
      <use x="348.828125" xlink:href="#DejaVuSans-41"/>
     </g>
    </g>
   </g>
   <g id="matplotlib.axis_2">
    <g id="ytick_1">
     <g id="line2d_6">
      <defs>
       <path d="M 0 0 
L -3.5 0 
" id="m7068e96668" style="stroke:#000000;stroke-width:0.8;"/>
      </defs>
      <g>
       <use style="stroke:#000000;stroke-width:0.8;" x="76.448125" xlink:href="#m7068e96668" y="223.772893"/>
      </g>
     </g>
     <g id="text_6">
      <!-- 50 -->
      <g transform="translate(36.363125 233.650862)scale(0.26 -0.26)">
       <defs>
        <path d="M 10.796875 72.90625 
L 49.515625 72.90625 
L 49.515625 64.59375 
L 19.828125 64.59375 
L 19.828125 46.734375 
Q 21.96875 47.46875 24.109375 47.828125 
Q 26.265625 48.1875 28.421875 48.1875 
Q 40.625 48.1875 47.75 41.5 
Q 54.890625 34.8125 54.890625 23.390625 
Q 54.890625 11.625 47.5625 5.09375 
Q 40.234375 -1.421875 26.90625 -1.421875 
Q 22.3125 -1.421875 17.546875 -0.640625 
Q 12.796875 0.140625 7.71875 1.703125 
L 7.71875 11.625 
Q 12.109375 9.234375 16.796875 8.0625 
Q 21.484375 6.890625 26.703125 6.890625 
Q 35.15625 6.890625 40.078125 11.328125 
Q 45.015625 15.765625 45.015625 23.390625 
Q 45.015625 31 40.078125 35.4375 
Q 35.15625 39.890625 26.703125 39.890625 
Q 22.75 39.890625 18.8125 39.015625 
Q 14.890625 38.140625 10.796875 36.28125 
z
" id="DejaVuSans-53"/>
       </defs>
       <use xlink:href="#DejaVuSans-53"/>
       <use x="63.623047" xlink:href="#DejaVuSans-48"/>
      </g>
     </g>
    </g>
    <g id="ytick_2">
     <g id="line2d_7">
      <g>
       <use style="stroke:#000000;stroke-width:0.8;" x="76.448125" xlink:href="#m7068e96668" y="161.647179"/>
      </g>
     </g>
     <g id="text_7">
      <!-- 52 -->
      <g transform="translate(36.363125 171.525147)scale(0.26 -0.26)">
       <use xlink:href="#DejaVuSans-53"/>
       <use x="63.623047" xlink:href="#DejaVuSans-50"/>
      </g>
     </g>
    </g>
    <g id="ytick_3">
     <g id="line2d_8">
      <g>
       <use style="stroke:#000000;stroke-width:0.8;" x="76.448125" xlink:href="#m7068e96668" y="99.521464"/>
      </g>
     </g>
     <g id="text_8">
      <!-- 54 -->
      <g transform="translate(36.363125 109.399433)scale(0.26 -0.26)">
       <use xlink:href="#DejaVuSans-53"/>
       <use x="63.623047" xlink:href="#DejaVuSans-52"/>
      </g>
     </g>
    </g>
    <g id="ytick_4">
     <g id="line2d_9">
      <g>
       <use style="stroke:#000000;stroke-width:0.8;" x="76.448125" xlink:href="#m7068e96668" y="37.39575"/>
      </g>
     </g>
     <g id="text_9">
      <!-- 56 -->
      <g transform="translate(36.363125 47.273719)scale(0.26 -0.26)">
       <use xlink:href="#DejaVuSans-53"/>
       <use x="63.623047" xlink:href="#DejaVuSans-54"/>
      </g>
     </g>
    </g>
    <g id="text_10">
     <!-- amplitude (a.u.) -->
     <g transform="translate(26.955937 250.552469)rotate(-90)scale(0.26 -0.26)">
      <defs>
       <path d="M 34.28125 27.484375 
Q 23.390625 27.484375 19.1875 25 
Q 14.984375 22.515625 14.984375 16.5 
Q 14.984375 11.71875 18.140625 8.90625 
Q 21.296875 6.109375 26.703125 6.109375 
Q 34.1875 6.109375 38.703125 11.40625 
Q 43.21875 16.703125 43.21875 25.484375 
L 43.21875 27.484375 
z
M 52.203125 31.203125 
L 52.203125 0 
L 43.21875 0 
L 43.21875 8.296875 
Q 40.140625 3.328125 35.546875 0.953125 
Q 30.953125 -1.421875 24.3125 -1.421875 
Q 15.921875 -1.421875 10.953125 3.296875 
Q 6 8.015625 6 15.921875 
Q 6 25.140625 12.171875 29.828125 
Q 18.359375 34.515625 30.609375 34.515625 
L 43.21875 34.515625 
L 43.21875 35.40625 
Q 43.21875 41.609375 39.140625 45 
Q 35.0625 48.390625 27.6875 48.390625 
Q 23 48.390625 18.546875 47.265625 
Q 14.109375 46.140625 10.015625 43.890625 
L 10.015625 52.203125 
Q 14.9375 54.109375 19.578125 55.046875 
Q 24.21875 56 28.609375 56 
Q 40.484375 56 46.34375 49.84375 
Q 52.203125 43.703125 52.203125 31.203125 
z
" id="DejaVuSans-97"/>
       <path d="M 18.109375 8.203125 
L 18.109375 -20.796875 
L 9.078125 -20.796875 
L 9.078125 54.6875 
L 18.109375 54.6875 
L 18.109375 46.390625 
Q 20.953125 51.265625 25.265625 53.625 
Q 29.59375 56 35.59375 56 
Q 45.5625 56 51.78125 48.09375 
Q 58.015625 40.1875 58.015625 27.296875 
Q 58.015625 14.40625 51.78125 6.484375 
Q 45.5625 -1.421875 35.59375 -1.421875 
Q 29.59375 -1.421875 25.265625 0.953125 
Q 20.953125 3.328125 18.109375 8.203125 
z
M 48.6875 27.296875 
Q 48.6875 37.203125 44.609375 42.84375 
Q 40.53125 48.484375 33.40625 48.484375 
Q 26.265625 48.484375 22.1875 42.84375 
Q 18.109375 37.203125 18.109375 27.296875 
Q 18.109375 17.390625 22.1875 11.75 
Q 26.265625 6.109375 33.40625 6.109375 
Q 40.53125 6.109375 44.609375 11.75 
Q 48.6875 17.390625 48.6875 27.296875 
z
" id="DejaVuSans-112"/>
       <path d="M 9.421875 75.984375 
L 18.40625 75.984375 
L 18.40625 0 
L 9.421875 0 
z
" id="DejaVuSans-108"/>
       <path d="M 8.5 21.578125 
L 8.5 54.6875 
L 17.484375 54.6875 
L 17.484375 21.921875 
Q 17.484375 14.15625 20.5 10.265625 
Q 23.53125 6.390625 29.59375 6.390625 
Q 36.859375 6.390625 41.078125 11.03125 
Q 45.3125 15.671875 45.3125 23.6875 
L 45.3125 54.6875 
L 54.296875 54.6875 
L 54.296875 0 
L 45.3125 0 
L 45.3125 8.40625 
Q 42.046875 3.421875 37.71875 1 
Q 33.40625 -1.421875 27.6875 -1.421875 
Q 18.265625 -1.421875 13.375 4.4375 
Q 8.5 10.296875 8.5 21.578125 
z
M 31.109375 56 
z
" id="DejaVuSans-117"/>
       <path d="M 45.40625 46.390625 
L 45.40625 75.984375 
L 54.390625 75.984375 
L 54.390625 0 
L 45.40625 0 
L 45.40625 8.203125 
Q 42.578125 3.328125 38.25 0.953125 
Q 33.9375 -1.421875 27.875 -1.421875 
Q 17.96875 -1.421875 11.734375 6.484375 
Q 5.515625 14.40625 5.515625 27.296875 
Q 5.515625 40.1875 11.734375 48.09375 
Q 17.96875 56 27.875 56 
Q 33.9375 56 38.25 53.625 
Q 42.578125 51.265625 45.40625 46.390625 
z
M 14.796875 27.296875 
Q 14.796875 17.390625 18.875 11.75 
Q 22.953125 6.109375 30.078125 6.109375 
Q 37.203125 6.109375 41.296875 11.75 
Q 45.40625 17.390625 45.40625 27.296875 
Q 45.40625 37.203125 41.296875 42.84375 
Q 37.203125 48.484375 30.078125 48.484375 
Q 22.953125 48.484375 18.875 42.84375 
Q 14.796875 37.203125 14.796875 27.296875 
z
" id="DejaVuSans-100"/>
       <path d="M 10.6875 12.40625 
L 21 12.40625 
L 21 0 
L 10.6875 0 
z
" id="DejaVuSans-46"/>
      </defs>
      <use xlink:href="#DejaVuSans-97"/>
      <use x="61.279297" xlink:href="#DejaVuSans-109"/>
      <use x="158.691406" xlink:href="#DejaVuSans-112"/>
      <use x="222.167969" xlink:href="#DejaVuSans-108"/>
      <use x="249.951172" xlink:href="#DejaVuSans-105"/>
      <use x="277.734375" xlink:href="#DejaVuSans-116"/>
      <use x="316.943359" xlink:href="#DejaVuSans-117"/>
      <use x="380.322266" xlink:href="#DejaVuSans-100"/>
      <use x="443.798828" xlink:href="#DejaVuSans-101"/>
      <use x="505.322266" xlink:href="#DejaVuSans-32"/>
      <use x="537.109375" xlink:href="#DejaVuSans-40"/>
      <use x="576.123047" xlink:href="#DejaVuSans-97"/>
      <use x="637.402344" xlink:href="#DejaVuSans-46"/>
      <use x="669.189453" xlink:href="#DejaVuSans-117"/>
      <use x="732.568359" xlink:href="#DejaVuSans-46"/>
      <use x="764.355469" xlink:href="#DejaVuSans-41"/>
     </g>
    </g>
   </g>
   <g id="line2d_10">
    <path clip-path="url(#pa8c41e4cd7)" d="M 91.666307 223.772893 
L 108.053947 223.852868 
L 108.764247 223.941543 
L 111.301034 223.941439 
L 112.112805 223.97278 
L 115.004742 223.858768 
L 118.809922 224.002231 
L 120.027579 224.002167 
L 121.752594 224.115976 
L 122.564366 224.302 
L 123.22393 224.352897 
L 125.760716 224.315753 
L 126.115867 224.354912 
L 127.079845 224.229961 
L 128.246767 224.071358 
L 130.631346 224.127449 
L 130.935761 224.099568 
L 134.38579 224.111493 
L 135.096091 224.145029 
L 135.603448 224.247191 
L 136.719634 224.269371 
L 137.683613 224.240669 
L 138.292441 224.258191 
L 139.560835 224.191963 
L 140.271135 224.058798 
L 140.474078 224.009776 
L 141.99615 223.812759 
L 142.503507 223.841142 
L 143.568957 223.864412 
L 144.583672 223.82142 
L 145.344708 223.645126 
L 146.105744 223.728602 
L 146.410158 223.823905 
L 147.069723 224.011484 
L 147.323401 224.037182 
L 148.439587 223.979995 
L 150.012395 223.9907 
L 150.621224 223.96233 
L 151.73741 223.523814 
L 151.991088 223.516239 
L 153.360953 223.542284 
L 155.644061 223.508016 
L 155.847004 223.543099 
L 157.470547 223.577522 
L 158.688204 223.657393 
L 159.144826 223.656934 
L 159.702919 223.594125 
L 160.058069 223.571341 
L 160.920576 223.306107 
L 161.529405 223.274024 
L 163.355891 223.249128 
L 164.31987 223.502377 
L 164.522813 223.523673 
L 165.841942 223.270908 
L 166.755185 223.298111 
L 169.139765 223.167884 
L 169.291972 223.123637 
L 169.697858 223.168219 
L 169.951536 223.12999 
L 170.205215 223.184323 
L 170.611101 223.16016 
L 177.308217 223.015318 
L 177.815574 222.859658 
L 178.322931 222.854789 
L 178.57661 222.935863 
L 178.982496 223.138076 
L 179.236175 223.254542 
L 179.845003 223.201812 
L 180.301625 223.186523 
L 181.164132 223.191066 
L 182.838411 223.275431 
L 184.715633 223.621706 
L 186.237705 223.645411 
L 186.846534 223.688422 
L 187.60757 223.685152 
L 187.810513 223.615886 
L 192.528935 223.542712 
L 192.731878 223.618996 
L 193.036293 223.613801 
L 193.340707 223.741189 
L 193.54365 223.444036 
L 194.456893 221.096185 
L 194.761308 221.051198 
L 195.877494 221.33012 
L 196.384851 221.987644 
L 196.689265 222.400195 
L 197.095151 222.389231 
L 197.399565 221.963521 
L 197.957658 221.069165 
L 198.160601 220.952661 
L 198.41428 220.835321 
L 198.76943 220.815076 
L 199.682673 220.956555 
L 200.392973 220.951809 
L 201.001802 221.011113 
L 201.458424 221.296154 
L 201.86431 221.29294 
L 202.21946 220.951663 
L 202.371667 220.840374 
L 202.57461 220.821284 
L 203.843003 220.875983 
L 204.045946 220.881742 
L 204.248889 220.865119 
L 206.278318 220.639799 
L 206.430525 220.548107 
L 206.633468 220.578288 
L 207.09009 220.550825 
L 207.44524 220.301869 
L 207.749654 220.378237 
L 210.844533 220.390461 
L 211.554834 220.249545 
L 211.909984 220.4936 
L 212.011455 220.445894 
L 212.214398 220.672225 
L 212.366605 220.666644 
L 212.67102 220.50027 
L 213.076906 220.556871 
L 214.345299 220.755218 
L 214.649713 220.844287 
L 215.15707 220.89735 
L 216.019578 220.764779 
L 216.729878 220.137927 
L 216.831349 220.185147 
L 216.983557 220.129839 
L 217.440178 220.811424 
L 217.592385 220.934484 
L 218.049007 221.178301 
L 219.469607 220.914954 
L 219.67255 220.890234 
L 221.346829 220.829807 
L 221.701979 220.712502 
L 221.904922 220.759604 
L 222.463015 220.903474 
L 222.76743 221.226231 
L 223.376258 221.338101 
L 224.390973 221.236302 
L 224.847595 221.223307 
L 226.471138 221.535937 
L 226.775552 221.540158 
L 227.181438 221.39563 
L 227.485853 220.986797 
L 227.63806 220.988083 
L 227.739531 220.907423 
L 227.790267 220.956627 
L 228.602039 220.967816 
L 229.819696 220.858783 
L 230.428525 220.747014 
L 230.885146 220.775715 
L 231.798389 220.831878 
L 232.813104 221.197733 
L 233.269726 220.944768 
L 233.675611 220.931436 
L 235.146948 220.98065 
L 235.654305 221.025848 
L 237.125641 220.967564 
L 237.176377 221.029551 
L 237.227112 220.975207 
L 237.480791 220.94436 
L 237.683734 221.014687 
L 237.835941 221.103078 
L 237.988148 221.285022 
L 238.08962 221.280606 
L 238.292563 221.318622 
L 238.79992 221.090625 
L 239.408749 221.009649 
L 239.814635 220.941033 
L 240.068313 220.939479 
L 240.423463 220.93389 
L 240.778613 220.915883 
L 242.6051 220.944674 
L 242.808043 220.652726 
L 243.974964 220.431835 
L 244.888207 220.361743 
L 245.09115 220.238467 
L 246.105865 220.229191 
L 247.019108 220.233386 
L 248.033823 221.415957 
L 248.084558 221.260849 
L 248.18603 221.304415 
L 248.287501 221.361063 
L 248.490444 221.221393 
L 249.860309 221.299326 
L 250.113987 221.593007 
L 250.418402 221.651066 
L 251.940474 221.499467 
L 252.244888 221.271244 
L 252.549302 221.008535 
L 252.955188 221.033555 
L 253.107395 221.050831 
L 253.41181 220.932292 
L 253.513281 220.847398 
L 253.817696 220.737207 
L 254.578732 220.660411 
L 255.289032 220.316224 
L 255.694918 220.403273 
L 255.999332 220.459849 
L 257.014047 220.355965 
L 257.21699 220.29616 
L 257.978025 221.023069 
L 258.028761 220.948767 
L 258.485383 220.743034 
L 258.63759 220.785796 
L 258.840533 220.713686 
L 259.449362 220.710566 
L 260.159662 220.520823 
L 260.362605 220.465582 
L 260.514812 220.431767 
L 260.717755 220.413904 
L 262.392034 220.395062 
L 262.696448 220.957392 
L 263.203805 221.76261 
L 263.406748 221.701059 
L 263.964841 221.638578 
L 264.878085 221.764954 
L 265.28397 222.029779 
L 265.791328 222.165489 
L 265.994271 222.169281 
L 266.552364 222.150444 
L 266.907514 222.135833 
L 267.059721 222.137824 
L 267.3134 222.067628 
L 267.414871 222.164335 
L 267.465607 222.133201 
L 267.567078 222.084679 
L 267.719285 221.903107 
L 267.770021 221.962119 
L 267.820757 221.885949 
L 268.175907 221.754641 
L 268.328114 221.784111 
L 268.480321 221.704074 
L 268.683264 221.840952 
L 268.886207 221.831531 
L 269.190621 221.804135 
L 269.697979 221.888444 
L 270.459015 222.194461 
L 270.611222 222.213726 
L 270.915636 222.386219 
L 271.879615 222.447487 
L 272.386972 222.344864 
L 272.53918 222.265578 
L 273.097273 222.539433 
L 273.655366 222.434631 
L 273.909044 222.630079 
L 274.213459 222.653274 
L 275.38038 222.725957 
L 275.684795 222.863422 
L 275.887738 222.885616 
L 276.445831 222.863554 
L 277.206867 222.771722 
L 277.714224 222.667442 
L 278.018638 222.951041 
L 278.323053 223.388329 
L 278.47526 223.694749 
L 278.728938 224.060243 
L 278.881146 224.201012 
L 278.931881 224.134671 
L 279.18556 224.089174 
L 279.946596 224.079599 
L 280.809103 224.285445 
L 280.961311 224.318667 
L 281.570139 224.30008 
L 282.026761 224.28081 
L 282.280439 224.282506 
L 282.889268 224.197052 
L 283.092211 224.055844 
L 283.193683 223.980755 
L 283.70104 223.496477 
L 283.903983 223.607887 
L 283.954719 223.53726 
L 284.005454 223.582939 
L 284.157661 223.629001 
L 284.512812 223.668883 
L 285.273847 223.59355 
L 285.882676 223.276739 
L 286.440769 223.209875 
L 286.795919 223.206132 
L 287.607691 223.118889 
L 287.86137 223.008904 
L 287.912105 223.049411 
L 287.962841 222.956786 
L 288.267255 223.031168 
L 288.520934 223.215933 
L 288.876084 223.400473 
L 289.028291 223.480438 
L 289.332706 223.467352 
L 289.586384 223.461127 
L 290.905513 223.436565 
L 291.159192 223.364027 
L 292.326114 223.456167 
L 292.934942 223.778881 
L 293.036414 223.940405 
L 293.08715 223.906005 
L 293.493036 223.671957 
L 294.101864 222.66761 
L 294.304807 222.632626 
L 294.8629 222.568622 
L 295.471729 222.539003 
L 295.877615 222.404036 
L 296.131293 222.440459 
L 297.044537 222.568446 
L 297.704101 222.639907 
L 298.059251 222.789974 
L 298.363665 223.007697 
L 299.175437 224.479323 
L 299.37838 224.561336 
L 300.08868 224.501525 
L 300.697509 224.578466 
L 300.900452 224.52479 
L 301.103395 224.588284 
L 301.407809 224.646211 
L 301.610752 224.671104 
L 301.915166 224.642858 
L 303.335767 224.446254 
L 303.589446 224.136256 
L 303.690917 224.045418 
L 303.741653 224.101705 
L 303.843124 224.038841 
L 304.147539 223.808803 
L 304.857839 223.772198 
L 305.568139 223.703186 
L 305.821818 223.640468 
L 306.176968 223.518682 
L 306.379911 223.503236 
L 306.887268 223.388217 
L 307.293154 223.398083 
L 308.104925 223.500295 
L 308.307868 223.552015 
L 308.612283 223.379437 
L 308.865961 223.349881 
L 309.018168 223.192083 
L 309.11964 223.253864 
L 309.271847 223.275647 
L 309.677733 223.098375 
L 310.489505 223.159127 
L 311.098333 223.331208 
L 311.960841 223.631206 
L 312.975555 223.62952 
L 314.091741 222.133012 
L 314.243949 222.254011 
L 314.446891 222.484323 
L 314.599099 222.512707 
L 314.802042 222.541909 
L 316.121171 222.516028 
L 317.643242 222.656929 
L 318.1506 222.686156 
L 318.302807 222.711314 
L 318.455014 222.853198 
L 318.556485 223.045268 
L 318.607221 222.931118 
L 318.657957 222.967043 
L 318.810164 223.186804 
L 319.114578 223.185054 
L 319.266786 223.300271 
L 319.5712 223.570433 
L 321.346951 223.693299 
L 322.970494 224.031655 
L 323.071965 224.054354 
L 323.782266 224.418395 
L 323.985208 224.591537 
L 324.035944 224.462867 
L 324.08668 224.56183 
L 324.137416 224.55343 
L 324.289623 224.71524 
L 324.492566 225.009386 
L 324.695509 225.149072 
L 324.847716 225.183172 
L 325.101394 225.233034 
L 325.659487 225.340953 
L 326.217581 225.476491 
L 326.369788 225.565826 
L 326.724938 225.592232 
L 327.130824 225.704244 
L 328.24701 225.709724 
L 328.449953 225.699628 
L 328.805103 225.878034 
L 328.906574 225.97979 
L 329.058781 225.82289 
L 329.464667 225.815992 
L 329.66761 225.921697 
L 330.682325 225.931435 
L 331.392625 225.941257 
L 331.544832 225.974787 
L 331.849246 226.114312 
L 332.204396 226.031126 
L 332.610282 226.034595 
L 333.777204 226.088948 
L 334.18309 226.202649 
L 334.386033 226.03292 
L 334.436769 226.083268 
L 334.487504 226.022882 
L 334.53824 226.009515 
L 334.690447 225.810583 
L 334.741183 225.76589 
L 334.791919 225.823715 
L 335.400747 226.042864 
L 335.95884 226.086106 
L 337.024291 226.239359 
L 337.430177 226.264378 
L 337.683855 226.291252 
L 338.089741 226.302322 
L 339.256663 226.399628 
L 339.561077 226.800437 
L 339.662549 226.81114 
L 339.814756 227.000568 
L 340.017699 226.880215 
L 340.068434 226.95755 
L 340.880206 226.742508 
L 341.539771 226.573926 
L 341.793449 226.566249 
L 343.112578 226.733884 
L 343.975086 226.659311 
L 344.127293 226.567312 
L 344.431707 226.92708 
L 344.482443 226.86228 
L 344.533179 226.932749 
L 344.583914 226.915913 
L 344.63465 227.064555 
L 344.685386 226.963858 
L 344.786857 226.971817 
L 344.939064 226.954392 
L 345.7001 227.208933 
L 346.867022 227.013969 
L 347.120701 226.888071 
L 348.997923 227.001227 
L 349.454544 227.297388 
L 349.556016 227.317804 
L 349.708223 227.446434 
L 350.519995 227.180537 
L 351.179559 227.19273 
L 351.839123 227.12679 
L 352.092802 227.187557 
L 352.295745 227.23855 
L 353.513403 227.199069 
L 353.817817 227.2762 
L 354.528117 227.699969 
L 354.629589 227.667799 
L 354.73106 227.728095 
L 354.832531 227.760258 
L 355.136946 228.040622 
L 355.187682 227.988205 
L 355.695039 227.870133 
L 355.999453 227.893657 
L 356.811225 227.975611 
L 357.064904 228.027129 
L 357.267846 227.981271 
L 357.470789 228.039415 
L 358.18109 228.16283 
L 359.753897 228.016652 
L 359.855369 227.965504 
L 360.058312 228.094122 
L 360.31199 228.315253 
L 360.870083 228.880984 
L 361.02229 228.869818 
L 361.783326 228.9634 
L 362.239948 229.17007 
L 362.696569 229.245825 
L 363.457605 229.349486 
L 365.030413 229.094766 
L 365.284092 228.96904 
L 365.740713 228.963441 
L 366.349542 228.798719 
L 367.262785 228.855423 
L 367.516464 228.953904 
L 369.444421 228.810085 
L 369.647364 228.657769 
L 369.748836 228.531682 
L 370.306929 227.733999 
L 370.76355 227.148569 
L 370.966493 227.066844 
L 371.372379 227.160603 
L 371.829001 227.127616 
L 372.285622 226.874282 
L 372.894451 226.425705 
L 373.909165 226.425615 
L 374.56873 226.613761 
L 375.177559 227.220734 
L 375.431237 227.580594 
L 375.837123 228.064493 
L 376.090802 228.023822 
L 376.293745 227.99366 
L 377.054781 228.049496 
L 378.932003 228.601738 
L 379.642303 228.672948 
L 379.79451 228.722999 
L 381.012167 228.683118 
L 381.21511 228.79336 
L 381.874675 228.857014 
L 382.990861 228.893555 
L 383.295275 228.863003 
L 383.548954 228.920136 
L 385.172497 229.106101 
L 385.426176 229.320624 
L 385.527647 229.319223 
L 385.578383 229.394812 
L 385.629119 229.319857 
L 385.679855 229.263298 
L 385.73059 229.316186 
L 385.882797 229.357582 
L 386.035005 229.220021 
L 386.08574 229.281431 
L 386.288683 229.315846 
L 386.542362 229.248249 
L 386.745305 229.281428 
L 387.709284 229.322778 
L 388.064434 229.408065 
L 388.165905 229.398074 
L 388.368848 229.499086 
L 388.571791 229.558794 
L 389.992391 229.665255 
L 390.296806 229.898917 
L 390.651956 230.16134 
L 390.702692 230.229509 
L 390.854899 230.089107 
L 391.565199 230.142463 
L 392.174028 230.139825 
L 392.884328 230.01723 
L 393.290214 229.828647 
L 393.493157 229.8346 
L 395.218172 230.035172 
L 395.421114 230.240707 
L 395.674793 230.242376 
L 395.725529 230.179722 
L 395.776265 230.222641 
L 396.029943 230.239637 
L 396.029943 230.239637 
" style="fill:none;stroke:#ff7f0e;stroke-linecap:square;stroke-width:1.5;"/>
   </g>
   <g id="patch_3">
    <path d="M 76.448125 254.83575 
L 76.448125 37.39575 
" style="fill:none;stroke:#000000;stroke-linecap:square;stroke-linejoin:miter;stroke-width:0.8;"/>
   </g>
   <g id="patch_4">
    <path d="M 411.248125 254.83575 
L 411.248125 37.39575 
" style="fill:none;stroke:#000000;stroke-linecap:square;stroke-linejoin:miter;stroke-width:0.8;"/>
   </g>
   <g id="patch_5">
    <path d="M 76.448125 254.83575 
L 411.248125 254.83575 
" style="fill:none;stroke:#000000;stroke-linecap:square;stroke-linejoin:miter;stroke-width:0.8;"/>
   </g>
   <g id="patch_6">
    <path d="M 76.448125 37.39575 
L 411.248125 37.39575 
" style="fill:none;stroke:#000000;stroke-linecap:square;stroke-linejoin:miter;stroke-width:0.8;"/>
   </g>
   <g id="text_11">
    <!-- $b(t)$ -->
    <g transform="translate(221.228125 30.907125)scale(0.312 -0.312)">
     <defs>
      <path d="M 16.296875 29 
L 16.40625 29 
Q 21.40625 37.296875 25.84375 40.6875 
Q 30.296875 44.09375 35.703125 44.09375 
Q 40.90625 44.09375 44.09375 40.890625 
Q 47.296875 37.703125 47.296875 32.09375 
Q 47.296875 24.40625 42.59375 16.59375 
Q 37.90625 8.796875 30.34375 3.84375 
Q 22.796875 -1.09375 15.296875 -1.09375 
Q 10.703125 -1.09375 6.5 0.5 
Q 2.296875 2.09375 2.296875 4.203125 
L 2.296875 4.796875 
L 16.5 57.09375 
Q 17.40625 60.703125 17.40625 61.796875 
Q 17.40625 63.40625 16.453125 63.75 
Q 15.5 64.09375 11 64.296875 
L 11 66 
Q 18.5 66.90625 26.296875 68.296875 
L 26.796875 67.796875 
L 24.703125 59.59375 
z
M 38.796875 30.59375 
Q 38.796875 39.203125 31.796875 39.203125 
Q 24.90625 39.203125 18.09375 27.703125 
Q 14.90625 22.296875 12.90625 15.75 
Q 10.90625 9.203125 10.90625 4.59375 
Q 10.90625 1.203125 15.5 1.203125 
Q 22.09375 1.203125 27.796875 7.09375 
Q 32.40625 11.90625 35.59375 18.546875 
Q 38.796875 25.203125 38.796875 30.59375 
z
" id="STIXGeneral-Italic-98"/>
      <path d="M 30.40625 -16.09375 
L 29.203125 -17.703125 
Q 17.59375 -11.09375 11.1875 0.5 
Q 4.796875 12.09375 4.796875 25.203125 
Q 4.796875 52.90625 29.5 67.59375 
L 30.40625 66 
Q 20.203125 57.296875 16.796875 48.84375 
Q 13.40625 40.40625 13.40625 25.5 
Q 13.40625 10.703125 16.90625 1.5 
Q 20.40625 -7.703125 30.40625 -16.09375 
z
" id="STIXGeneral-Regular-40"/>
      <path d="M 29.59375 42.796875 
L 29.09375 39.59375 
L 20.703125 39.59375 
L 12 6.796875 
Q 11.796875 6 11.796875 5.40625 
Q 11.796875 3.796875 13.296875 3.796875 
Q 14.5 3.796875 16.09375 5.34375 
Q 17.703125 6.90625 21.40625 11.703125 
L 22.703125 11 
Q 18.09375 4 15.140625 1.453125 
Q 12.203125 -1.09375 8.40625 -1.09375 
Q 3.796875 -1.09375 3.796875 2.59375 
Q 3.796875 3.59375 5.40625 10 
L 13.203125 39.59375 
L 5.703125 39.59375 
L 5.59375 40.203125 
Q 5.59375 42 8.90625 42.703125 
Q 11.40625 43.296875 15.5 46.546875 
Q 19.59375 49.796875 22.203125 53.703125 
Q 22.796875 54.59375 23.59375 54.59375 
Q 24.5 54.59375 24.5 53.796875 
Q 24.5 53.296875 24.40625 53.09375 
L 21.59375 42.796875 
z
" id="STIXGeneral-Italic-116"/>
      <path d="M 2.90625 66 
L 4.09375 67.59375 
Q 15.5 60.796875 22 49.1875 
Q 28.5 37.59375 28.5 24.703125 
Q 28.5 -2.59375 3.796875 -17.703125 
L 2.90625 -16.09375 
Q 13.203125 -7.59375 16.546875 0.84375 
Q 19.90625 9.296875 19.90625 24.40625 
Q 19.90625 39.59375 16.546875 48.75 
Q 13.203125 57.90625 2.90625 66 
z
" id="STIXGeneral-Regular-41"/>
     </defs>
     <use transform="translate(0 0.703125)" xlink:href="#STIXGeneral-Italic-98"/>
     <use transform="translate(49.999985 0.703125)" xlink:href="#STIXGeneral-Regular-40"/>
     <use transform="translate(83.299973 0.703125)" xlink:href="#STIXGeneral-Italic-116"/>
     <use transform="translate(111.09996 0.703125)" xlink:href="#STIXGeneral-Regular-41"/>
    </g>
   </g>
   <g id="legend_1">
    <g id="line2d_11">
     <path d="M 438.388125 58.451688 
L 490.388125 58.451688 
" style="fill:none;stroke:#1f77b4;stroke-linecap:square;stroke-width:1.5;"/>
    </g>
    <g id="line2d_12"/>
    <g id="text_12">
     <!-- exact -->
     <g transform="translate(511.188125 67.551688)scale(0.26 -0.26)">
      <defs>
       <path d="M 54.890625 54.6875 
L 35.109375 28.078125 
L 55.90625 0 
L 45.3125 0 
L 29.390625 21.484375 
L 13.484375 0 
L 2.875 0 
L 24.125 28.609375 
L 4.6875 54.6875 
L 15.28125 54.6875 
L 29.78125 35.203125 
L 44.28125 54.6875 
z
" id="DejaVuSans-120"/>
       <path d="M 48.78125 52.59375 
L 48.78125 44.1875 
Q 44.96875 46.296875 41.140625 47.34375 
Q 37.3125 48.390625 33.40625 48.390625 
Q 24.65625 48.390625 19.8125 42.84375 
Q 14.984375 37.3125 14.984375 27.296875 
Q 14.984375 17.28125 19.8125 11.734375 
Q 24.65625 6.203125 33.40625 6.203125 
Q 37.3125 6.203125 41.140625 7.25 
Q 44.96875 8.296875 48.78125 10.40625 
L 48.78125 2.09375 
Q 45.015625 0.34375 40.984375 -0.53125 
Q 36.96875 -1.421875 32.421875 -1.421875 
Q 20.0625 -1.421875 12.78125 6.34375 
Q 5.515625 14.109375 5.515625 27.296875 
Q 5.515625 40.671875 12.859375 48.328125 
Q 20.21875 56 33.015625 56 
Q 37.15625 56 41.109375 55.140625 
Q 45.0625 54.296875 48.78125 52.59375 
z
" id="DejaVuSans-99"/>
      </defs>
      <use xlink:href="#DejaVuSans-101"/>
      <use x="59.773438" xlink:href="#DejaVuSans-120"/>
      <use x="118.953125" xlink:href="#DejaVuSans-97"/>
      <use x="180.232422" xlink:href="#DejaVuSans-99"/>
      <use x="235.212891" xlink:href="#DejaVuSans-116"/>
     </g>
    </g>
    <g id="line2d_13">
     <path d="M 438.388125 96.614813 
L 490.388125 96.614813 
" style="fill:none;stroke:#ff7f0e;stroke-linecap:square;stroke-width:1.5;"/>
    </g>
    <g id="line2d_14"/>
    <g id="text_13">
     <!-- estimated -->
     <g transform="translate(511.188125 105.714813)scale(0.26 -0.26)">
      <use xlink:href="#DejaVuSans-101"/>
      <use x="61.523438" xlink:href="#DejaVuSans-115"/>
      <use x="113.623047" xlink:href="#DejaVuSans-116"/>
      <use x="152.832031" xlink:href="#DejaVuSans-105"/>
      <use x="180.615234" xlink:href="#DejaVuSans-109"/>
      <use x="278.027344" xlink:href="#DejaVuSans-97"/>
      <use x="339.306641" xlink:href="#DejaVuSans-116"/>
      <use x="378.515625" xlink:href="#DejaVuSans-101"/>
      <use x="440.039062" xlink:href="#DejaVuSans-100"/>
     </g>
    </g>
   </g>
  </g>
 </g>
 <defs>
  <clipPath id="pa8c41e4cd7">
   <rect height="217.44" width="334.8" x="76.448125" y="37.39575"/>
  </clipPath>
 </defs>
</svg>
