<?xml version="1.0" encoding="utf-8" standalone="no"?>
<!DOCTYPE svg PUBLIC "-//W3C//DTD SVG 1.1//EN"
  "http://www.w3.org/Graphics/SVG/1.1/DTD/svg11.dtd">
<!-- Created with matplotlib (https://matplotlib.org/) -->
<svg height="319.550562pt" version="1.1" viewBox="0 0 643.793438 319.550562" width="643.793438pt" xmlns="http://www.w3.org/2000/svg" xmlns:xlink="http://www.w3.org/1999/xlink">
 <defs>
  <style type="text/css">
*{stroke-linecap:butt;stroke-linejoin:round;}
  </style>
 </defs>
 <g id="figure_1">
  <g id="patch_1">
   <path d="M 0 319.550562 
L 643.793438 319.550562 
L 643.793438 0 
L 0 0 
z
" style="fill:#ffffff;"/>
  </g>
  <g id="axes_1">
   <g id="patch_2">
    <path d="M 78.739375 253.173375 
L 413.539375 253.173375 
L 413.539375 35.733375 
L 78.739375 35.733375 
z
" style="fill:#ffffff;"/>
   </g>
   <g id="line2d_1">
    <path clip-path="url(#p97ee279853)" d="M 93.957557 216.933375 
L 195.429014 216.933375 
L 195.581221 108.213375 
L 398.321193 108.213375 
L 398.321193 108.213375 
" style="fill:none;stroke:#1f77b4;stroke-linecap:square;stroke-width:1.5;"/>
   </g>
   <g id="matplotlib.axis_1">
    <g id="xtick_1">
     <g id="line2d_2">
      <defs>
       <path d="M 0 0 
L 0 3.5 
" id="m7da65f8fbf" style="stroke:#000000;stroke-width:0.8;"/>
      </defs>
      <g>
       <use style="stroke:#000000;stroke-width:0.8;" x="93.957557" xlink:href="#m7da65f8fbf" y="253.173375"/>
      </g>
     </g>
     <g id="text_1">
      <!-- 0 -->
      <defs>
       <path d="M 4.15625 35.296875 
Q 4.15625 48 6.765625 55.734375 
Q 9.375 63.484375 14.515625 67.671875 
Q 19.671875 71.875 27.484375 71.875 
Q 33.25 71.875 37.59375 69.546875 
Q 41.9375 67.234375 44.765625 62.859375 
Q 47.609375 58.5 49.21875 52.21875 
Q 50.828125 45.953125 50.828125 35.296875 
Q 50.828125 22.703125 48.234375 14.96875 
Q 45.65625 7.234375 40.5 3 
Q 35.359375 -1.21875 27.484375 -1.21875 
Q 17.140625 -1.21875 11.234375 6.203125 
Q 4.15625 15.140625 4.15625 35.296875 
z
M 13.1875 35.296875 
Q 13.1875 17.671875 17.3125 11.828125 
Q 21.4375 6 27.484375 6 
Q 33.546875 6 37.671875 11.859375 
Q 41.796875 17.71875 41.796875 35.296875 
Q 41.796875 52.984375 37.671875 58.78125 
Q 33.546875 64.59375 27.390625 64.59375 
Q 21.34375 64.59375 17.71875 59.46875 
Q 13.1875 52.9375 13.1875 35.296875 
z
" id="ArialMT-48"/>
      </defs>
      <g transform="translate(86.728338 278.783687)scale(0.26 -0.26)">
       <use xlink:href="#ArialMT-48"/>
      </g>
     </g>
    </g>
    <g id="xtick_2">
     <g id="line2d_3">
      <g>
       <use style="stroke:#000000;stroke-width:0.8;" x="195.429014" xlink:href="#m7da65f8fbf" y="253.173375"/>
      </g>
     </g>
     <g id="text_2">
      <!-- 2 -->
      <defs>
       <path d="M 50.34375 8.453125 
L 50.34375 0 
L 3.03125 0 
Q 2.9375 3.171875 4.046875 6.109375 
Q 5.859375 10.9375 9.828125 15.625 
Q 13.8125 20.3125 21.34375 26.46875 
Q 33.015625 36.03125 37.109375 41.625 
Q 41.21875 47.21875 41.21875 52.203125 
Q 41.21875 57.421875 37.46875 61 
Q 33.734375 64.59375 27.734375 64.59375 
Q 21.390625 64.59375 17.578125 60.78125 
Q 13.765625 56.984375 13.71875 50.25 
L 4.6875 51.171875 
Q 5.609375 61.28125 11.65625 66.578125 
Q 17.71875 71.875 27.9375 71.875 
Q 38.234375 71.875 44.234375 66.15625 
Q 50.25 60.453125 50.25 52 
Q 50.25 47.703125 48.484375 43.546875 
Q 46.734375 39.40625 42.65625 34.8125 
Q 38.578125 30.21875 29.109375 22.21875 
Q 21.1875 15.578125 18.9375 13.203125 
Q 16.703125 10.84375 15.234375 8.453125 
z
" id="ArialMT-50"/>
      </defs>
      <g transform="translate(188.199795 278.783687)scale(0.26 -0.26)">
       <use xlink:href="#ArialMT-50"/>
      </g>
     </g>
    </g>
    <g id="xtick_3">
     <g id="line2d_4">
      <g>
       <use style="stroke:#000000;stroke-width:0.8;" x="296.900472" xlink:href="#m7da65f8fbf" y="253.173375"/>
      </g>
     </g>
     <g id="text_3">
      <!-- 4 -->
      <defs>
       <path d="M 32.328125 0 
L 32.328125 17.140625 
L 1.265625 17.140625 
L 1.265625 25.203125 
L 33.9375 71.578125 
L 41.109375 71.578125 
L 41.109375 25.203125 
L 50.78125 25.203125 
L 50.78125 17.140625 
L 41.109375 17.140625 
L 41.109375 0 
z
M 32.328125 25.203125 
L 32.328125 57.46875 
L 9.90625 25.203125 
z
" id="ArialMT-52"/>
      </defs>
      <g transform="translate(289.671253 278.783687)scale(0.26 -0.26)">
       <use xlink:href="#ArialMT-52"/>
      </g>
     </g>
    </g>
    <g id="xtick_4">
     <g id="line2d_5">
      <g>
       <use style="stroke:#000000;stroke-width:0.8;" x="398.371929" xlink:href="#m7da65f8fbf" y="253.173375"/>
      </g>
     </g>
     <g id="text_4">
      <!-- 6 -->
      <defs>
       <path d="M 49.75 54.046875 
L 41.015625 53.375 
Q 39.84375 58.546875 37.703125 60.890625 
Q 34.125 64.65625 28.90625 64.65625 
Q 24.703125 64.65625 21.53125 62.3125 
Q 17.390625 59.28125 14.984375 53.46875 
Q 12.59375 47.65625 12.5 36.921875 
Q 15.671875 41.75 20.265625 44.09375 
Q 24.859375 46.4375 29.890625 46.4375 
Q 38.671875 46.4375 44.84375 39.96875 
Q 51.03125 33.5 51.03125 23.25 
Q 51.03125 16.5 48.125 10.71875 
Q 45.21875 4.9375 40.140625 1.859375 
Q 35.0625 -1.21875 28.609375 -1.21875 
Q 17.625 -1.21875 10.6875 6.859375 
Q 3.765625 14.9375 3.765625 33.5 
Q 3.765625 54.25 11.421875 63.671875 
Q 18.109375 71.875 29.4375 71.875 
Q 37.890625 71.875 43.28125 67.140625 
Q 48.6875 62.40625 49.75 54.046875 
z
M 13.875 23.1875 
Q 13.875 18.65625 15.796875 14.5 
Q 17.71875 10.359375 21.1875 8.171875 
Q 24.65625 6 28.46875 6 
Q 34.03125 6 38.03125 10.484375 
Q 42.046875 14.984375 42.046875 22.703125 
Q 42.046875 30.125 38.078125 34.390625 
Q 34.125 38.671875 28.125 38.671875 
Q 22.171875 38.671875 18.015625 34.390625 
Q 13.875 30.125 13.875 23.1875 
z
" id="ArialMT-54"/>
      </defs>
      <g transform="translate(391.14271 278.783687)scale(0.26 -0.26)">
       <use xlink:href="#ArialMT-54"/>
      </g>
     </g>
    </g>
    <g id="text_5">
     <!-- time (s) -->
     <defs>
      <path d="M 25.78125 7.859375 
L 27.046875 0.09375 
Q 23.34375 -0.6875 20.40625 -0.6875 
Q 15.625 -0.6875 12.984375 0.828125 
Q 10.359375 2.34375 9.28125 4.8125 
Q 8.203125 7.28125 8.203125 15.1875 
L 8.203125 45.015625 
L 1.765625 45.015625 
L 1.765625 51.859375 
L 8.203125 51.859375 
L 8.203125 64.703125 
L 16.9375 69.96875 
L 16.9375 51.859375 
L 25.78125 51.859375 
L 25.78125 45.015625 
L 16.9375 45.015625 
L 16.9375 14.703125 
Q 16.9375 10.9375 17.40625 9.859375 
Q 17.875 8.796875 18.921875 8.15625 
Q 19.96875 7.515625 21.921875 7.515625 
Q 23.390625 7.515625 25.78125 7.859375 
z
" id="ArialMT-116"/>
      <path d="M 6.640625 61.46875 
L 6.640625 71.578125 
L 15.4375 71.578125 
L 15.4375 61.46875 
z
M 6.640625 0 
L 6.640625 51.859375 
L 15.4375 51.859375 
L 15.4375 0 
z
" id="ArialMT-105"/>
      <path d="M 6.59375 0 
L 6.59375 51.859375 
L 14.453125 51.859375 
L 14.453125 44.578125 
Q 16.890625 48.390625 20.9375 50.703125 
Q 25 53.03125 30.171875 53.03125 
Q 35.9375 53.03125 39.625 50.640625 
Q 43.3125 48.25 44.828125 43.953125 
Q 50.984375 53.03125 60.84375 53.03125 
Q 68.5625 53.03125 72.703125 48.75 
Q 76.859375 44.484375 76.859375 35.59375 
L 76.859375 0 
L 68.109375 0 
L 68.109375 32.671875 
Q 68.109375 37.9375 67.25 40.25 
Q 66.40625 42.578125 64.15625 43.984375 
Q 61.921875 45.40625 58.890625 45.40625 
Q 53.421875 45.40625 49.796875 41.765625 
Q 46.1875 38.140625 46.1875 30.125 
L 46.1875 0 
L 37.40625 0 
L 37.40625 33.6875 
Q 37.40625 39.546875 35.25 42.46875 
Q 33.109375 45.40625 28.21875 45.40625 
Q 24.515625 45.40625 21.359375 43.453125 
Q 18.21875 41.5 16.796875 37.734375 
Q 15.375 33.984375 15.375 26.90625 
L 15.375 0 
z
" id="ArialMT-109"/>
      <path d="M 42.09375 16.703125 
L 51.171875 15.578125 
Q 49.03125 7.625 43.21875 3.21875 
Q 37.40625 -1.171875 28.375 -1.171875 
Q 17 -1.171875 10.328125 5.828125 
Q 3.65625 12.84375 3.65625 25.484375 
Q 3.65625 38.578125 10.390625 45.796875 
Q 17.140625 53.03125 27.875 53.03125 
Q 38.28125 53.03125 44.875 45.953125 
Q 51.46875 38.875 51.46875 26.03125 
Q 51.46875 25.25 51.421875 23.6875 
L 12.75 23.6875 
Q 13.234375 15.140625 17.578125 10.59375 
Q 21.921875 6.0625 28.421875 6.0625 
Q 33.25 6.0625 36.671875 8.59375 
Q 40.09375 11.140625 42.09375 16.703125 
z
M 13.234375 30.90625 
L 42.1875 30.90625 
Q 41.609375 37.453125 38.875 40.71875 
Q 34.671875 45.796875 27.984375 45.796875 
Q 21.921875 45.796875 17.796875 41.75 
Q 13.671875 37.703125 13.234375 30.90625 
z
" id="ArialMT-101"/>
      <path id="ArialMT-32"/>
      <path d="M 23.390625 -21.046875 
Q 16.109375 -11.859375 11.078125 0.4375 
Q 6.0625 12.75 6.0625 25.921875 
Q 6.0625 37.546875 9.8125 48.1875 
Q 14.203125 60.546875 23.390625 72.796875 
L 29.6875 72.796875 
Q 23.78125 62.640625 21.875 58.296875 
Q 18.890625 51.5625 17.1875 44.234375 
Q 15.09375 35.109375 15.09375 25.875 
Q 15.09375 2.390625 29.6875 -21.046875 
z
" id="ArialMT-40"/>
      <path d="M 3.078125 15.484375 
L 11.765625 16.84375 
Q 12.5 11.625 15.84375 8.84375 
Q 19.1875 6.0625 25.203125 6.0625 
Q 31.25 6.0625 34.171875 8.515625 
Q 37.109375 10.984375 37.109375 14.3125 
Q 37.109375 17.28125 34.515625 19 
Q 32.71875 20.171875 25.53125 21.96875 
Q 15.875 24.421875 12.140625 26.203125 
Q 8.40625 27.984375 6.46875 31.125 
Q 4.546875 34.28125 4.546875 38.09375 
Q 4.546875 41.546875 6.125 44.5 
Q 7.71875 47.46875 10.453125 49.421875 
Q 12.5 50.921875 16.03125 51.96875 
Q 19.578125 53.03125 23.640625 53.03125 
Q 29.734375 53.03125 34.34375 51.265625 
Q 38.96875 49.515625 41.15625 46.5 
Q 43.359375 43.5 44.1875 38.484375 
L 35.59375 37.3125 
Q 35.015625 41.3125 32.203125 43.546875 
Q 29.390625 45.796875 24.265625 45.796875 
Q 18.21875 45.796875 15.625 43.796875 
Q 13.03125 41.796875 13.03125 39.109375 
Q 13.03125 37.40625 14.109375 36.03125 
Q 15.1875 34.625 17.484375 33.6875 
Q 18.796875 33.203125 25.25 31.453125 
Q 34.578125 28.953125 38.25 27.359375 
Q 41.9375 25.78125 44.03125 22.75 
Q 46.140625 19.734375 46.140625 15.234375 
Q 46.140625 10.84375 43.578125 6.953125 
Q 41.015625 3.078125 36.171875 0.953125 
Q 31.34375 -1.171875 25.25 -1.171875 
Q 15.140625 -1.171875 9.84375 3.03125 
Q 4.546875 7.234375 3.078125 15.484375 
z
" id="ArialMT-115"/>
      <path d="M 12.359375 -21.046875 
L 6.0625 -21.046875 
Q 20.65625 2.390625 20.65625 25.875 
Q 20.65625 35.0625 18.5625 44.09375 
Q 16.890625 51.421875 13.921875 58.15625 
Q 12.015625 62.546875 6.0625 72.796875 
L 12.359375 72.796875 
Q 21.53125 60.546875 25.921875 48.1875 
Q 29.6875 37.546875 29.6875 25.921875 
Q 29.6875 12.75 24.625 0.4375 
Q 19.578125 -11.859375 12.359375 -21.046875 
z
" id="ArialMT-41"/>
     </defs>
     <g transform="translate(202.812813 306.878375)scale(0.26 -0.26)">
      <use xlink:href="#ArialMT-116"/>
      <use x="27.783203" xlink:href="#ArialMT-105"/>
      <use x="50" xlink:href="#ArialMT-109"/>
      <use x="133.300781" xlink:href="#ArialMT-101"/>
      <use x="188.916016" xlink:href="#ArialMT-32"/>
      <use x="216.699219" xlink:href="#ArialMT-40"/>
      <use x="250" xlink:href="#ArialMT-115"/>
      <use x="300" xlink:href="#ArialMT-41"/>
     </g>
    </g>
   </g>
   <g id="matplotlib.axis_2">
    <g id="ytick_1">
     <g id="line2d_6">
      <defs>
       <path d="M 0 0 
L -3.5 0 
" id="m3cf3216040" style="stroke:#000000;stroke-width:0.8;"/>
      </defs>
      <g>
       <use style="stroke:#000000;stroke-width:0.8;" x="78.739375" xlink:href="#m3cf3216040" y="253.173375"/>
      </g>
     </g>
     <g id="text_6">
      <!-- 3.0 -->
      <defs>
       <path d="M 4.203125 18.890625 
L 12.984375 20.0625 
Q 14.5 12.59375 18.140625 9.296875 
Q 21.78125 6 27 6 
Q 33.203125 6 37.46875 10.296875 
Q 41.75 14.59375 41.75 20.953125 
Q 41.75 27 37.796875 30.921875 
Q 33.84375 34.859375 27.734375 34.859375 
Q 25.25 34.859375 21.53125 33.890625 
L 22.515625 41.609375 
Q 23.390625 41.5 23.921875 41.5 
Q 29.546875 41.5 34.03125 44.421875 
Q 38.53125 47.359375 38.53125 53.46875 
Q 38.53125 58.296875 35.25 61.46875 
Q 31.984375 64.65625 26.8125 64.65625 
Q 21.6875 64.65625 18.265625 61.421875 
Q 14.84375 58.203125 13.875 51.765625 
L 5.078125 53.328125 
Q 6.6875 62.15625 12.390625 67.015625 
Q 18.109375 71.875 26.609375 71.875 
Q 32.46875 71.875 37.390625 69.359375 
Q 42.328125 66.84375 44.9375 62.5 
Q 47.5625 58.15625 47.5625 53.265625 
Q 47.5625 48.640625 45.0625 44.828125 
Q 42.578125 41.015625 37.703125 38.765625 
Q 44.046875 37.3125 47.5625 32.6875 
Q 51.078125 28.078125 51.078125 21.140625 
Q 51.078125 11.765625 44.234375 5.25 
Q 37.40625 -1.265625 26.953125 -1.265625 
Q 17.53125 -1.265625 11.296875 4.34375 
Q 5.078125 9.96875 4.203125 18.890625 
z
" id="ArialMT-51"/>
       <path d="M 9.078125 0 
L 9.078125 10.015625 
L 19.09375 10.015625 
L 19.09375 0 
z
" id="ArialMT-46"/>
      </defs>
      <g transform="translate(35.599375 262.478531)scale(0.26 -0.26)">
       <use xlink:href="#ArialMT-51"/>
       <use x="55.615234" xlink:href="#ArialMT-46"/>
       <use x="83.398438" xlink:href="#ArialMT-48"/>
      </g>
     </g>
    </g>
    <g id="ytick_2">
     <g id="line2d_7">
      <g>
       <use style="stroke:#000000;stroke-width:0.8;" x="78.739375" xlink:href="#m3cf3216040" y="180.693375"/>
      </g>
     </g>
     <g id="text_7">
      <!-- 3.5 -->
      <defs>
       <path d="M 4.15625 18.75 
L 13.375 19.53125 
Q 14.40625 12.796875 18.140625 9.390625 
Q 21.875 6 27.15625 6 
Q 33.5 6 37.890625 10.78125 
Q 42.28125 15.578125 42.28125 23.484375 
Q 42.28125 31 38.0625 35.34375 
Q 33.84375 39.703125 27 39.703125 
Q 22.75 39.703125 19.328125 37.765625 
Q 15.921875 35.84375 13.96875 32.765625 
L 5.71875 33.84375 
L 12.640625 70.609375 
L 48.25 70.609375 
L 48.25 62.203125 
L 19.671875 62.203125 
L 15.828125 42.96875 
Q 22.265625 47.46875 29.34375 47.46875 
Q 38.71875 47.46875 45.15625 40.96875 
Q 51.609375 34.46875 51.609375 24.265625 
Q 51.609375 14.546875 45.953125 7.46875 
Q 39.0625 -1.21875 27.15625 -1.21875 
Q 17.390625 -1.21875 11.203125 4.25 
Q 5.03125 9.71875 4.15625 18.75 
z
" id="ArialMT-53"/>
      </defs>
      <g transform="translate(35.599375 189.998531)scale(0.26 -0.26)">
       <use xlink:href="#ArialMT-51"/>
       <use x="55.615234" xlink:href="#ArialMT-46"/>
       <use x="83.398438" xlink:href="#ArialMT-53"/>
      </g>
     </g>
    </g>
    <g id="ytick_3">
     <g id="line2d_8">
      <g>
       <use style="stroke:#000000;stroke-width:0.8;" x="78.739375" xlink:href="#m3cf3216040" y="108.213375"/>
      </g>
     </g>
     <g id="text_8">
      <!-- 4.0 -->
      <g transform="translate(35.599375 117.518531)scale(0.26 -0.26)">
       <use xlink:href="#ArialMT-52"/>
       <use x="55.615234" xlink:href="#ArialMT-46"/>
       <use x="83.398438" xlink:href="#ArialMT-48"/>
      </g>
     </g>
    </g>
    <g id="ytick_4">
     <g id="line2d_9">
      <g>
       <use style="stroke:#000000;stroke-width:0.8;" x="78.739375" xlink:href="#m3cf3216040" y="35.733375"/>
      </g>
     </g>
     <g id="text_9">
      <!-- 4.5 -->
      <g transform="translate(35.599375 45.038531)scale(0.26 -0.26)">
       <use xlink:href="#ArialMT-52"/>
       <use x="55.615234" xlink:href="#ArialMT-46"/>
       <use x="83.398438" xlink:href="#ArialMT-53"/>
      </g>
     </g>
    </g>
    <g id="text_10">
     <!-- amplitude (a.u.) -->
     <defs>
      <path d="M 40.4375 6.390625 
Q 35.546875 2.25 31.03125 0.53125 
Q 26.515625 -1.171875 21.34375 -1.171875 
Q 12.796875 -1.171875 8.203125 3 
Q 3.609375 7.171875 3.609375 13.671875 
Q 3.609375 17.484375 5.34375 20.625 
Q 7.078125 23.78125 9.890625 25.6875 
Q 12.703125 27.59375 16.21875 28.5625 
Q 18.796875 29.25 24.03125 29.890625 
Q 34.671875 31.15625 39.703125 32.90625 
Q 39.75 34.71875 39.75 35.203125 
Q 39.75 40.578125 37.25 42.78125 
Q 33.890625 45.75 27.25 45.75 
Q 21.046875 45.75 18.09375 43.578125 
Q 15.140625 41.40625 13.71875 35.890625 
L 5.125 37.0625 
Q 6.296875 42.578125 8.984375 45.96875 
Q 11.671875 49.359375 16.75 51.1875 
Q 21.828125 53.03125 28.515625 53.03125 
Q 35.15625 53.03125 39.296875 51.46875 
Q 43.453125 49.90625 45.40625 47.53125 
Q 47.359375 45.171875 48.140625 41.546875 
Q 48.578125 39.3125 48.578125 33.453125 
L 48.578125 21.734375 
Q 48.578125 9.46875 49.140625 6.21875 
Q 49.703125 2.984375 51.375 0 
L 42.1875 0 
Q 40.828125 2.734375 40.4375 6.390625 
z
M 39.703125 26.03125 
Q 34.90625 24.078125 25.34375 22.703125 
Q 19.921875 21.921875 17.671875 20.9375 
Q 15.4375 19.96875 14.203125 18.09375 
Q 12.984375 16.21875 12.984375 13.921875 
Q 12.984375 10.40625 15.640625 8.0625 
Q 18.3125 5.71875 23.4375 5.71875 
Q 28.515625 5.71875 32.46875 7.9375 
Q 36.421875 10.15625 38.28125 14.015625 
Q 39.703125 17 39.703125 22.796875 
z
" id="ArialMT-97"/>
      <path d="M 6.59375 -19.875 
L 6.59375 51.859375 
L 14.59375 51.859375 
L 14.59375 45.125 
Q 17.4375 49.078125 21 51.046875 
Q 24.5625 53.03125 29.640625 53.03125 
Q 36.28125 53.03125 41.359375 49.609375 
Q 46.4375 46.1875 49.015625 39.953125 
Q 51.609375 33.734375 51.609375 26.3125 
Q 51.609375 18.359375 48.75 11.984375 
Q 45.90625 5.609375 40.453125 2.21875 
Q 35.015625 -1.171875 29 -1.171875 
Q 24.609375 -1.171875 21.109375 0.6875 
Q 17.625 2.546875 15.375 5.375 
L 15.375 -19.875 
z
M 14.546875 25.640625 
Q 14.546875 15.625 18.59375 10.84375 
Q 22.65625 6.0625 28.421875 6.0625 
Q 34.28125 6.0625 38.453125 11.015625 
Q 42.625 15.96875 42.625 26.375 
Q 42.625 36.28125 38.546875 41.203125 
Q 34.46875 46.140625 28.8125 46.140625 
Q 23.1875 46.140625 18.859375 40.890625 
Q 14.546875 35.640625 14.546875 25.640625 
z
" id="ArialMT-112"/>
      <path d="M 6.390625 0 
L 6.390625 71.578125 
L 15.1875 71.578125 
L 15.1875 0 
z
" id="ArialMT-108"/>
      <path d="M 40.578125 0 
L 40.578125 7.625 
Q 34.515625 -1.171875 24.125 -1.171875 
Q 19.53125 -1.171875 15.546875 0.578125 
Q 11.578125 2.34375 9.640625 5 
Q 7.71875 7.671875 6.9375 11.53125 
Q 6.390625 14.109375 6.390625 19.734375 
L 6.390625 51.859375 
L 15.1875 51.859375 
L 15.1875 23.09375 
Q 15.1875 16.21875 15.71875 13.8125 
Q 16.546875 10.359375 19.234375 8.375 
Q 21.921875 6.390625 25.875 6.390625 
Q 29.828125 6.390625 33.296875 8.421875 
Q 36.765625 10.453125 38.203125 13.9375 
Q 39.65625 17.4375 39.65625 24.078125 
L 39.65625 51.859375 
L 48.4375 51.859375 
L 48.4375 0 
z
" id="ArialMT-117"/>
      <path d="M 40.234375 0 
L 40.234375 6.546875 
Q 35.296875 -1.171875 25.734375 -1.171875 
Q 19.53125 -1.171875 14.328125 2.25 
Q 9.125 5.671875 6.265625 11.796875 
Q 3.421875 17.921875 3.421875 25.875 
Q 3.421875 33.640625 6 39.96875 
Q 8.59375 46.296875 13.765625 49.65625 
Q 18.953125 53.03125 25.34375 53.03125 
Q 30.03125 53.03125 33.6875 51.046875 
Q 37.359375 49.078125 39.65625 45.90625 
L 39.65625 71.578125 
L 48.390625 71.578125 
L 48.390625 0 
z
M 12.453125 25.875 
Q 12.453125 15.921875 16.640625 10.984375 
Q 20.84375 6.0625 26.5625 6.0625 
Q 32.328125 6.0625 36.34375 10.765625 
Q 40.375 15.484375 40.375 25.140625 
Q 40.375 35.796875 36.265625 40.765625 
Q 32.171875 45.75 26.171875 45.75 
Q 20.3125 45.75 16.375 40.96875 
Q 12.453125 36.1875 12.453125 25.875 
z
" id="ArialMT-100"/>
     </defs>
     <g transform="translate(26.127187 234.766812)rotate(-90)scale(0.26 -0.26)">
      <use xlink:href="#ArialMT-97"/>
      <use x="55.615234" xlink:href="#ArialMT-109"/>
      <use x="138.916016" xlink:href="#ArialMT-112"/>
      <use x="194.53125" xlink:href="#ArialMT-108"/>
      <use x="216.748047" xlink:href="#ArialMT-105"/>
      <use x="238.964844" xlink:href="#ArialMT-116"/>
      <use x="266.748047" xlink:href="#ArialMT-117"/>
      <use x="322.363281" xlink:href="#ArialMT-100"/>
      <use x="377.978516" xlink:href="#ArialMT-101"/>
      <use x="433.59375" xlink:href="#ArialMT-32"/>
      <use x="461.376953" xlink:href="#ArialMT-40"/>
      <use x="494.677734" xlink:href="#ArialMT-97"/>
      <use x="550.292969" xlink:href="#ArialMT-46"/>
      <use x="578.076172" xlink:href="#ArialMT-117"/>
      <use x="633.691406" xlink:href="#ArialMT-46"/>
      <use x="661.474609" xlink:href="#ArialMT-41"/>
     </g>
    </g>
   </g>
   <g id="line2d_10">
    <path clip-path="url(#p97ee279853)" d="M 93.957557 216.933375 
L 94.921536 217.022903 
L 95.530364 217.362963 
L 95.682572 217.514295 
L 95.834779 217.510225 
L 95.986986 217.5071 
L 96.240665 217.502556 
L 96.950965 217.483088 
L 97.103172 218.012932 
L 97.712001 221.405093 
L 97.965679 221.485157 
L 98.219358 221.51719 
L 98.523772 221.88277 
L 98.726715 222.057592 
L 99.234073 222.209661 
L 100.198051 221.985487 
L 100.350259 221.862607 
L 100.400994 221.844174 
L 100.654673 221.076646 
L 100.80688 220.661159 
L 101.060559 219.563279 
L 101.111295 219.594905 
L 101.466445 218.657851 
L 101.567916 218.698488 
L 102.126009 218.117752 
L 102.278216 217.073024 
L 102.328952 217.223384 
L 102.379688 216.835962 
L 102.430424 216.970325 
L 102.481159 217.264873 
L 102.734838 215.629779 
L 103.039252 216.311967 
L 103.140724 216.423683 
L 103.292931 216.861932 
L 103.343667 216.841906 
L 103.54661 216.89513 
L 103.698817 216.904687 
L 103.952495 217.009892 
L 104.409117 217.547623 
L 104.865738 217.641247 
L 105.931189 217.605176 
L 105.981925 217.446238 
L 106.03266 217.610347 
L 106.489282 216.552453 
L 106.692225 215.577579 
L 106.844432 214.865911 
L 106.996639 213.9573 
L 107.047375 213.994552 
L 107.098111 214.077073 
L 107.250318 213.755189 
L 107.351789 213.669396 
L 107.402525 214.062201 
L 107.453261 213.976971 
L 107.554732 213.856813 
L 107.706939 214.040649 
L 107.757675 214.762701 
L 107.808411 214.43105 
L 107.859146 214.463294 
L 108.112825 215.140611 
L 108.265032 215.010215 
L 108.467975 215.024058 
L 108.620182 215.066036 
L 108.823125 215.21062 
L 108.924597 215.173032 
L 109.12754 215.290802 
L 109.48269 215.351546 
L 109.736368 215.315962 
L 110.040783 215.323213 
L 110.649612 215.235216 
L 110.90329 215.083394 
L 111.055497 215.213218 
L 111.61359 213.915361 
L 111.918005 212.454557 
L 112.019476 212.243381 
L 112.070212 212.472745 
L 112.120948 212.403532 
L 112.171683 212.365865 
L 112.476098 211.329299 
L 112.577569 211.343611 
L 113.084927 212.26752 
L 113.237134 212.370259 
L 113.490812 212.258116 
L 113.64302 212.048969 
L 113.845962 212.195331 
L 114.099641 212.222279 
L 114.404055 212.546876 
L 114.70847 212.676911 
L 115.824656 212.672696 
L 115.875392 212.774003 
L 115.926127 212.699392 
L 115.976863 212.682233 
L 116.027599 212.787004 
L 116.078335 212.758057 
L 116.281277 212.532653 
L 116.433485 212.696418 
L 116.48422 212.607308 
L 116.636428 212.172738 
L 116.83937 212.480666 
L 117.093049 211.444975 
L 117.143785 211.52224 
L 117.194521 211.91569 
L 117.295992 211.895706 
L 117.549671 212.412254 
L 117.600406 212.280985 
L 117.651142 212.377082 
L 117.854085 212.519226 
L 118.107764 212.527812 
L 118.462914 212.71841 
L 118.665857 212.807729 
L 118.8688 212.905479 
L 118.970271 212.999579 
L 119.22395 213.22928 
L 119.376157 213.254552 
L 119.731307 213.248302 
L 120.035721 213.27597 
L 120.2894 213.226706 
L 120.441607 213.184114 
L 120.543079 213.258994 
L 120.593814 213.212142 
L 120.64455 213.241405 
L 120.746022 212.970428 
L 120.847493 213.031738 
L 120.898229 213.253788 
L 120.948964 213.144462 
L 121.050436 212.859103 
L 121.151907 213.042172 
L 121.202643 213.018025 
L 121.405586 212.761767 
L 121.507057 212.918812 
L 121.557793 212.472072 
L 121.659265 212.497307 
L 121.71 212.165113 
L 121.760736 212.699694 
L 121.811472 212.354977 
L 121.862208 212.453601 
L 121.912943 212.38297 
L 121.963679 212.338684 
L 122.014415 212.140656 
L 122.065151 212.201338 
L 122.115886 212.328749 
L 122.166622 212.148369 
L 122.369565 212.854683 
L 122.420301 212.746952 
L 122.471036 212.781847 
L 122.927658 212.83839 
L 123.029129 212.696246 
L 123.181337 212.765468 
L 123.333544 212.640553 
L 123.384279 212.749938 
L 123.435015 212.608257 
L 123.688694 212.583934 
L 123.840901 212.652971 
L 123.891637 212.493387 
L 123.942372 212.564787 
L 124.196051 212.707787 
L 125.058559 212.751263 
L 125.768859 212.042661 
L 125.921066 211.330303 
L 125.971802 211.329823 
L 126.377687 210.06503 
L 126.58063 208.704538 
L 126.732838 209.16882 
L 126.783573 208.961254 
L 126.834309 209.008733 
L 126.885045 209.148798 
L 126.93578 208.968667 
L 126.986516 209.00108 
L 127.138723 209.332818 
L 127.341666 209.338285 
L 127.493873 209.159108 
L 127.747552 208.84747 
L 128.001231 208.725248 
L 128.153438 208.385917 
L 128.61006 209.192169 
L 128.711531 209.326877 
L 128.762267 209.226324 
L 128.96521 209.577776 
L 129.168153 209.633566 
L 129.726246 209.659097 
L 129.979924 209.38215 
L 130.132131 209.346448 
L 130.182867 209.331806 
L 130.284339 209.105817 
L 130.335074 209.177457 
L 130.38581 209.199862 
L 130.436546 208.997154 
L 130.487281 209.061417 
L 130.690224 209.217906 
L 130.842432 210.064888 
L 130.994639 209.688421 
L 131.197582 210.644928 
L 131.248317 210.232212 
L 131.400525 211.033666 
L 131.552732 211.555949 
L 131.603468 211.727764 
L 131.704939 211.685895 
L 131.857146 211.75766 
L 132.263032 211.798596 
L 132.465975 211.923776 
L 132.567446 211.806126 
L 133.074804 212.270426 
L 133.277747 212.302606 
L 133.480689 212.145947 
L 133.632897 212.312863 
L 133.937311 212.438273 
L 134.19099 212.425884 
L 134.596875 212.370385 
L 134.952026 211.943533 
L 135.002761 212.109606 
L 135.104233 212.067134 
L 135.662326 210.363798 
L 135.814533 210.690087 
L 135.865269 210.600166 
L 135.916004 210.52456 
L 136.017476 209.819629 
L 136.068212 209.949434 
L 136.372626 209.830702 
L 136.575569 209.943247 
L 137.03219 209.820785 
L 137.082926 209.79698 
L 137.285869 209.140726 
L 137.590283 208.658761 
L 137.793226 208.925133 
L 137.996169 209.125906 
L 138.046905 209.085541 
L 138.249848 209.463107 
L 138.503527 209.603102 
L 138.757205 209.664797 
L 139.213827 209.597821 
L 139.315298 209.492118 
L 139.366034 209.595895 
L 139.41677 209.333365 
L 139.467505 209.407523 
L 139.518241 209.562249 
L 139.568977 209.118249 
L 139.619713 209.14044 
L 139.721184 209.403455 
L 139.924127 208.797331 
L 139.974863 208.877966 
L 140.025598 209.113762 
L 140.12707 208.36689 
L 140.177806 208.543432 
L 140.380749 209.418271 
L 140.431484 209.181376 
L 140.48222 209.247762 
L 140.685163 209.846039 
L 140.735899 209.681819 
L 140.786634 209.539273 
L 140.83737 209.583235 
L 140.888106 209.628383 
L 140.938842 209.424038 
L 140.989577 209.483947 
L 141.141784 209.490019 
L 141.395463 209.37769 
L 141.649142 209.145342 
L 141.750613 209.282336 
L 141.801349 209.317411 
L 141.953556 209.613776 
L 142.055028 209.844232 
L 142.156499 209.927676 
L 142.207235 209.853581 
L 142.257971 209.924071 
L 142.410178 210.183791 
L 143.272685 210.988821 
L 143.780042 211.123528 
L 144.084457 211.03887 
L 144.236664 210.869131 
L 144.591814 210.673716 
L 144.693286 210.946168 
L 144.794757 210.559566 
L 144.896228 210.608963 
L 145.048436 210.321902 
L 145.149907 210.803857 
L 145.200643 210.767015 
L 145.251379 211.032731 
L 145.403586 210.395723 
L 145.657264 211.101851 
L 145.910943 211.134644 
L 146.06315 211.067051 
L 146.4183 210.769883 
L 146.925658 211.6622 
L 147.1286 212.047188 
L 147.230072 212.064405 
L 147.382279 212.023921 
L 147.635958 212.482738 
L 148.143315 212.512509 
L 148.498465 212.523258 
L 148.650672 212.508225 
L 148.853615 212.528456 
L 148.904351 212.451336 
L 148.955087 212.535938 
L 149.056558 212.635393 
L 149.15803 212.856289 
L 149.259501 212.671969 
L 149.462444 213.281084 
L 149.614651 212.435142 
L 149.716123 212.166439 
L 149.919066 211.336743 
L 150.020537 211.457941 
L 150.071273 211.426468 
L 150.57863 209.992923 
L 150.629366 210.010735 
L 151.238195 209.810491 
L 151.390402 209.286678 
L 151.491873 209.348534 
L 151.694816 209.188407 
L 151.796288 209.363556 
L 151.897759 209.064985 
L 152.049966 209.311825 
L 152.202173 209.401086 
L 152.354381 209.661085 
L 152.405116 209.582759 
L 152.455852 209.6637 
L 152.760266 210.217679 
L 152.811002 210.173458 
L 153.419831 210.280874 
L 153.724245 209.82341 
L 153.774981 209.893137 
L 153.927188 209.341462 
L 153.977924 209.387132 
L 154.02866 209.458282 
L 154.130131 209.928693 
L 154.180867 209.886083 
L 154.282338 209.46009 
L 154.333074 209.639947 
L 154.38381 209.77226 
L 154.434545 209.529933 
L 154.485281 209.655441 
L 154.536017 209.858053 
L 154.637488 209.347999 
L 154.688224 209.417912 
L 155.144846 211.112414 
L 155.398524 211.166578 
L 155.956617 211.101208 
L 156.007353 211.333864 
L 156.108824 211.301545 
L 156.261032 211.493193 
L 156.311767 211.434533 
L 156.362503 211.509336 
L 156.565446 211.909065 
L 156.666917 211.656088 
L 156.717653 211.790995 
L 156.819125 211.812105 
L 156.86986 211.746806 
L 157.022068 212.07223 
L 157.326482 212.317706 
L 157.478689 212.267399 
L 157.681632 212.325602 
L 157.935311 212.304517 
L 158.036782 212.34874 
L 158.188989 212.169542 
L 158.239725 212.276821 
L 158.391932 211.895559 
L 158.442668 212.120015 
L 158.493404 211.848096 
L 158.696347 211.210897 
L 158.797818 211.491718 
L 158.848554 211.683865 
L 158.89929 211.454709 
L 159.051497 211.169713 
L 159.102232 210.999692 
L 159.152968 211.187905 
L 159.305175 211.504052 
L 159.355911 211.489245 
L 159.457383 211.02901 
L 159.60959 211.509337 
L 159.660325 211.247861 
L 159.711061 211.393374 
L 159.863268 211.43451 
L 160.066211 211.80974 
L 160.218418 211.725031 
L 161.03019 211.123117 
L 161.233133 211.203287 
L 161.486812 211.904146 
L 161.588283 211.976623 
L 161.74049 212.055501 
L 161.791226 212.005135 
L 161.943433 212.245103 
L 162.602998 212.229081 
L 162.805941 212.025844 
L 162.856676 212.022663 
L 162.958148 212.167046 
L 163.161091 211.833473 
L 163.313298 212.198788 
L 163.465505 211.925742 
L 163.769919 211.336886 
L 163.922127 211.755587 
L 163.972862 211.769906 
L 164.277277 211.108731 
L 164.429484 211.250675 
L 164.48022 211.193437 
L 164.83537 211.154824 
L 165.038313 210.899795 
L 165.089048 210.940408 
L 165.139784 210.7604 
L 165.19052 210.936711 
L 165.291991 210.749929 
L 165.342727 210.858558 
L 165.393463 210.94067 
L 165.444199 211.242372 
L 165.54567 211.205924 
L 165.697877 210.999518 
L 165.748613 210.984471 
L 165.799349 210.824691 
L 165.850084 211.064167 
L 165.90082 210.922802 
L 166.053027 210.524752 
L 166.103763 210.442032 
L 166.306706 210.71295 
L 166.560385 210.928449 
L 166.661856 210.784305 
L 166.712592 210.843263 
L 167.219949 210.827455 
L 167.32142 210.681141 
L 167.372156 210.870762 
L 167.422892 210.726748 
L 167.727306 209.793222 
L 167.778042 209.71553 
L 167.828778 209.790642 
L 168.031721 210.609567 
L 168.082456 210.171542 
L 168.133192 210.023025 
L 168.386871 210.789544 
L 168.437607 210.686589 
L 168.488342 210.795617 
L 168.539078 210.805107 
L 168.589814 210.692649 
L 168.640549 210.836239 
L 168.742021 210.981885 
L 169.097171 211.30933 
L 169.553793 211.618945 
L 169.604528 211.500253 
L 169.807471 211.152071 
L 169.858207 211.337611 
L 169.908943 211.305353 
L 170.314828 211.010898 
L 170.365564 211.105911 
L 170.669979 211.395917 
L 170.720714 211.281127 
L 170.77145 211.203817 
L 170.974393 211.48597 
L 171.735429 212.004869 
L 171.887636 212.038102 
L 171.989108 212.172832 
L 172.141315 211.947141 
L 172.19205 211.963705 
L 172.242786 211.854429 
L 172.344258 212.2081 
L 172.394993 212.038344 
L 172.445729 212.072137 
L 172.547201 212.1684 
L 172.800879 211.398593 
L 172.851615 211.282425 
L 173.003822 210.63077 
L 173.054558 210.715878 
L 173.105294 210.599086 
L 173.156029 210.170869 
L 173.206765 210.284413 
L 173.257501 210.493277 
L 173.308236 210.276745 
L 173.511179 210.365861 
L 173.561915 210.307326 
L 173.815594 210.654415 
L 174.018537 210.670761 
L 174.120008 210.493948 
L 174.170744 210.521107 
L 174.272215 210.601289 
L 174.373687 210.143025 
L 174.424423 210.20632 
L 174.475158 210.168046 
L 174.627365 210.740395 
L 174.678101 210.605722 
L 174.728837 210.643513 
L 174.881044 211.106312 
L 175.033251 211.456342 
L 175.134723 211.332812 
L 175.236194 211.465578 
L 175.28693 211.395654 
L 175.388401 211.226372 
L 175.439137 211.315606 
L 175.540609 211.460222 
L 175.591344 211.438599 
L 175.64208 211.340863 
L 175.692816 211.435526 
L 175.743551 211.60242 
L 175.794287 211.495525 
L 175.99723 211.447905 
L 176.200173 211.556315 
L 176.504587 211.500765 
L 176.859737 211.107079 
L 177.113416 211.107015 
L 177.164152 211.277322 
L 177.214888 211.197385 
L 177.316359 210.853001 
L 177.367095 210.99001 
L 177.417831 210.847459 
L 177.468566 210.313238 
L 177.519302 210.693552 
L 177.671509 210.131071 
L 177.722245 209.850386 
L 177.772981 209.896605 
L 177.925188 210.32171 
L 178.077395 210.579544 
L 178.229602 210.440344 
L 178.280338 210.458577 
L 178.483281 210.721605 
L 178.686224 210.600471 
L 178.838431 210.320822 
L 178.889167 210.359195 
L 179.09211 210.353291 
L 179.295052 210.938967 
L 179.345788 211.010476 
L 179.548731 211.727294 
L 179.599467 211.749932 
L 179.650203 211.970319 
L 179.700938 211.846303 
L 179.751674 211.71774 
L 180.005353 212.446332 
L 180.106824 212.442383 
L 180.208296 212.53213 
L 180.259031 212.413591 
L 180.461974 212.362208 
L 180.563446 212.48749 
L 180.614181 212.458736 
L 180.715653 212.423876 
L 181.020067 212.437462 
L 181.628896 212.364163 
L 181.730367 212.266177 
L 181.781103 212.37751 
L 182.237725 208.981982 
L 182.28846 209.036911 
L 182.339196 209.079598 
L 182.389932 208.683654 
L 182.440668 209.087737 
L 182.491403 208.845218 
L 182.643611 210.402679 
L 182.745082 210.239497 
L 182.795818 210.365428 
L 182.846553 210.250662 
L 182.897289 210.241964 
L 183.049496 210.571797 
L 183.201704 210.649085 
L 183.353911 210.615858 
L 183.506118 210.389727 
L 183.658325 210.622911 
L 183.709061 210.503609 
L 183.810532 210.766908 
L 183.912004 210.634265 
L 184.165682 211.283577 
L 184.216418 211.203078 
L 184.267154 211.270901 
L 184.31789 211.331394 
L 184.368625 211.614928 
L 184.419361 211.438371 
L 184.571568 211.501715 
L 184.622304 211.256447 
L 184.67304 211.41582 
L 184.723775 211.432749 
L 184.825247 211.249352 
L 184.875983 211.322176 
L 185.02819 211.134377 
L 185.231133 211.145047 
L 185.687754 211.362752 
L 186.09364 211.424767 
L 186.144376 211.070813 
L 186.195112 211.146017 
L 186.398054 211.522956 
L 186.44879 211.321336 
L 186.499526 211.373648 
L 186.600997 211.934897 
L 186.702469 211.872926 
L 186.854676 211.36931 
L 187.057619 211.887674 
L 187.108355 212.160521 
L 187.15909 211.980644 
L 187.260562 212.117159 
L 187.311298 212.62295 
L 187.362033 212.526256 
L 187.412769 212.465015 
L 187.615712 212.953688 
L 187.767919 213.268704 
L 187.869391 213.205032 
L 188.072334 213.203582 
L 188.123069 213.164598 
L 188.173805 213.254181 
L 188.275276 213.201353 
L 188.376748 213.078176 
L 188.630427 212.821021 
L 188.681162 212.892196 
L 188.731898 212.795467 
L 188.985577 212.71682 
L 189.137784 212.553784 
L 189.340727 212.81452 
L 189.645141 213.216761 
L 189.695877 213.135584 
L 189.848084 213.398835 
L 189.89882 213.330997 
L 190.051027 213.518263 
L 190.406177 213.572314 
L 190.913534 213.424639 
L 191.065742 213.736325 
L 191.217949 213.169357 
L 191.268684 213.605732 
L 191.31942 213.473389 
L 191.370156 213.369917 
L 191.420892 213.008416 
L 191.471627 213.386322 
L 191.623835 213.410837 
L 191.928249 211.705233 
L 192.02972 211.95234 
L 192.181928 211.375577 
L 192.232663 211.461912 
L 192.38487 211.613473 
L 192.587813 211.528961 
L 192.841492 211.495049 
L 193.298114 210.320125 
L 193.348849 210.413009 
L 193.653264 211.307695 
L 193.703999 211.150443 
L 193.754735 211.228674 
L 193.957678 211.798415 
L 194.05915 211.851322 
L 194.312828 212.193428 
L 194.718714 211.981961 
L 195.023128 211.991721 
L 195.429014 211.969556 
L 195.530486 212.194968 
L 195.581221 212.042027 
L 195.682693 211.459268 
L 195.8349 208.981486 
L 196.088579 197.582372 
L 196.748143 161.606359 
L 196.951086 159.710448 
L 197.103293 159.668939 
L 197.204765 159.724881 
L 197.407708 158.85176 
L 197.610651 156.380072 
L 198.118008 150.897953 
L 198.270215 150.398585 
L 198.422422 149.82002 
L 198.473158 149.882837 
L 198.625365 150.50975 
L 198.726837 150.280985 
L 198.777572 150.336761 
L 198.828308 150.312822 
L 199.081987 151.064299 
L 199.28493 151.16967 
L 199.386401 151.022682 
L 199.690815 149.422698 
L 199.893758 145.851194 
L 200.198173 137.606176 
L 200.401116 135.288951 
L 200.857737 128.83037 
L 201.111416 122.237047 
L 201.212887 120.525999 
L 201.263623 120.779336 
L 201.669509 116.316995 
L 201.720245 116.536536 
L 201.77098 116.690476 
L 201.872452 116.652053 
L 202.278338 116.605291 
L 202.329073 116.539184 
L 202.379809 116.615903 
L 202.430545 116.764614 
L 202.48128 116.713396 
L 202.582752 116.686054 
L 202.633488 116.786844 
L 202.684223 116.732478 
L 202.734959 116.719964 
L 202.836431 116.398721 
L 202.887166 116.430055 
L 202.988638 116.588875 
L 203.039373 116.524698 
L 203.191581 116.428892 
L 203.293052 116.562062 
L 203.343788 116.516276 
L 203.749674 116.57566 
L 204.003352 116.567498 
L 204.257031 116.193271 
L 204.51071 115.07212 
L 204.764388 113.431657 
L 205.170274 111.805698 
L 205.677631 110.803286 
L 205.93131 109.065846 
L 205.982046 109.120037 
L 206.083517 108.666038 
L 206.134253 108.814186 
L 206.184989 108.11051 
L 206.235724 108.359724 
L 206.28646 108.481339 
L 206.540139 109.840765 
L 206.692346 110.076843 
L 206.793817 110.111122 
L 206.99676 110.131843 
L 207.250439 109.994211 
L 207.402646 110.243126 
L 207.605589 110.518331 
L 207.656325 110.426477 
L 207.707061 110.556305 
L 207.808532 110.879315 
L 207.859268 110.776705 
L 207.960739 110.810553 
L 208.315889 111.19455 
L 208.468096 111.160324 
L 209.076925 111.23948 
L 209.279868 111.064084 
L 209.482811 110.45844 
L 209.787225 108.798817 
L 210.142376 108.010291 
L 210.345318 107.769797 
L 210.548261 107.247167 
L 210.649733 107.29751 
L 210.751204 107.150867 
L 210.954147 106.397309 
L 211.004883 106.454023 
L 211.055619 106.390677 
L 211.106354 105.8454 
L 211.207826 105.933356 
L 211.410769 107.028486 
L 211.461504 106.773581 
L 211.51224 107.017019 
L 211.664447 107.608757 
L 211.765919 107.7327 
L 211.918126 107.90116 
L 212.22254 107.989107 
L 212.425483 108.187762 
L 212.679162 108.078267 
L 212.780633 108.206963 
L 212.831369 108.126072 
L 212.882105 108.231435 
L 213.034312 108.432897 
L 213.338726 108.886099 
L 213.541669 108.953267 
L 213.744612 109.001498 
L 214.201234 108.907857 
L 214.302705 108.753146 
L 214.353441 108.831466 
L 214.404177 108.858176 
L 214.657855 108.137691 
L 214.96227 106.292084 
L 215.31742 106.086729 
L 215.621834 105.683592 
L 215.723306 105.604191 
L 216.179927 104.208242 
L 216.230663 103.876332 
L 216.281399 104.142104 
L 216.484342 104.706612 
L 216.687285 103.450182 
L 216.839492 103.854376 
L 216.991699 104.069296 
L 217.346849 104.058922 
L 217.549792 103.821294 
L 217.701999 103.897059 
L 218.107885 104.49467 
L 218.260092 104.721502 
L 218.463035 105.072384 
L 219.173335 105.327404 
L 219.47775 105.521479 
L 219.680692 105.897436 
L 219.731428 105.826284 
L 219.782164 105.988687 
L 219.8329 105.870718 
L 219.934371 105.458453 
L 219.985107 105.499555 
L 220.035843 105.55305 
L 220.086578 105.50011 
L 220.340257 104.938263 
L 220.644671 104.427082 
L 220.746143 104.14921 
L 220.796879 104.208447 
L 220.847614 104.338162 
L 220.949086 103.750979 
L 221.050557 103.79183 
L 221.101293 103.945113 
L 221.152029 103.628615 
L 221.456443 106.062153 
L 221.557914 106.89174 
L 221.811593 109.814694 
L 221.913065 110.059261 
L 221.9638 109.967942 
L 222.420422 110.198442 
L 222.572629 110.127733 
L 222.877043 110.699832 
L 223.029251 111.017164 
L 223.232194 111.449078 
L 223.790287 111.586711 
L 224.094701 111.681318 
L 224.399115 111.603094 
L 224.500587 111.503371 
L 224.551322 111.572449 
L 224.652794 111.509271 
L 224.855737 111.358152 
L 224.957208 111.662715 
L 225.007944 111.451618 
L 225.160151 110.79641 
L 225.210887 110.848926 
L 225.41383 110.186538 
L 225.464566 110.249864 
L 225.515301 110.158843 
L 225.667508 110.109161 
L 226.022659 109.537542 
L 226.174866 109.788519 
L 226.225601 109.907062 
L 226.276337 109.654412 
L 226.327073 109.958259 
L 226.530016 111.223142 
L 226.580752 111.133518 
L 226.631487 111.030884 
L 226.935902 114.530906 
L 226.986637 114.369425 
L 227.037373 114.76914 
L 227.088109 114.7038 
L 227.240316 114.672727 
L 227.54473 114.668851 
L 227.646202 114.814569 
L 227.696938 114.762648 
L 227.849145 114.841553 
L 227.899881 114.6894 
L 227.950616 114.757629 
L 228.102823 114.848568 
L 228.204295 114.706462 
L 228.255031 114.781966 
L 228.305766 114.717781 
L 228.407238 114.5093 
L 228.457974 114.534034 
L 229.320481 114.847297 
L 229.57416 114.655184 
L 229.92931 114.173595 
L 230.132253 113.556579 
L 230.690346 112.457622 
L 230.842553 112.166386 
L 230.944024 111.894659 
L 230.99476 112.018799 
L 231.096231 112.2585 
L 231.248439 111.855512 
L 231.299174 111.90171 
L 231.34991 111.997529 
L 231.451382 111.649234 
L 231.502117 111.766765 
L 231.654324 111.882733 
L 232.06021 115.870299 
L 232.364625 117.001845 
L 232.77051 117.185511 
L 233.328604 117.975826 
L 233.683754 117.79725 
L 233.988168 117.899408 
L 234.343318 117.958315 
L 234.647732 117.864887 
L 234.79994 117.778524 
L 234.850675 117.827802 
L 235.256561 116.269299 
L 235.51024 114.978939 
L 236.169804 114.499978 
L 236.322012 113.764454 
L 236.372747 114.085401 
L 236.423483 114.140126 
L 236.524954 113.434187 
L 236.727897 112.29514 
L 237.083047 114.071183 
L 237.184519 114.282392 
L 237.438198 114.884503 
L 237.742612 114.820873 
L 237.894819 115.047298 
L 237.996291 114.905385 
L 238.047026 114.934855 
L 238.199233 115.044508 
L 238.249969 114.987411 
L 238.300705 115.038136 
L 238.503648 115.309505 
L 238.655855 115.378581 
L 239.721305 115.560025 
L 240.127191 115.4461 
L 240.177927 115.666078 
L 240.228663 115.484901 
L 240.279398 115.469247 
L 240.482341 114.677001 
L 240.73602 113.892973 
L 241.040434 113.318093 
L 241.141906 113.466592 
L 241.294113 113.215921 
L 241.344849 113.264317 
L 241.395584 113.432066 
L 241.44632 113.343782 
L 241.497056 113.301185 
L 241.699999 114.118444 
L 242.055149 116.354815 
L 242.15662 116.177972 
L 242.308827 117.086705 
L 242.359563 117.092389 
L 242.51177 117.377641 
L 242.866921 117.334033 
L 242.917656 117.251496 
L 242.968392 117.332512 
L 243.222071 117.165361 
L 243.374278 117.418493 
L 243.577221 117.166139 
L 243.627956 117.209965 
L 243.780164 117.175568 
L 243.932371 117.227359 
L 244.084578 117.265869 
L 244.439728 117.3914 
L 244.794878 117.317202 
L 244.89635 117.233517 
L 245.2515 116.105071 
L 245.302235 116.189626 
L 245.403707 115.73308 
L 245.708121 114.665216 
L 245.809593 114.57089 
L 246.164743 114.09137 
L 246.367686 113.289375 
L 246.418422 113.347165 
L 246.469157 113.253094 
L 246.570629 112.90921 
L 246.621364 113.176646 
L 246.6721 112.990498 
L 246.722836 112.864914 
L 246.773572 112.98963 
L 246.824307 113.06527 
L 247.128722 115.756981 
L 247.483872 118.030724 
L 247.940493 118.174068 
L 247.991229 118.280092 
L 248.041965 118.251957 
L 248.143436 118.126851 
L 248.397115 118.799437 
L 248.803001 119.187526 
L 249.056679 119.143866 
L 249.259622 119.152319 
L 249.817715 119.087224 
L 249.969923 119.159902 
L 250.12213 118.833239 
L 250.578751 116.901843 
L 250.730958 116.208598 
L 250.984637 116.053716 
L 251.035373 116.068406 
L 251.339787 115.397079 
L 251.491994 115.116535 
L 251.644202 114.492513 
L 251.694937 114.570204 
L 251.89788 113.502913 
L 251.999352 113.575009 
L 252.151559 114.263011 
L 252.25303 112.481378 
L 252.303766 112.534331 
L 252.354502 112.173855 
L 252.405237 112.243016 
L 252.455973 112.302694 
L 252.60818 112.796898 
L 252.861859 112.733693 
L 253.166273 112.19067 
L 253.318481 112.266631 
L 253.419952 112.399428 
L 253.470688 112.279176 
L 253.978045 112.499188 
L 254.485402 112.861075 
L 254.891288 112.848462 
L 254.99276 112.82787 
L 255.144967 112.921253 
L 255.195703 112.851409 
L 255.246438 112.892964 
L 255.34791 112.940635 
L 255.855267 110.970111 
L 256.210417 110.569056 
L 256.311889 110.506075 
L 256.362624 110.570975 
L 256.41336 110.423943 
L 256.464096 110.550574 
L 256.565567 110.952992 
L 256.616303 110.830062 
L 256.667039 110.865049 
L 256.717774 110.571252 
L 256.76851 110.585658 
L 257.022189 112.621994 
L 257.377339 116.570528 
L 257.631018 117.475231 
L 257.681753 117.450469 
L 257.83396 117.488864 
L 257.884696 117.640601 
L 257.935432 117.613089 
L 257.986168 117.59069 
L 258.189111 117.992034 
L 258.594996 117.894974 
L 258.747204 118.00054 
L 258.797939 117.884475 
L 258.848675 117.971687 
L 259.153089 118.175925 
L 260.269275 118.2027 
L 260.776633 115.619342 
L 260.827368 115.64577 
L 261.131783 115.108094 
L 261.233254 115.042645 
L 261.334726 114.735313 
L 261.385461 114.753414 
L 261.537669 114.92738 
L 261.740612 114.108016 
L 261.842083 114.043171 
L 261.99429 113.838567 
L 262.501647 118.927218 
L 262.603119 118.903536 
L 262.755326 119.028546 
L 263.110476 119.182812 
L 263.313419 119.686426 
L 263.567098 120.019595 
L 263.617834 120.017738 
L 263.820776 120.304531 
L 263.922248 120.369942 
L 264.277398 120.588406 
L 264.835491 120.549089 
L 265.292113 120.798748 
L 266.15462 118.03865 
L 266.205356 118.067592 
L 266.459034 117.706795 
L 266.50977 117.793847 
L 266.560506 117.706733 
L 266.611242 117.602211 
L 266.915656 116.066274 
L 267.017127 116.074383 
L 267.423013 114.336442 
L 267.473749 114.3751 
L 267.524485 114.939561 
L 267.625956 114.875639 
L 267.778163 115.013239 
L 268.082578 114.955362 
L 268.133313 114.81583 
L 268.184049 114.933361 
L 268.386992 114.881916 
L 268.539199 114.688243 
L 268.589935 114.822977 
L 268.843614 114.826464 
L 268.995821 115.235695 
L 269.452442 115.324815 
L 269.60465 115.402254 
L 269.807592 115.392999 
L 270.112007 115.293969 
L 270.619364 114.894506 
L 270.771571 114.179164 
L 270.822307 114.317453 
L 270.873043 114.294997 
L 271.02525 113.92076 
L 271.481871 113.143724 
L 271.583343 112.884149 
L 272.039964 110.551449 
L 272.0907 110.470668 
L 272.192172 111.186572 
L 272.242907 110.997802 
L 272.395115 110.358325 
L 272.44585 110.495829 
L 272.496586 110.606601 
L 272.648793 111.205179 
L 272.801 111.592382 
L 272.851736 111.573392 
L 273.105415 111.687733 
L 273.156151 111.730892 
L 273.206886 111.644887 
L 273.257622 111.644611 
L 273.308358 111.839534 
L 273.359093 111.7162 
L 273.562036 111.708913 
L 273.612772 111.861497 
L 273.663508 111.823883 
L 273.714244 111.789095 
L 273.815715 111.967993 
L 273.866451 111.775294 
L 273.917186 111.817594 
L 274.120129 111.853464 
L 274.373808 111.870267 
L 274.83043 112.105024 
L 275.388523 112.048595 
L 275.54073 111.620083 
L 275.946616 110.284493 
L 275.997351 110.353037 
L 276.301766 110.110084 
L 276.453973 109.916019 
L 276.504709 110.00684 
L 276.555444 109.902539 
L 276.758387 109.412595 
L 276.859859 109.346925 
L 276.910594 109.544206 
L 277.012066 108.932353 
L 277.062802 108.943946 
L 277.164273 109.203904 
L 277.265745 108.890126 
L 277.367216 110.057508 
L 277.417952 109.615357 
L 277.468687 109.556187 
L 277.620895 110.082546 
L 277.773102 110.735683 
L 277.925309 110.836011 
L 278.077516 110.85298 
L 278.280459 110.604741 
L 278.432666 110.460659 
L 278.737081 110.884043 
L 279.193702 111.203531 
L 279.244438 111.20029 
L 279.396645 111.367664 
L 279.548852 111.453138 
L 279.70106 111.541251 
L 280.106945 111.572565 
L 280.309888 111.60058 
L 280.563567 111.670503 
L 280.715774 112.198622 
L 280.76651 111.98171 
L 280.918717 111.871443 
L 280.969453 111.968066 
L 281.020188 111.867313 
L 281.172396 111.651949 
L 281.375339 111.192399 
L 281.527546 111.057734 
L 281.578281 111.099707 
L 281.679753 110.999394 
L 281.730489 110.955351 
L 281.882696 110.514491 
L 282.034903 110.431079 
L 282.18711 110.169782 
L 282.288582 110.006712 
L 282.339317 110.302029 
L 282.390053 110.241391 
L 282.440789 109.523704 
L 282.491525 109.790669 
L 282.54226 109.792126 
L 282.643732 109.260858 
L 282.694468 109.283971 
L 282.948146 111.007998 
L 283.201825 111.298132 
L 283.404768 111.267247 
L 283.556975 111.006037 
L 283.607711 111.079873 
L 283.810654 111.285146 
L 283.861389 111.327581 
L 283.962861 111.114906 
L 284.064332 111.345723 
L 284.115068 111.274907 
L 284.318011 111.538872 
L 284.368747 111.365633 
L 284.419482 111.449696 
L 284.571689 111.534328 
L 285.434197 111.616805 
L 285.789347 111.22004 
L 285.99229 110.613331 
L 286.043026 110.674897 
L 286.245969 110.003527 
L 286.398176 109.915731 
L 286.651854 109.709072 
L 286.70259 109.733854 
L 286.854797 109.498638 
L 286.905533 109.626411 
L 286.956269 109.552864 
L 287.05774 109.501256 
L 287.209947 109.230141 
L 287.311419 108.86372 
L 287.666569 111.985858 
L 287.920248 115.758646 
L 288.072455 117.575763 
L 288.12319 117.383784 
L 288.275398 117.635217 
L 288.478341 117.678368 
L 288.630548 117.742411 
L 288.732019 117.825659 
L 288.782755 117.719947 
L 288.985698 118.047503 
L 289.137905 118.01567 
L 289.290112 118.329202 
L 289.340848 118.271126 
L 289.442319 118.500946 
L 289.594527 118.408484 
L 290.203355 118.612298 
L 290.812184 118.658531 
L 291.21807 118.407167 
L 291.522484 117.441673 
L 292.182049 116.325671 
L 292.435727 115.082827 
L 292.63867 115.967432 
L 292.689406 115.959904 
L 293.298235 119.432505 
L 293.348971 119.359772 
L 294.160742 119.849111 
L 294.972514 119.492391 
L 295.3784 119.538207 
L 295.581343 119.402006 
L 295.835021 119.05363 
L 296.0887 118.014909 
L 296.342379 116.034258 
L 297.204886 114.306566 
L 297.357093 113.488428 
L 297.407829 113.887398 
L 297.560036 113.911736 
L 297.813715 115.968361 
L 298.168865 118.365358 
L 298.2196 118.223724 
L 298.270336 118.243902 
L 298.422543 118.290964 
L 298.574751 118.417405 
L 298.625486 118.475098 
L 298.777694 118.316251 
L 298.980636 118.706254 
L 299.031372 118.654301 
L 299.082108 118.724677 
L 299.132844 118.732154 
L 299.183579 118.589317 
L 299.234315 118.622432 
L 299.437258 118.828391 
L 299.589465 118.678722 
L 299.995351 118.630392 
L 300.24903 118.657999 
L 300.705651 118.672117 
L 300.756387 118.58708 
L 300.807123 118.621244 
L 301.060801 118.892527 
L 301.213008 119.622033 
L 301.415951 119.085451 
L 301.517423 119.059879 
L 301.66963 118.821126 
L 302.075516 118.353413 
L 302.126252 118.357073 
L 302.278459 118.051052 
L 302.329195 118.123819 
L 302.582873 116.582061 
L 302.633609 116.63656 
L 302.684345 115.919076 
L 302.785816 115.979215 
L 303.191702 119.108621 
L 303.242438 118.985641 
L 303.293173 119.07415 
L 303.546852 119.624949 
L 303.952738 119.407208 
L 304.003474 119.314374 
L 304.054209 119.399612 
L 304.206416 119.415016 
L 304.307888 119.302221 
L 304.358624 119.39159 
L 304.409359 119.426087 
L 304.561567 119.357302 
L 304.612302 119.465191 
L 304.663038 119.360013 
L 304.815245 119.34445 
L 304.967452 119.431642 
L 305.47481 119.636504 
L 305.82996 119.528255 
L 305.982167 119.403268 
L 306.083638 119.494705 
L 307.199824 117.057393 
L 307.25056 117.10489 
L 307.453503 116.342416 
L 307.504239 116.395557 
L 307.554975 116.72996 
L 307.60571 116.490956 
L 307.757917 116.288226 
L 307.859389 117.450284 
L 308.062332 119.012223 
L 308.113068 119.20925 
L 308.366746 121.142525 
L 308.569689 121.751603 
L 308.924839 121.598942 
L 309.026311 121.312981 
L 309.077046 121.340654 
L 309.381461 122.034167 
L 309.482932 121.968324 
L 309.635139 121.896435 
L 309.838082 121.952779 
L 309.99029 121.922381 
L 310.142497 121.980537 
L 310.852797 121.870417 
L 311.157211 121.695335 
L 311.360154 121.110447 
L 311.461626 121.170677 
L 312.070454 119.264648 
L 312.12119 119.34266 
L 312.171926 119.222021 
L 312.527076 118.081435 
L 312.628547 117.55344 
L 312.679283 117.566922 
L 312.730019 117.393622 
L 312.882226 116.316236 
L 312.983698 116.336532 
L 313.135905 117.12387 
L 313.18664 117.014423 
L 313.237376 116.70616 
L 313.288112 116.755304 
L 313.338848 117.068071 
L 313.440319 117.039132 
L 313.643262 116.779139 
L 313.998412 116.85476 
L 314.150619 116.528233 
L 314.252091 116.381814 
L 314.302826 116.451099 
L 314.353562 116.315686 
L 314.404298 116.43029 
L 314.505769 116.532662 
L 314.556505 116.453522 
L 314.911655 116.374972 
L 315.92637 116.597049 
L 316.535199 115.77277 
L 316.585934 115.966752 
L 316.63667 115.810599 
L 316.941084 115.132939 
L 317.144027 114.979762 
L 317.397706 114.456167 
L 317.448442 114.469342 
L 317.600649 114.145593 
L 317.651385 114.329974 
L 317.752856 113.795142 
L 317.803592 113.877925 
L 318.158742 116.993055 
L 318.260213 116.950816 
L 318.564628 117.785649 
L 318.919778 117.72523 
L 318.970514 117.859177 
L 319.021249 117.80414 
L 319.071985 117.804615 
L 319.122721 117.993219 
L 319.224192 117.953554 
L 319.376399 117.670743 
L 319.477871 117.948507 
L 319.528607 117.926569 
L 319.731549 117.695943 
L 320.492585 117.877369 
L 321.101414 117.878096 
L 321.456564 116.960249 
L 321.5073 116.770846 
L 321.608771 116.816345 
L 321.659507 116.921053 
L 321.913186 116.45332 
L 322.116129 116.303378 
L 322.268336 116.036638 
L 322.623486 114.900416 
L 322.724957 115.108715 
L 322.877165 114.781013 
L 323.333786 117.118645 
L 323.485993 117.894936 
L 323.536729 117.802233 
L 323.688936 117.993685 
L 324.044086 118.110563 
L 324.247029 118.509976 
L 324.297765 118.532968 
L 324.449972 118.756012 
L 324.551444 118.811187 
L 324.652915 118.941393 
L 324.703651 118.917776 
L 325.160272 118.605567 
L 325.363215 118.590274 
L 326.124251 118.597123 
L 326.428666 118.229305 
L 326.479401 118.438217 
L 326.530137 118.267822 
L 326.631609 117.987916 
L 326.682344 118.048514 
L 326.936023 117.752099 
L 327.138966 117.57196 
L 327.291173 117.552364 
L 327.392644 117.293551 
L 327.697059 116.84177 
L 328.102945 114.441166 
L 328.15368 114.51587 
L 328.204416 114.239761 
L 328.255152 114.542115 
L 328.305888 114.481492 
L 328.356623 114.621958 
L 328.407359 114.594727 
L 328.508831 115.68013 
L 328.559566 115.305471 
L 328.863981 116.605876 
L 329.066924 116.73364 
L 329.219131 116.776715 
L 329.574281 116.922041 
L 329.625017 116.766548 
L 329.675752 116.845519 
L 330.030902 116.775714 
L 330.081638 116.880949 
L 330.132374 116.787722 
L 330.335317 116.868979 
L 330.487524 116.863739 
L 331.045617 116.91394 
L 331.197824 116.912808 
L 331.451503 116.646227 
L 331.705181 116.44571 
L 332.060332 115.599031 
L 332.111067 115.64968 
L 332.161803 115.553663 
L 332.415482 115.165136 
L 332.466217 115.222638 
L 332.66916 114.951807 
L 332.872103 114.514884 
L 332.922839 114.532713 
L 333.125782 115.118637 
L 333.37946 114.169567 
L 333.531668 114.557012 
L 333.582403 115.057167 
L 333.633139 114.854175 
L 333.683875 114.84767 
L 333.734611 114.238625 
L 333.785346 114.781242 
L 333.937553 115.445647 
L 334.039025 115.16054 
L 334.241968 115.580544 
L 334.749325 115.346907 
L 334.901532 115.598228 
L 335.05374 115.611379 
L 335.307418 116.031829 
L 335.459625 116.083196 
L 335.561097 116.089227 
L 336.068454 116.073785 
L 336.423604 116.001718 
L 336.82949 115.534521 
L 337.032433 114.557663 
L 337.18464 114.569556 
L 337.387583 114.086833 
L 337.590526 114.024828 
L 337.996412 113.372317 
L 338.300826 111.839538 
L 338.554505 111.396961 
L 338.655976 111.499051 
L 338.706712 111.528247 
L 338.757448 111.163668 
L 338.960391 112.290062 
L 339.315541 113.623429 
L 339.670691 113.813609 
L 339.721427 113.846287 
L 339.772162 114.031267 
L 339.822898 113.967503 
L 340.076577 114.004431 
L 340.27952 114.3139 
L 340.482462 114.247788 
L 340.685405 114.327851 
L 340.888348 114.379778 
L 342.106006 114.358757 
L 342.461156 112.913935 
L 342.664099 112.59781 
L 342.917777 112.307275 
L 342.968513 112.371109 
L 343.019249 112.297336 
L 343.171456 111.884025 
L 343.222192 111.876931 
L 343.323663 111.448943 
L 343.374399 111.645018 
L 343.577342 112.590054 
L 343.628078 112.485173 
L 343.678813 112.460181 
L 343.780285 112.796647 
L 343.983228 114.56318 
L 344.033963 114.863114 
L 344.084699 114.684497 
L 344.389114 115.086774 
L 344.693528 115.137376 
L 344.794999 114.986072 
L 344.845735 115.101243 
L 345.15015 115.735786 
L 345.403828 116.120897 
L 345.5053 116.004938 
L 345.657507 116.185244 
L 345.86045 116.129744 
L 346.418543 116.223052 
L 346.9259 116.250918 
L 347.128843 115.767356 
L 347.179579 115.777871 
L 347.331786 115.50729 
L 347.382522 115.597529 
L 347.737672 114.598521 
L 347.889879 114.654172 
L 348.295765 113.817545 
L 348.397236 114.089429 
L 348.447972 114.069914 
L 348.600179 113.769299 
L 348.650915 113.709109 
L 348.701651 113.233834 
L 348.752386 113.657892 
L 349.006065 116.388209 
L 349.158272 117.698691 
L 349.310479 118.666566 
L 349.513422 119.776717 
L 349.665629 119.807536 
L 349.868572 119.739976 
L 350.020779 119.976734 
L 350.071515 119.938293 
L 350.122251 119.899952 
L 350.426665 120.344082 
L 350.578872 120.153025 
L 350.73108 120.312048 
L 350.832551 120.135519 
L 350.883287 120.165475 
L 352.15168 119.959112 
L 352.709773 117.955611 
L 352.912716 117.794191 
L 352.963452 117.817591 
L 353.267866 117.392536 
L 353.318602 117.453573 
L 353.470809 117.071256 
L 353.623016 117.247984 
L 353.825959 116.436566 
L 353.724488 117.293457 
L 353.876695 116.606067 
L 354.028902 118.313114 
L 354.130373 118.303945 
L 354.181109 118.193612 
L 354.282581 118.877886 
L 354.333316 118.810794 
L 354.536259 119.641543 
L 354.891409 119.818541 
L 355.094352 119.761575 
L 355.145088 119.889253 
L 355.195824 119.849994 
L 355.398767 119.755997 
L 355.500238 119.979853 
L 355.652445 119.655517 
L 355.703181 119.700516 
L 355.804653 119.673601 
L 355.906124 119.77489 
L 355.95686 119.721284 
L 356.210538 119.558559 
L 356.717896 119.556788 
L 357.326724 119.369209 
L 357.428196 119.606919 
L 357.783346 118.080714 
L 358.544382 117.415869 
L 358.798061 116.653872 
L 358.950268 115.69715 
L 359.001003 115.763534 
L 359.153211 115.211516 
L 359.203946 115.432612 
L 359.406889 117.198502 
L 359.609832 118.47201 
L 359.711304 118.64917 
L 359.762039 118.535523 
L 360.320132 118.677118 
L 360.421604 118.609061 
L 360.624547 118.843689 
L 360.776754 118.843793 
L 360.878225 118.923937 
L 360.928961 119.070655 
L 360.979697 118.977778 
L 361.18264 118.985711 
L 361.334847 119.076176 
L 361.842204 119.078668 
L 362.400297 119.071852 
L 362.451033 119.003445 
L 362.501769 119.046009 
L 362.704712 119.367631 
L 362.856919 119.577149 
L 363.059862 119.039127 
L 363.161333 118.997324 
L 363.364276 118.761957 
L 363.415012 118.784739 
L 363.719426 118.053442 
L 363.922369 117.271006 
L 364.023841 116.636896 
L 364.277519 114.863284 
L 364.328255 115.256886 
L 364.480462 114.576885 
L 364.987819 116.357009 
L 365.292234 116.314507 
L 365.393705 116.36826 
L 365.596648 116.605862 
L 365.69812 116.662863 
L 365.748855 116.773144 
L 365.799591 116.699235 
L 365.850327 116.59727 
L 365.901063 116.645717 
L 365.951798 116.732443 
L 366.002534 116.632574 
L 366.256213 116.722752 
L 366.459156 116.673704 
L 366.611363 116.687847 
L 367.169456 116.770044 
L 367.321663 116.684117 
L 367.575342 116.618425 
L 367.727549 116.563144 
L 367.778285 116.418059 
L 367.82902 116.464402 
L 367.879756 116.494379 
L 368.031963 115.934195 
L 368.285642 115.197656 
L 368.894471 114.39179 
L 369.198885 113.192272 
L 369.249621 113.273985 
L 369.452564 113.4384 
L 369.604771 112.373485 
L 370.061392 113.511754 
L 370.264335 113.515701 
L 370.619485 113.138561 
L 370.720957 113.044799 
L 370.771693 113.216383 
L 370.822428 113.196241 
L 371.025371 112.818445 
L 371.27905 113.038737 
L 371.329786 112.960479 
L 371.380521 113.051919 
L 371.481993 113.104609 
L 371.6342 113.194334 
L 371.684936 113.139118 
L 371.735671 113.187747 
L 371.938614 113.309304 
L 372.3445 113.313545 
L 373.0548 112.017386 
L 373.257743 111.374319 
L 373.562158 111.179334 
L 373.866572 110.531947 
L 374.018779 110.672225 
L 374.373929 112.568667 
L 375.084229 120.52563 
L 375.287172 120.553788 
L 375.388644 120.452182 
L 375.997473 121.536707 
L 376.048208 121.478442 
L 376.403358 121.212913 
L 376.555566 121.229737 
L 376.809244 121.131203 
L 377.418073 121.14849 
L 377.621016 121.091471 
L 377.773223 121.25933 
L 377.823959 121.525611 
L 377.874695 121.369615 
L 379.143088 118.715527 
L 379.295295 117.674011 
L 379.346031 117.847371 
L 379.396766 117.589089 
L 379.447502 117.744568 
L 379.498238 117.83477 
L 379.751916 116.78715 
L 379.802652 116.844526 
L 380.107067 117.405007 
L 380.766631 117.86915 
L 380.969574 118.409234 
L 381.02031 118.256034 
L 381.121781 118.121341 
L 381.172517 118.21646 
L 381.679874 118.231251 
L 381.933553 118.126801 
L 382.08576 118.136757 
L 382.542382 118.154547 
L 382.745324 118.050919 
L 382.79606 118.120674 
L 382.948267 117.788458 
L 382.999003 117.806761 
L 383.354153 117.003546 
L 383.658568 116.588036 
L 383.810775 116.623741 
L 383.861511 116.419299 
L 383.962982 116.449058 
L 384.470339 115.499218 
L 384.521075 115.623663 
L 384.571811 115.329074 
L 384.622546 115.395599 
L 384.876225 116.301089 
L 385.028432 117.810921 
L 385.079168 118.017112 
L 385.129904 117.968354 
L 385.180639 117.944719 
L 385.332847 118.489015 
L 385.383582 118.471574 
L 385.53579 118.639664 
L 385.687997 118.648366 
L 385.840204 118.809959 
L 385.941675 118.91209 
L 385.992411 118.963409 
L 386.043147 118.855981 
L 386.093883 118.993154 
L 386.195354 118.816308 
L 386.24609 118.929088 
L 386.347561 118.968758 
L 386.449033 118.922515 
L 386.499768 118.820604 
L 386.550504 118.920674 
L 387.007126 119.121619 
L 387.159333 119.058697 
L 387.66669 119.057336 
L 387.869633 119.019844 
L 387.971105 118.781616 
L 388.02184 118.817596 
L 388.123312 118.841022 
L 388.630669 117.334043 
L 388.782876 117.210282 
L 388.935083 117.100209 
L 389.087291 116.928256 
L 389.340969 116.159633 
L 389.442441 115.753564 
L 389.543912 115.852847 
L 389.594648 115.933728 
L 389.645384 115.810405 
L 389.696119 115.27493 
L 389.746855 115.727998 
L 389.899062 116.171625 
L 390.051269 115.506843 
L 390.304948 116.741052 
L 390.355684 116.747475 
L 390.40642 117.241993 
L 390.457155 117.170132 
L 390.609362 117.062428 
L 391.268927 117.053663 
L 391.522606 116.859981 
L 392.232906 116.903859 
L 392.993942 116.835562 
L 393.196885 116.499509 
L 393.450563 115.8653 
L 393.60277 115.373554 
L 393.653506 115.396216 
L 393.957921 115.062653 
L 394.059392 115.013546 
L 394.363806 114.760159 
L 394.414542 114.829687 
L 394.465278 114.791877 
L 394.820428 114.009099 
L 394.921899 114.059649 
L 395.581464 119.813773 
L 395.6322 119.716285 
L 395.733671 119.866527 
L 395.885878 120.05327 
L 396.291764 120.154532 
L 396.393235 120.543597 
L 396.443971 120.475698 
L 396.596178 120.399542 
L 396.849857 120.296925 
L 396.900593 120.431362 
L 396.951329 120.310711 
L 398.321193 119.941307 
L 398.321193 119.941307 
" style="fill:none;stroke:#ff7f0e;stroke-linecap:square;stroke-width:1.5;"/>
   </g>
   <g id="patch_3">
    <path d="M 78.739375 253.173375 
L 78.739375 35.733375 
" style="fill:none;stroke:#000000;stroke-linecap:square;stroke-linejoin:miter;stroke-width:0.8;"/>
   </g>
   <g id="patch_4">
    <path d="M 413.539375 253.173375 
L 413.539375 35.733375 
" style="fill:none;stroke:#000000;stroke-linecap:square;stroke-linejoin:miter;stroke-width:0.8;"/>
   </g>
   <g id="patch_5">
    <path d="M 78.739375 253.173375 
L 413.539375 253.173375 
" style="fill:none;stroke:#000000;stroke-linecap:square;stroke-linejoin:miter;stroke-width:0.8;"/>
   </g>
   <g id="patch_6">
    <path d="M 78.739375 35.733375 
L 413.539375 35.733375 
" style="fill:none;stroke:#000000;stroke-linecap:square;stroke-linejoin:miter;stroke-width:0.8;"/>
   </g>
   <g id="text_11">
    <!-- $A(t)$ -->
    <defs>
     <path d="M 56.40625 0 
L 31.90625 0 
L 31.90625 1.59375 
Q 36.40625 1.796875 38 3 
Q 39.59375 4.203125 39.59375 6.90625 
Q 39.59375 7.703125 39.40625 9.5 
L 37.40625 22.59375 
L 15.40625 22.59375 
L 9.5 11.5 
Q 7.296875 7.40625 7.296875 4.90625 
Q 7.296875 1.90625 13.5 1.59375 
L 13.5 0 
L -5.09375 0 
L -5.09375 1.59375 
Q -1.703125 2.296875 0.4375 4.796875 
Q 2.59375 7.296875 8.296875 17.203125 
L 36.796875 66.796875 
L 39.40625 66.796875 
L 48.59375 11.5 
Q 49.59375 5.296875 51 3.59375 
Q 52.40625 1.90625 56.40625 1.59375 
z
M 36.90625 26.203125 
L 32.40625 52.5 
L 17.5 26.203125 
z
" id="STIXGeneral-Italic-65"/>
     <path d="M 30.40625 -16.09375 
L 29.203125 -17.703125 
Q 17.59375 -11.09375 11.1875 0.5 
Q 4.796875 12.09375 4.796875 25.203125 
Q 4.796875 52.90625 29.5 67.59375 
L 30.40625 66 
Q 20.203125 57.296875 16.796875 48.84375 
Q 13.40625 40.40625 13.40625 25.5 
Q 13.40625 10.703125 16.90625 1.5 
Q 20.40625 -7.703125 30.40625 -16.09375 
z
" id="STIXGeneral-Regular-40"/>
     <path d="M 29.59375 42.796875 
L 29.09375 39.59375 
L 20.703125 39.59375 
L 12 6.796875 
Q 11.796875 6 11.796875 5.40625 
Q 11.796875 3.796875 13.296875 3.796875 
Q 14.5 3.796875 16.09375 5.34375 
Q 17.703125 6.90625 21.40625 11.703125 
L 22.703125 11 
Q 18.09375 4 15.140625 1.453125 
Q 12.203125 -1.09375 8.40625 -1.09375 
Q 3.796875 -1.09375 3.796875 2.59375 
Q 3.796875 3.59375 5.40625 10 
L 13.203125 39.59375 
L 5.703125 39.59375 
L 5.59375 40.203125 
Q 5.59375 42 8.90625 42.703125 
Q 11.40625 43.296875 15.5 46.546875 
Q 19.59375 49.796875 22.203125 53.703125 
Q 22.796875 54.59375 23.59375 54.59375 
Q 24.5 54.59375 24.5 53.796875 
Q 24.5 53.296875 24.40625 53.09375 
L 21.59375 42.796875 
z
" id="STIXGeneral-Italic-116"/>
     <path d="M 2.90625 66 
L 4.09375 67.59375 
Q 15.5 60.796875 22 49.1875 
Q 28.5 37.59375 28.5 24.703125 
Q 28.5 -2.59375 3.796875 -17.703125 
L 2.90625 -16.09375 
Q 13.203125 -7.59375 16.546875 0.84375 
Q 19.90625 9.296875 19.90625 24.40625 
Q 19.90625 39.59375 16.546875 48.75 
Q 13.203125 57.90625 2.90625 66 
z
" id="STIXGeneral-Regular-41"/>
    </defs>
    <g transform="translate(221.803375 29.532375)scale(0.312 -0.312)">
     <use transform="translate(0 0.40625)" xlink:href="#STIXGeneral-Italic-65"/>
     <use transform="translate(61.099991 0.40625)" xlink:href="#STIXGeneral-Regular-40"/>
     <use transform="translate(94.399979 0.40625)" xlink:href="#STIXGeneral-Italic-116"/>
     <use transform="translate(122.199966 0.40625)" xlink:href="#STIXGeneral-Regular-41"/>
    </g>
   </g>
   <g id="legend_1">
    <g id="line2d_11">
     <path d="M 440.679375 55.643687 
L 492.679375 55.643687 
" style="fill:none;stroke:#1f77b4;stroke-linecap:square;stroke-width:1.5;"/>
    </g>
    <g id="line2d_12"/>
    <g id="text_12">
     <!-- exact -->
     <defs>
      <path d="M 0.734375 0 
L 19.671875 26.953125 
L 2.15625 51.859375 
L 13.140625 51.859375 
L 21.09375 39.703125 
Q 23.34375 36.234375 24.703125 33.890625 
Q 26.859375 37.109375 28.65625 39.59375 
L 37.40625 51.859375 
L 47.90625 51.859375 
L 29.984375 27.4375 
L 49.265625 0 
L 38.484375 0 
L 27.828125 16.109375 
L 25 20.453125 
L 11.375 0 
z
" id="ArialMT-120"/>
      <path d="M 40.4375 19 
L 49.078125 17.875 
Q 47.65625 8.9375 41.8125 3.875 
Q 35.984375 -1.171875 27.484375 -1.171875 
Q 16.84375 -1.171875 10.375 5.78125 
Q 3.90625 12.75 3.90625 25.734375 
Q 3.90625 34.125 6.6875 40.421875 
Q 9.46875 46.734375 15.15625 49.875 
Q 20.84375 53.03125 27.546875 53.03125 
Q 35.984375 53.03125 41.359375 48.75 
Q 46.734375 44.484375 48.25 36.625 
L 39.703125 35.296875 
Q 38.484375 40.53125 35.375 43.15625 
Q 32.28125 45.796875 27.875 45.796875 
Q 21.234375 45.796875 17.078125 41.03125 
Q 12.9375 36.28125 12.9375 25.984375 
Q 12.9375 15.53125 16.9375 10.796875 
Q 20.953125 6.0625 27.390625 6.0625 
Q 32.5625 6.0625 36.03125 9.234375 
Q 39.5 12.40625 40.4375 19 
z
" id="ArialMT-99"/>
     </defs>
     <g transform="translate(513.479375 64.743687)scale(0.26 -0.26)">
      <use xlink:href="#ArialMT-101"/>
      <use x="55.615234" xlink:href="#ArialMT-120"/>
      <use x="105.615234" xlink:href="#ArialMT-97"/>
      <use x="161.230469" xlink:href="#ArialMT-99"/>
      <use x="211.230469" xlink:href="#ArialMT-116"/>
     </g>
    </g>
    <g id="line2d_13">
     <path d="M 440.679375 92.4215 
L 492.679375 92.4215 
" style="fill:none;stroke:#ff7f0e;stroke-linecap:square;stroke-width:1.5;"/>
    </g>
    <g id="line2d_14"/>
    <g id="text_13">
     <!-- estimated -->
     <g transform="translate(513.479375 101.5215)scale(0.26 -0.26)">
      <use xlink:href="#ArialMT-101"/>
      <use x="55.615234" xlink:href="#ArialMT-115"/>
      <use x="105.615234" xlink:href="#ArialMT-116"/>
      <use x="133.398438" xlink:href="#ArialMT-105"/>
      <use x="155.615234" xlink:href="#ArialMT-109"/>
      <use x="238.916016" xlink:href="#ArialMT-97"/>
      <use x="294.53125" xlink:href="#ArialMT-116"/>
      <use x="322.314453" xlink:href="#ArialMT-101"/>
      <use x="377.929688" xlink:href="#ArialMT-100"/>
     </g>
    </g>
   </g>
  </g>
 </g>
 <defs>
  <clipPath id="p97ee279853">
   <rect height="217.44" width="334.8" x="78.739375" y="35.733375"/>
  </clipPath>
 </defs>
</svg>
