<?xml version="1.0" encoding="utf-8" standalone="no"?>
<!DOCTYPE svg PUBLIC "-//W3C//DTD SVG 1.1//EN"
  "http://www.w3.org/Graphics/SVG/1.1/DTD/svg11.dtd">
<!-- Created with matplotlib (https://matplotlib.org/) -->
<svg height="319.550562pt" version="1.1" viewBox="0 0 651.02875 319.550562" width="651.02875pt" xmlns="http://www.w3.org/2000/svg" xmlns:xlink="http://www.w3.org/1999/xlink">
 <defs>
  <style type="text/css">
*{stroke-linecap:butt;stroke-linejoin:round;}
  </style>
 </defs>
 <g id="figure_1">
  <g id="patch_1">
   <path d="M 0 319.550562 
L 651.02875 319.550562 
L 651.02875 0 
L 0 0 
z
" style="fill:#ffffff;"/>
  </g>
  <g id="axes_1">
   <g id="patch_2">
    <path d="M 85.974688 253.173375 
L 420.774688 253.173375 
L 420.774688 35.733375 
L 85.974688 35.733375 
z
" style="fill:#ffffff;"/>
   </g>
   <g id="line2d_1">
    <path clip-path="url(#p18663f68e1)" d="M 101.192869 144.453375 
L 405.556506 144.453375 
L 405.556506 144.453375 
" style="fill:none;stroke:#1f77b4;stroke-linecap:square;stroke-width:1.5;"/>
   </g>
   <g id="matplotlib.axis_1">
    <g id="xtick_1">
     <g id="line2d_2">
      <defs>
       <path d="M 0 0 
L 0 3.5 
" id="m427749a429" style="stroke:#000000;stroke-width:0.8;"/>
      </defs>
      <g>
       <use style="stroke:#000000;stroke-width:0.8;" x="101.192869" xlink:href="#m427749a429" y="253.173375"/>
      </g>
     </g>
     <g id="text_1">
      <!-- 0 -->
      <defs>
       <path d="M 4.15625 35.296875 
Q 4.15625 48 6.765625 55.734375 
Q 9.375 63.484375 14.515625 67.671875 
Q 19.671875 71.875 27.484375 71.875 
Q 33.25 71.875 37.59375 69.546875 
Q 41.9375 67.234375 44.765625 62.859375 
Q 47.609375 58.5 49.21875 52.21875 
Q 50.828125 45.953125 50.828125 35.296875 
Q 50.828125 22.703125 48.234375 14.96875 
Q 45.65625 7.234375 40.5 3 
Q 35.359375 -1.21875 27.484375 -1.21875 
Q 17.140625 -1.21875 11.234375 6.203125 
Q 4.15625 15.140625 4.15625 35.296875 
z
M 13.1875 35.296875 
Q 13.1875 17.671875 17.3125 11.828125 
Q 21.4375 6 27.484375 6 
Q 33.546875 6 37.671875 11.859375 
Q 41.796875 17.71875 41.796875 35.296875 
Q 41.796875 52.984375 37.671875 58.78125 
Q 33.546875 64.59375 27.390625 64.59375 
Q 21.34375 64.59375 17.71875 59.46875 
Q 13.1875 52.9375 13.1875 35.296875 
z
" id="ArialMT-48"/>
      </defs>
      <g transform="translate(93.963651 278.783687)scale(0.26 -0.26)">
       <use xlink:href="#ArialMT-48"/>
      </g>
     </g>
    </g>
    <g id="xtick_2">
     <g id="line2d_3">
      <g>
       <use style="stroke:#000000;stroke-width:0.8;" x="202.664327" xlink:href="#m427749a429" y="253.173375"/>
      </g>
     </g>
     <g id="text_2">
      <!-- 2 -->
      <defs>
       <path d="M 50.34375 8.453125 
L 50.34375 0 
L 3.03125 0 
Q 2.9375 3.171875 4.046875 6.109375 
Q 5.859375 10.9375 9.828125 15.625 
Q 13.8125 20.3125 21.34375 26.46875 
Q 33.015625 36.03125 37.109375 41.625 
Q 41.21875 47.21875 41.21875 52.203125 
Q 41.21875 57.421875 37.46875 61 
Q 33.734375 64.59375 27.734375 64.59375 
Q 21.390625 64.59375 17.578125 60.78125 
Q 13.765625 56.984375 13.71875 50.25 
L 4.6875 51.171875 
Q 5.609375 61.28125 11.65625 66.578125 
Q 17.71875 71.875 27.9375 71.875 
Q 38.234375 71.875 44.234375 66.15625 
Q 50.25 60.453125 50.25 52 
Q 50.25 47.703125 48.484375 43.546875 
Q 46.734375 39.40625 42.65625 34.8125 
Q 38.578125 30.21875 29.109375 22.21875 
Q 21.1875 15.578125 18.9375 13.203125 
Q 16.703125 10.84375 15.234375 8.453125 
z
" id="ArialMT-50"/>
      </defs>
      <g transform="translate(195.435108 278.783687)scale(0.26 -0.26)">
       <use xlink:href="#ArialMT-50"/>
      </g>
     </g>
    </g>
    <g id="xtick_3">
     <g id="line2d_4">
      <g>
       <use style="stroke:#000000;stroke-width:0.8;" x="304.135784" xlink:href="#m427749a429" y="253.173375"/>
      </g>
     </g>
     <g id="text_3">
      <!-- 4 -->
      <defs>
       <path d="M 32.328125 0 
L 32.328125 17.140625 
L 1.265625 17.140625 
L 1.265625 25.203125 
L 33.9375 71.578125 
L 41.109375 71.578125 
L 41.109375 25.203125 
L 50.78125 25.203125 
L 50.78125 17.140625 
L 41.109375 17.140625 
L 41.109375 0 
z
M 32.328125 25.203125 
L 32.328125 57.46875 
L 9.90625 25.203125 
z
" id="ArialMT-52"/>
      </defs>
      <g transform="translate(296.906565 278.783687)scale(0.26 -0.26)">
       <use xlink:href="#ArialMT-52"/>
      </g>
     </g>
    </g>
    <g id="xtick_4">
     <g id="line2d_5">
      <g>
       <use style="stroke:#000000;stroke-width:0.8;" x="405.607241" xlink:href="#m427749a429" y="253.173375"/>
      </g>
     </g>
     <g id="text_4">
      <!-- 6 -->
      <defs>
       <path d="M 49.75 54.046875 
L 41.015625 53.375 
Q 39.84375 58.546875 37.703125 60.890625 
Q 34.125 64.65625 28.90625 64.65625 
Q 24.703125 64.65625 21.53125 62.3125 
Q 17.390625 59.28125 14.984375 53.46875 
Q 12.59375 47.65625 12.5 36.921875 
Q 15.671875 41.75 20.265625 44.09375 
Q 24.859375 46.4375 29.890625 46.4375 
Q 38.671875 46.4375 44.84375 39.96875 
Q 51.03125 33.5 51.03125 23.25 
Q 51.03125 16.5 48.125 10.71875 
Q 45.21875 4.9375 40.140625 1.859375 
Q 35.0625 -1.21875 28.609375 -1.21875 
Q 17.625 -1.21875 10.6875 6.859375 
Q 3.765625 14.9375 3.765625 33.5 
Q 3.765625 54.25 11.421875 63.671875 
Q 18.109375 71.875 29.4375 71.875 
Q 37.890625 71.875 43.28125 67.140625 
Q 48.6875 62.40625 49.75 54.046875 
z
M 13.875 23.1875 
Q 13.875 18.65625 15.796875 14.5 
Q 17.71875 10.359375 21.1875 8.171875 
Q 24.65625 6 28.46875 6 
Q 34.03125 6 38.03125 10.484375 
Q 42.046875 14.984375 42.046875 22.703125 
Q 42.046875 30.125 38.078125 34.390625 
Q 34.125 38.671875 28.125 38.671875 
Q 22.171875 38.671875 18.015625 34.390625 
Q 13.875 30.125 13.875 23.1875 
z
" id="ArialMT-54"/>
      </defs>
      <g transform="translate(398.378023 278.783687)scale(0.26 -0.26)">
       <use xlink:href="#ArialMT-54"/>
      </g>
     </g>
    </g>
    <g id="text_5">
     <!-- time (s) -->
     <defs>
      <path d="M 25.78125 7.859375 
L 27.046875 0.09375 
Q 23.34375 -0.6875 20.40625 -0.6875 
Q 15.625 -0.6875 12.984375 0.828125 
Q 10.359375 2.34375 9.28125 4.8125 
Q 8.203125 7.28125 8.203125 15.1875 
L 8.203125 45.015625 
L 1.765625 45.015625 
L 1.765625 51.859375 
L 8.203125 51.859375 
L 8.203125 64.703125 
L 16.9375 69.96875 
L 16.9375 51.859375 
L 25.78125 51.859375 
L 25.78125 45.015625 
L 16.9375 45.015625 
L 16.9375 14.703125 
Q 16.9375 10.9375 17.40625 9.859375 
Q 17.875 8.796875 18.921875 8.15625 
Q 19.96875 7.515625 21.921875 7.515625 
Q 23.390625 7.515625 25.78125 7.859375 
z
" id="ArialMT-116"/>
      <path d="M 6.640625 61.46875 
L 6.640625 71.578125 
L 15.4375 71.578125 
L 15.4375 61.46875 
z
M 6.640625 0 
L 6.640625 51.859375 
L 15.4375 51.859375 
L 15.4375 0 
z
" id="ArialMT-105"/>
      <path d="M 6.59375 0 
L 6.59375 51.859375 
L 14.453125 51.859375 
L 14.453125 44.578125 
Q 16.890625 48.390625 20.9375 50.703125 
Q 25 53.03125 30.171875 53.03125 
Q 35.9375 53.03125 39.625 50.640625 
Q 43.3125 48.25 44.828125 43.953125 
Q 50.984375 53.03125 60.84375 53.03125 
Q 68.5625 53.03125 72.703125 48.75 
Q 76.859375 44.484375 76.859375 35.59375 
L 76.859375 0 
L 68.109375 0 
L 68.109375 32.671875 
Q 68.109375 37.9375 67.25 40.25 
Q 66.40625 42.578125 64.15625 43.984375 
Q 61.921875 45.40625 58.890625 45.40625 
Q 53.421875 45.40625 49.796875 41.765625 
Q 46.1875 38.140625 46.1875 30.125 
L 46.1875 0 
L 37.40625 0 
L 37.40625 33.6875 
Q 37.40625 39.546875 35.25 42.46875 
Q 33.109375 45.40625 28.21875 45.40625 
Q 24.515625 45.40625 21.359375 43.453125 
Q 18.21875 41.5 16.796875 37.734375 
Q 15.375 33.984375 15.375 26.90625 
L 15.375 0 
z
" id="ArialMT-109"/>
      <path d="M 42.09375 16.703125 
L 51.171875 15.578125 
Q 49.03125 7.625 43.21875 3.21875 
Q 37.40625 -1.171875 28.375 -1.171875 
Q 17 -1.171875 10.328125 5.828125 
Q 3.65625 12.84375 3.65625 25.484375 
Q 3.65625 38.578125 10.390625 45.796875 
Q 17.140625 53.03125 27.875 53.03125 
Q 38.28125 53.03125 44.875 45.953125 
Q 51.46875 38.875 51.46875 26.03125 
Q 51.46875 25.25 51.421875 23.6875 
L 12.75 23.6875 
Q 13.234375 15.140625 17.578125 10.59375 
Q 21.921875 6.0625 28.421875 6.0625 
Q 33.25 6.0625 36.671875 8.59375 
Q 40.09375 11.140625 42.09375 16.703125 
z
M 13.234375 30.90625 
L 42.1875 30.90625 
Q 41.609375 37.453125 38.875 40.71875 
Q 34.671875 45.796875 27.984375 45.796875 
Q 21.921875 45.796875 17.796875 41.75 
Q 13.671875 37.703125 13.234375 30.90625 
z
" id="ArialMT-101"/>
      <path id="ArialMT-32"/>
      <path d="M 23.390625 -21.046875 
Q 16.109375 -11.859375 11.078125 0.4375 
Q 6.0625 12.75 6.0625 25.921875 
Q 6.0625 37.546875 9.8125 48.1875 
Q 14.203125 60.546875 23.390625 72.796875 
L 29.6875 72.796875 
Q 23.78125 62.640625 21.875 58.296875 
Q 18.890625 51.5625 17.1875 44.234375 
Q 15.09375 35.109375 15.09375 25.875 
Q 15.09375 2.390625 29.6875 -21.046875 
z
" id="ArialMT-40"/>
      <path d="M 3.078125 15.484375 
L 11.765625 16.84375 
Q 12.5 11.625 15.84375 8.84375 
Q 19.1875 6.0625 25.203125 6.0625 
Q 31.25 6.0625 34.171875 8.515625 
Q 37.109375 10.984375 37.109375 14.3125 
Q 37.109375 17.28125 34.515625 19 
Q 32.71875 20.171875 25.53125 21.96875 
Q 15.875 24.421875 12.140625 26.203125 
Q 8.40625 27.984375 6.46875 31.125 
Q 4.546875 34.28125 4.546875 38.09375 
Q 4.546875 41.546875 6.125 44.5 
Q 7.71875 47.46875 10.453125 49.421875 
Q 12.5 50.921875 16.03125 51.96875 
Q 19.578125 53.03125 23.640625 53.03125 
Q 29.734375 53.03125 34.34375 51.265625 
Q 38.96875 49.515625 41.15625 46.5 
Q 43.359375 43.5 44.1875 38.484375 
L 35.59375 37.3125 
Q 35.015625 41.3125 32.203125 43.546875 
Q 29.390625 45.796875 24.265625 45.796875 
Q 18.21875 45.796875 15.625 43.796875 
Q 13.03125 41.796875 13.03125 39.109375 
Q 13.03125 37.40625 14.109375 36.03125 
Q 15.1875 34.625 17.484375 33.6875 
Q 18.796875 33.203125 25.25 31.453125 
Q 34.578125 28.953125 38.25 27.359375 
Q 41.9375 25.78125 44.03125 22.75 
Q 46.140625 19.734375 46.140625 15.234375 
Q 46.140625 10.84375 43.578125 6.953125 
Q 41.015625 3.078125 36.171875 0.953125 
Q 31.34375 -1.171875 25.25 -1.171875 
Q 15.140625 -1.171875 9.84375 3.03125 
Q 4.546875 7.234375 3.078125 15.484375 
z
" id="ArialMT-115"/>
      <path d="M 12.359375 -21.046875 
L 6.0625 -21.046875 
Q 20.65625 2.390625 20.65625 25.875 
Q 20.65625 35.0625 18.5625 44.09375 
Q 16.890625 51.421875 13.921875 58.15625 
Q 12.015625 62.546875 6.0625 72.796875 
L 12.359375 72.796875 
Q 21.53125 60.546875 25.921875 48.1875 
Q 29.6875 37.546875 29.6875 25.921875 
Q 29.6875 12.75 24.625 0.4375 
Q 19.578125 -11.859375 12.359375 -21.046875 
z
" id="ArialMT-41"/>
     </defs>
     <g transform="translate(210.048125 306.878375)scale(0.26 -0.26)">
      <use xlink:href="#ArialMT-116"/>
      <use x="27.783203" xlink:href="#ArialMT-105"/>
      <use x="50" xlink:href="#ArialMT-109"/>
      <use x="133.300781" xlink:href="#ArialMT-101"/>
      <use x="188.916016" xlink:href="#ArialMT-32"/>
      <use x="216.699219" xlink:href="#ArialMT-40"/>
      <use x="250" xlink:href="#ArialMT-115"/>
      <use x="300" xlink:href="#ArialMT-41"/>
     </g>
    </g>
   </g>
   <g id="matplotlib.axis_2">
    <g id="ytick_1">
     <g id="line2d_6">
      <defs>
       <path d="M 0 0 
L -3.5 0 
" id="mafc615afa2" style="stroke:#000000;stroke-width:0.8;"/>
      </defs>
      <g>
       <use style="stroke:#000000;stroke-width:0.8;" x="85.974688" xlink:href="#mafc615afa2" y="253.173375"/>
      </g>
     </g>
     <g id="text_6">
      <!-- 98 -->
      <defs>
       <path d="M 5.46875 16.546875 
L 13.921875 17.328125 
Q 14.984375 11.375 18.015625 8.6875 
Q 21.046875 6 25.78125 6 
Q 29.828125 6 32.875 7.859375 
Q 35.9375 9.71875 37.890625 12.8125 
Q 39.84375 15.921875 41.15625 21.1875 
Q 42.484375 26.46875 42.484375 31.9375 
Q 42.484375 32.515625 42.4375 33.6875 
Q 39.796875 29.5 35.234375 26.875 
Q 30.671875 24.265625 25.34375 24.265625 
Q 16.453125 24.265625 10.296875 30.703125 
Q 4.15625 37.15625 4.15625 47.703125 
Q 4.15625 58.59375 10.578125 65.234375 
Q 17 71.875 26.65625 71.875 
Q 33.640625 71.875 39.421875 68.109375 
Q 45.21875 64.359375 48.21875 57.390625 
Q 51.21875 50.4375 51.21875 37.25 
Q 51.21875 23.53125 48.234375 15.40625 
Q 45.265625 7.28125 39.375 3.03125 
Q 33.5 -1.21875 25.59375 -1.21875 
Q 17.1875 -1.21875 11.859375 3.4375 
Q 6.546875 8.109375 5.46875 16.546875 
z
M 41.453125 48.140625 
Q 41.453125 55.71875 37.421875 60.15625 
Q 33.40625 64.59375 27.734375 64.59375 
Q 21.875 64.59375 17.53125 59.8125 
Q 13.1875 55.03125 13.1875 47.40625 
Q 13.1875 40.578125 17.3125 36.296875 
Q 21.4375 32.03125 27.484375 32.03125 
Q 33.59375 32.03125 37.515625 36.296875 
Q 41.453125 40.578125 41.453125 48.140625 
z
" id="ArialMT-57"/>
       <path d="M 17.671875 38.8125 
Q 12.203125 40.828125 9.5625 44.53125 
Q 6.9375 48.25 6.9375 53.421875 
Q 6.9375 61.234375 12.546875 66.546875 
Q 18.171875 71.875 27.484375 71.875 
Q 36.859375 71.875 42.578125 66.421875 
Q 48.296875 60.984375 48.296875 53.171875 
Q 48.296875 48.1875 45.671875 44.5 
Q 43.0625 40.828125 37.75 38.8125 
Q 44.34375 36.671875 47.78125 31.875 
Q 51.21875 27.09375 51.21875 20.453125 
Q 51.21875 11.28125 44.71875 5.03125 
Q 38.234375 -1.21875 27.640625 -1.21875 
Q 17.046875 -1.21875 10.546875 5.046875 
Q 4.046875 11.328125 4.046875 20.703125 
Q 4.046875 27.6875 7.59375 32.390625 
Q 11.140625 37.109375 17.671875 38.8125 
z
M 15.921875 53.71875 
Q 15.921875 48.640625 19.1875 45.40625 
Q 22.46875 42.1875 27.6875 42.1875 
Q 32.765625 42.1875 36.015625 45.375 
Q 39.265625 48.578125 39.265625 53.21875 
Q 39.265625 58.0625 35.90625 61.359375 
Q 32.5625 64.65625 27.59375 64.65625 
Q 22.5625 64.65625 19.234375 61.421875 
Q 15.921875 58.203125 15.921875 53.71875 
z
M 13.09375 20.65625 
Q 13.09375 16.890625 14.875 13.375 
Q 16.65625 9.859375 20.171875 7.921875 
Q 23.6875 6 27.734375 6 
Q 34.03125 6 38.125 10.046875 
Q 42.234375 14.109375 42.234375 20.359375 
Q 42.234375 26.703125 38.015625 30.859375 
Q 33.796875 35.015625 27.4375 35.015625 
Q 21.234375 35.015625 17.15625 30.90625 
Q 13.09375 26.8125 13.09375 20.65625 
z
" id="ArialMT-56"/>
      </defs>
      <g transform="translate(50.057812 262.478531)scale(0.26 -0.26)">
       <use xlink:href="#ArialMT-57"/>
       <use x="55.615234" xlink:href="#ArialMT-56"/>
      </g>
     </g>
    </g>
    <g id="ytick_2">
     <g id="line2d_7">
      <g>
       <use style="stroke:#000000;stroke-width:0.8;" x="85.974688" xlink:href="#mafc615afa2" y="198.813375"/>
      </g>
     </g>
     <g id="text_7">
      <!-- 99 -->
      <g transform="translate(50.057812 208.118531)scale(0.26 -0.26)">
       <use xlink:href="#ArialMT-57"/>
       <use x="55.615234" xlink:href="#ArialMT-57"/>
      </g>
     </g>
    </g>
    <g id="ytick_3">
     <g id="line2d_8">
      <g>
       <use style="stroke:#000000;stroke-width:0.8;" x="85.974688" xlink:href="#mafc615afa2" y="144.453375"/>
      </g>
     </g>
     <g id="text_8">
      <!-- 100 -->
      <defs>
       <path d="M 37.25 0 
L 28.46875 0 
L 28.46875 56 
Q 25.296875 52.984375 20.140625 49.953125 
Q 14.984375 46.921875 10.890625 45.40625 
L 10.890625 53.90625 
Q 18.265625 57.375 23.78125 62.296875 
Q 29.296875 67.234375 31.59375 71.875 
L 37.25 71.875 
z
" id="ArialMT-49"/>
      </defs>
      <g transform="translate(35.599375 153.758531)scale(0.26 -0.26)">
       <use xlink:href="#ArialMT-49"/>
       <use x="55.615234" xlink:href="#ArialMT-48"/>
       <use x="111.230469" xlink:href="#ArialMT-48"/>
      </g>
     </g>
    </g>
    <g id="ytick_4">
     <g id="line2d_9">
      <g>
       <use style="stroke:#000000;stroke-width:0.8;" x="85.974688" xlink:href="#mafc615afa2" y="90.093375"/>
      </g>
     </g>
     <g id="text_9">
      <!-- 101 -->
      <g transform="translate(35.599375 99.398531)scale(0.26 -0.26)">
       <use xlink:href="#ArialMT-49"/>
       <use x="55.615234" xlink:href="#ArialMT-48"/>
       <use x="111.230469" xlink:href="#ArialMT-49"/>
      </g>
     </g>
    </g>
    <g id="ytick_5">
     <g id="line2d_10">
      <g>
       <use style="stroke:#000000;stroke-width:0.8;" x="85.974688" xlink:href="#mafc615afa2" y="35.733375"/>
      </g>
     </g>
     <g id="text_10">
      <!-- 102 -->
      <g transform="translate(35.599375 45.038531)scale(0.26 -0.26)">
       <use xlink:href="#ArialMT-49"/>
       <use x="55.615234" xlink:href="#ArialMT-48"/>
       <use x="111.230469" xlink:href="#ArialMT-50"/>
      </g>
     </g>
    </g>
    <g id="text_11">
     <!-- amplitude (a.u.) -->
     <defs>
      <path d="M 40.4375 6.390625 
Q 35.546875 2.25 31.03125 0.53125 
Q 26.515625 -1.171875 21.34375 -1.171875 
Q 12.796875 -1.171875 8.203125 3 
Q 3.609375 7.171875 3.609375 13.671875 
Q 3.609375 17.484375 5.34375 20.625 
Q 7.078125 23.78125 9.890625 25.6875 
Q 12.703125 27.59375 16.21875 28.5625 
Q 18.796875 29.25 24.03125 29.890625 
Q 34.671875 31.15625 39.703125 32.90625 
Q 39.75 34.71875 39.75 35.203125 
Q 39.75 40.578125 37.25 42.78125 
Q 33.890625 45.75 27.25 45.75 
Q 21.046875 45.75 18.09375 43.578125 
Q 15.140625 41.40625 13.71875 35.890625 
L 5.125 37.0625 
Q 6.296875 42.578125 8.984375 45.96875 
Q 11.671875 49.359375 16.75 51.1875 
Q 21.828125 53.03125 28.515625 53.03125 
Q 35.15625 53.03125 39.296875 51.46875 
Q 43.453125 49.90625 45.40625 47.53125 
Q 47.359375 45.171875 48.140625 41.546875 
Q 48.578125 39.3125 48.578125 33.453125 
L 48.578125 21.734375 
Q 48.578125 9.46875 49.140625 6.21875 
Q 49.703125 2.984375 51.375 0 
L 42.1875 0 
Q 40.828125 2.734375 40.4375 6.390625 
z
M 39.703125 26.03125 
Q 34.90625 24.078125 25.34375 22.703125 
Q 19.921875 21.921875 17.671875 20.9375 
Q 15.4375 19.96875 14.203125 18.09375 
Q 12.984375 16.21875 12.984375 13.921875 
Q 12.984375 10.40625 15.640625 8.0625 
Q 18.3125 5.71875 23.4375 5.71875 
Q 28.515625 5.71875 32.46875 7.9375 
Q 36.421875 10.15625 38.28125 14.015625 
Q 39.703125 17 39.703125 22.796875 
z
" id="ArialMT-97"/>
      <path d="M 6.59375 -19.875 
L 6.59375 51.859375 
L 14.59375 51.859375 
L 14.59375 45.125 
Q 17.4375 49.078125 21 51.046875 
Q 24.5625 53.03125 29.640625 53.03125 
Q 36.28125 53.03125 41.359375 49.609375 
Q 46.4375 46.1875 49.015625 39.953125 
Q 51.609375 33.734375 51.609375 26.3125 
Q 51.609375 18.359375 48.75 11.984375 
Q 45.90625 5.609375 40.453125 2.21875 
Q 35.015625 -1.171875 29 -1.171875 
Q 24.609375 -1.171875 21.109375 0.6875 
Q 17.625 2.546875 15.375 5.375 
L 15.375 -19.875 
z
M 14.546875 25.640625 
Q 14.546875 15.625 18.59375 10.84375 
Q 22.65625 6.0625 28.421875 6.0625 
Q 34.28125 6.0625 38.453125 11.015625 
Q 42.625 15.96875 42.625 26.375 
Q 42.625 36.28125 38.546875 41.203125 
Q 34.46875 46.140625 28.8125 46.140625 
Q 23.1875 46.140625 18.859375 40.890625 
Q 14.546875 35.640625 14.546875 25.640625 
z
" id="ArialMT-112"/>
      <path d="M 6.390625 0 
L 6.390625 71.578125 
L 15.1875 71.578125 
L 15.1875 0 
z
" id="ArialMT-108"/>
      <path d="M 40.578125 0 
L 40.578125 7.625 
Q 34.515625 -1.171875 24.125 -1.171875 
Q 19.53125 -1.171875 15.546875 0.578125 
Q 11.578125 2.34375 9.640625 5 
Q 7.71875 7.671875 6.9375 11.53125 
Q 6.390625 14.109375 6.390625 19.734375 
L 6.390625 51.859375 
L 15.1875 51.859375 
L 15.1875 23.09375 
Q 15.1875 16.21875 15.71875 13.8125 
Q 16.546875 10.359375 19.234375 8.375 
Q 21.921875 6.390625 25.875 6.390625 
Q 29.828125 6.390625 33.296875 8.421875 
Q 36.765625 10.453125 38.203125 13.9375 
Q 39.65625 17.4375 39.65625 24.078125 
L 39.65625 51.859375 
L 48.4375 51.859375 
L 48.4375 0 
z
" id="ArialMT-117"/>
      <path d="M 40.234375 0 
L 40.234375 6.546875 
Q 35.296875 -1.171875 25.734375 -1.171875 
Q 19.53125 -1.171875 14.328125 2.25 
Q 9.125 5.671875 6.265625 11.796875 
Q 3.421875 17.921875 3.421875 25.875 
Q 3.421875 33.640625 6 39.96875 
Q 8.59375 46.296875 13.765625 49.65625 
Q 18.953125 53.03125 25.34375 53.03125 
Q 30.03125 53.03125 33.6875 51.046875 
Q 37.359375 49.078125 39.65625 45.90625 
L 39.65625 71.578125 
L 48.390625 71.578125 
L 48.390625 0 
z
M 12.453125 25.875 
Q 12.453125 15.921875 16.640625 10.984375 
Q 20.84375 6.0625 26.5625 6.0625 
Q 32.328125 6.0625 36.34375 10.765625 
Q 40.375 15.484375 40.375 25.140625 
Q 40.375 35.796875 36.265625 40.765625 
Q 32.171875 45.75 26.171875 45.75 
Q 20.3125 45.75 16.375 40.96875 
Q 12.453125 36.1875 12.453125 25.875 
z
" id="ArialMT-100"/>
      <path d="M 9.078125 0 
L 9.078125 10.015625 
L 19.09375 10.015625 
L 19.09375 0 
z
" id="ArialMT-46"/>
     </defs>
     <g transform="translate(26.127187 234.766812)rotate(-90)scale(0.26 -0.26)">
      <use xlink:href="#ArialMT-97"/>
      <use x="55.615234" xlink:href="#ArialMT-109"/>
      <use x="138.916016" xlink:href="#ArialMT-112"/>
      <use x="194.53125" xlink:href="#ArialMT-108"/>
      <use x="216.748047" xlink:href="#ArialMT-105"/>
      <use x="238.964844" xlink:href="#ArialMT-116"/>
      <use x="266.748047" xlink:href="#ArialMT-117"/>
      <use x="322.363281" xlink:href="#ArialMT-100"/>
      <use x="377.978516" xlink:href="#ArialMT-101"/>
      <use x="433.59375" xlink:href="#ArialMT-32"/>
      <use x="461.376953" xlink:href="#ArialMT-40"/>
      <use x="494.677734" xlink:href="#ArialMT-97"/>
      <use x="550.292969" xlink:href="#ArialMT-46"/>
      <use x="578.076172" xlink:href="#ArialMT-117"/>
      <use x="633.691406" xlink:href="#ArialMT-46"/>
      <use x="661.474609" xlink:href="#ArialMT-41"/>
     </g>
    </g>
   </g>
   <g id="line2d_11">
    <path clip-path="url(#p18663f68e1)" d="M 101.192869 144.453375 
L 114.181216 144.563228 
L 118.037131 144.553424 
L 133.410057 144.57324 
L 135.236543 144.580561 
L 143.151317 144.530217 
L 144.216767 144.535596 
L 156.951435 144.467054 
L 158.727186 144.492911 
L 175.267033 144.453375 
L 176.383219 144.453375 
L 203.273155 144.557963 
L 204.389341 145.408767 
L 205.809942 145.320088 
L 206.621714 145.103536 
L 206.926128 145.032394 
L 207.129071 145.216807 
L 207.534957 146.083808 
L 207.839371 146.311857 
L 209.057028 146.589688 
L 210.5791 146.57955 
L 211.238665 146.489559 
L 211.695286 146.313807 
L 211.948965 146.459738 
L 212.456322 146.862056 
L 216.261502 146.5748 
L 216.718124 146.488438 
L 217.732838 146.896636 
L 220.827718 146.738069 
L 221.132132 146.738603 
L 221.943904 146.780698 
L 222.096111 146.955283 
L 222.248318 147.11668 
L 222.501997 147.161918 
L 223.364504 147.080364 
L 224.48069 147.014898 
L 225.596876 146.936594 
L 226.611591 146.737871 
L 226.916005 146.788362 
L 227.372627 146.921943 
L 227.778512 147.078481 
L 228.742491 147.089816 
L 231.12707 147.033582 
L 232.293992 146.935648 
L 232.750614 147.224029 
L 234.526364 147.215999 
L 234.780043 147.25398 
L 235.084457 147.280591 
L 235.541079 147.276141 
L 236.200643 147.228378 
L 236.606529 147.042441 
L 236.910944 146.870629 
L 237.316829 146.907552 
L 237.824187 147.261726 
L 238.331544 147.278784 
L 238.940373 147.26121 
L 239.346259 147.214611 
L 239.752144 147.110719 
L 241.680102 147.101879 
L 242.035252 146.987063 
L 242.441138 147.137472 
L 242.644081 147.409857 
L 242.847024 147.603691 
L 243.100702 147.645754 
L 244.470567 147.485344 
L 244.825717 147.434274 
L 245.891168 147.448877 
L 246.702939 147.336402 
L 247.007354 147.212137 
L 247.463975 147.195589 
L 247.616182 147.309565 
L 247.819125 147.510068 
L 248.12354 147.750545 
L 249.442669 147.781345 
L 250.305176 147.669246 
L 251.066212 147.678397 
L 251.522833 147.607096 
L 252.334605 147.319547 
L 252.588284 147.402944 
L 252.943434 147.827318 
L 254.566977 147.698592 
L 254.922127 147.649546 
L 255.328013 147.690816 
L 256.19052 147.705912 
L 257.611121 147.908315 
L 257.763328 147.992842 
L 258.067742 148.375139 
L 258.473628 148.378447 
L 258.980986 148.269574 
L 259.539079 148.271621 
L 259.742021 148.238714 
L 260.452322 148.036265 
L 261.568508 147.88103 
L 261.923658 147.698418 
L 262.278808 147.672668 
L 262.633958 147.702937 
L 263.44573 148.305152 
L 264.054558 148.329266 
L 264.561916 148.340888 
L 265.373687 148.375173 
L 265.881045 148.380354 
L 267.758267 148.352386 
L 268.011945 148.765539 
L 268.164152 148.808222 
L 268.367095 148.914996 
L 269.686224 148.801903 
L 269.889167 148.731699 
L 270.041374 148.684612 
L 270.193582 148.668383 
L 270.80241 148.794869 
L 272.730368 148.857113 
L 273.389932 149.463511 
L 275.064212 149.24394 
L 275.419362 149.159552 
L 276.586283 149.105487 
L 277.753205 148.75789 
L 278.260562 149.066892 
L 278.666448 149.186706 
L 280.340727 148.989035 
L 280.848085 149.001956 
L 281.913535 148.865092 
L 282.167214 148.773328 
L 282.623835 148.751666 
L 282.877514 148.776462 
L 283.232664 149.058623 
L 283.892228 149.097118 
L 284.501057 149.044595 
L 284.856207 149.064614 
L 285.211357 148.993865 
L 285.363564 148.972224 
L 285.667979 148.850456 
L 286.175336 148.904847 
L 286.784165 148.815332 
L 286.987108 148.751961 
L 287.291522 148.735598 
L 287.646672 148.765968 
L 287.951087 148.769773 
L 288.306237 148.857645 
L 288.407708 148.936994 
L 288.610651 149.177464 
L 288.965801 149.181782 
L 289.21948 149.111515 
L 289.726837 149.078639 
L 290.386402 149.001848 
L 290.741552 148.85385 
L 291.553323 148.871323 
L 291.756266 148.871213 
L 292.568038 148.600503 
L 292.923188 148.426199 
L 293.278338 148.487114 
L 293.532017 148.745457 
L 293.633488 148.787981 
L 293.887167 148.871659 
L 295.561446 148.785786 
L 295.764389 148.730119 
L 296.271746 148.788122 
L 297.337196 148.672001 
L 297.692347 148.523931 
L 298.554854 148.736475 
L 298.808533 149.015623 
L 299.062211 149.07403 
L 299.468097 148.970429 
L 299.823247 148.921329 
L 300.178397 148.951502 
L 300.685754 148.740877 
L 301.852676 148.85295 
L 302.410769 148.862523 
L 303.171805 148.443491 
L 303.324012 148.508888 
L 303.628427 149.12748 
L 303.729898 149.220121 
L 304.034313 149.331431 
L 304.490934 149.22323 
L 304.744613 149.201154 
L 306.114477 149.228351 
L 307.332135 149.234333 
L 308.34685 149.082641 
L 308.448321 148.994978 
L 308.702 149.19218 
L 309.260093 149.460478 
L 310.224071 149.267858 
L 310.629957 149.23859 
L 310.883636 149.192794 
L 311.137315 149.201274 
L 311.340258 149.17022 
L 312.557915 149.056945 
L 313.268215 148.72684 
L 313.57263 148.775415 
L 313.775572 148.995721 
L 313.92778 149.15084 
L 314.130723 149.357847 
L 314.485873 149.364163 
L 314.99323 149.275767 
L 315.449852 149.360342 
L 315.754266 149.252813 
L 315.957209 149.165703 
L 317.530016 149.085558 
L 317.732959 149.110326 
L 317.986638 148.914258 
L 318.493995 148.811907 
L 318.79841 149.027026 
L 319.052088 149.405164 
L 319.305767 149.560681 
L 319.660917 149.464128 
L 320.421953 149.323137 
L 321.030782 149.369546 
L 322.197703 149.324583 
L 322.349911 149.299018 
L 322.755796 149.000931 
L 323.060211 148.75681 
L 323.466097 148.682904 
L 323.871983 148.741297 
L 324.176397 149.01263 
L 324.531547 148.985404 
L 324.835961 148.926276 
L 325.394054 149.000265 
L 325.749204 148.910013 
L 326.002883 148.882599 
L 326.713183 148.917403 
L 327.575691 148.848172 
L 327.727898 148.838292 
L 327.981577 148.789334 
L 328.083048 148.837544 
L 328.184519 148.748873 
L 328.235255 148.797303 
L 328.691877 148.908639 
L 328.844084 148.955433 
L 328.89482 148.905422 
L 328.945555 148.995127 
L 329.24997 149.18459 
L 329.706591 149.074084 
L 329.96027 149.019685 
L 330.264684 149.006621 
L 330.518363 149.042695 
L 331.330135 149.026829 
L 331.786756 149.0933 
L 333.156621 149.009419 
L 333.461035 148.926392 
L 334.1206 149.04861 
L 334.323543 149.286473 
L 334.729428 149.230101 
L 335.591936 148.929828 
L 336.150029 148.819127 
L 336.454443 148.822667 
L 337.519894 148.830142 
L 339.143437 148.682782 
L 339.295644 148.945998 
L 339.34638 148.912397 
L 339.650794 149.204066 
L 341.47728 148.938554 
L 341.781695 148.836298 
L 342.441259 148.816743 
L 343.709652 148.665971 
L 343.912595 148.538702 
L 344.21701 148.67419 
L 344.369217 148.792946 
L 344.419953 148.751349 
L 344.622896 149.040019 
L 346.34791 148.663494 
L 346.804532 148.515991 
L 347.159682 148.605605 
L 347.971454 148.593982 
L 348.174397 148.557641 
L 348.428075 148.554422 
L 349.138375 148.513127 
L 349.392054 148.618111 
L 349.696468 149.168951 
L 350.203826 149.402934 
L 350.86339 149.374597 
L 351.979576 149.255071 
L 352.131783 149.285373 
L 353.501648 149.299123 
L 353.704591 149.233311 
L 353.907534 149.262761 
L 354.161213 149.231721 
L 354.364155 149.182172 
L 354.66857 149.276821 
L 354.922248 149.714998 
L 356.139906 149.750416 
L 356.596528 149.656043 
L 356.79947 149.519411 
L 357.002413 149.494198 
L 357.763449 149.555849 
L 358.727428 149.606412 
L 359.336257 149.404398 
L 359.5392 149.47292 
L 360.2495 150.167592 
L 360.9598 150.123118 
L 361.112007 150.058609 
L 361.416422 150.144789 
L 361.873043 150.041712 
L 362.126722 149.92368 
L 362.532608 149.906587 
L 364.05468 149.834874 
L 364.308358 149.710983 
L 364.76498 149.873578 
L 365.170866 150.527005 
L 365.323073 150.521836 
L 365.83043 150.425083 
L 366.439259 150.21798 
L 366.794409 150.216903 
L 367.149559 150.144381 
L 367.707652 150.189048 
L 369.229724 149.993949 
L 369.432667 149.937806 
L 370.193703 149.978541 
L 370.447381 150.259937 
L 371.462096 149.850748 
L 371.76651 149.823678 
L 372.12166 149.744521 
L 372.273868 149.676633 
L 372.324603 149.720092 
L 372.375339 149.646583 
L 374.15109 149.55355 
L 374.404768 149.486766 
L 374.50624 149.388746 
L 374.810654 149.278456 
L 375.165804 149.323527 
L 375.673161 150.094516 
L 376.180519 150.019271 
L 376.484933 149.896265 
L 377.144498 149.845256 
L 377.804062 149.496082 
L 378.514362 149.466575 
L 378.717305 149.43824 
L 378.869512 149.397736 
L 378.970984 149.39611 
L 379.173927 149.245506 
L 379.37687 149.070227 
L 379.884227 148.819362 
L 380.137906 148.781122 
L 380.493056 149.328558 
L 381.051149 149.363633 
L 381.254092 149.348311 
L 381.913656 149.602359 
L 382.725428 149.278785 
L 382.979106 149.398648 
L 383.537199 149.460656 
L 385.31295 149.572813 
L 385.6681 150.217393 
L 386.073986 150.188794 
L 386.276929 150.082377 
L 387.849736 149.809168 
L 388.610772 149.893971 
L 388.864451 149.882211 
L 389.371808 149.896531 
L 390.082108 149.602986 
L 390.335787 149.686166 
L 390.487994 149.873041 
L 390.995352 150.17568 
L 391.451973 150.077772 
L 391.807123 149.989917 
L 392.618895 149.990383 
L 392.872574 149.798841 
L 393.227724 149.920118 
L 393.633609 149.908774 
L 393.98876 149.873509 
L 394.242438 149.841302 
L 394.394645 149.897094 
L 394.69906 149.892349 
L 394.902003 149.881352 
L 395.460096 149.854165 
L 395.663039 150.087148 
L 395.713774 150.035899 
L 395.967453 150.510985 
L 396.221132 150.578485 
L 396.525546 150.48528 
L 396.728489 150.385587 
L 398.402768 150.280615 
L 398.757918 150.272514 
L 400.330726 150.145592 
L 400.584404 150.162924 
L 401.294704 150.825532 
L 401.751326 150.775968 
L 401.903533 150.754601 
L 402.207948 150.7257 
L 403.019719 150.693676 
L 403.527077 150.66317 
L 403.730019 150.71586 
L 404.693998 150.789699 
L 404.947677 150.874795 
L 405.556506 150.517278 
L 405.556506 150.517278 
" style="fill:none;stroke:#ff7f0e;stroke-linecap:square;stroke-width:1.5;"/>
   </g>
   <g id="patch_3">
    <path d="M 85.974688 253.173375 
L 85.974688 35.733375 
" style="fill:none;stroke:#000000;stroke-linecap:square;stroke-linejoin:miter;stroke-width:0.8;"/>
   </g>
   <g id="patch_4">
    <path d="M 420.774688 253.173375 
L 420.774688 35.733375 
" style="fill:none;stroke:#000000;stroke-linecap:square;stroke-linejoin:miter;stroke-width:0.8;"/>
   </g>
   <g id="patch_5">
    <path d="M 85.974688 253.173375 
L 420.774688 253.173375 
" style="fill:none;stroke:#000000;stroke-linecap:square;stroke-linejoin:miter;stroke-width:0.8;"/>
   </g>
   <g id="patch_6">
    <path d="M 85.974688 35.733375 
L 420.774688 35.733375 
" style="fill:none;stroke:#000000;stroke-linecap:square;stroke-linejoin:miter;stroke-width:0.8;"/>
   </g>
   <g id="text_12">
    <!-- $a(t)$ -->
    <defs>
     <path d="M 46.296875 11.09375 
L 47.59375 10 
Q 42 3.203125 39.34375 1.09375 
Q 36.703125 -1 33.703125 -1 
Q 29.703125 -1 29.703125 3.09375 
Q 29.703125 5.59375 32 14.59375 
Q 26.40625 6.203125 21.703125 2.546875 
Q 17 -1.09375 11.703125 -1.09375 
Q 7.296875 -1.09375 4.5 1.953125 
Q 1.703125 5 1.703125 10.5 
Q 1.703125 18.09375 6.046875 26 
Q 10.40625 33.90625 17.09375 39 
Q 23.796875 44.09375 30.296875 44.09375 
Q 37 44.09375 38.296875 38.296875 
L 39.40625 43.09375 
L 39.703125 43.40625 
L 45.796875 44.09375 
L 46.5 43.796875 
Q 46.40625 43.40625 45.90625 41.703125 
Q 37 9.296875 37 5.40625 
Q 37 4.09375 38.40625 4.09375 
Q 39.90625 4.09375 43.59375 8.203125 
z
M 36.5 36.09375 
Q 36.5 38.703125 35 40.296875 
Q 33.5 41.90625 30.90625 41.90625 
Q 24.09375 41.90625 17.796875 32.703125 
Q 14.5 27.796875 12.296875 21.796875 
Q 10.09375 15.796875 10.09375 11.203125 
Q 10.09375 3.796875 16.09375 3.796875 
Q 22 3.796875 28.796875 13.59375 
Q 36.5 24.703125 36.5 36.09375 
z
" id="STIXGeneral-Italic-97"/>
     <path d="M 30.40625 -16.09375 
L 29.203125 -17.703125 
Q 17.59375 -11.09375 11.1875 0.5 
Q 4.796875 12.09375 4.796875 25.203125 
Q 4.796875 52.90625 29.5 67.59375 
L 30.40625 66 
Q 20.203125 57.296875 16.796875 48.84375 
Q 13.40625 40.40625 13.40625 25.5 
Q 13.40625 10.703125 16.90625 1.5 
Q 20.40625 -7.703125 30.40625 -16.09375 
z
" id="STIXGeneral-Regular-40"/>
     <path d="M 29.59375 42.796875 
L 29.09375 39.59375 
L 20.703125 39.59375 
L 12 6.796875 
Q 11.796875 6 11.796875 5.40625 
Q 11.796875 3.796875 13.296875 3.796875 
Q 14.5 3.796875 16.09375 5.34375 
Q 17.703125 6.90625 21.40625 11.703125 
L 22.703125 11 
Q 18.09375 4 15.140625 1.453125 
Q 12.203125 -1.09375 8.40625 -1.09375 
Q 3.796875 -1.09375 3.796875 2.59375 
Q 3.796875 3.59375 5.40625 10 
L 13.203125 39.59375 
L 5.703125 39.59375 
L 5.59375 40.203125 
Q 5.59375 42 8.90625 42.703125 
Q 11.40625 43.296875 15.5 46.546875 
Q 19.59375 49.796875 22.203125 53.703125 
Q 22.796875 54.59375 23.59375 54.59375 
Q 24.5 54.59375 24.5 53.796875 
Q 24.5 53.296875 24.40625 53.09375 
L 21.59375 42.796875 
z
" id="STIXGeneral-Italic-116"/>
     <path d="M 2.90625 66 
L 4.09375 67.59375 
Q 15.5 60.796875 22 49.1875 
Q 28.5 37.59375 28.5 24.703125 
Q 28.5 -2.59375 3.796875 -17.703125 
L 2.90625 -16.09375 
Q 13.203125 -7.59375 16.546875 0.84375 
Q 19.90625 9.296875 19.90625 24.40625 
Q 19.90625 39.59375 16.546875 48.75 
Q 13.203125 57.90625 2.90625 66 
z
" id="STIXGeneral-Regular-41"/>
    </defs>
    <g transform="translate(230.754687 29.532375)scale(0.312 -0.312)">
     <use transform="translate(0 0.40625)" xlink:href="#STIXGeneral-Italic-97"/>
     <use transform="translate(50.099991 0.40625)" xlink:href="#STIXGeneral-Regular-40"/>
     <use transform="translate(83.399979 0.40625)" xlink:href="#STIXGeneral-Italic-116"/>
     <use transform="translate(111.199966 0.40625)" xlink:href="#STIXGeneral-Regular-41"/>
    </g>
   </g>
   <g id="legend_1">
    <g id="line2d_12">
     <path d="M 447.914688 55.643687 
L 499.914688 55.643687 
" style="fill:none;stroke:#1f77b4;stroke-linecap:square;stroke-width:1.5;"/>
    </g>
    <g id="line2d_13"/>
    <g id="text_13">
     <!-- exact -->
     <defs>
      <path d="M 0.734375 0 
L 19.671875 26.953125 
L 2.15625 51.859375 
L 13.140625 51.859375 
L 21.09375 39.703125 
Q 23.34375 36.234375 24.703125 33.890625 
Q 26.859375 37.109375 28.65625 39.59375 
L 37.40625 51.859375 
L 47.90625 51.859375 
L 29.984375 27.4375 
L 49.265625 0 
L 38.484375 0 
L 27.828125 16.109375 
L 25 20.453125 
L 11.375 0 
z
" id="ArialMT-120"/>
      <path d="M 40.4375 19 
L 49.078125 17.875 
Q 47.65625 8.9375 41.8125 3.875 
Q 35.984375 -1.171875 27.484375 -1.171875 
Q 16.84375 -1.171875 10.375 5.78125 
Q 3.90625 12.75 3.90625 25.734375 
Q 3.90625 34.125 6.6875 40.421875 
Q 9.46875 46.734375 15.15625 49.875 
Q 20.84375 53.03125 27.546875 53.03125 
Q 35.984375 53.03125 41.359375 48.75 
Q 46.734375 44.484375 48.25 36.625 
L 39.703125 35.296875 
Q 38.484375 40.53125 35.375 43.15625 
Q 32.28125 45.796875 27.875 45.796875 
Q 21.234375 45.796875 17.078125 41.03125 
Q 12.9375 36.28125 12.9375 25.984375 
Q 12.9375 15.53125 16.9375 10.796875 
Q 20.953125 6.0625 27.390625 6.0625 
Q 32.5625 6.0625 36.03125 9.234375 
Q 39.5 12.40625 40.4375 19 
z
" id="ArialMT-99"/>
     </defs>
     <g transform="translate(520.714687 64.743687)scale(0.26 -0.26)">
      <use xlink:href="#ArialMT-101"/>
      <use x="55.615234" xlink:href="#ArialMT-120"/>
      <use x="105.615234" xlink:href="#ArialMT-97"/>
      <use x="161.230469" xlink:href="#ArialMT-99"/>
      <use x="211.230469" xlink:href="#ArialMT-116"/>
     </g>
    </g>
    <g id="line2d_14">
     <path d="M 447.914688 92.4215 
L 499.914688 92.4215 
" style="fill:none;stroke:#ff7f0e;stroke-linecap:square;stroke-width:1.5;"/>
    </g>
    <g id="line2d_15"/>
    <g id="text_14">
     <!-- estimated -->
     <g transform="translate(520.714687 101.5215)scale(0.26 -0.26)">
      <use xlink:href="#ArialMT-101"/>
      <use x="55.615234" xlink:href="#ArialMT-115"/>
      <use x="105.615234" xlink:href="#ArialMT-116"/>
      <use x="133.398438" xlink:href="#ArialMT-105"/>
      <use x="155.615234" xlink:href="#ArialMT-109"/>
      <use x="238.916016" xlink:href="#ArialMT-97"/>
      <use x="294.53125" xlink:href="#ArialMT-116"/>
      <use x="322.314453" xlink:href="#ArialMT-101"/>
      <use x="377.929688" xlink:href="#ArialMT-100"/>
     </g>
    </g>
   </g>
  </g>
 </g>
 <defs>
  <clipPath id="p18663f68e1">
   <rect height="217.44" width="334.8" x="85.974688" y="35.733375"/>
  </clipPath>
 </defs>
</svg>
