<?xml version="1.0" encoding="utf-8" standalone="no"?>
<!DOCTYPE svg PUBLIC "-//W3C//DTD SVG 1.1//EN"
  "http://www.w3.org/Graphics/SVG/1.1/DTD/svg11.dtd">
<!-- Created with matplotlib (https://matplotlib.org/) -->
<svg height="323.362pt" version="1.1" viewBox="0 0 676.244688 323.362" width="676.244688pt" xmlns="http://www.w3.org/2000/svg" xmlns:xlink="http://www.w3.org/1999/xlink">
 <metadata>
  <rdf:RDF xmlns:cc="http://creativecommons.org/ns#" xmlns:dc="http://purl.org/dc/elements/1.1/" xmlns:rdf="http://www.w3.org/1999/02/22-rdf-syntax-ns#">
   <cc:Work>
    <dc:type rdf:resource="http://purl.org/dc/dcmitype/StillImage"/>
    <dc:date>2022-01-24T15:15:53.549511</dc:date>
    <dc:format>image/svg+xml</dc:format>
    <dc:creator>
     <cc:Agent>
      <dc:title>Matplotlib v3.3.2, https://matplotlib.org/</dc:title>
     </cc:Agent>
    </dc:creator>
   </cc:Work>
  </rdf:RDF>
 </metadata>
 <defs>
  <style type="text/css">*{stroke-linecap:butt;stroke-linejoin:round;}</style>
 </defs>
 <g id="figure_1">
  <g id="patch_1">
   <path d="M 0 323.362 
L 676.244688 323.362 
L 676.244688 0 
L 0 0 
z
" style="fill:#ffffff;"/>
  </g>
  <g id="axes_1">
   <g id="patch_2">
    <path d="M 92.990625 254.83575 
L 427.790625 254.83575 
L 427.790625 37.39575 
L 92.990625 37.39575 
z
" style="fill:#ffffff;"/>
   </g>
   <g id="line2d_1">
    <path clip-path="url(#pc333c9a49d)" d="M 108.208807 146.11575 
L 412.572443 146.11575 
L 412.572443 146.11575 
" style="fill:none;stroke:#1f77b4;stroke-linecap:square;stroke-width:1.5;"/>
   </g>
   <g id="matplotlib.axis_1">
    <g id="xtick_1">
     <g id="line2d_2">
      <defs>
       <path d="M 0 0 
L 0 3.5 
" id="m5142f6fd69" style="stroke:#000000;stroke-width:0.8;"/>
      </defs>
      <g>
       <use style="stroke:#000000;stroke-width:0.8;" x="108.208807" xlink:href="#m5142f6fd69" y="254.83575"/>
      </g>
     </g>
     <g id="text_1">
      <!-- 0 -->
      <g transform="translate(99.937557 281.591688)scale(0.26 -0.26)">
       <defs>
        <path d="M 31.78125 66.40625 
Q 24.171875 66.40625 20.328125 58.90625 
Q 16.5 51.421875 16.5 36.375 
Q 16.5 21.390625 20.328125 13.890625 
Q 24.171875 6.390625 31.78125 6.390625 
Q 39.453125 6.390625 43.28125 13.890625 
Q 47.125 21.390625 47.125 36.375 
Q 47.125 51.421875 43.28125 58.90625 
Q 39.453125 66.40625 31.78125 66.40625 
z
M 31.78125 74.21875 
Q 44.046875 74.21875 50.515625 64.515625 
Q 56.984375 54.828125 56.984375 36.375 
Q 56.984375 17.96875 50.515625 8.265625 
Q 44.046875 -1.421875 31.78125 -1.421875 
Q 19.53125 -1.421875 13.0625 8.265625 
Q 6.59375 17.96875 6.59375 36.375 
Q 6.59375 54.828125 13.0625 64.515625 
Q 19.53125 74.21875 31.78125 74.21875 
z
" id="DejaVuSans-48"/>
       </defs>
       <use xlink:href="#DejaVuSans-48"/>
      </g>
     </g>
    </g>
    <g id="xtick_2">
     <g id="line2d_3">
      <g>
       <use style="stroke:#000000;stroke-width:0.8;" x="209.680264" xlink:href="#m5142f6fd69" y="254.83575"/>
      </g>
     </g>
     <g id="text_2">
      <!-- 2 -->
      <g transform="translate(201.409014 281.591688)scale(0.26 -0.26)">
       <defs>
        <path d="M 19.1875 8.296875 
L 53.609375 8.296875 
L 53.609375 0 
L 7.328125 0 
L 7.328125 8.296875 
Q 12.9375 14.109375 22.625 23.890625 
Q 32.328125 33.6875 34.8125 36.53125 
Q 39.546875 41.84375 41.421875 45.53125 
Q 43.3125 49.21875 43.3125 52.78125 
Q 43.3125 58.59375 39.234375 62.25 
Q 35.15625 65.921875 28.609375 65.921875 
Q 23.96875 65.921875 18.8125 64.3125 
Q 13.671875 62.703125 7.8125 59.421875 
L 7.8125 69.390625 
Q 13.765625 71.78125 18.9375 73 
Q 24.125 74.21875 28.421875 74.21875 
Q 39.75 74.21875 46.484375 68.546875 
Q 53.21875 62.890625 53.21875 53.421875 
Q 53.21875 48.921875 51.53125 44.890625 
Q 49.859375 40.875 45.40625 35.40625 
Q 44.1875 33.984375 37.640625 27.21875 
Q 31.109375 20.453125 19.1875 8.296875 
z
" id="DejaVuSans-50"/>
       </defs>
       <use xlink:href="#DejaVuSans-50"/>
      </g>
     </g>
    </g>
    <g id="xtick_3">
     <g id="line2d_4">
      <g>
       <use style="stroke:#000000;stroke-width:0.8;" x="311.151722" xlink:href="#m5142f6fd69" y="254.83575"/>
      </g>
     </g>
     <g id="text_3">
      <!-- 4 -->
      <g transform="translate(302.880472 281.591688)scale(0.26 -0.26)">
       <defs>
        <path d="M 37.796875 64.3125 
L 12.890625 25.390625 
L 37.796875 25.390625 
z
M 35.203125 72.90625 
L 47.609375 72.90625 
L 47.609375 25.390625 
L 58.015625 25.390625 
L 58.015625 17.1875 
L 47.609375 17.1875 
L 47.609375 0 
L 37.796875 0 
L 37.796875 17.1875 
L 4.890625 17.1875 
L 4.890625 26.703125 
z
" id="DejaVuSans-52"/>
       </defs>
       <use xlink:href="#DejaVuSans-52"/>
      </g>
     </g>
    </g>
    <g id="xtick_4">
     <g id="line2d_5">
      <g>
       <use style="stroke:#000000;stroke-width:0.8;" x="412.623179" xlink:href="#m5142f6fd69" y="254.83575"/>
      </g>
     </g>
     <g id="text_4">
      <!-- 6 -->
      <g transform="translate(404.351929 281.591688)scale(0.26 -0.26)">
       <defs>
        <path d="M 33.015625 40.375 
Q 26.375 40.375 22.484375 35.828125 
Q 18.609375 31.296875 18.609375 23.390625 
Q 18.609375 15.53125 22.484375 10.953125 
Q 26.375 6.390625 33.015625 6.390625 
Q 39.65625 6.390625 43.53125 10.953125 
Q 47.40625 15.53125 47.40625 23.390625 
Q 47.40625 31.296875 43.53125 35.828125 
Q 39.65625 40.375 33.015625 40.375 
z
M 52.59375 71.296875 
L 52.59375 62.3125 
Q 48.875 64.0625 45.09375 64.984375 
Q 41.3125 65.921875 37.59375 65.921875 
Q 27.828125 65.921875 22.671875 59.328125 
Q 17.53125 52.734375 16.796875 39.40625 
Q 19.671875 43.65625 24.015625 45.921875 
Q 28.375 48.1875 33.59375 48.1875 
Q 44.578125 48.1875 50.953125 41.515625 
Q 57.328125 34.859375 57.328125 23.390625 
Q 57.328125 12.15625 50.6875 5.359375 
Q 44.046875 -1.421875 33.015625 -1.421875 
Q 20.359375 -1.421875 13.671875 8.265625 
Q 6.984375 17.96875 6.984375 36.375 
Q 6.984375 53.65625 15.1875 63.9375 
Q 23.390625 74.21875 37.203125 74.21875 
Q 40.921875 74.21875 44.703125 73.484375 
Q 48.484375 72.75 52.59375 71.296875 
z
" id="DejaVuSans-54"/>
       </defs>
       <use xlink:href="#DejaVuSans-54"/>
      </g>
     </g>
    </g>
    <g id="text_5">
     <!-- time (s) -->
     <g transform="translate(209.972969 310.754813)scale(0.26 -0.26)">
      <defs>
       <path d="M 18.3125 70.21875 
L 18.3125 54.6875 
L 36.8125 54.6875 
L 36.8125 47.703125 
L 18.3125 47.703125 
L 18.3125 18.015625 
Q 18.3125 11.328125 20.140625 9.421875 
Q 21.96875 7.515625 27.59375 7.515625 
L 36.8125 7.515625 
L 36.8125 0 
L 27.59375 0 
Q 17.1875 0 13.234375 3.875 
Q 9.28125 7.765625 9.28125 18.015625 
L 9.28125 47.703125 
L 2.6875 47.703125 
L 2.6875 54.6875 
L 9.28125 54.6875 
L 9.28125 70.21875 
z
" id="DejaVuSans-116"/>
       <path d="M 9.421875 54.6875 
L 18.40625 54.6875 
L 18.40625 0 
L 9.421875 0 
z
M 9.421875 75.984375 
L 18.40625 75.984375 
L 18.40625 64.59375 
L 9.421875 64.59375 
z
" id="DejaVuSans-105"/>
       <path d="M 52 44.1875 
Q 55.375 50.25 60.0625 53.125 
Q 64.75 56 71.09375 56 
Q 79.640625 56 84.28125 50.015625 
Q 88.921875 44.046875 88.921875 33.015625 
L 88.921875 0 
L 79.890625 0 
L 79.890625 32.71875 
Q 79.890625 40.578125 77.09375 44.375 
Q 74.3125 48.1875 68.609375 48.1875 
Q 61.625 48.1875 57.5625 43.546875 
Q 53.515625 38.921875 53.515625 30.90625 
L 53.515625 0 
L 44.484375 0 
L 44.484375 32.71875 
Q 44.484375 40.625 41.703125 44.40625 
Q 38.921875 48.1875 33.109375 48.1875 
Q 26.21875 48.1875 22.15625 43.53125 
Q 18.109375 38.875 18.109375 30.90625 
L 18.109375 0 
L 9.078125 0 
L 9.078125 54.6875 
L 18.109375 54.6875 
L 18.109375 46.1875 
Q 21.1875 51.21875 25.484375 53.609375 
Q 29.78125 56 35.6875 56 
Q 41.65625 56 45.828125 52.96875 
Q 50 49.953125 52 44.1875 
z
" id="DejaVuSans-109"/>
       <path d="M 56.203125 29.59375 
L 56.203125 25.203125 
L 14.890625 25.203125 
Q 15.484375 15.921875 20.484375 11.0625 
Q 25.484375 6.203125 34.421875 6.203125 
Q 39.59375 6.203125 44.453125 7.46875 
Q 49.3125 8.734375 54.109375 11.28125 
L 54.109375 2.78125 
Q 49.265625 0.734375 44.1875 -0.34375 
Q 39.109375 -1.421875 33.890625 -1.421875 
Q 20.796875 -1.421875 13.15625 6.1875 
Q 5.515625 13.8125 5.515625 26.8125 
Q 5.515625 40.234375 12.765625 48.109375 
Q 20.015625 56 32.328125 56 
Q 43.359375 56 49.78125 48.890625 
Q 56.203125 41.796875 56.203125 29.59375 
z
M 47.21875 32.234375 
Q 47.125 39.59375 43.09375 43.984375 
Q 39.0625 48.390625 32.421875 48.390625 
Q 24.90625 48.390625 20.390625 44.140625 
Q 15.875 39.890625 15.1875 32.171875 
z
" id="DejaVuSans-101"/>
       <path id="DejaVuSans-32"/>
       <path d="M 31 75.875 
Q 24.46875 64.65625 21.28125 53.65625 
Q 18.109375 42.671875 18.109375 31.390625 
Q 18.109375 20.125 21.3125 9.0625 
Q 24.515625 -2 31 -13.1875 
L 23.1875 -13.1875 
Q 15.875 -1.703125 12.234375 9.375 
Q 8.59375 20.453125 8.59375 31.390625 
Q 8.59375 42.28125 12.203125 53.3125 
Q 15.828125 64.359375 23.1875 75.875 
z
" id="DejaVuSans-40"/>
       <path d="M 44.28125 53.078125 
L 44.28125 44.578125 
Q 40.484375 46.53125 36.375 47.5 
Q 32.28125 48.484375 27.875 48.484375 
Q 21.1875 48.484375 17.84375 46.4375 
Q 14.5 44.390625 14.5 40.28125 
Q 14.5 37.15625 16.890625 35.375 
Q 19.28125 33.59375 26.515625 31.984375 
L 29.59375 31.296875 
Q 39.15625 29.25 43.1875 25.515625 
Q 47.21875 21.78125 47.21875 15.09375 
Q 47.21875 7.46875 41.1875 3.015625 
Q 35.15625 -1.421875 24.609375 -1.421875 
Q 20.21875 -1.421875 15.453125 -0.5625 
Q 10.6875 0.296875 5.421875 2 
L 5.421875 11.28125 
Q 10.40625 8.6875 15.234375 7.390625 
Q 20.0625 6.109375 24.8125 6.109375 
Q 31.15625 6.109375 34.5625 8.28125 
Q 37.984375 10.453125 37.984375 14.40625 
Q 37.984375 18.0625 35.515625 20.015625 
Q 33.0625 21.96875 24.703125 23.78125 
L 21.578125 24.515625 
Q 13.234375 26.265625 9.515625 29.90625 
Q 5.8125 33.546875 5.8125 39.890625 
Q 5.8125 47.609375 11.28125 51.796875 
Q 16.75 56 26.8125 56 
Q 31.78125 56 36.171875 55.265625 
Q 40.578125 54.546875 44.28125 53.078125 
z
" id="DejaVuSans-115"/>
       <path d="M 8.015625 75.875 
L 15.828125 75.875 
Q 23.140625 64.359375 26.78125 53.3125 
Q 30.421875 42.28125 30.421875 31.390625 
Q 30.421875 20.453125 26.78125 9.375 
Q 23.140625 -1.703125 15.828125 -13.1875 
L 8.015625 -13.1875 
Q 14.5 -2 17.703125 9.0625 
Q 20.90625 20.125 20.90625 31.390625 
Q 20.90625 42.671875 17.703125 53.65625 
Q 14.5 64.65625 8.015625 75.875 
z
" id="DejaVuSans-41"/>
      </defs>
      <use xlink:href="#DejaVuSans-116"/>
      <use x="39.208984" xlink:href="#DejaVuSans-105"/>
      <use x="66.992188" xlink:href="#DejaVuSans-109"/>
      <use x="164.404297" xlink:href="#DejaVuSans-101"/>
      <use x="225.927734" xlink:href="#DejaVuSans-32"/>
      <use x="257.714844" xlink:href="#DejaVuSans-40"/>
      <use x="296.728516" xlink:href="#DejaVuSans-115"/>
      <use x="348.828125" xlink:href="#DejaVuSans-41"/>
     </g>
    </g>
   </g>
   <g id="matplotlib.axis_2">
    <g id="ytick_1">
     <g id="line2d_6">
      <defs>
       <path d="M 0 0 
L -3.5 0 
" id="m676ddd3c7f" style="stroke:#000000;stroke-width:0.8;"/>
      </defs>
      <g>
       <use style="stroke:#000000;stroke-width:0.8;" x="92.990625" xlink:href="#m676ddd3c7f" y="254.83575"/>
      </g>
     </g>
     <g id="text_6">
      <!-- 98 -->
      <g transform="translate(52.905625 264.713719)scale(0.26 -0.26)">
       <defs>
        <path d="M 10.984375 1.515625 
L 10.984375 10.5 
Q 14.703125 8.734375 18.5 7.8125 
Q 22.3125 6.890625 25.984375 6.890625 
Q 35.75 6.890625 40.890625 13.453125 
Q 46.046875 20.015625 46.78125 33.40625 
Q 43.953125 29.203125 39.59375 26.953125 
Q 35.25 24.703125 29.984375 24.703125 
Q 19.046875 24.703125 12.671875 31.3125 
Q 6.296875 37.9375 6.296875 49.421875 
Q 6.296875 60.640625 12.9375 67.421875 
Q 19.578125 74.21875 30.609375 74.21875 
Q 43.265625 74.21875 49.921875 64.515625 
Q 56.59375 54.828125 56.59375 36.375 
Q 56.59375 19.140625 48.40625 8.859375 
Q 40.234375 -1.421875 26.421875 -1.421875 
Q 22.703125 -1.421875 18.890625 -0.6875 
Q 15.09375 0.046875 10.984375 1.515625 
z
M 30.609375 32.421875 
Q 37.25 32.421875 41.125 36.953125 
Q 45.015625 41.5 45.015625 49.421875 
Q 45.015625 57.28125 41.125 61.84375 
Q 37.25 66.40625 30.609375 66.40625 
Q 23.96875 66.40625 20.09375 61.84375 
Q 16.21875 57.28125 16.21875 49.421875 
Q 16.21875 41.5 20.09375 36.953125 
Q 23.96875 32.421875 30.609375 32.421875 
z
" id="DejaVuSans-57"/>
        <path d="M 31.78125 34.625 
Q 24.75 34.625 20.71875 30.859375 
Q 16.703125 27.09375 16.703125 20.515625 
Q 16.703125 13.921875 20.71875 10.15625 
Q 24.75 6.390625 31.78125 6.390625 
Q 38.8125 6.390625 42.859375 10.171875 
Q 46.921875 13.96875 46.921875 20.515625 
Q 46.921875 27.09375 42.890625 30.859375 
Q 38.875 34.625 31.78125 34.625 
z
M 21.921875 38.8125 
Q 15.578125 40.375 12.03125 44.71875 
Q 8.5 49.078125 8.5 55.328125 
Q 8.5 64.0625 14.71875 69.140625 
Q 20.953125 74.21875 31.78125 74.21875 
Q 42.671875 74.21875 48.875 69.140625 
Q 55.078125 64.0625 55.078125 55.328125 
Q 55.078125 49.078125 51.53125 44.71875 
Q 48 40.375 41.703125 38.8125 
Q 48.828125 37.15625 52.796875 32.3125 
Q 56.78125 27.484375 56.78125 20.515625 
Q 56.78125 9.90625 50.3125 4.234375 
Q 43.84375 -1.421875 31.78125 -1.421875 
Q 19.734375 -1.421875 13.25 4.234375 
Q 6.78125 9.90625 6.78125 20.515625 
Q 6.78125 27.484375 10.78125 32.3125 
Q 14.796875 37.15625 21.921875 38.8125 
z
M 18.3125 54.390625 
Q 18.3125 48.734375 21.84375 45.5625 
Q 25.390625 42.390625 31.78125 42.390625 
Q 38.140625 42.390625 41.71875 45.5625 
Q 45.3125 48.734375 45.3125 54.390625 
Q 45.3125 60.0625 41.71875 63.234375 
Q 38.140625 66.40625 31.78125 66.40625 
Q 25.390625 66.40625 21.84375 63.234375 
Q 18.3125 60.0625 18.3125 54.390625 
z
" id="DejaVuSans-56"/>
       </defs>
       <use xlink:href="#DejaVuSans-57"/>
       <use x="63.623047" xlink:href="#DejaVuSans-56"/>
      </g>
     </g>
    </g>
    <g id="ytick_2">
     <g id="line2d_7">
      <g>
       <use style="stroke:#000000;stroke-width:0.8;" x="92.990625" xlink:href="#m676ddd3c7f" y="200.47575"/>
      </g>
     </g>
     <g id="text_7">
      <!-- 99 -->
      <g transform="translate(52.905625 210.353719)scale(0.26 -0.26)">
       <use xlink:href="#DejaVuSans-57"/>
       <use x="63.623047" xlink:href="#DejaVuSans-57"/>
      </g>
     </g>
    </g>
    <g id="ytick_3">
     <g id="line2d_8">
      <g>
       <use style="stroke:#000000;stroke-width:0.8;" x="92.990625" xlink:href="#m676ddd3c7f" y="146.11575"/>
      </g>
     </g>
     <g id="text_8">
      <!-- 100 -->
      <g transform="translate(36.363125 155.993719)scale(0.26 -0.26)">
       <defs>
        <path d="M 12.40625 8.296875 
L 28.515625 8.296875 
L 28.515625 63.921875 
L 10.984375 60.40625 
L 10.984375 69.390625 
L 28.421875 72.90625 
L 38.28125 72.90625 
L 38.28125 8.296875 
L 54.390625 8.296875 
L 54.390625 0 
L 12.40625 0 
z
" id="DejaVuSans-49"/>
       </defs>
       <use xlink:href="#DejaVuSans-49"/>
       <use x="63.623047" xlink:href="#DejaVuSans-48"/>
       <use x="127.246094" xlink:href="#DejaVuSans-48"/>
      </g>
     </g>
    </g>
    <g id="ytick_4">
     <g id="line2d_9">
      <g>
       <use style="stroke:#000000;stroke-width:0.8;" x="92.990625" xlink:href="#m676ddd3c7f" y="91.75575"/>
      </g>
     </g>
     <g id="text_9">
      <!-- 101 -->
      <g transform="translate(36.363125 101.633719)scale(0.26 -0.26)">
       <use xlink:href="#DejaVuSans-49"/>
       <use x="63.623047" xlink:href="#DejaVuSans-48"/>
       <use x="127.246094" xlink:href="#DejaVuSans-49"/>
      </g>
     </g>
    </g>
    <g id="ytick_5">
     <g id="line2d_10">
      <g>
       <use style="stroke:#000000;stroke-width:0.8;" x="92.990625" xlink:href="#m676ddd3c7f" y="37.39575"/>
      </g>
     </g>
     <g id="text_10">
      <!-- 102 -->
      <g transform="translate(36.363125 47.273719)scale(0.26 -0.26)">
       <use xlink:href="#DejaVuSans-49"/>
       <use x="63.623047" xlink:href="#DejaVuSans-48"/>
       <use x="127.246094" xlink:href="#DejaVuSans-50"/>
      </g>
     </g>
    </g>
    <g id="text_11">
     <!-- amplitude (a.u.) -->
     <g transform="translate(26.955938 250.552469)rotate(-90)scale(0.26 -0.26)">
      <defs>
       <path d="M 34.28125 27.484375 
Q 23.390625 27.484375 19.1875 25 
Q 14.984375 22.515625 14.984375 16.5 
Q 14.984375 11.71875 18.140625 8.90625 
Q 21.296875 6.109375 26.703125 6.109375 
Q 34.1875 6.109375 38.703125 11.40625 
Q 43.21875 16.703125 43.21875 25.484375 
L 43.21875 27.484375 
z
M 52.203125 31.203125 
L 52.203125 0 
L 43.21875 0 
L 43.21875 8.296875 
Q 40.140625 3.328125 35.546875 0.953125 
Q 30.953125 -1.421875 24.3125 -1.421875 
Q 15.921875 -1.421875 10.953125 3.296875 
Q 6 8.015625 6 15.921875 
Q 6 25.140625 12.171875 29.828125 
Q 18.359375 34.515625 30.609375 34.515625 
L 43.21875 34.515625 
L 43.21875 35.40625 
Q 43.21875 41.609375 39.140625 45 
Q 35.0625 48.390625 27.6875 48.390625 
Q 23 48.390625 18.546875 47.265625 
Q 14.109375 46.140625 10.015625 43.890625 
L 10.015625 52.203125 
Q 14.9375 54.109375 19.578125 55.046875 
Q 24.21875 56 28.609375 56 
Q 40.484375 56 46.34375 49.84375 
Q 52.203125 43.703125 52.203125 31.203125 
z
" id="DejaVuSans-97"/>
       <path d="M 18.109375 8.203125 
L 18.109375 -20.796875 
L 9.078125 -20.796875 
L 9.078125 54.6875 
L 18.109375 54.6875 
L 18.109375 46.390625 
Q 20.953125 51.265625 25.265625 53.625 
Q 29.59375 56 35.59375 56 
Q 45.5625 56 51.78125 48.09375 
Q 58.015625 40.1875 58.015625 27.296875 
Q 58.015625 14.40625 51.78125 6.484375 
Q 45.5625 -1.421875 35.59375 -1.421875 
Q 29.59375 -1.421875 25.265625 0.953125 
Q 20.953125 3.328125 18.109375 8.203125 
z
M 48.6875 27.296875 
Q 48.6875 37.203125 44.609375 42.84375 
Q 40.53125 48.484375 33.40625 48.484375 
Q 26.265625 48.484375 22.1875 42.84375 
Q 18.109375 37.203125 18.109375 27.296875 
Q 18.109375 17.390625 22.1875 11.75 
Q 26.265625 6.109375 33.40625 6.109375 
Q 40.53125 6.109375 44.609375 11.75 
Q 48.6875 17.390625 48.6875 27.296875 
z
" id="DejaVuSans-112"/>
       <path d="M 9.421875 75.984375 
L 18.40625 75.984375 
L 18.40625 0 
L 9.421875 0 
z
" id="DejaVuSans-108"/>
       <path d="M 8.5 21.578125 
L 8.5 54.6875 
L 17.484375 54.6875 
L 17.484375 21.921875 
Q 17.484375 14.15625 20.5 10.265625 
Q 23.53125 6.390625 29.59375 6.390625 
Q 36.859375 6.390625 41.078125 11.03125 
Q 45.3125 15.671875 45.3125 23.6875 
L 45.3125 54.6875 
L 54.296875 54.6875 
L 54.296875 0 
L 45.3125 0 
L 45.3125 8.40625 
Q 42.046875 3.421875 37.71875 1 
Q 33.40625 -1.421875 27.6875 -1.421875 
Q 18.265625 -1.421875 13.375 4.4375 
Q 8.5 10.296875 8.5 21.578125 
z
M 31.109375 56 
z
" id="DejaVuSans-117"/>
       <path d="M 45.40625 46.390625 
L 45.40625 75.984375 
L 54.390625 75.984375 
L 54.390625 0 
L 45.40625 0 
L 45.40625 8.203125 
Q 42.578125 3.328125 38.25 0.953125 
Q 33.9375 -1.421875 27.875 -1.421875 
Q 17.96875 -1.421875 11.734375 6.484375 
Q 5.515625 14.40625 5.515625 27.296875 
Q 5.515625 40.1875 11.734375 48.09375 
Q 17.96875 56 27.875 56 
Q 33.9375 56 38.25 53.625 
Q 42.578125 51.265625 45.40625 46.390625 
z
M 14.796875 27.296875 
Q 14.796875 17.390625 18.875 11.75 
Q 22.953125 6.109375 30.078125 6.109375 
Q 37.203125 6.109375 41.296875 11.75 
Q 45.40625 17.390625 45.40625 27.296875 
Q 45.40625 37.203125 41.296875 42.84375 
Q 37.203125 48.484375 30.078125 48.484375 
Q 22.953125 48.484375 18.875 42.84375 
Q 14.796875 37.203125 14.796875 27.296875 
z
" id="DejaVuSans-100"/>
       <path d="M 10.6875 12.40625 
L 21 12.40625 
L 21 0 
L 10.6875 0 
z
" id="DejaVuSans-46"/>
      </defs>
      <use xlink:href="#DejaVuSans-97"/>
      <use x="61.279297" xlink:href="#DejaVuSans-109"/>
      <use x="158.691406" xlink:href="#DejaVuSans-112"/>
      <use x="222.167969" xlink:href="#DejaVuSans-108"/>
      <use x="249.951172" xlink:href="#DejaVuSans-105"/>
      <use x="277.734375" xlink:href="#DejaVuSans-116"/>
      <use x="316.943359" xlink:href="#DejaVuSans-117"/>
      <use x="380.322266" xlink:href="#DejaVuSans-100"/>
      <use x="443.798828" xlink:href="#DejaVuSans-101"/>
      <use x="505.322266" xlink:href="#DejaVuSans-32"/>
      <use x="537.109375" xlink:href="#DejaVuSans-40"/>
      <use x="576.123047" xlink:href="#DejaVuSans-97"/>
      <use x="637.402344" xlink:href="#DejaVuSans-46"/>
      <use x="669.189453" xlink:href="#DejaVuSans-117"/>
      <use x="732.568359" xlink:href="#DejaVuSans-46"/>
      <use x="764.355469" xlink:href="#DejaVuSans-41"/>
     </g>
    </g>
   </g>
   <g id="line2d_11">
    <path clip-path="url(#pc333c9a49d)" d="M 108.208807 146.11575 
L 126.625876 146.149987 
L 129.010456 146.133033 
L 145.601039 146.132489 
L 146.869432 146.094055 
L 149.609161 146.128092 
L 156.052599 146.222421 
L 156.712163 146.254644 
L 164.982087 146.406869 
L 166.351952 146.472177 
L 167.924759 146.364729 
L 170.207867 146.307616 
L 170.968903 146.331087 
L 176.854248 146.248188 
L 177.310869 146.200881 
L 181.775613 146.206947 
L 183.652835 146.178899 
L 184.769021 146.193148 
L 195.47426 146.315548 
L 196.083089 146.377582 
L 198.315461 146.417953 
L 199.380911 146.464192 
L 201.765491 146.516526 
L 202.374319 146.509975 
L 202.830941 146.525583 
L 206.788328 146.55654 
L 210.542772 146.726857 
L 210.897922 147.401021 
L 211.760429 149.377756 
L 212.014108 149.382192 
L 212.521465 149.276938 
L 212.978087 149.525146 
L 213.383972 149.71583 
L 213.637651 149.681215 
L 213.942065 149.506978 
L 214.145008 149.512896 
L 214.804573 150.241682 
L 215.210459 150.504624 
L 216.631059 150.787447 
L 216.884738 150.865439 
L 218.051659 150.895196 
L 218.356074 150.953465 
L 218.559017 150.828667 
L 218.812695 150.71842 
L 221.60316 150.744215 
L 222.059782 150.950257 
L 222.313461 150.967331 
L 223.581854 150.951489 
L 224.495097 150.799086 
L 226.524526 150.981784 
L 226.778205 151.033398 
L 226.981148 151.031027 
L 228.351012 151.283873 
L 228.452484 151.300097 
L 228.553955 151.265511 
L 228.756898 151.3936 
L 229.517934 151.435155 
L 229.873084 151.416814 
L 230.583384 151.364377 
L 231.090742 151.264735 
L 232.460606 151.355766 
L 232.815756 151.3578 
L 233.272378 151.045995 
L 233.373849 151.084743 
L 233.526057 151.038878 
L 234.033414 151.415424 
L 234.236357 151.326056 
L 234.4393 151.161495 
L 235.048129 151.350766 
L 237.432708 152.033164 
L 237.737122 152.065134 
L 238.802572 152.077513 
L 239.056251 152.142006 
L 239.411401 152.082837 
L 239.563608 151.996727 
L 239.66508 152.110543 
L 239.817287 152.004832 
L 240.172437 151.979948 
L 240.578323 152.081956 
L 240.832002 152.163469 
L 240.984209 152.180432 
L 242.100395 152.492322 
L 242.252602 152.478312 
L 242.557016 152.414998 
L 242.861431 152.350657 
L 243.622467 152.323742 
L 243.876145 152.094121 
L 244.079088 151.958901 
L 244.789388 151.959026 
L 244.941596 151.868131 
L 245.499689 151.932008 
L 246.159253 152.028391 
L 247.427646 152.085514 
L 247.681325 152.138341 
L 248.036475 152.115425 
L 248.543832 152.1748 
L 248.898982 152.356793 
L 249.05119 152.393334 
L 249.203397 152.414153 
L 249.507811 152.423229 
L 249.964433 152.725801 
L 250.268847 152.731074 
L 252.551955 152.685707 
L 252.907105 152.737439 
L 254.885798 152.792832 
L 255.291684 153.269283 
L 255.596099 153.259725 
L 256.306399 153.544966 
L 256.813756 153.520302 
L 257.219642 153.539245 
L 258.183621 153.371137 
L 258.690978 153.385101 
L 258.893921 153.318186 
L 259.1476 153.301798 
L 259.350543 153.116723 
L 259.705693 153.126087 
L 259.8579 153.270813 
L 260.010107 153.164253 
L 260.314521 153.302578 
L 260.821879 153.265355 
L 261.024822 153.267612 
L 261.227765 153.3419 
L 261.63365 153.389062 
L 262.648365 153.536734 
L 263.206458 153.640544 
L 263.612344 153.756397 
L 264.424115 154.619937 
L 264.72853 154.668483 
L 264.830001 154.617424 
L 265.032944 154.846524 
L 266.098394 154.76238 
L 266.352073 154.723162 
L 266.555016 154.575583 
L 266.85943 154.559178 
L 267.163845 154.541641 
L 268.178559 154.227222 
L 268.584445 154.133041 
L 268.939595 153.836033 
L 269.041067 153.754779 
L 270.005046 153.869932 
L 270.207988 154.204157 
L 270.410931 154.263658 
L 271.070496 154.417366 
L 271.679325 154.741552 
L 272.08521 154.770672 
L 272.288153 154.910691 
L 272.643303 155.053957 
L 272.896982 155.048449 
L 273.353604 155.050191 
L 273.962432 155.089973 
L 274.165375 155.38975 
L 274.266847 155.382935 
L 274.571261 155.581011 
L 274.875676 155.615789 
L 275.027883 155.691427 
L 275.18009 155.615122 
L 275.383033 155.792967 
L 275.53524 155.809279 
L 276.499219 155.927376 
L 276.702162 155.976371 
L 277.666141 156.127813 
L 278.325705 156.287854 
L 278.934534 156.34203 
L 279.238948 156.896205 
L 279.644834 157.44779 
L 281.217642 157.445101 
L 281.420585 157.327179 
L 281.674263 157.137203 
L 281.978678 157.139214 
L 282.739713 157.147595 
L 282.942656 157.092188 
L 283.8559 157.066481 
L 283.957371 157.156441 
L 284.008107 157.125991 
L 284.109578 157.077594 
L 284.261785 156.895919 
L 284.312521 156.953917 
L 284.363257 156.880751 
L 284.718407 156.783846 
L 285.022821 156.820846 
L 285.225764 156.673263 
L 285.327236 156.614752 
L 285.377971 156.688166 
L 285.885329 156.772164 
L 286.088272 156.705802 
L 286.34195 156.49644 
L 286.494157 156.470078 
L 286.798572 156.312708 
L 287.153722 156.340011 
L 287.559608 156.69145 
L 287.813286 156.714791 
L 288.066965 156.812078 
L 288.269908 156.791343 
L 288.980208 156.634373 
L 289.132415 156.646353 
L 289.284622 156.705723 
L 289.43683 156.760856 
L 289.589037 156.827004 
L 289.690508 156.858709 
L 289.842715 156.797623 
L 290.197866 156.770754 
L 290.451544 156.398034 
L 290.553016 156.360429 
L 290.705223 156.360415 
L 290.908166 156.325441 
L 292.480973 156.259855 
L 292.734652 156.203244 
L 292.988331 156.267086 
L 293.749367 156.283413 
L 294.30746 156.233491 
L 294.66261 156.594814 
L 294.814817 156.734404 
L 295.068496 156.903119 
L 295.322174 156.566053 
L 295.423646 156.432516 
L 295.626589 156.674492 
L 295.778796 156.717844 
L 296.032474 156.667406 
L 296.539832 156.70212 
L 296.641303 156.731224 
L 296.844246 156.561219 
L 297.097925 156.497826 
L 299.431768 156.350666 
L 299.634711 156.200749 
L 299.736183 156.126694 
L 300.142068 155.846469 
L 300.547954 155.772833 
L 300.700161 155.691533 
L 300.852369 155.654912 
L 301.106047 155.569772 
L 301.562669 155.576051 
L 302.070026 156.03405 
L 302.37444 156.103052 
L 303.490627 156.067707 
L 303.997984 156.103948 
L 304.75902 155.858296 
L 304.961963 156.150038 
L 305.11417 156.154083 
L 306.027413 156.116565 
L 306.17962 156.156742 
L 306.53477 156.077829 
L 306.737713 156.057029 
L 307.650956 156.099658 
L 307.803163 156.079017 
L 308.056842 156.139692 
L 308.259785 156.207281 
L 308.614935 156.165878 
L 309.071557 156.142671 
L 309.528178 156.454131 
L 309.62965 156.48016 
L 310.086271 156.180782 
L 310.33995 156.011052 
L 311.151722 156.487003 
L 311.506872 156.507714 
L 311.709815 156.496865 
L 313.130415 156.933491 
L 313.688508 157.104643 
L 314.043658 157.084951 
L 314.804694 157.382726 
L 315.058373 157.640286 
L 315.362787 157.883554 
L 315.667201 157.555218 
L 315.819409 157.177323 
L 315.870144 157.204228 
L 315.971616 157.246026 
L 316.174559 157.481332 
L 316.529709 157.458656 
L 316.63118 157.415206 
L 317.087802 157.232356 
L 317.138538 157.31145 
L 317.189273 157.252648 
L 317.290745 157.286776 
L 317.442952 157.304565 
L 317.747366 157.279969 
L 318.863552 157.261152 
L 319.167967 157.235789 
L 319.624588 157.156541 
L 319.827531 157.003218 
L 319.878267 157.04 
L 320.131946 156.707431 
L 320.284153 156.668521 
L 320.740774 156.645596 
L 320.943717 156.583271 
L 321.197396 156.798526 
L 321.349603 156.782566 
L 321.654017 156.780655 
L 321.806225 156.839489 
L 322.009167 156.828553 
L 322.465789 157.128456 
L 323.176089 157.007826 
L 323.379032 156.871203 
L 323.683447 156.97186 
L 324.495218 156.942009 
L 324.698161 157.072978 
L 324.850368 157.086264 
L 325.154783 156.900028 
L 325.408461 156.88057 
L 325.611404 156.820282 
L 325.865083 156.858838 
L 326.068026 156.93576 
L 326.321704 157.237441 
L 326.473912 157.220363 
L 326.829062 157.155526 
L 327.133476 156.997501 
L 327.691569 156.906962 
L 328.148191 157.170899 
L 328.249662 157.261833 
L 328.401869 157.204521 
L 328.604812 157.160593 
L 328.807755 157.207399 
L 329.670263 157.029464 
L 330.126884 156.195828 
L 330.17762 156.197888 
L 330.380563 155.944025 
L 330.634241 155.836973 
L 330.786449 155.777042 
L 331.040127 155.420096 
L 331.192334 155.495448 
L 331.547484 155.376284 
L 332.105577 155.414283 
L 332.359256 155.552909 
L 332.866613 155.532136 
L 333.069556 155.59895 
L 333.171028 155.617666 
L 333.373971 155.769462 
L 334.6931 155.746201 
L 334.845307 155.772177 
L 334.997514 155.928722 
L 335.098985 156.138175 
L 335.149721 156.018782 
L 335.200457 156.054884 
L 335.352664 156.259715 
L 335.860021 156.052714 
L 336.062964 155.720191 
L 336.418114 155.559297 
L 336.722529 155.565133 
L 336.925472 155.541974 
L 337.17915 155.538508 
L 337.280622 155.500898 
L 337.432829 155.54196 
L 338.143129 155.605606 
L 338.295336 155.686132 
L 338.599751 156.039021 
L 339.157844 156.221329 
L 339.614465 156.28865 
L 340.121823 156.563732 
L 340.426237 156.746148 
L 340.679916 156.809242 
L 340.882859 156.78403 
L 341.238009 156.230832 
L 341.288744 156.284928 
L 341.542423 155.927713 
L 341.897573 155.959529 
L 341.999045 155.909543 
L 342.557138 155.403373 
L 343.064495 155.285097 
L 343.470381 155.371357 
L 343.977738 155.467141 
L 344.180681 155.440515 
L 344.586567 155.437421 
L 344.890981 155.44878 
L 345.14466 155.573751 
L 345.296867 155.582749 
L 345.449074 155.794221 
L 345.601281 155.620752 
L 346.311582 155.505427 
L 346.413053 155.339236 
L 346.463789 155.36531 
L 346.666732 155.649146 
L 346.818939 155.54858 
L 347.174089 155.576087 
L 347.427768 155.770623 
L 347.63071 155.71127 
L 347.935125 155.680273 
L 348.087332 155.630713 
L 348.645425 155.515734 
L 348.848368 155.541683 
L 349.30499 155.490803 
L 349.609404 155.60121 
L 350.37044 155.72511 
L 350.624118 155.927811 
L 351.182211 155.638391 
L 351.385154 155.602074 
L 351.537362 155.504072 
L 351.588097 155.542847 
L 351.638833 155.449459 
L 351.841776 155.187685 
L 352.399869 155.129944 
L 352.957962 154.810062 
L 353.160905 154.700401 
L 353.921941 154.755823 
L 354.987391 154.937688 
L 355.190334 154.898612 
L 355.59622 155.027681 
L 355.697691 155.050053 
L 356.002106 155.356484 
L 356.154313 155.485409 
L 356.763142 155.65797 
L 357.01682 156.015999 
L 357.321235 156.040276 
L 358.082271 156.477415 
L 358.285213 156.535168 
L 358.589628 156.507 
L 359.198457 156.62353 
L 360.1117 157.061787 
L 360.720528 157.030363 
L 360.822 157.101694 
L 361.17715 157.488379 
L 361.329357 157.411996 
L 361.735243 157.309735 
L 361.938186 157.334632 
L 362.191865 156.965224 
L 362.344072 157.051639 
L 362.749958 157.131448 
L 362.902165 157.159969 
L 362.952901 157.09036 
L 363.003636 157.152667 
L 363.206579 157.403602 
L 363.663201 157.482288 
L 365.540423 157.557031 
L 365.997044 157.896169 
L 366.098516 157.91813 
L 366.250723 158.047 
L 366.555137 158.015081 
L 366.75808 158.024816 
L 366.808816 157.948615 
L 366.859552 158.001145 
L 367.011759 158.1646 
L 367.316173 158.068448 
L 367.519116 158.099745 
L 367.925002 158.199964 
L 367.975738 158.250273 
L 368.026473 158.163393 
L 368.127945 158.147914 
L 368.330888 158.297386 
L 368.787509 158.210717 
L 369.49781 158.171316 
L 370.055903 158.030732 
L 370.664731 158.224354 
L 371.070617 158.50995 
L 371.172089 158.472529 
L 371.27356 158.539445 
L 371.375031 158.565938 
L 371.62871 158.647126 
L 371.882389 158.69197 
L 372.034596 158.85242 
L 372.136067 158.820471 
L 372.186803 158.907937 
L 372.288275 158.67308 
L 372.33901 158.777682 
L 372.643425 158.650211 
L 373.150782 158.533474 
L 373.404461 158.336374 
L 374.317704 158.431602 
L 374.622118 158.523153 
L 375.890511 158.735661 
L 375.991983 158.657762 
L 376.042719 158.710928 
L 376.093454 158.645364 
L 376.397869 158.459864 
L 376.550076 158.571111 
L 376.905226 158.701564 
L 377.057433 158.586214 
L 377.260376 158.379432 
L 377.716998 158.131763 
L 377.970676 158.170946 
L 378.478034 157.663364 
L 378.731712 157.409737 
L 379.289805 157.319453 
L 379.442012 157.331094 
L 379.59422 157.315588 
L 380.050841 157.514691 
L 380.253784 157.507191 
L 380.710406 157.531415 
L 381.01482 157.505689 
L 381.116291 157.534796 
L 381.217763 157.374417 
L 381.268499 157.448937 
L 381.36997 157.463964 
L 381.928063 157.08135 
L 382.333949 157.114352 
L 382.536892 157.264022 
L 382.587628 157.278778 
L 382.638363 157.422097 
L 382.689099 157.392825 
L 382.739835 157.345541 
L 382.79057 157.425705 
L 383.856021 157.243152 
L 384.870735 156.910378 
L 385.581036 156.634361 
L 385.986921 156.632907 
L 386.189864 156.46197 
L 386.291336 156.306149 
L 387.153843 155.105387 
L 387.204579 155.148554 
L 387.610465 155.217096 
L 387.762672 155.035107 
L 388.067086 155.012436 
L 388.270029 155.070867 
L 389.234008 155.992469 
L 389.893572 155.968653 
L 390.04578 156.042291 
L 390.451665 156.180179 
L 390.908287 156.194947 
L 391.161966 156.356976 
L 392.125945 157.369807 
L 392.278152 157.258924 
L 392.430359 157.165398 
L 392.734773 157.386772 
L 392.937716 157.401115 
L 393.191395 157.421549 
L 394.611995 156.907816 
L 394.865674 157.073706 
L 395.575974 157.497037 
L 396.134067 157.588075 
L 396.438481 157.667205 
L 396.539953 157.553574 
L 396.793632 157.67824 
L 396.895103 157.585288 
L 396.945839 157.627302 
L 397.351725 157.608371 
L 397.40246 157.676658 
L 397.453196 157.59971 
L 397.960553 157.202143 
L 398.062025 157.027961 
L 398.112761 157.083896 
L 398.366439 157.057723 
L 399.78704 157.094585 
L 399.939247 157.092622 
L 400.14219 157.19795 
L 400.345133 157.277043 
L 400.598811 157.263728 
L 401.055433 157.241453 
L 401.56279 157.343495 
L 401.765733 157.615612 
L 402.577505 157.881157 
L 402.729712 157.644656 
L 402.780448 157.72044 
L 402.98339 157.876449 
L 403.237069 157.902865 
L 403.795162 157.87826 
L 403.896634 157.904203 
L 403.947369 157.813761 
L 403.998105 157.896341 
L 404.201048 157.870484 
L 404.454727 157.744947 
L 404.809877 157.771481 
L 405.469441 158.017764 
L 405.72312 157.905817 
L 406.179741 157.901449 
L 406.78857 158.211957 
L 407.092984 158.612651 
L 407.245192 158.715418 
L 407.397399 158.585837 
L 407.904756 158.473942 
L 408.158435 158.307463 
L 408.209171 158.424642 
L 408.259906 158.297837 
L 408.412113 158.360839 
L 408.564321 158.302697 
L 408.868735 158.329704 
L 408.970206 158.417574 
L 409.071678 158.387299 
L 409.680507 158.88704 
L 409.934185 158.919384 
L 410.543014 158.914599 
L 410.695221 159.054074 
L 411.050371 158.996568 
L 411.709936 159.115054 
L 412.01435 159.487171 
L 412.318765 159.448393 
L 412.572443 159.48064 
L 412.572443 159.48064 
" style="fill:none;stroke:#ff7f0e;stroke-linecap:square;stroke-width:1.5;"/>
   </g>
   <g id="patch_3">
    <path d="M 92.990625 254.83575 
L 92.990625 37.39575 
" style="fill:none;stroke:#000000;stroke-linecap:square;stroke-linejoin:miter;stroke-width:0.8;"/>
   </g>
   <g id="patch_4">
    <path d="M 427.790625 254.83575 
L 427.790625 37.39575 
" style="fill:none;stroke:#000000;stroke-linecap:square;stroke-linejoin:miter;stroke-width:0.8;"/>
   </g>
   <g id="patch_5">
    <path d="M 92.990625 254.83575 
L 427.790625 254.83575 
" style="fill:none;stroke:#000000;stroke-linecap:square;stroke-linejoin:miter;stroke-width:0.8;"/>
   </g>
   <g id="patch_6">
    <path d="M 92.990625 37.39575 
L 427.790625 37.39575 
" style="fill:none;stroke:#000000;stroke-linecap:square;stroke-linejoin:miter;stroke-width:0.8;"/>
   </g>
   <g id="text_12">
    <!-- $a(t)$ -->
    <g transform="translate(237.770625 30.907125)scale(0.312 -0.312)">
     <defs>
      <path d="M 46.296875 11.09375 
L 47.59375 10 
Q 42 3.203125 39.34375 1.09375 
Q 36.703125 -1 33.703125 -1 
Q 29.703125 -1 29.703125 3.09375 
Q 29.703125 5.59375 32 14.59375 
Q 26.40625 6.203125 21.703125 2.546875 
Q 17 -1.09375 11.703125 -1.09375 
Q 7.296875 -1.09375 4.5 1.953125 
Q 1.703125 5 1.703125 10.5 
Q 1.703125 18.09375 6.046875 26 
Q 10.40625 33.90625 17.09375 39 
Q 23.796875 44.09375 30.296875 44.09375 
Q 37 44.09375 38.296875 38.296875 
L 39.40625 43.09375 
L 39.703125 43.40625 
L 45.796875 44.09375 
L 46.5 43.796875 
Q 46.40625 43.40625 45.90625 41.703125 
Q 37 9.296875 37 5.40625 
Q 37 4.09375 38.40625 4.09375 
Q 39.90625 4.09375 43.59375 8.203125 
z
M 36.5 36.09375 
Q 36.5 38.703125 35 40.296875 
Q 33.5 41.90625 30.90625 41.90625 
Q 24.09375 41.90625 17.796875 32.703125 
Q 14.5 27.796875 12.296875 21.796875 
Q 10.09375 15.796875 10.09375 11.203125 
Q 10.09375 3.796875 16.09375 3.796875 
Q 22 3.796875 28.796875 13.59375 
Q 36.5 24.703125 36.5 36.09375 
z
" id="STIXGeneral-Italic-97"/>
      <path d="M 30.40625 -16.09375 
L 29.203125 -17.703125 
Q 17.59375 -11.09375 11.1875 0.5 
Q 4.796875 12.09375 4.796875 25.203125 
Q 4.796875 52.90625 29.5 67.59375 
L 30.40625 66 
Q 20.203125 57.296875 16.796875 48.84375 
Q 13.40625 40.40625 13.40625 25.5 
Q 13.40625 10.703125 16.90625 1.5 
Q 20.40625 -7.703125 30.40625 -16.09375 
z
" id="STIXGeneral-Regular-40"/>
      <path d="M 29.59375 42.796875 
L 29.09375 39.59375 
L 20.703125 39.59375 
L 12 6.796875 
Q 11.796875 6 11.796875 5.40625 
Q 11.796875 3.796875 13.296875 3.796875 
Q 14.5 3.796875 16.09375 5.34375 
Q 17.703125 6.90625 21.40625 11.703125 
L 22.703125 11 
Q 18.09375 4 15.140625 1.453125 
Q 12.203125 -1.09375 8.40625 -1.09375 
Q 3.796875 -1.09375 3.796875 2.59375 
Q 3.796875 3.59375 5.40625 10 
L 13.203125 39.59375 
L 5.703125 39.59375 
L 5.59375 40.203125 
Q 5.59375 42 8.90625 42.703125 
Q 11.40625 43.296875 15.5 46.546875 
Q 19.59375 49.796875 22.203125 53.703125 
Q 22.796875 54.59375 23.59375 54.59375 
Q 24.5 54.59375 24.5 53.796875 
Q 24.5 53.296875 24.40625 53.09375 
L 21.59375 42.796875 
z
" id="STIXGeneral-Italic-116"/>
      <path d="M 2.90625 66 
L 4.09375 67.59375 
Q 15.5 60.796875 22 49.1875 
Q 28.5 37.59375 28.5 24.703125 
Q 28.5 -2.59375 3.796875 -17.703125 
L 2.90625 -16.09375 
Q 13.203125 -7.59375 16.546875 0.84375 
Q 19.90625 9.296875 19.90625 24.40625 
Q 19.90625 39.59375 16.546875 48.75 
Q 13.203125 57.90625 2.90625 66 
z
" id="STIXGeneral-Regular-41"/>
     </defs>
     <use transform="translate(0 0.40625)" xlink:href="#STIXGeneral-Italic-97"/>
     <use transform="translate(50.099991 0.40625)" xlink:href="#STIXGeneral-Regular-40"/>
     <use transform="translate(83.399979 0.40625)" xlink:href="#STIXGeneral-Italic-116"/>
     <use transform="translate(111.199966 0.40625)" xlink:href="#STIXGeneral-Regular-41"/>
    </g>
   </g>
   <g id="legend_1">
    <g id="line2d_12">
     <path d="M 454.930625 58.451688 
L 506.930625 58.451688 
" style="fill:none;stroke:#1f77b4;stroke-linecap:square;stroke-width:1.5;"/>
    </g>
    <g id="line2d_13"/>
    <g id="text_13">
     <!-- exact -->
     <g transform="translate(527.730625 67.551688)scale(0.26 -0.26)">
      <defs>
       <path d="M 54.890625 54.6875 
L 35.109375 28.078125 
L 55.90625 0 
L 45.3125 0 
L 29.390625 21.484375 
L 13.484375 0 
L 2.875 0 
L 24.125 28.609375 
L 4.6875 54.6875 
L 15.28125 54.6875 
L 29.78125 35.203125 
L 44.28125 54.6875 
z
" id="DejaVuSans-120"/>
       <path d="M 48.78125 52.59375 
L 48.78125 44.1875 
Q 44.96875 46.296875 41.140625 47.34375 
Q 37.3125 48.390625 33.40625 48.390625 
Q 24.65625 48.390625 19.8125 42.84375 
Q 14.984375 37.3125 14.984375 27.296875 
Q 14.984375 17.28125 19.8125 11.734375 
Q 24.65625 6.203125 33.40625 6.203125 
Q 37.3125 6.203125 41.140625 7.25 
Q 44.96875 8.296875 48.78125 10.40625 
L 48.78125 2.09375 
Q 45.015625 0.34375 40.984375 -0.53125 
Q 36.96875 -1.421875 32.421875 -1.421875 
Q 20.0625 -1.421875 12.78125 6.34375 
Q 5.515625 14.109375 5.515625 27.296875 
Q 5.515625 40.671875 12.859375 48.328125 
Q 20.21875 56 33.015625 56 
Q 37.15625 56 41.109375 55.140625 
Q 45.0625 54.296875 48.78125 52.59375 
z
" id="DejaVuSans-99"/>
      </defs>
      <use xlink:href="#DejaVuSans-101"/>
      <use x="59.773438" xlink:href="#DejaVuSans-120"/>
      <use x="118.953125" xlink:href="#DejaVuSans-97"/>
      <use x="180.232422" xlink:href="#DejaVuSans-99"/>
      <use x="235.212891" xlink:href="#DejaVuSans-116"/>
     </g>
    </g>
    <g id="line2d_14">
     <path d="M 454.930625 96.614813 
L 506.930625 96.614813 
" style="fill:none;stroke:#ff7f0e;stroke-linecap:square;stroke-width:1.5;"/>
    </g>
    <g id="line2d_15"/>
    <g id="text_14">
     <!-- estimated -->
     <g transform="translate(527.730625 105.714813)scale(0.26 -0.26)">
      <use xlink:href="#DejaVuSans-101"/>
      <use x="61.523438" xlink:href="#DejaVuSans-115"/>
      <use x="113.623047" xlink:href="#DejaVuSans-116"/>
      <use x="152.832031" xlink:href="#DejaVuSans-105"/>
      <use x="180.615234" xlink:href="#DejaVuSans-109"/>
      <use x="278.027344" xlink:href="#DejaVuSans-97"/>
      <use x="339.306641" xlink:href="#DejaVuSans-116"/>
      <use x="378.515625" xlink:href="#DejaVuSans-101"/>
      <use x="440.039062" xlink:href="#DejaVuSans-100"/>
     </g>
    </g>
   </g>
  </g>
 </g>
 <defs>
  <clipPath id="pc333c9a49d">
   <rect height="217.44" width="334.8" x="92.990625" y="37.39575"/>
  </clipPath>
 </defs>
</svg>
